<svg xmlns="http://www.w3.org/2000/svg" width="44.125" height="36.813" viewBox="0 0 44.125 36.813">
  <defs>
    <style>
      .cls-1 {
        fill: #00b2b7;
        fill-rule: evenodd;
      }
    </style>
  </defs>
  <path id="speaker_1" data-name="speaker 1" class="cls-1" d="M443.19,649.609a1.024,1.024,0,0,0-1.085.1l-13.072,9.631H418.649a1.04,1.04,0,0,0-1.034,1.041v15.044a1.041,1.041,0,0,0,1.034,1.042h10.384l13.072,9.63a0.9,0.9,0,0,0,.62.208,1.5,1.5,0,0,0,.465-0.1,0.983,0.983,0,0,0,.568-0.937V650.546A1.038,1.038,0,0,0,443.19,649.609Zm13.691,6.507a0.994,0.994,0,0,0-1.446,0,1.011,1.011,0,0,0,0,1.458,14.657,14.657,0,0,1,0,20.614,1.027,1.027,0,1,0,1.446,1.458A16.678,16.678,0,0,0,456.881,656.116Zm-3.668,3.644a1,1,0,0,0-1.447,0,1.013,1.013,0,0,0,0,1.458,9.348,9.348,0,0,1,0,13.222,1.027,1.027,0,1,0,1.447,1.458A11.373,11.373,0,0,0,453.213,659.76Zm-5.115,3.7a1.013,1.013,0,0,0,0,1.458,4.2,4.2,0,0,1,0,5.882,1.027,1.027,0,1,0,1.447,1.458,6.287,6.287,0,0,0,0-8.85A1.043,1.043,0,0,0,448.1,663.456Z" transform="translate(-417.625 -649.5)"/>
</svg>
