<?xml version="1.0" encoding="utf-8"?>
<!-- Generator: Adobe Illustrator 21.1.0, SVG Export Plug-In . SVG Version: 6.00 Build 0)  -->
<svg version="1.1" id="Layer_1" xmlns="http://www.w3.org/2000/svg" xmlns:xlink="http://www.w3.org/1999/xlink" x="0px" y="0px"
	 viewBox="0 0 203 202" style="enable-background:new 0 0 203 202;" xml:space="preserve">
<style type="text/css">
	.st0{fill:#FFFFFF;stroke:#000000;stroke-width:0.2994;}
	.st1{fill-rule:evenodd;clip-rule:evenodd;}
</style>
<g>
	<g>
		<path class="st0" d="M182.3,187.5c0,6.7-5.5,12.2-12.2,12.2H30.4c-6.7,0-12.2-5.5-12.2-12.2V15c0-6.7,5.4-12.2,12.2-12.2h139.7
			c6.7,0,12.2,5.4,12.2,12.2V187.5z"/>
		<path d="M168.9,6.9H31.2c-5,0-9.1,4.1-9.1,9.1v170.5c0,5,4.1,9.1,9.1,9.1h137.7c5,0,9.1-4.1,9.1-9.1V16
			C178,11,173.9,6.9,168.9,6.9z M174.3,185.8c0,3.4-2.7,6.1-6.1,6.1H31.8c-3.4,0-6.1-2.7-6.1-6.1V16.6c0-3.4,2.7-6.1,6.1-6.1h136.4
			c3.4,0,6.1,2.7,6.1,6.1V185.8z"/>
	</g>
	<g>
		<polygon points="109.4,61.8 140.7,68.7 100.9,29.5 59.1,69.5 91.2,61.6 91.7,61.6 91.7,81.9 109.4,81.9 		"/>
	</g>
	<g>
		<path id="_x3C_0_x3E__2_" class="st1" d="M129.6,98c9.9-0.6,16.9,3.2,21.5,8.9c4.3,5.4,7.4,13.4,7.4,23c0,18.9-7.5,34.4-25.5,35.1
			c-19.4,0.7-28-13.6-28.9-31.9c-0.5-9.8,2.2-18.5,6.1-24.3C114.3,102.7,120.1,98.6,129.6,98z M119.8,115.8
			c-6,8.8-5.2,27.3,1.9,33.9c4.7,4.4,13,4.6,17.7,1c9.1-7,9.9-30.1,1.2-37.8c-2.4-2.1-6.2-3.6-10.5-3.2
			C125.1,110.1,121.9,112.8,119.8,115.8z"/>
		<path id="_x3C_5_x3E__2_" class="st1" d="M55.7,119.1c5.3-1.2,11-2.1,16.5-1.4c10.1,1.3,17.6,7.2,20.4,16.1
			c1.5,4.7,1.4,10.6-0.5,15.6c-3.3,8.4-11.2,13.6-21.7,14.8c-12,1.3-21.4-2.6-29.1-7c1.9-3.5,4.1-6.6,6.1-10
			c4.7,2.8,10.1,4.7,17.1,5.2c7.1,0.5,13.4-1.4,16.1-5.9c3.1-5.1,0.5-12.1-3.1-14.7c-4.8-3.4-14.3-2.6-20-0.8
			c-0.9,0.3-1.8,0.8-2.5,0.9c-0.8,0-2-0.4-3-0.6c-2.9-0.7-5.7-1.6-8.7-2.3c0.7-10.2,1.4-20.4,2-30.6c14.4,0,28.8,0,43.2,0
			c0,3.9-0.1,7.7-0.2,11.5c-10.7,0-21.3,0-32,0C56.1,112.9,56,116.1,55.7,119.1z"/>
	</g>
</g>
</svg>
