<?xml version="1.0" encoding="utf-8"?>
<!-- Generator: Adobe Illustrator 21.1.0, SVG Export Plug-In . SVG Version: 6.00 Build 0)  -->
<svg version="1.1" id="Layer_1" xmlns="http://www.w3.org/2000/svg" xmlns:xlink="http://www.w3.org/1999/xlink" x="0px" y="0px"
	 viewBox="0 0 203 202" style="enable-background:new 0 0 203 202;" xml:space="preserve">
<style type="text/css">
	.st0{fill:#FFFFFF;stroke:#000000;stroke-width:0.25;}
	.st1{fill:#058040;}
	.st2{fill:none;}
	.st3{fill:#FFFFFF;}
	.st4{fill:#FFF100;stroke:#000000;stroke-width:0.25;}
	.st5{fill:#231F20;}
</style>
<g>
	<path class="st0" d="M195.9,54.9c3,0,5.4,2.4,5.4,5.3V133c0,2.9-2.4,5.3-5.4,5.3H8c-3,0-5.4-2.4-5.4-5.3V60.2
		c0-2.9,2.4-5.3,5.4-5.3H195.9z"/>
	<g>
		<path class="st1" d="M193.5,57.3c3.1,0,5.5,2.5,5.5,5.5v67.5c0,3.1-2.5,5.5-5.5,5.5H10.4c-3.1,0-5.5-2.5-5.5-5.5V62.8
			c0-3.1,2.5-5.5,5.5-5.5H193.5z"/>
		<g>
			<rect x="20.7" y="68.1" class="st2" width="87.4" height="55.1"/>
			<path class="st3" d="M20.6,85.4l6.6-17.3h2.5l7.1,17.3h-2.6l-2-5.2H25l-1.9,5.2H20.6z M25.6,78.3h5.9l-1.8-4.8
				c-0.6-1.5-1-2.6-1.2-3.6c-0.2,1.1-0.5,2.2-0.9,3.3L25.6,78.3z"/>
			<path class="st3" d="M38.3,85.4V68.1h2.1v17.3H38.3z"/>
			<path class="st3" d="M45.7,85.4h-2V68.1h2.1v6.2c0.9-1.1,2-1.7,3.4-1.7c0.8,0,1.5,0.2,2.2,0.5c0.7,0.3,1.3,0.7,1.7,1.3
				c0.4,0.6,0.8,1.2,1,2c0.3,0.8,0.4,1.6,0.4,2.5c0,2.1-0.5,3.8-1.6,5c-1.1,1.2-2.3,1.8-3.8,1.8c-1.5,0-2.6-0.6-3.5-1.9V85.4z
				 M45.7,79.1c0,1.5,0.2,2.6,0.6,3.3c0.7,1.1,1.6,1.6,2.7,1.6c0.9,0,1.7-0.4,2.4-1.2c0.7-0.8,1-2,1-3.6c0-1.6-0.3-2.8-1-3.6
				c-0.6-0.8-1.4-1.2-2.4-1.2c-0.9,0-1.7,0.4-2.4,1.2C46,76.4,45.7,77.5,45.7,79.1z"/>
			<path class="st3" d="M65.7,81.4l2.2,0.3c-0.3,1.3-1,2.3-1.9,3c-0.9,0.7-2.1,1.1-3.6,1.1c-1.8,0-3.3-0.6-4.4-1.7
				c-1.1-1.1-1.6-2.7-1.6-4.7c0-2.1,0.5-3.7,1.6-4.9s2.5-1.7,4.2-1.7c1.7,0,3,0.6,4.1,1.7c1.1,1.1,1.6,2.7,1.6,4.8
				c0,0.1,0,0.3,0,0.6h-9.3c0.1,1.4,0.5,2.4,1.2,3.2c0.7,0.7,1.6,1.1,2.6,1.1c0.8,0,1.4-0.2,2-0.6C65,82.9,65.4,82.3,65.7,81.4z
				 M58.8,77.9h7c-0.1-1.1-0.4-1.8-0.8-2.4c-0.7-0.8-1.6-1.2-2.6-1.2c-1,0-1.8,0.3-2.5,1C59.2,76,58.8,76.9,58.8,77.9z"/>
			<path class="st3" d="M70.6,85.4V72.9h1.9v1.9c0.5-0.9,0.9-1.5,1.3-1.8s0.9-0.4,1.4-0.4c0.7,0,1.4,0.2,2.2,0.7l-0.7,2
				c-0.5-0.3-1-0.5-1.6-0.5c-0.5,0-0.9,0.1-1.2,0.4c-0.4,0.3-0.6,0.7-0.8,1.2c-0.2,0.8-0.4,1.6-0.4,2.5v6.6H70.6z"/>
			<path class="st3" d="M83.3,83.5l0.3,1.9c-0.6,0.1-1.1,0.2-1.6,0.2c-0.8,0-1.4-0.1-1.8-0.4c-0.4-0.2-0.7-0.6-0.9-1
				C79.1,83.9,79,83,79,81.7v-7.2h-1.6v-1.7H79v-3.1l2.1-1.3v4.4h2.1v1.7h-2.1v7.3c0,0.6,0,1,0.1,1.2s0.2,0.3,0.4,0.4
				s0.4,0.2,0.7,0.2C82.6,83.6,82.9,83.6,83.3,83.5z"/>
			<path class="st3" d="M93.5,83.9c-0.8,0.7-1.5,1.1-2.3,1.4c-0.7,0.3-1.5,0.4-2.3,0.4c-1.4,0-2.4-0.3-3.2-1
				c-0.7-0.7-1.1-1.5-1.1-2.6c0-0.6,0.1-1.2,0.4-1.7s0.6-0.9,1.1-1.2c0.5-0.3,1-0.5,1.5-0.7c0.4-0.1,1-0.2,1.9-0.3
				c1.7-0.2,3-0.4,3.8-0.7c0-0.3,0-0.5,0-0.6c0-0.9-0.2-1.5-0.6-1.8c-0.5-0.5-1.3-0.7-2.4-0.7c-1,0-1.7,0.2-2.2,0.5
				c-0.5,0.3-0.8,1-1.1,1.9L85,76.5c0.2-0.9,0.5-1.6,0.9-2.2c0.4-0.5,1.1-1,1.9-1.3c0.8-0.3,1.8-0.4,2.8-0.4c1.1,0,1.9,0.1,2.6,0.4
				c0.7,0.3,1.2,0.6,1.5,0.9c0.3,0.4,0.5,0.9,0.7,1.4c0.1,0.4,0.1,1,0.1,2v2.8c0,2,0,3.2,0.1,3.7c0.1,0.5,0.3,1,0.5,1.5h-2.2
				C93.7,85,93.6,84.5,93.5,83.9z M93.3,79.1c-0.8,0.3-1.9,0.6-3.5,0.8c-0.9,0.1-1.5,0.3-1.9,0.4c-0.4,0.2-0.6,0.4-0.8,0.7
				c-0.2,0.3-0.3,0.6-0.3,1c0,0.6,0.2,1,0.6,1.4c0.4,0.4,1.1,0.6,1.9,0.6c0.8,0,1.5-0.2,2.2-0.5c0.6-0.4,1.1-0.8,1.4-1.5
				c0.2-0.5,0.3-1.2,0.3-2.1V79.1z"/>
			<path class="st3" d="M21.8,108.8l2.2-0.2c0.1,0.9,0.3,1.6,0.7,2.1c0.4,0.6,1,1,1.7,1.3c0.8,0.3,1.7,0.5,2.7,0.5
				c0.9,0,1.6-0.1,2.3-0.4c0.7-0.3,1.2-0.6,1.5-1.1s0.5-0.9,0.5-1.5c0-0.5-0.2-1-0.5-1.4c-0.3-0.4-0.8-0.7-1.6-1
				c-0.5-0.2-1.5-0.5-3.1-0.8c-1.6-0.4-2.7-0.7-3.3-1.1c-0.8-0.4-1.4-1-1.8-1.6s-0.6-1.4-0.6-2.2c0-0.9,0.2-1.7,0.7-2.4
				c0.5-0.8,1.2-1.3,2.2-1.7c1-0.4,2-0.6,3.2-0.6c1.3,0,2.4,0.2,3.4,0.6c1,0.4,1.7,1,2.3,1.8C34.7,100,35,101,35,102l-2.2,0.2
				c-0.1-1.1-0.5-1.9-1.2-2.5c-0.7-0.6-1.7-0.8-3-0.8c-1.4,0-2.4,0.3-3,0.8s-0.9,1.1-0.9,1.8c0,0.6,0.2,1.1,0.7,1.5
				c0.4,0.4,1.6,0.8,3.4,1.2c1.9,0.4,3.1,0.8,3.8,1.1c1,0.5,1.7,1.1,2.2,1.8c0.5,0.7,0.7,1.5,0.7,2.5c0,0.9-0.3,1.8-0.8,2.6
				c-0.5,0.8-1.3,1.4-2.3,1.9c-1,0.5-2.1,0.7-3.3,0.7c-1.6,0-2.9-0.2-3.9-0.7c-1.1-0.5-1.9-1.1-2.5-2.1
				C22.1,111,21.8,110,21.8,108.8z"/>
			<path class="st3" d="M43,112.5l0.3,1.9c-0.6,0.1-1.1,0.2-1.6,0.2c-0.8,0-1.4-0.1-1.8-0.4c-0.4-0.2-0.7-0.6-0.9-1
				c-0.2-0.4-0.3-1.2-0.3-2.5v-7.2h-1.6v-1.6h1.6v-3.1l2.1-1.3v4.4H43v1.6h-2.1v7.3c0,0.6,0,1,0.1,1.2s0.2,0.3,0.4,0.4
				c0.2,0.1,0.4,0.2,0.7,0.2C42.3,112.6,42.6,112.5,43,112.5z"/>
			<path class="st3" d="M45.1,114.4v-12.5H47v1.9c0.5-0.9,0.9-1.5,1.3-1.8s0.9-0.4,1.4-0.4c0.7,0,1.4,0.2,2.2,0.7l-0.7,2
				c-0.5-0.3-1-0.5-1.6-0.5c-0.5,0-0.9,0.1-1.2,0.4c-0.4,0.3-0.6,0.7-0.8,1.2c-0.2,0.8-0.4,1.6-0.4,2.5v6.6H45.1z"/>
			<path class="st3" d="M61.7,110.3l2.2,0.3c-0.3,1.3-1,2.3-1.9,3c-0.9,0.7-2.1,1.1-3.6,1.1c-1.8,0-3.3-0.6-4.4-1.7
				c-1.1-1.1-1.6-2.7-1.6-4.7c0-2.1,0.5-3.7,1.6-4.9s2.5-1.7,4.2-1.7c1.7,0,3,0.6,4.1,1.7c1.1,1.1,1.6,2.7,1.6,4.8
				c0,0.1,0,0.3,0,0.6h-9.3c0.1,1.4,0.5,2.4,1.2,3.2c0.7,0.7,1.6,1.1,2.6,1.1c0.8,0,1.4-0.2,2-0.6C60.9,111.9,61.4,111.2,61.7,110.3
				z M54.7,106.9h7c-0.1-1.1-0.4-1.8-0.8-2.4c-0.7-0.8-1.6-1.2-2.6-1.2c-1,0-1.8,0.3-2.5,1S54.8,105.8,54.7,106.9z"/>
			<path class="st3" d="M75.1,110.3l2.2,0.3c-0.3,1.3-1,2.3-1.9,3c-0.9,0.7-2.1,1.1-3.6,1.1c-1.8,0-3.3-0.6-4.4-1.7
				c-1.1-1.1-1.6-2.7-1.6-4.7c0-2.1,0.5-3.7,1.6-4.9s2.5-1.7,4.2-1.7c1.7,0,3,0.6,4.1,1.7c1.1,1.1,1.6,2.7,1.6,4.8
				c0,0.1,0,0.3,0,0.6H68c0.1,1.4,0.5,2.4,1.2,3.2c0.7,0.7,1.6,1.1,2.6,1.1c0.8,0,1.4-0.2,2-0.6C74.4,111.9,74.8,111.2,75.1,110.3z
				 M68.1,106.9h7c-0.1-1.1-0.4-1.8-0.8-2.4c-0.7-0.8-1.6-1.2-2.6-1.2c-1,0-1.8,0.3-2.5,1S68.2,105.8,68.1,106.9z"/>
			<path class="st3" d="M84.6,112.5l0.3,1.9c-0.6,0.1-1.1,0.2-1.6,0.2c-0.8,0-1.4-0.1-1.8-0.4c-0.4-0.2-0.7-0.6-0.9-1
				c-0.2-0.4-0.3-1.2-0.3-2.5v-7.2h-1.6v-1.6h1.6v-3.1l2.1-1.3v4.4h2.1v1.6h-2.1v7.3c0,0.6,0,1,0.1,1.2s0.2,0.3,0.4,0.4
				c0.2,0.1,0.4,0.2,0.7,0.2C83.9,112.6,84.2,112.5,84.6,112.5z"/>
		</g>
		<g>
			<path class="st3" d="M161.2,93.4c2.5-4.3,8.3-10.7,15.3-12.4l-0.1-0.3l-1.5-2.5c0,0-0.4-0.6,0-1.4c0.4-0.7,1.3-0.6,1.3-0.6
				l13,3.8l-8.3,10.6c0,0-0.6,0.6-1.4,0.3c-0.7-0.4-0.8-1.1-0.8-1.1l-0.2-2.9l-0.1-0.3c-5.6,1.2-10.3,6.9-12,9.8
				c-1.5,2.6-1.5,6-1.4,10.3c0,0.8,0,6.2,0,7.1l-6,0c0-0.8,0-6.2,0-6.9C158.9,102,158.8,97.4,161.2,93.4z"/>
			<g>
				<path class="st4" d="M180.5,128.9c1.3,0,2.3-1,2.3-2.3l0-7.7c0-1.3-1-2.3-2.3-2.3h-38.5c-1.3,0-2.3,1-2.3,2.3v7.7
					c0,1.3,1,2.3,2.3,2.3L180.5,128.9z"/>
				<path d="M142.2,127.8l37.9,0c0.8,0,1.5-0.7,1.5-1.5v-7.1c0-0.8-0.7-1.5-1.5-1.5h-37.9c-0.8,0-1.5,0.7-1.5,1.5v7.1
					C140.8,127.1,141.4,127.8,142.2,127.8z M141.9,125.9l0-6.3c0-0.4,0.3-0.8,0.8-0.8l37.1,0c0.4,0,0.8,0.3,0.8,0.8v6.3
					c0,0.4-0.3,0.8-0.8,0.8l-37.1,0C142.2,126.7,141.9,126.3,141.9,125.9z"/>
				<g>
					<rect x="152.5" y="120.6" class="st2" width="16" height="5.7"/>
					<path class="st5" d="M153,125.4v-4.8h3.5v0.8h-2.6v1.1h2.4v0.8h-2.4v1.3h2.7v0.8H153z"/>
					<path class="st5" d="M156.9,125.4l1.6-2.5l-1.5-2.3h1.1l1,1.5l0.9-1.5h1.1l-1.5,2.3l1.6,2.4h-1.2l-1.1-1.6l-1.1,1.6H156.9z"/>
					<path class="st5" d="M161.8,125.4v-4.8h1v4.8H161.8z"/>
					<path class="st5" d="M164.8,125.4v-3.9h-1.4v-0.8h3.8v0.8h-1.4v3.9H164.8z"/>
				</g>
			</g>
			<g>
				<path class="st3" d="M137.4,67.2l-8-9.6l-8,9.6c0,0-0.4,0.7,0.2,1.2c0.6,0.5,1.4,0.3,1.4,0.3l3-0.6l0,61.2h6.9l0-61.2l3,0.6
					c0,0,0.8,0.2,1.4-0.3C137.8,67.9,137.4,67.2,137.4,67.2z"/>
				<path class="st3" d="M128.2,92.5c2.5-4.3,8.3-10.7,15.3-12.4l-0.1-0.3l-1.5-2.5c0,0-0.4-0.6,0-1.4c0.4-0.7,1.3-0.6,1.3-0.6
					l13,3.8l-8.3,10.6c0,0-0.6,0.6-1.4,0.3c-0.7-0.4-0.8-1.1-0.8-1.1l-0.2-2.9l-0.1-0.3c-5.6,1.2-10.3,6.9-12,9.8
					c-1.5,2.6-1.5,6-1.4,10.3c0,0.8,0,6.2,0,7.1l-6,0c0-0.8,0-6.2,0-6.9C126,101,125.9,96.5,128.2,92.5z"/>
			</g>
		</g>
	</g>
</g>
</svg>
