<?xml version="1.0" encoding="utf-8"?>
<!-- Generator: Adobe Illustrator 21.1.0, SVG Export Plug-In . SVG Version: 6.00 Build 0)  -->
<svg version="1.1" id="Layer_1" xmlns="http://www.w3.org/2000/svg" xmlns:xlink="http://www.w3.org/1999/xlink" x="0px" y="0px"
	 viewBox="0 0 203 202" style="enable-background:new 0 0 203 202;" xml:space="preserve">
<style type="text/css">
	.st0{fill:#FFFFFF;stroke:#000000;stroke-width:0.2581;}
	.st1{fill:#058040;}
	.st2{fill:#FFFFFF;}
</style>
<g>
	<g id="_x3C_HANDICAPPED_Sign_x3E__3_">
		<path class="st0" d="M195.3,175.6c0,7.4-6.2,13.4-13.9,13.4H22c-7.7,0-13.9-6-13.9-13.4V21.9c0-7.4,6.2-13.4,13.9-13.4h159.5
			c7.7,0,13.9,6,13.9,13.4V175.6z"/>
		<path class="st1" d="M180,13H22.9c-5.8,0-10.4,4.5-10.4,10v151.5c0,5.5,4.7,10,10.4,10H180c5.8,0,10.4-4.5,10.4-10V23
			C190.4,17.5,185.7,13,180,13z"/>
	</g>
	<path class="st2" d="M174.9,126.6v-11.2l-18.2-11.3V88.8h-8.9v7.7l-10.7-7v-14h-7.3V84l-18.2-13.7V48.1c-2.1-6.3-3.9-10.3-5.6-12.7
		c-2.2-4.5-7.1-9.8-14,11.6v22.3L73.7,82.9v-8.6h-7.3v14l-10.7,7v-7.7h-8.9v15.4l-18.2,11.3v11.2l63.4-20V141l-20.4,12.5l0.7,11.6
		l23.3-6.9l1.9-0.2l10.5,1.3l23.3,6.9l0.7-11.6L111.5,142v-35.4L174.9,126.6z"/>
</g>
</svg>
