<?xml version="1.0" encoding="utf-8"?>
<!-- Generator: Adobe Illustrator 21.1.0, SVG Export Plug-In . SVG Version: 6.00 Build 0)  -->
<svg version="1.1" id="Layer_1" xmlns="http://www.w3.org/2000/svg" xmlns:xlink="http://www.w3.org/1999/xlink" x="0px" y="0px"
	 viewBox="0 0 203 202" style="enable-background:new 0 0 203 202;" xml:space="preserve">
<style type="text/css">
	.st0{fill:#FEE503;stroke:#000000;stroke-width:0.25;}
</style>
<g id="_x3C_BICYCLE_CROSSING_Sign_x3E_">
	<path class="st0" d="M95.6,197.7c3,3,7.9,3,10.9,0l90.6-90.6c3-3,3-7.9,0-10.9L106.5,5.8c-3-3-7.9-3-10.9,0L5,96.3
		c-3,3-3,7.9,0,10.9L95.6,197.7z"/>
	<path d="M8.5,105.2l89,89c1.9,1.9,5,1.9,6.9,0l89-89c1.9-1.9,1.9-5,0-6.9l-89-89c-1.9-1.9-5-1.9-6.9,0l-89,89
		C6.6,100.2,6.6,103.3,8.5,105.2z M12,100l87.1-87.3c1-1,2.6-1,3.6,0L190,99.8c1,1,1,2.6,0,3.6l-87.2,87.2c-1,1-2.6,1-3.6,0
		l-87.2-87C11,102.7,11,101,12,100z"/>
	<path d="M139,81.2c-4.7,0-9,1.4-12.7,3.7l-8.8-11.4l1.3-3.5l8.4-3.9l-1.1-2l-18.5,1.3c0,0-1.5,0.2-1.7,0.9
		c-0.2,0.8,8.9,3.5,8.9,3.5l-0.8,2.6H79.3l3.5-9.5l-3.1-3l1.2-1.4l9.1-0.3v-3.1l-10.6,0.4l-4.3,4.1l3.1,4L71,84
		c-3.4-1.8-7.2-2.8-11.2-2.8c-13.3,0-24.1,10.8-24.1,24.1s10.8,24.1,24.1,24.1s24.1-10.8,24.1-24.1c0-7.8-3.8-14.8-9.5-19.2l1.3-3.7
		c0,0,23.7,26.8,25.1,28.7l0,0c-0.3,0.5-0.4,1-0.4,1.6c0,1.6,1.2,3,2.7,3.3l1.7,5.7l-1.4,0.2v1.9l5.5-0.4v-1.9l-1.8,0.1l-1.7-6
		c1-0.5,1.7-1.6,1.7-2.8l8.5-1.7c2.7,10.5,12.1,18.2,23.4,18.2c13.3,0,24.1-10.8,24.1-24.1C163.1,92.1,152.3,81.2,139,81.2z
		 M80.4,105.4c0,11.4-9.3,20.7-20.7,20.7S39,116.8,39,105.4s9.3-20.7,20.7-20.7c3.6,0,7.1,0.9,10,2.6L68,92.1
		c-1.6,4.6-5.9,8.6-8,10.5c-0.1,0-0.2-0.1-0.3-0.1c-1.6,0-2.9,1.3-2.9,2.9s1.3,2.9,2.9,2.9c1.6,0,2.9-1.3,2.9-2.9
		c0-0.1-0.1-0.3-0.1-0.4c2.9-2.2,7.4-6.4,9.1-11.3l1.5-4.1C77.6,93.4,80.4,99.1,80.4,105.4z M103.8,106.4l-0.9-4.3l1.4-0.2l-0.2-2
		l-5.5,0.4l0.2,2l1.7-0.1l1,4.6L77.2,79.1l1.2-3.3h35L103.8,106.4z M106.2,109.5l10.2-32l7.2,9.3c-5.3,4.4-8.7,11.1-8.7,18.5
		c0,0.9,0,1.7,0.1,2.6L106.2,109.5z M118.3,105.4c0-6.3,2.9-12,7.3-15.8l11,14.3c0,0.1-0.1,0.1-0.1,0.2l-18.1,3.3
		C118.3,106.7,118.3,106,118.3,105.4z M139,126.1c-9.6,0-17.7-6.5-20-15.4l17.8-3.6c0.5,0.7,1.3,1.1,2.2,1.1c1.6,0,2.8-1.3,2.8-2.8
		c0-1.2-0.7-2.2-1.8-2.6l-11.7-15.1c3.1-1.9,6.7-3,10.6-3c11.4,0,20.7,9.3,20.7,20.7C159.7,116.8,150.4,126.1,139,126.1z"/>
</g>
</svg>
