<?xml version="1.0" encoding="utf-8"?>
<!-- Generator: Adobe Illustrator 21.1.0, SVG Export Plug-In . SVG Version: 6.00 Build 0)  -->
<svg version="1.1" id="Layer_1" xmlns="http://www.w3.org/2000/svg" xmlns:xlink="http://www.w3.org/1999/xlink" x="0px" y="0px"
	 viewBox="0 0 203 202" style="enable-background:new 0 0 203 202;" xml:space="preserve">
<style type="text/css">
	.st0{fill:#FFFFFF;}
	.st1{fill:none;stroke:#221F1F;stroke-width:0.5;}
	.st2{fill:#058040;}
</style>
<path class="st0" d="M198,180.5c0,8.9-7.2,16.1-16.1,16.1H21.1c-8.9,0-16.1-7.2-16.1-16.1V19.6c0-8.9,7.2-16.1,16.1-16.1h160.8
	c8.9,0,16.1,7.2,16.1,16.1V180.5z"/>
<path class="st1" d="M198,180.5c0,8.9-7.2,16.1-16.1,16.1H21.1c-8.9,0-16.1-7.2-16.1-16.1V19.6c0-8.9,7.2-16.1,16.1-16.1h160.8
	c8.9,0,16.1,7.2,16.1,16.1V180.5z"/>
<path class="st2" d="M10.5,180.1V19.3c0-5.9,4.8-10.7,10.7-10.7H182c5.9,0,10.7,4.8,10.7,10.7v160.8c0,5.9-4.8,10.7-10.7,10.7H21.2
	C15.3,190.8,10.5,186,10.5,180.1"/>
<path class="st0" d="M20.9,128.6c1.5,0.7,3.6,0.6,5-0.3l5.4-3.5c1.5-1,4-1,5.6,0l5.7,3.8c1.5,1,4,0.4,5.5-0.7l4.4-3c1.5-1,4-1,5.5,0
	l4.1,2.8c1.5,1,4,1.7,5.6,0.7l5.4-3.5c1.5-1,4-1,5.6,0l5.7,3.8c1.5,1,4.1,0.4,5.6-0.5l5.3-3.3c1.6-1,4.1-0.9,5.6,0.1l4.1,2.8
	c1.5,1,4,1.7,5.6,0.7l5.4-3.5c1.5-1,4-1,5.6,0l4.2,2.7c2.8,1.8,5.6-0.1,7.3-0.8l4.4-2.1c1.7-0.8,4.3-0.6,5.8,0.4l4.1,2.8
	c1.5,1,4,1.6,5.5,0.5l5.4-3.5c1.5-1,4-1,5.6,0l7.5,3.4L189.6,97l-24.8,0l-6.9-21.6l-11.9-0.1l-6.4-16.5h-9.8l1.7,18l-7.3-0.1
	l-6.2,25.7H17.6L20.9,128.6z"/>
<g>
	<path class="st0" d="M163.7,130.4c-1.5-1-4-1-5.6,0l-5.4,3.5c-1.5,1-4,0.5-5.5-0.5l-4.1-2.8c-1.5-1-4.1-1.2-5.8-0.4l-4.4,2.1
		c-1.7,0.8-4.5,2.7-7.3,0.9l-4.2-2.7c-1.5-1-4-1-5.6,0l-5.4,3.5c-1.5,1-4,0.4-5.6-0.7l-4.1-2.8c-1.5-1-4-1.1-5.6-0.1l-5.3,3.3
		c-1.6,1-4.1,1.6-5.6,0.5l-5.7-3.8c-1.5-1-4-1-5.6,0l-5.4,3.5c-1.5,1-4,0.4-5.6-0.7l-4.1-2.8c-1.5-1-4-1-5.5,0l-4.4,3
		c-1.5,1-4,1.7-5.5,0.7l-5.7-3.8c-1.5-1-4-1-5.6,0l-5.4,3.5c-1.2,0.8-3,0.9-4.4,0.5l0.9,7.8c1.3,0.2,2.6,0,3.6-0.6l5.2-3
		c1.6-0.9,4.2-1,5.8-0.1l5.4,3c1.6,0.9,4.2,0.2,5.8-0.8l4.2-2.6c1.6-1,4.1-0.9,5.6,0.1l4,2.6c1.5,1,4.1,1.7,5.7,0.8l5.2-3
		c1.6-0.9,4.2-1,5.8-0.1l5.4,3c1.6,0.9,4.2,0.3,5.8-0.6l5.1-2.8c1.6-0.9,4.2-0.8,5.7,0.2l4,2.6c1.5,1,4.1,1.7,5.7,0.8l5.2-3
		c1.6-0.9,4.2-1,5.8-0.1l4.3,2.3c2.5,1.7,5.4-0.6,7.1-1.3l4.2-1.7c1.7-0.7,4.4-0.4,5.9,0.6l4,2.3c1.5,1,4.1,1.6,5.7,0.6l5.2-2.7
		c1.6-0.9,4.2-1,5.8-0.1l1.7,0.6l3.7-6.2L163.7,130.4z"/>
</g>
<g>
	<path class="st0" d="M108.7,83.3c-0.3-0.8-1.2-1.1-2.2-1.4c0,0-14.5-0.8-17.2-0.8l-9.2-9.1c-2-0.9-28-2-30.2,1.7l-7.4,8.1l-13,0.9
		c-1.7,0.2-2.9,12.1-2.9,12.1l15,0v0c0,3.3,2.7,6,6,6c3.3,0,6-2.7,6-6v0l32.5,0c0,0,0,0,0,0c0,3.3,2.7,6,6,6c3.3,0,6-2.7,6-6
		c0,0,0,0,0,0h11.8C109.8,94.6,109.4,84.5,108.7,83.3z M48.1,80.9l4.8-5.9l12.4-0.6l-1.7,6.5H48.1z M64.6,80.9l1.7-6.5l12.9,0L85,81
		L64.6,80.9z"/>
	<polygon class="st0" points="109.8,94.6 109.8,94.6 109.8,94.6 	"/>
</g>
</svg>
