<?xml version="1.0" encoding="utf-8"?>
<!-- Generator: Adobe Illustrator 21.1.0, SVG Export Plug-In . SVG Version: 6.00 Build 0)  -->
<svg version="1.1" id="Layer_1" xmlns="http://www.w3.org/2000/svg" xmlns:xlink="http://www.w3.org/1999/xlink" x="0px" y="0px"
	 viewBox="0 0 608 613.3" style="enable-background:new 0 0 608 613.3;" xml:space="preserve">
<style type="text/css">
	.st0{fill:#FFFFFF;stroke:#000000;stroke-width:0.25;}
	.st1{fill:#058040;}
	.st2{fill:#FFFFFF;}
</style>
<path class="st0" d="M579,183.4c8.8,0,16,6.9,16,15.5v214.6c0,8.6-7.2,15.5-16,15.5H25.2c-8.8,0-16-7-16-15.5V198.9
	c0-8.6,7.2-15.5,16-15.5H579z"/>
<path class="st1" d="M571.4,190.6c9,0,16.3,7.3,16.3,16.3l0,198.6c0,9-7.3,16.3-16.3,16.3H32.8c-9,0-16.3-7.3-16.3-16.3V206.9
	c0-9,7.3-16.3,16.3-16.3H571.4z"/>
<g>
	<g>
		<path class="st2" d="M85.9,221.7h22c4.3,0,7.6,0.2,9.7,0.5c2.1,0.3,4,1.1,5.7,2.1c1.7,1.1,3.1,2.5,4.2,4.3
			c1.1,1.8,1.7,3.8,1.7,6.1c0,2.4-0.7,4.7-2.1,6.7c-1.4,2-3.3,3.5-5.6,4.6c3.3,0.9,5.9,2.5,7.7,4.7s2.7,4.8,2.7,7.8
			c0,2.4-0.6,4.6-1.7,6.9c-1.2,2.2-2.7,4-4.8,5.3c-2,1.3-4.5,2.2-7.4,2.5c-1.8,0.2-6.3,0.3-13.4,0.4H85.9V221.7z M97,230.4v12h7.3
			c4.3,0,7-0.1,8.1-0.2c1.9-0.2,3.4-0.8,4.5-1.9c1.1-1,1.6-2.4,1.6-4c0-1.6-0.5-2.9-1.4-3.9c-0.9-1-2.3-1.6-4.2-1.8
			c-1.1-0.1-4.3-0.2-9.5-0.2H97z M97,251v13.9h10.3c4,0,6.5-0.1,7.6-0.3c1.6-0.3,3-1,4-2.1c1-1.1,1.6-2.6,1.6-4.4
			c0-1.6-0.4-2.9-1.2-4c-0.8-1.1-2-1.9-3.5-2.4c-1.5-0.5-4.8-0.7-9.8-0.7H97z"/>
		<path class="st2" d="M143.5,254.3c0-3.3,0.9-6.5,2.6-9.6c1.7-3.1,4.2-5.4,7.3-7.1c3.2-1.6,6.7-2.4,10.6-2.4c6,0,11,1.8,14.8,5.5
			c3.8,3.7,5.8,8.4,5.8,14c0,5.7-1.9,10.4-5.8,14.1c-3.9,3.7-8.8,5.6-14.7,5.6c-3.6,0-7.1-0.8-10.4-2.3c-3.3-1.6-5.8-3.8-7.6-6.8
			S143.5,258.6,143.5,254.3z M154.3,254.8c0,3.7,0.9,6.6,2.8,8.6c1.9,2,4.2,3,6.9,3c2.7,0,5.1-1,6.9-3c1.9-2,2.8-4.9,2.8-8.6
			c0-3.7-0.9-6.5-2.8-8.5c-1.9-2-4.2-3-6.9-3c-2.7,0-5.1,1-6.9,3C155.2,248.2,154.3,251.1,154.3,254.8z"/>
		<path class="st2" d="M204.9,273.6L192.3,236h10.2l7.5,24.6l6.9-24.6H227l6.6,24.6l7.6-24.6h10.4l-12.8,37.6h-10.1l-6.9-24.2
			l-6.7,24.2H204.9z"/>
		<path class="st2" d="M284.9,261.6l10.5,1.7c-1.3,3.6-3.5,6.4-6.4,8.3c-2.9,1.9-6.6,2.8-10.9,2.8c-6.9,0-12-2.1-15.4-6.4
			c-2.6-3.4-3.9-7.7-3.9-12.9c0-6.2,1.7-11.1,5.2-14.6c3.4-3.5,7.8-5.3,13.1-5.3c5.9,0,10.6,1.8,14,5.5c3.4,3.7,5.1,9.3,4.9,17
			h-26.4c0.1,2.9,0.9,5.2,2.5,6.9c1.6,1.6,3.6,2.5,6.1,2.5c1.6,0,3-0.4,4.2-1.3S284.4,263.5,284.9,261.6z M285.5,251.6
			c-0.1-2.9-0.9-5.1-2.4-6.6c-1.5-1.5-3.3-2.2-5.5-2.2c-2.3,0-4.2,0.8-5.7,2.4c-1.5,1.6-2.2,3.7-2.2,6.4H285.5z"/>
		<path class="st2" d="M305.6,262.9l10.6-1.5c0.4,1.9,1.4,3.4,2.7,4.4c1.4,1,3.3,1.5,5.8,1.5c2.7,0,4.8-0.5,6.1-1.4
			c0.9-0.7,1.4-1.5,1.4-2.7c0-0.8-0.3-1.4-0.8-1.9c-0.5-0.5-1.7-0.9-3.5-1.3c-8.5-1.8-13.9-3.4-16.2-4.8c-3.1-2-4.7-4.8-4.7-8.5
			c0-3.3,1.4-6,4.1-8.2s6.9-3.3,12.7-3.3c5.4,0,9.5,0.8,12.1,2.5c2.6,1.7,4.5,4.1,5.5,7.4l-9.9,1.7c-0.4-1.5-1.2-2.6-2.4-3.4
			c-1.2-0.8-2.9-1.2-5.1-1.2c-2.8,0-4.8,0.4-6,1.1c-0.8,0.5-1.2,1.2-1.2,2c0,0.7,0.4,1.3,1,1.8c0.9,0.7,4.2,1.6,9.8,2.8
			c5.6,1.2,9.5,2.7,11.8,4.4c2.2,1.8,3.3,4.2,3.3,7.4c0,3.4-1.5,6.4-4.6,8.9c-3,2.5-7.6,3.7-13.5,3.7c-5.4,0-9.7-1-12.9-3.1
			C308.6,269.2,306.5,266.4,305.6,262.9z"/>
		<path class="st2" d="M367.6,273.6l-16-37.6h11.1l7.5,19.2l2.2,6.4c0.6-1.6,0.9-2.7,1.1-3.2c0.4-1.1,0.7-2.1,1.1-3.2l7.6-19.2h10.8
			l-15.8,37.6H367.6z"/>
		<path class="st2" d="M404,230.9v-9.2h10.5v9.2H404z M404,273.6V236h10.5v37.6H404z"/>
		<path class="st2" d="M430,273.6v-51.8h10.5v51.8H430z"/>
		<path class="st2" d="M456,273.6v-51.8h10.5v51.8H456z"/>
		<path class="st2" d="M505.1,261.6l10.5,1.7c-1.3,3.6-3.5,6.4-6.4,8.3c-2.9,1.9-6.6,2.8-10.9,2.8c-6.9,0-12-2.1-15.4-6.4
			c-2.6-3.4-3.9-7.7-3.9-12.9c0-6.2,1.7-11.1,5.2-14.6c3.4-3.5,7.8-5.3,13.1-5.3c5.9,0,10.6,1.8,14,5.5c3.4,3.7,5.1,9.3,4.9,17
			h-26.4c0.1,2.9,0.9,5.2,2.5,6.9c1.6,1.6,3.6,2.5,6.1,2.5c1.6,0,3-0.4,4.2-1.3C503.7,264.9,504.5,263.5,505.1,261.6z M505.7,251.6
			c-0.1-2.9-0.9-5.1-2.4-6.6c-1.5-1.5-3.3-2.2-5.5-2.2c-2.3,0-4.2,0.8-5.7,2.4c-1.5,1.6-2.2,3.7-2.2,6.4H505.7z"/>
	</g>
	<g>
		<path class="st2" d="M236.4,336.6v-33.8h15.9c3.2,0,5.6,0.3,7.3,0.9c1.7,0.6,3,1.7,4,3.2c1,1.5,1.5,3.2,1.5,5.1
			c0,2.4-0.8,4.4-2.5,6.1c-1.6,1.6-4.2,2.7-7.6,3.1c1.3,0.6,2.2,1.1,2.9,1.7c1.4,1.2,2.7,2.7,3.9,4.5l6.2,9.2h-6l-4.7-7
			c-1.4-2-2.5-3.6-3.4-4.7s-1.7-1.8-2.4-2.3c-0.7-0.4-1.4-0.7-2.2-0.9c-0.5-0.1-1.4-0.2-2.6-0.2h-5.5v15H236.4z M241.2,317.7h10.2
			c2.2,0,3.9-0.2,5.1-0.6s2.2-1.1,2.8-2c0.6-0.9,1-1.9,1-3c0-1.6-0.6-2.9-1.8-3.9c-1.2-1-3.2-1.5-5.8-1.5h-11.3V317.7z"/>
		<path class="st2" d="M271.3,324.3c0-4.5,1.3-7.9,4-10.1c2.2-1.8,5-2.7,8.2-2.7c3.6,0,6.5,1.1,8.8,3.3c2.3,2.2,3.4,5.3,3.4,9.1
			c0,3.2-0.5,5.6-1.5,7.4c-1,1.8-2.5,3.2-4.4,4.2c-1.9,1-4,1.5-6.3,1.5c-3.6,0-6.6-1.1-8.8-3.3C272.4,331.6,271.3,328.5,271.3,324.3
			z M275.8,324.3c0,3.1,0.7,5.5,2.2,7s3.3,2.3,5.5,2.3c2.2,0,4-0.8,5.5-2.4c1.5-1.6,2.2-4,2.2-7.2c0-3-0.7-5.3-2.2-6.9
			c-1.5-1.6-3.3-2.3-5.4-2.3c-2.2,0-4,0.8-5.5,2.3C276.6,318.8,275.8,321.2,275.8,324.3z"/>
		<path class="st2" d="M318.7,333.5c-1.6,1.3-3.2,2.2-4.7,2.8s-3.1,0.8-4.9,0.8c-2.9,0-5-0.7-6.6-2c-1.5-1.3-2.3-3-2.3-5
			c0-1.2,0.3-2.3,0.9-3.3c0.6-1,1.3-1.8,2.3-2.4s2-1.1,3.2-1.4c0.9-0.2,2.2-0.4,3.9-0.6c3.6-0.4,6.2-0.9,7.8-1.4c0-0.6,0-0.9,0-1.1
			c0-1.7-0.4-2.9-1.2-3.6c-1.1-0.9-2.8-1.4-5-1.4c-2.1,0-3.6,0.3-4.6,1c-1,0.7-1.7,1.9-2.2,3.6l-4.3-0.6c0.4-1.7,1-3.1,1.9-4.2
			s2.2-1.9,3.9-2.5c1.7-0.6,3.7-0.9,5.9-0.9c2.2,0,4,0.2,5.4,0.7c1.4,0.5,2.4,1.1,3.1,1.9c0.7,0.7,1.1,1.7,1.4,2.8
			c0.1,0.7,0.2,2,0.2,3.8v5.5c0,3.9,0.1,6.3,0.3,7.3s0.6,2,1.1,2.9h-4.6C319.2,335.7,318.9,334.7,318.7,333.5z M318.4,324.3
			c-1.6,0.6-4,1.1-7.2,1.6c-1.8,0.2-3.1,0.5-3.8,0.8c-0.8,0.3-1.3,0.8-1.7,1.3c-0.4,0.6-0.6,1.3-0.6,2c0,1.1,0.4,2,1.3,2.8
			c0.9,0.7,2.2,1.1,3.9,1.1c1.7,0,3.2-0.3,4.5-1c1.3-0.7,2.3-1.7,2.9-2.9c0.5-0.9,0.7-2.3,0.7-4.2V324.3z"/>
		<path class="st2" d="M347.5,336.6v-3.1c-1.6,2.4-4.1,3.6-7.3,3.6c-2.1,0-4-0.5-5.7-1.6c-1.7-1.1-3.1-2.6-4-4.5
			c-1-1.9-1.4-4.1-1.4-6.7c0-2.4,0.4-4.7,1.3-6.7c0.9-2,2.2-3.5,3.9-4.6c1.7-1.1,3.7-1.6,5.8-1.6c1.6,0,3,0.3,4.2,0.9
			c1.2,0.6,2.2,1.4,3,2.4v-12.1h4.4v33.8H347.5z M333.6,324.3c0,3.1,0.7,5.5,2.1,7c1.4,1.6,3.1,2.3,5,2.3c1.9,0,3.6-0.7,4.9-2.2
			s2-3.7,2-6.8c0-3.4-0.7-5.8-2.1-7.4c-1.4-1.6-3.1-2.4-5.1-2.4c-2,0-3.6,0.8-4.9,2.3C334.2,318.7,333.6,321.1,333.6,324.3z"/>
	</g>
</g>
<g>
	<g>
		<path class="st2" d="M44.1,405.8h-3.2v-19.4c-0.8,0.7-1.8,1.4-3.1,2.1c-1.3,0.7-2.4,1.2-3.4,1.6v-2.9c1.8-0.8,3.4-1.8,4.7-2.9
			s2.3-2.2,2.9-3.3h2.1V405.8z"/>
		<path class="st2" d="M70.1,402.9v2.9H52.7c0-0.7,0.1-1.4,0.4-2.1c0.4-1.1,1.2-2.2,2.1-3.3c1-1.1,2.4-2.3,4.2-3.8
			c2.9-2.2,4.8-4,5.8-5.3s1.5-2.5,1.5-3.7c0-1.2-0.5-2.2-1.4-3.1c-0.9-0.8-2.1-1.2-3.6-1.2c-1.6,0-2.8,0.4-3.7,1.3
			c-0.9,0.9-1.4,2.1-1.4,3.7l-3.3-0.3c0.2-2.3,1.1-4.1,2.6-5.3c1.5-1.2,3.5-1.8,6-1.8c2.5,0,4.5,0.7,6,2c1.5,1.3,2.2,3,2.2,4.9
			c0,1-0.2,2-0.6,2.9c-0.4,1-1.1,2-2.1,3s-2.7,2.5-5,4.4c-1.9,1.5-3.2,2.6-3.7,3.1c-0.5,0.5-1,1.1-1.4,1.6H70.1z"/>
		<path class="st2" d="M74.3,399.3l3.2-0.4c0.4,1.7,1,3,1.9,3.7c0.9,0.8,2,1.1,3.3,1.1c1.5,0,2.8-0.5,3.8-1.5c1-1,1.6-2.2,1.6-3.7
			c0-1.4-0.5-2.6-1.5-3.5c-1-0.9-2.2-1.4-3.7-1.4c-0.6,0-1.4,0.1-2.3,0.3l0.4-2.7c0.2,0,0.4,0,0.5,0c1.4,0,2.6-0.3,3.7-1
			c1.1-0.7,1.6-1.7,1.6-3.1c0-1.1-0.4-2-1.2-2.8c-0.8-0.7-1.8-1.1-3.1-1.1c-1.3,0-2.3,0.4-3.1,1.1s-1.4,1.9-1.6,3.3l-3.2-0.5
			c0.4-2,1.3-3.6,2.7-4.7c1.4-1.1,3.1-1.7,5.2-1.7c1.4,0,2.8,0.3,4,0.9c1.2,0.6,2.1,1.4,2.8,2.4c0.6,1,1,2.1,1,3.2
			c0,1.1-0.3,2-0.9,2.9c-0.6,0.9-1.5,1.6-2.7,2.1c1.6,0.3,2.8,1,3.6,2.1s1.3,2.4,1.3,4c0,2.2-0.8,4-2.5,5.5
			c-1.7,1.5-3.8,2.3-6.3,2.3c-2.3,0-4.2-0.6-5.7-1.9C75.4,403,74.5,401.4,74.3,399.3z"/>
		<path class="st2" d="M105.8,405.8v-5.9H94.4v-2.8l12-16.1h2.6v16.1h3.5v2.8H109v5.9H105.8z M105.8,397.1v-11.2l-8.2,11.2H105.8z"
			/>
	</g>
	<g>
		<path class="st2" d="M502.8,405.8h-3.2v-19.4c-0.8,0.7-1.8,1.4-3.1,2.1c-1.3,0.7-2.4,1.2-3.4,1.6v-2.9c1.8-0.8,3.4-1.8,4.7-2.9
			s2.3-2.2,2.9-3.3h2.1V405.8z"/>
		<path class="st2" d="M528.8,402.9v2.9h-17.4c0-0.7,0.1-1.4,0.4-2.1c0.4-1.1,1.1-2.2,2.1-3.3c1-1.1,2.4-2.3,4.2-3.8
			c2.9-2.2,4.8-4,5.8-5.3s1.5-2.5,1.5-3.7c0-1.2-0.5-2.2-1.4-3.1c-0.9-0.8-2.1-1.2-3.6-1.2c-1.6,0-2.8,0.4-3.7,1.3
			c-0.9,0.9-1.4,2.1-1.4,3.7l-3.3-0.3c0.2-2.3,1.1-4.1,2.6-5.3c1.5-1.2,3.5-1.8,6-1.8c2.5,0,4.5,0.7,6,2c1.5,1.3,2.2,3,2.2,4.9
			c0,1-0.2,2-0.6,2.9c-0.4,1-1.1,2-2.1,3s-2.7,2.5-5,4.4c-1.9,1.5-3.2,2.6-3.7,3.1c-0.5,0.5-1,1.1-1.4,1.6H528.8z"/>
		<path class="st2" d="M543.3,405.8v-5.9h-11.4v-2.8l12-16.1h2.6v16.1h3.5v2.8h-3.5v5.9H543.3z M543.3,397.1v-11.2l-8.2,11.2H543.3z
			"/>
		<path class="st2" d="M554.1,393.6c0-2.9,0.3-5.3,1-7.1c0.6-1.8,1.6-3.2,2.9-4.1s2.8-1.5,4.8-1.5c1.4,0,2.6,0.3,3.7,0.8
			c1.1,0.5,1.9,1.3,2.6,2.3c0.7,1,1.2,2.2,1.6,3.7c0.4,1.4,0.6,3.4,0.6,5.9c0,2.9-0.3,5.3-1,7s-1.6,3.2-2.8,4.1s-2.9,1.5-4.8,1.5
			c-2.5,0-4.5-0.9-6-2.6C555,401.6,554.1,398.3,554.1,393.6z M557.4,393.6c0,4.1,0.5,6.8,1.5,8.1c1,1.3,2.3,2,3.7,2
			c1.5,0,2.7-0.7,3.7-2c1-1.4,1.5-4.1,1.5-8.1c0-4.1-0.5-6.8-1.5-8.1c-1-1.3-2.3-2-3.8-2c-1.5,0-2.7,0.6-3.5,1.8
			C558,386.7,557.4,389.5,557.4,393.6z"/>
	</g>
</g>
</svg>
