<?xml version="1.0" encoding="utf-8"?>
<!-- Generator: Adobe Illustrator 21.1.0, SVG Export Plug-In . SVG Version: 6.00 Build 0)  -->
<svg version="1.1" id="Layer_1" xmlns="http://www.w3.org/2000/svg" xmlns:xlink="http://www.w3.org/1999/xlink" x="0px" y="0px"
	 viewBox="0 0 203 202" style="enable-background:new 0 0 203 202;" xml:space="preserve">
<style type="text/css">
	.st0{fill:#FEE503;stroke:#000000;stroke-width:0.25;}
	.st1{fill:#231F20;}
	.st2{fill:none;stroke:#231F20;stroke-width:3;}
	.st3{fill:none;stroke:#231F20;stroke-width:4;}
</style>
<g>
	<path class="st0" d="M96.3,196.7c3,3,7.8,3,10.7,0l89.3-89.3c3-3,3-7.8,0-10.7L107,7.4c-3-3-7.8-3-10.7,0L7,96.7c-3,3-3,7.8,0,10.7
		L96.3,196.7z"/>
	<path d="M10.5,105.5l87.8,87.8c1.9,1.9,4.9,1.9,6.8,0l87.8-87.8c1.9-1.9,1.9-4.9,0-6.8L105,10.9c-1.9-1.9-4.9-1.9-6.8,0L10.5,98.7
		C8.6,100.6,8.6,103.6,10.5,105.5z M13.9,100.4l85.9-86.1c1-1,2.6-1,3.6,0l86.1,85.9c1,1,1,2.6,0,3.6l-86,86c-1,1-2.6,1-3.6,0
		l-86-85.7C12.9,103,12.9,101.4,13.9,100.4z"/>
	<polygon class="st1" points="79.2,128.5 68,128.5 68,106.9 34,106.9 34,99.8 79.2,99.8 	"/>
	<polygon class="st1" points="121.5,128.5 133.9,128.5 133.9,106.9 166.8,106.9 166.8,99.8 121.5,99.8 	"/>
	<g>
		<polygon class="st2" points="109.2,68.3 79,98.6 70.7,84.8 95.4,60 		"/>
		<polygon class="st2" points="99.9,74.9 86.2,70.3 95.3,61.2 		"/>
		<polygon class="st2" points="85.6,89.2 71.8,84.6 80.9,75.5 		"/>
	</g>
	<g>
		<path class="st3" d="M56.6,139.1c3,0,3,4,6,4s3-4,6-4s3,4,6,4s3-4,6-4s3,4,6,4s3-4,6-4s3,4,6,4s3-4,6-4s3,4,6,4s3-4,6-4s3,4,6,4
			s3-4,6-4c3,0,3,4,6,4s3-4,6-4"/>
	</g>
</g>
</svg>
