<?xml version="1.0" encoding="utf-8"?>
<!-- Generator: Adobe Illustrator 21.1.0, SVG Export Plug-In . SVG Version: 6.00 Build 0)  -->
<svg version="1.1" id="Layer_1" xmlns="http://www.w3.org/2000/svg" xmlns:xlink="http://www.w3.org/1999/xlink" x="0px" y="0px"
	 viewBox="0 0 203 202" style="enable-background:new 0 0 203 202;" xml:space="preserve">
<style type="text/css">
	.st0{fill:#FDE500;stroke:#000000;stroke-width:0.25;}
</style>
<g>
	<g>
		<path class="st0" d="M96.1,198c3,3,8,3,11,0l91.7-91.7c3-3,3-8,0-11L107.1,3.5c-3-3-8-3-11,0L4.4,95.2c-3,3-3,8,0,11L96.1,198z"/>
		<path d="M8,104.2l90.2,90.2c1.9,1.9,5,1.9,7,0l90.2-90.2c1.9-1.9,1.9-5,0-7L105.1,7.1c-1.9-1.9-5-1.9-7,0L8,97.3
			C6,99.2,6,102.3,8,104.2z M11.5,99l88.2-88.4c1-1,2.7-1,3.7,0l88.4,88.2c1,1,1,2.7,0,3.7l-88.3,88.3c-1,1-2.7,1-3.7,0l-88.3-88.1
			C10.5,101.7,10.5,100,11.5,99z"/>
	</g>
	<g>
		<polygon points="113.8,67.2 130.5,66.6 103.2,24 74.5,67.1 91.9,67.1 92.2,67.1 92.2,81.1 113.8,81.1 		"/>
	</g>
	<g>
		<path d="M40.5,106v20.2h32.3V106C72.8,106,56.6,86.9,40.5,106z"/>
		<path d="M69.2,106v20.2h32.3V106C101.5,106,85.4,86.9,69.2,106z"/>
		<path d="M100,106v20.2h32.3V106C132.3,106,116.1,86.9,100,106z"/>
		<path d="M132.3,106v20.2h32.3V106C164.6,106,148.4,86.9,132.3,106z"/>
	</g>
</g>
</svg>
