<?xml version="1.0" encoding="utf-8"?>
<!-- Generator: Adobe Illustrator 21.1.0, SVG Export Plug-In . SVG Version: 6.00 Build 0)  -->
<svg version="1.1" id="Layer_1" xmlns="http://www.w3.org/2000/svg" xmlns:xlink="http://www.w3.org/1999/xlink" x="0px" y="0px"
	 viewBox="0 0 203 202" style="enable-background:new 0 0 203 202;" xml:space="preserve">
<style type="text/css">
	.st0{fill:#FEE503;stroke:#000000;stroke-width:0.25;}
	.st1{fill:#FEE503;stroke:#000000;stroke-width:0.75;}
</style>
<g>
	<g>
		<path class="st0" d="M96.3,197.9c3,3,7.9,3,11,0l91.5-91.5c3-3,3-8,0-11L107.2,3.9c-3-3-7.9-3-11,0L4.7,95.4c-3,3-3,7.9,0,11
			L96.3,197.9z"/>
		<rect x="82.3" y="13.2" transform="matrix(0.7071 -0.7071 0.7071 0.7071 11.4152 70.0993)" width="16.1" height="16.1"/>
		<rect x="105.1" y="36" transform="matrix(0.7071 -0.7071 0.7071 0.7071 2.0014 92.8991)" width="16.1" height="16.1"/>
		<rect x="127.8" y="58.8" transform="matrix(0.7071 -0.7071 0.7071 0.7071 -7.4884 115.6695)" width="16.1" height="16.1"/>
		<rect x="150.6" y="81.5" transform="matrix(0.7071 -0.7071 0.7071 0.7071 -16.8729 138.3986)" width="16.1" height="16.1"/>
		<rect x="173.4" y="104.3" transform="matrix(0.7071 -0.7071 0.7071 0.7071 -26.2867 161.1984)" width="16.1" height="16.1"/>
		<rect x="105.1" y="13.2" transform="matrix(0.7071 -0.7071 0.7071 0.7071 18.1093 86.2065)" width="16.1" height="16.1"/>
		<rect x="127.8" y="36" transform="matrix(0.7071 -0.7071 0.7071 0.7071 8.6248 108.9769)" width="16.1" height="16.1"/>
		<rect x="150.6" y="58.8" transform="matrix(0.7071 -0.7071 0.7071 0.7071 -0.7943 131.7767)" width="16.1" height="16.1"/>
		<rect x="173.4" y="81.5" transform="matrix(0.7071 -0.7071 0.7071 0.7071 -10.1788 154.5058)" width="16.1" height="16.1"/>
		<rect x="59.5" y="36" transform="matrix(0.7071 -0.7071 0.7071 0.7071 -11.3846 60.6842)" width="16.1" height="16.1"/>
		<rect x="82.3" y="58.8" transform="matrix(0.7071 -0.7071 0.7071 0.7071 -20.7984 83.4839)" width="16.1" height="16.1"/>
		<rect x="105.1" y="81.5" transform="matrix(0.7071 -0.7071 0.7071 0.7071 -30.1882 106.213)" width="16.1" height="16.1"/>
		<rect x="127.8" y="104.3" transform="matrix(0.7071 -0.7071 0.7071 0.7071 -39.6727 128.9835)" width="16.1" height="16.1"/>
		<rect x="150.6" y="127.1" transform="matrix(0.7071 -0.7071 0.7071 0.7071 -49.0865 151.7833)" width="16.1" height="16.1"/>
		<rect x="82.3" y="36" transform="matrix(0.7071 -0.7071 0.7071 0.7071 -4.6905 76.7914)" width="16.1" height="16.1"/>
		<rect x="105.1" y="58.8" transform="matrix(0.7071 -0.7071 0.7071 0.7071 -14.1043 99.5911)" width="16.1" height="16.1"/>
		<rect x="127.8" y="81.5" transform="matrix(0.7071 -0.7071 0.7071 0.7071 -23.5648 122.2909)" width="16.1" height="16.1"/>
		<rect x="150.6" y="104.3" transform="matrix(0.7071 -0.7071 0.7071 0.7071 -32.9785 145.0907)" width="16.1" height="16.1"/>
		<rect x="36.8" y="58.8" transform="matrix(0.7071 -0.7071 0.7071 0.7071 -34.1137 51.2984)" width="16.1" height="16.1"/>
		<rect x="59.5" y="81.5" transform="matrix(0.7071 -0.7071 0.7071 0.7071 -43.5689 73.9981)" width="16.1" height="16.1"/>
		<rect x="82.3" y="104.3" transform="matrix(0.7071 -0.7071 0.7071 0.7071 -52.988 96.7979)" width="16.1" height="16.1"/>
		<rect x="105.1" y="127.1" transform="matrix(0.7071 -0.7071 0.7071 0.7071 -62.4017 119.5977)" width="16.1" height="16.1"/>
		<rect x="127.8" y="149.8" transform="matrix(0.7071 -0.7071 0.7071 0.7071 -71.857 142.2975)" width="16.1" height="16.1"/>
		<rect x="59.5" y="58.8" transform="matrix(0.7071 -0.7071 0.7071 0.7071 -27.4903 67.3763)" width="16.1" height="16.1"/>
		<rect x="82.3" y="81.5" transform="matrix(0.7071 -0.7071 0.7071 0.7071 -36.8747 90.1053)" width="16.1" height="16.1"/>
		<rect x="105.1" y="104.3" transform="matrix(0.7071 -0.7071 0.7071 0.7071 -46.2938 112.9051)" width="16.1" height="16.1"/>
		<rect x="127.8" y="127.1" transform="matrix(0.7071 -0.7071 0.7071 0.7071 -55.7784 135.6756)" width="16.1" height="16.1"/>
		<rect x="14" y="81.5" transform="matrix(0.7071 -0.7071 0.7071 0.7071 -56.8842 41.8137)" width="16.1" height="16.1"/>
		<rect x="36.8" y="104.3" transform="matrix(0.7071 -0.7071 0.7071 0.7071 -66.298 64.6135)" width="16.1" height="16.1"/>
		<rect x="59.6" y="127.1" transform="matrix(0.7071 -0.7071 0.7071 0.7071 -75.717 87.4133)" width="16.1" height="16.1"/>
		<rect x="82.3" y="149.8" transform="matrix(0.7071 -0.7071 0.7071 0.7071 -85.1723 110.1131)" width="16.1" height="16.1"/>
		<rect x="105.1" y="172.6" transform="matrix(0.7071 -0.7071 0.7071 0.7071 -94.5861 132.9129)" width="16.1" height="16.1"/>
		<rect x="36.8" y="81.5" transform="matrix(0.7071 -0.7071 0.7071 0.7071 -50.19 57.9209)" width="16.1" height="16.1"/>
		<rect x="59.5" y="104.3" transform="matrix(0.7071 -0.7071 0.7071 0.7071 -59.6746 80.6914)" width="16.1" height="16.1"/>
		<rect x="82.3" y="127.1" transform="matrix(0.7071 -0.7071 0.7071 0.7071 -69.0936 103.4912)" width="16.1" height="16.1"/>
		<rect x="105.1" y="149.8" transform="matrix(0.7071 -0.7071 0.7071 0.7071 -78.4782 126.2203)" width="16.1" height="16.1"/>
		<rect x="14" y="104.3" transform="matrix(0.7071 -0.7071 0.7071 0.7071 -72.9898 48.5062)" width="16.1" height="16.1"/>
		<rect x="36.8" y="127.1" transform="matrix(0.7071 -0.7071 0.7071 0.7071 -82.4037 71.306)" width="16.1" height="16.1"/>
		<rect x="59.6" y="149.8" transform="matrix(0.7071 -0.7071 0.7071 0.7071 -91.7934 94.035)" width="16.1" height="16.1"/>
		<rect x="82.3" y="172.6" transform="matrix(0.7071 -0.7071 0.7071 0.7071 -101.2779 116.8055)" width="16.1" height="16.1"/>
	</g>
	<g>
		<path class="st1" d="M98.6,157c1.8,1.8,4.6,1.8,6.4,0l53-53c1.8-1.8,1.8-4.6,0-6.4l-53-53c-1.8-1.8-4.6-1.8-6.4,0l-53,53
			c-1.8,1.8-1.8,4.6,0,6.4L98.6,157z"/>
		<path d="M111.1,120.3l27.7-19l-27.6-19c0,0-1.9-1.1-3.4,0.4c-1.4,1.4-1,3.3-1,3.3l1.7,7.2H64.7v16.3h43.7l-1.7,7.2
			c0,0-0.5,1.8,1,3.3C109.1,121.3,111.1,120.3,111.1,120.3z"/>
	</g>
</g>
</svg>
