<?xml version="1.0" encoding="utf-8"?>
<!-- Generator: Adobe Illustrator 21.1.0, SVG Export Plug-In . SVG Version: 6.00 Build 0)  -->
<svg version="1.1" id="Layer_1" xmlns="http://www.w3.org/2000/svg" xmlns:xlink="http://www.w3.org/1999/xlink" x="0px" y="0px"
	 viewBox="0 0 203 202" style="enable-background:new 0 0 203 202;" xml:space="preserve">
<style type="text/css">
	.st0{fill:#FFF100;stroke:#000000;stroke-width:0.5;}
	.st1{fill:none;stroke:#231F20;stroke-width:0.75;}
	.st2{fill:none;stroke:#231F20;stroke-width:3;}
	.st3{stroke:#FFF100;stroke-width:0.5;}
	.st4{fill:#07519F;stroke:#231F20;stroke-width:0.5;}
	.st5{fill:none;stroke:#FFFFFF;stroke-width:0.75;}
	.st6{fill:none;stroke:#FFFFFF;stroke-width:3;}
	.st7{fill:#FFFFFF;stroke:#06539F;stroke-width:0.5;}
	.st8{fill:#FFFFFF;}
</style>
<g>
	<g>
		<g id="_x3C_TRUCKS_USE_x3E_">
			<path class="st0" d="M6.7,159.2c-2.6,0-4.6-2.1-4.6-4.6V45.2c0-2.6,2.1-4.6,4.6-4.6h86.4c2.6,0,4.6,2.1,4.6,4.6v109.4
				c0,2.6-2.1,4.6-4.6,4.6H6.7z"/>
		</g>
		<line class="st1" x1="13" y1="114.9" x2="87.5" y2="114.9"/>
		<line class="st2" x1="13" y1="148.6" x2="87.5" y2="148.6"/>
		<g>
			<path class="st3" d="M68.1,105.2l8.3-2.6l-2.5-8.4l-2,0.7l0.8-4.5L66,76.9l-3.9-1.7l-0.4-1l-4.4,1.3l0,0.7l-2.9,2.6l-3.3,12
				l-5.8,3l-2.9-7l-4.4-2.9l-3.7,0.6L31,87.7l-3.4,10.5l-5.9,6.2l1.5,1.9l6.9-5l1.6-3.2l0.8,2.8l-4.8,14l1.7,0.8l-4.8,18.9l2.5,0.9
				l6.6-18.6l3.4,0.1l7.5,18.3l2.6-1.1l-5.6-18l2.9-1.3l-3.1-8.3l6.7-1.7L47,98.4l-1.6,0.4l0.5-1.8l6.9-2.3l1.3-2.3l2.3,9.4L52,116
				l-1.2,21.4l5,0.6l1.7-18.2l2.8-7.3l2,9.9l8.2,15.6l4.5-2.4l-7.6-16.3L68.1,105.2z M69.8,90.9l-0.7,4.4l-2.8-8.1L69.8,90.9z"/>
			<ellipse class="st3" cx="57.2" cy="68.5" rx="5.5" ry="5.8"/>
			<ellipse class="st3" cx="34.9" cy="78.4" rx="5.1" ry="5.3"/>
		</g>
	</g>
	<g>
		<g id="_x3C_TRUCKS_USE_x3E__1_">
			<path class="st4" d="M108.9,159.7c-2.6,0-4.6-2.1-4.6-4.6V45.6c0-2.6,2.1-4.6,4.6-4.6h86.4c2.6,0,4.6,2.1,4.6,4.6V155
				c0,2.6-2.1,4.6-4.6,4.6H108.9z"/>
		</g>
		<line class="st5" x1="114.9" y1="115.3" x2="189.4" y2="115.3"/>
		<line class="st6" x1="114.9" y1="149" x2="189.4" y2="149"/>
		<g>
			<path class="st7" d="M167.4,112.1l6.6-2.1l-2-6.8l-1.6,0.6l0.6-3.6l-5.4-10.8l-3.1-1.3l-0.4-0.8l-3.5,1l0,0.5l-2.4,2.1l-2.6,9.6
				l-4.6,2.4l-2.4-5.6l-3.5-2.3l-3,0.5l-2.5,2.6l-2.7,8.4l-4.7,5l1.2,1.5l5.6-4l1.3-2.5l0.6,2.2l-3.8,11.3l1.4,0.7l-3.8,15.2l2,0.8
				l5.3-14.9l2.7,0.1l6,14.7l2.1-0.9l-4.5-14.4l2.4-1.1l-2.5-6.7l5.4-1.3l-1-5.4l-1.3,0.3l0.4-1.4l5.6-1.8l1.1-1.8l1.8,7.6
				l-3.6,11.4l-1,17.2l4,0.5l1.4-14.6l2.3-5.8l1.6,7.9l6.6,12.5l3.6-1.9l-6.1-13.1L167.4,112.1z M168.8,100.6l-0.5,3.5l-2.2-6.5
				L168.8,100.6z"/>
			<ellipse class="st7" cx="158.7" cy="82.6" rx="4.4" ry="4.6"/>
			<ellipse class="st7" cx="140.8" cy="90.6" rx="4.1" ry="4.3"/>
		</g>
		<polygon class="st8" points="155.7,69.5 155.8,62.3 166,65.2 152.1,46.3 138.3,65.2 148.5,62.2 148.5,69.5 		"/>
	</g>
</g>
</svg>
