<?xml version="1.0" encoding="utf-8"?>
<!-- Generator: Adobe Illustrator 21.1.0, SVG Export Plug-In . SVG Version: 6.00 Build 0)  -->
<svg version="1.1" id="Layer_1" xmlns="http://www.w3.org/2000/svg" xmlns:xlink="http://www.w3.org/1999/xlink" x="0px" y="0px"
	 viewBox="0 0 203 202" style="enable-background:new 0 0 203 202;" xml:space="preserve">
<style type="text/css">
	.st0{fill:#F58532;stroke:#000000;stroke-width:0.25;}
	.st1{fill:none;}
	.st2{fill:#231F20;}
</style>
<g>
	<path class="st0" d="M96,197c3,3,7.9,3,10.9,0l90.6-90.6c3-3,3-7.9,0-10.9L106.9,5c-3-3-7.9-3-10.9,0L5.4,95.6c-3,3-3,7.9,0,10.9
		L96,197z"/>
	<path d="M8.9,104.4l89,89c1.9,1.9,5,1.9,6.9,0l89-89c1.9-1.9,1.9-5,0-6.9l-89-89c-1.9-1.9-5-1.9-6.9,0l-89,89
		C7,99.5,7,102.5,8.9,104.4z M12.4,99.3L99.5,12c1-1,2.6-1,3.6,0l87.3,87.1c1,1,1,2.6,0,3.6l-87.2,87.2c-1,1-2.6,1-3.6,0l-87.2-87
		C11.4,101.9,11.4,100.3,12.4,99.3z"/>
	<polygon points="113.1,63 140.6,65.4 102.4,22.2 62.2,66 90.6,62.9 91,62.9 91,80.1 113.1,80.1 	"/>
	<g>
		<rect x="4.5" y="93.3" class="st1" width="193.9" height="84"/>
		<path class="st2" d="M32.5,102.4l2.8,0.9c-0.4,1.6-1.2,2.8-2.2,3.5c-1,0.8-2.3,1.2-3.8,1.2c-1.9,0-3.5-0.7-4.7-2s-1.9-3.1-1.9-5.4
			c0-2.4,0.6-4.3,1.9-5.6c1.2-1.3,2.9-2,4.9-2c1.8,0,3.2,0.5,4.3,1.6c0.7,0.6,1.2,1.5,1.5,2.7L32.4,98c-0.2-0.8-0.5-1.3-1.1-1.8
			c-0.5-0.4-1.2-0.7-2-0.7c-1.1,0-1.9,0.4-2.6,1.2c-0.7,0.8-1,2-1,3.7c0,1.8,0.3,3.1,1,3.9c0.7,0.8,1.5,1.2,2.6,1.2
			c0.8,0,1.4-0.2,2-0.7S32.2,103.5,32.5,102.4z"/>
		<path class="st2" d="M36.9,100.6c0-1.5,0.2-2.7,0.7-3.7c0.3-0.7,0.8-1.4,1.3-2c0.6-0.6,1.2-1,1.9-1.3c0.9-0.4,1.9-0.6,3.1-0.6
			c2.1,0,3.8,0.7,5.1,2s1.9,3.2,1.9,5.5c0,2.3-0.6,4.2-1.9,5.5c-1.3,1.3-3,2-5.1,2c-2.2,0-3.9-0.7-5.1-2S36.9,102.9,36.9,100.6z
			 M39.9,100.5c0,1.6,0.4,2.9,1.1,3.7c0.8,0.8,1.7,1.3,2.9,1.3c1.2,0,2.1-0.4,2.9-1.3c0.7-0.8,1.1-2.1,1.1-3.8
			c0-1.7-0.4-2.9-1.1-3.7c-0.7-0.8-1.7-1.2-2.9-1.2c-1.2,0-2.2,0.4-2.9,1.2S39.9,98.9,39.9,100.5z"/>
		<path class="st2" d="M52.9,107.8V93.3h2.8l5.9,9.7v-9.7h2.7v14.5h-2.9l-5.8-9.4v9.4H52.9z"/>
		<path class="st2" d="M66.4,103.1l2.8-0.3c0.2,1,0.5,1.7,1,2.1c0.5,0.4,1.2,0.7,2.1,0.7c0.9,0,1.7-0.2,2.1-0.6
			c0.5-0.4,0.7-0.9,0.7-1.4c0-0.3-0.1-0.6-0.3-0.9s-0.6-0.4-1.1-0.6c-0.3-0.1-1.1-0.3-2.3-0.6c-1.6-0.4-2.7-0.9-3.3-1.4
			c-0.9-0.8-1.3-1.8-1.3-2.9c0-0.7,0.2-1.4,0.6-2.1c0.4-0.6,1-1.1,1.8-1.5s1.7-0.5,2.8-0.5c1.8,0,3.2,0.4,4.1,1.2s1.4,1.9,1.4,3.2
			l-2.9,0.1c-0.1-0.7-0.4-1.3-0.8-1.6c-0.4-0.3-1-0.5-1.9-0.5c-0.8,0-1.5,0.2-2,0.5c-0.3,0.2-0.5,0.5-0.5,0.9c0,0.3,0.1,0.6,0.4,0.9
			c0.4,0.3,1.3,0.6,2.7,1c1.4,0.3,2.5,0.7,3.2,1c0.7,0.4,1.2,0.8,1.6,1.5c0.4,0.6,0.6,1.4,0.6,2.3c0,0.8-0.2,1.6-0.7,2.3
			c-0.5,0.7-1.1,1.3-2,1.6c-0.8,0.4-1.9,0.5-3.1,0.5c-1.8,0-3.2-0.4-4.2-1.3C67.2,105.9,66.6,104.7,66.4,103.1z"/>
		<path class="st2" d="M83.6,107.8v-12h-4.3v-2.4h11.5v2.4h-4.3v12H83.6z"/>
		<path class="st2" d="M92.4,107.8V93.3h6.2c1.5,0,2.7,0.1,3.4,0.4c0.7,0.3,1.3,0.7,1.7,1.4c0.4,0.7,0.6,1.4,0.6,2.3
			c0,1.1-0.3,2-1,2.7c-0.6,0.7-1.6,1.2-2.9,1.3c0.6,0.4,1.2,0.8,1.6,1.2s1,1.2,1.7,2.4l1.8,2.8h-3.5l-2.1-3.2
			c-0.8-1.1-1.3-1.8-1.5-2.1c-0.3-0.3-0.6-0.5-0.9-0.6c-0.3-0.1-0.8-0.2-1.5-0.2h-0.6v6H92.4z M95.3,99.4h2.2c1.4,0,2.3-0.1,2.6-0.2
			c0.3-0.1,0.6-0.3,0.8-0.6c0.2-0.3,0.3-0.7,0.3-1.1c0-0.5-0.1-0.9-0.4-1.2c-0.3-0.3-0.6-0.5-1.1-0.6c-0.2,0-0.9,0-2.1,0h-2.3V99.4z
			"/>
		<path class="st2" d="M106.6,93.3h2.9v7.8c0,1.2,0,2.1,0.1,2.4c0.1,0.6,0.4,1.1,0.9,1.4c0.5,0.4,1.1,0.5,1.9,0.5
			c0.8,0,1.5-0.2,1.9-0.5c0.4-0.3,0.7-0.8,0.8-1.3c0.1-0.5,0.1-1.3,0.1-2.5v-8h2.9v7.6c0,1.7-0.1,3-0.2,3.7
			c-0.2,0.7-0.4,1.3-0.9,1.8c-0.4,0.5-1,0.9-1.7,1.2s-1.6,0.4-2.8,0.4c-1.4,0-2.4-0.2-3.1-0.5c-0.7-0.3-1.3-0.7-1.7-1.2
			c-0.4-0.5-0.7-1-0.8-1.6c-0.2-0.8-0.3-2.1-0.3-3.7V93.3z"/>
		<path class="st2" d="M130.2,102.4l2.8,0.9c-0.4,1.6-1.2,2.8-2.2,3.5c-1,0.8-2.3,1.2-3.8,1.2c-1.9,0-3.5-0.7-4.7-2
			s-1.9-3.1-1.9-5.4c0-2.4,0.6-4.3,1.9-5.6c1.2-1.3,2.9-2,4.9-2c1.8,0,3.2,0.5,4.3,1.6c0.7,0.6,1.2,1.5,1.5,2.7l-2.9,0.7
			c-0.2-0.8-0.5-1.3-1.1-1.8s-1.2-0.7-2-0.7c-1.1,0-1.9,0.4-2.6,1.2c-0.7,0.8-1,2-1,3.7c0,1.8,0.3,3.1,1,3.9
			c0.7,0.8,1.5,1.2,2.6,1.2c0.8,0,1.4-0.2,2-0.7C129.6,104.3,130,103.5,130.2,102.4z"/>
		<path class="st2" d="M138.5,107.8v-12h-4.3v-2.4h11.5v2.4h-4.3v12H138.5z"/>
		<path class="st2" d="M147.2,107.8V93.3h2.9v14.5H147.2z"/>
		<path class="st2" d="M152,100.6c0-1.5,0.2-2.7,0.7-3.7c0.3-0.7,0.8-1.4,1.3-2c0.6-0.6,1.2-1,1.9-1.3c0.9-0.4,1.9-0.6,3.1-0.6
			c2.1,0,3.8,0.7,5.1,2s1.9,3.2,1.9,5.5c0,2.3-0.6,4.2-1.9,5.5c-1.3,1.3-3,2-5.1,2c-2.2,0-3.9-0.7-5.1-2S152,102.9,152,100.6z
			 M155,100.5c0,1.6,0.4,2.9,1.1,3.7s1.7,1.3,2.9,1.3s2.1-0.4,2.9-1.3s1.1-2.1,1.1-3.8c0-1.7-0.4-2.9-1.1-3.7
			c-0.7-0.8-1.7-1.2-2.9-1.2s-2.2,0.4-2.9,1.2S155,98.9,155,100.5z"/>
		<path class="st2" d="M168,107.8V93.3h2.8l5.9,9.7v-9.7h2.7v14.5h-2.9l-5.8-9.4v9.4H168z"/>
		<path class="st2" d="M83.1,145.4h-2.8v-10.5c-1,0.9-2.2,1.6-3.6,2.1v-2.5c0.7-0.2,1.5-0.7,2.4-1.3c0.8-0.7,1.4-1.4,1.7-2.3h2.3
			V145.4z"/>
		<path class="st2" d="M98.1,145.4v-14.5h2.9v6.4l5.9-6.4h3.9l-5.5,5.6l5.7,8.8h-3.8l-4-6.8L101,141v4.4H98.1z"/>
		<path class="st2" d="M112.3,145.4v-14.5h4.4l2.6,9.9l2.6-9.9h4.4v14.5h-2.7V134l-2.9,11.4h-2.8L115,134v11.4H112.3z"/>
	</g>
</g>
</svg>
