<?xml version="1.0" encoding="utf-8"?>
<!-- Generator: Adobe Illustrator 21.1.0, SVG Export Plug-In . SVG Version: 6.00 Build 0)  -->
<svg version="1.1" id="Layer_1" xmlns="http://www.w3.org/2000/svg" xmlns:xlink="http://www.w3.org/1999/xlink" x="0px" y="0px"
	 viewBox="0 0 203 202" style="enable-background:new 0 0 203 202;" xml:space="preserve">
<style type="text/css">
	.st0{fill:#FFFFFF;stroke:#000000;stroke-width:0.2994;}
	.st1{fill:none;}
	.st2{fill:#231F20;}
	.st3{fill:#FFFFFF;}
</style>
<g>
	<path class="st0" d="M172.8,189.8c0,5.9-4.8,10.7-10.7,10.7H38.7c-5.9,0-10.7-4.8-10.7-10.7V14c0-5.9,4.8-10.7,10.7-10.7H162
		c5.9,0,10.7,4.8,10.7,10.7V189.8z"/>
	<path d="M161.2,6.9H39.6c-4.4,0-8.1,3.6-8.1,8.1v121.5c0,4.4,3.6,8.1,8.1,8.1h121.5c4.5,0,8.1-3.6,8.1-8.1V14.9
		C169.2,10.5,165.6,6.9,161.2,6.9z M166,135.9c0,3-2.4,5.4-5.4,5.4H40.2c-3,0-5.4-2.4-5.4-5.4V15.5c0-3,2.4-5.4,5.4-5.4h120.4
		c3,0,5.4,2.4,5.4,5.4V135.9z"/>
	<g>
		<rect x="29.7" y="45.8" class="st1" width="141.4" height="83.7"/>
		<path class="st2" d="M46.4,51.6l2.2,0.9c-0.3,1.6-0.9,2.7-1.7,3.5c-0.8,0.8-1.7,1.1-2.9,1.1c-1.5,0-2.7-0.6-3.6-1.9
			c-0.9-1.3-1.4-3.1-1.4-5.3c0-2.4,0.5-4.2,1.4-5.5c0.9-1.3,2.2-2,3.7-2c1.4,0,2.4,0.5,3.3,1.5c0.5,0.6,0.9,1.5,1.1,2.6l-2.2,0.7
			c-0.1-0.7-0.4-1.3-0.8-1.8c-0.4-0.4-0.9-0.6-1.5-0.6c-0.8,0-1.5,0.4-2,1.1c-0.5,0.8-0.8,2-0.8,3.7c0,1.8,0.3,3.1,0.8,3.8
			c0.5,0.8,1.2,1.1,2,1.1c0.6,0,1.1-0.2,1.5-0.7C45.9,53.4,46.2,52.7,46.4,51.6z"/>
		<path class="st2" d="M50.1,49.8c0-1.5,0.2-2.7,0.5-3.7c0.3-0.7,0.6-1.4,1-2c0.4-0.6,0.9-1,1.4-1.3c0.7-0.4,1.5-0.6,2.4-0.6
			c1.6,0,2.9,0.7,3.9,2c1,1.3,1.5,3.1,1.5,5.4c0,2.3-0.5,4.1-1.5,5.4c-1,1.3-2.3,1.9-3.9,1.9c-1.6,0-2.9-0.6-3.9-1.9
			S50.1,52.1,50.1,49.8z M52.4,49.7c0,1.6,0.3,2.8,0.9,3.7c0.6,0.8,1.3,1.2,2.2,1.2c0.9,0,1.6-0.4,2.2-1.2s0.9-2.1,0.9-3.7
			c0-1.6-0.3-2.9-0.8-3.7s-1.3-1.2-2.2-1.2c-0.9,0-1.7,0.4-2.2,1.2C52.6,46.9,52.4,48.1,52.4,49.7z"/>
		<path class="st2" d="M62.5,56.9V42.6h2.2l4.5,9.5v-9.5h2.1v14.3h-2.2l-4.5-9.3v9.3H62.5z"/>
		<path class="st2" d="M73.1,52.2l2.2-0.3c0.1,0.9,0.4,1.6,0.8,2.1c0.4,0.4,0.9,0.7,1.6,0.7c0.7,0,1.3-0.2,1.6-0.6s0.5-0.9,0.5-1.4
			c0-0.3-0.1-0.6-0.2-0.9c-0.2-0.2-0.4-0.4-0.8-0.6c-0.3-0.1-0.9-0.3-1.8-0.6c-1.2-0.4-2-0.9-2.5-1.4c-0.7-0.8-1-1.7-1-2.9
			c0-0.7,0.2-1.4,0.5-2s0.8-1.1,1.4-1.4c0.6-0.3,1.3-0.5,2.2-0.5c1.4,0,2.4,0.4,3.1,1.2s1.1,1.8,1.1,3.1l-2.2,0.1
			c-0.1-0.7-0.3-1.3-0.6-1.6s-0.8-0.5-1.4-0.5c-0.6,0-1.2,0.2-1.5,0.5c-0.2,0.2-0.4,0.5-0.4,0.9c0,0.3,0.1,0.6,0.3,0.9
			c0.3,0.3,1,0.6,2,1c1.1,0.3,1.9,0.7,2.4,1c0.5,0.4,0.9,0.8,1.2,1.4c0.3,0.6,0.4,1.4,0.4,2.3c0,0.8-0.2,1.6-0.5,2.3
			c-0.4,0.7-0.8,1.2-1.5,1.6c-0.6,0.3-1.4,0.5-2.4,0.5c-1.4,0-2.5-0.4-3.2-1.2C73.7,55,73.2,53.8,73.1,52.2z"/>
		<path class="st2" d="M86.4,56.9V45h-3.3v-2.4h8.8V45h-3.3v11.8H86.4z"/>
		<path class="st2" d="M93.4,56.9V42.6h4.7c1.2,0,2,0.1,2.6,0.4s1,0.7,1.3,1.4c0.3,0.7,0.5,1.4,0.5,2.2c0,1.1-0.2,2-0.7,2.6
			s-1.2,1.1-2.2,1.3c0.5,0.4,0.9,0.8,1.2,1.2c0.3,0.4,0.7,1.2,1.3,2.3l1.3,2.8h-2.7L99,53.8c-0.6-1.1-1-1.8-1.2-2.1
			c-0.2-0.3-0.4-0.5-0.7-0.6s-0.6-0.2-1.1-0.2h-0.5v5.9H93.4z M95.6,48.7h1.7c1.1,0,1.7-0.1,2-0.2c0.3-0.1,0.5-0.3,0.6-0.6
			s0.2-0.6,0.2-1.1c0-0.5-0.1-0.9-0.3-1.2c-0.2-0.3-0.5-0.5-0.8-0.6c-0.2,0-0.7,0-1.6,0h-1.7V48.7z"/>
		<path class="st2" d="M104.5,42.6h2.2v7.7c0,1.2,0,2,0.1,2.4c0.1,0.6,0.3,1.1,0.7,1.4c0.4,0.4,0.9,0.5,1.5,0.5
			c0.6,0,1.1-0.2,1.4-0.5c0.3-0.3,0.5-0.7,0.6-1.2c0.1-0.5,0.1-1.3,0.1-2.4v-7.9h2.2v7.5c0,1.7-0.1,2.9-0.2,3.6
			c-0.1,0.7-0.3,1.3-0.7,1.8c-0.3,0.5-0.8,0.9-1.3,1.2c-0.5,0.3-1.3,0.4-2.1,0.4c-1.1,0-1.9-0.2-2.4-0.5c-0.5-0.3-1-0.7-1.3-1.2
			c-0.3-0.5-0.5-1-0.6-1.6c-0.1-0.8-0.2-2-0.2-3.6V42.6z"/>
		<path class="st2" d="M122.7,51.6l2.2,0.9c-0.3,1.6-0.9,2.7-1.7,3.5c-0.8,0.8-1.8,1.1-2.9,1.1c-1.5,0-2.7-0.6-3.6-1.9
			s-1.4-3.1-1.4-5.3c0-2.4,0.5-4.2,1.4-5.5c0.9-1.3,2.2-2,3.7-2c1.4,0,2.4,0.5,3.3,1.5c0.5,0.6,0.9,1.5,1.1,2.6l-2.2,0.7
			c-0.1-0.7-0.4-1.3-0.8-1.8c-0.4-0.4-0.9-0.6-1.5-0.6c-0.8,0-1.5,0.4-2,1.1s-0.8,2-0.8,3.7c0,1.8,0.3,3.1,0.8,3.8
			c0.5,0.8,1.2,1.1,2,1.1c0.6,0,1.1-0.2,1.5-0.7C122.2,53.4,122.6,52.7,122.7,51.6z"/>
		<path class="st2" d="M129.3,56.9V45H126v-2.4h8.8V45h-3.3v11.8H129.3z"/>
		<path class="st2" d="M136.2,56.9V42.6h2.2v14.3H136.2z"/>
		<path class="st2" d="M140.1,49.8c0-1.5,0.2-2.7,0.5-3.7c0.3-0.7,0.6-1.4,1-2c0.4-0.6,0.9-1,1.4-1.3c0.7-0.4,1.5-0.6,2.4-0.6
			c1.6,0,2.9,0.7,3.9,2c1,1.3,1.5,3.1,1.5,5.4c0,2.3-0.5,4.1-1.5,5.4s-2.3,1.9-3.9,1.9c-1.6,0-2.9-0.6-3.9-1.9
			S140.1,52.1,140.1,49.8z M142.4,49.7c0,1.6,0.3,2.8,0.9,3.7c0.6,0.8,1.3,1.2,2.2,1.2c0.9,0,1.6-0.4,2.2-1.2s0.9-2.1,0.9-3.7
			c0-1.6-0.3-2.9-0.8-3.7c-0.6-0.8-1.3-1.2-2.2-1.2c-0.9,0-1.7,0.4-2.2,1.2C142.7,46.9,142.4,48.1,142.4,49.7z"/>
		<path class="st2" d="M152.6,56.9V42.6h2.2l4.5,9.5v-9.5h2.1v14.3h-2.2l-4.5-9.3v9.3H152.6z"/>
		<path class="st2" d="M61.2,101.7V98l10.7-13.2h-9.5v-3.4h14.9v3.2L66.2,98.3h11.6v3.4H61.2z"/>
		<path class="st2" d="M79.5,91.7c0-2.1,0.3-3.8,0.9-5.2c0.5-1,1.1-2,1.9-2.8c0.8-0.8,1.7-1.4,2.6-1.8c1.3-0.5,2.7-0.8,4.4-0.8
			c3,0,5.4,0.9,7.2,2.8c1.8,1.9,2.7,4.4,2.7,7.8c0,3.3-0.9,5.9-2.7,7.7c-1.8,1.9-4.2,2.8-7.2,2.8c-3,0-5.4-0.9-7.2-2.8
			C80.4,97.5,79.5,94.9,79.5,91.7z M83.8,91.6c0,2.3,0.5,4,1.6,5.2s2.4,1.8,4.1,1.8c1.6,0,3-0.6,4-1.8c1-1.2,1.6-2.9,1.6-5.3
			c0-2.3-0.5-4.1-1.5-5.2c-1-1.1-2.4-1.7-4.1-1.7s-3.1,0.6-4.1,1.7C84.3,87.5,83.8,89.2,83.8,91.6z"/>
		<path class="st2" d="M102.5,101.7V81.4h4l8.3,13.6V81.4h3.8v20.3h-4.1l-8.2-13.3v13.3H102.5z"/>
		<path class="st2" d="M123,101.7V81.4h15.1v3.4h-11v4.5h10.2v3.4h-10.2v5.5h11.4v3.4H123z"/>
	</g>
	<g>
		<path class="st2" d="M160.7,196.2H40.1c-4.5,0-8.1-3.7-8.1-8.1v-32.3c0-4.5,3.7-8.1,8.1-8.1h120.6c4.5,0,8.1,3.7,8.1,8.1v32.3
			C168.8,192.6,165.2,196.2,160.7,196.2z"/>
		<g>
			<rect x="33.5" y="160.7" class="st1" width="133.9" height="32.3"/>
			<path class="st3" d="M44.2,160.8h8.7c1.7,0,3,0.1,3.9,0.2c0.8,0.1,1.6,0.4,2.3,0.9c0.7,0.5,1.2,1.1,1.7,1.8
				c0.4,0.8,0.7,1.6,0.7,2.6c0,1-0.3,2-0.8,2.8c-0.6,0.9-1.3,1.5-2.2,1.9c1.3,0.4,2.4,1,3.1,2c0.7,0.9,1.1,2,1.1,3.3
				c0,1-0.2,2-0.7,2.9c-0.5,0.9-1.1,1.7-1.9,2.2c-0.8,0.6-1.8,0.9-3,1c-0.7,0.1-2.5,0.1-5.3,0.1h-7.4V160.8z M48.6,164.4v5h2.9
				c1.7,0,2.8,0,3.2-0.1c0.8-0.1,1.3-0.3,1.8-0.8c0.4-0.4,0.6-1,0.6-1.7c0-0.7-0.2-1.2-0.6-1.6c-0.4-0.4-0.9-0.7-1.7-0.8
				c-0.4,0-1.7-0.1-3.8-0.1H48.6z M48.6,173.1v5.8h4.1c1.6,0,2.6,0,3-0.1c0.7-0.1,1.2-0.4,1.6-0.9c0.4-0.5,0.6-1.1,0.6-1.9
				c0-0.7-0.2-1.2-0.5-1.7c-0.3-0.5-0.8-0.8-1.4-1c-0.6-0.2-1.9-0.3-3.9-0.3H48.6z"/>
			<path class="st3" d="M66.2,182.6v-21.8h16.2v3.7H70.6v4.8h11v3.7h-11v5.9h12.2v3.7H66.2z"/>
			<path class="st3" d="M96.7,174.5v-3.7h9.5v8.7c-0.9,0.9-2.3,1.7-4,2.4c-1.8,0.7-3.5,1-5.3,1c-2.3,0-4.3-0.5-6-1.4
				c-1.7-1-3-2.3-3.8-4.1c-0.9-1.8-1.3-3.7-1.3-5.8c0-2.3,0.5-4.3,1.4-6.1s2.3-3.1,4.2-4.1c1.4-0.7,3.1-1.1,5.2-1.1
				c2.7,0,4.8,0.6,6.3,1.7c1.5,1.1,2.5,2.7,2.9,4.7l-4.4,0.8c-0.3-1.1-0.9-1.9-1.7-2.5c-0.8-0.6-1.9-0.9-3.2-0.9
				c-1.9,0-3.5,0.6-4.6,1.8c-1.1,1.2-1.7,3-1.7,5.4c0,2.6,0.6,4.5,1.7,5.8s2.7,1.9,4.5,1.9c0.9,0,1.8-0.2,2.8-0.5s1.7-0.8,2.4-1.3
				v-2.8H96.7z"/>
			<path class="st3" d="M110.1,182.6v-21.8h4.4v21.8H110.1z"/>
			<path class="st3" d="M118.7,182.6v-21.8h4.3l8.9,14.6v-14.6h4.1v21.8h-4.4l-8.8-14.2v14.2H118.7z"/>
			<path class="st3" d="M139.6,175.5l4.3-0.4c0.3,1.4,0.8,2.5,1.6,3.2c0.8,0.7,1.9,1,3.2,1c1.4,0,2.5-0.3,3.2-0.9
				c0.7-0.6,1.1-1.3,1.1-2.1c0-0.5-0.2-1-0.5-1.3c-0.3-0.4-0.8-0.7-1.6-0.9c-0.5-0.2-1.7-0.5-3.5-1c-2.4-0.6-4-1.3-5-2.2
				c-1.3-1.2-2-2.7-2-4.4c0-1.1,0.3-2.2,0.9-3.1c0.6-1,1.5-1.7,2.7-2.2s2.6-0.8,4.3-0.8c2.7,0,4.8,0.6,6.2,1.8
				c1.4,1.2,2.1,2.8,2.2,4.8l-4.4,0.2c-0.2-1.1-0.6-1.9-1.2-2.4s-1.5-0.7-2.8-0.7c-1.3,0-2.3,0.3-3,0.8c-0.5,0.3-0.7,0.8-0.7,1.4
				c0,0.5,0.2,1,0.7,1.3c0.6,0.5,1.9,1,4,1.5c2.1,0.5,3.7,1,4.8,1.6c1,0.5,1.8,1.3,2.4,2.2c0.6,0.9,0.9,2.1,0.9,3.5
				c0,1.3-0.3,2.4-1,3.5c-0.7,1.1-1.7,1.9-2.9,2.4c-1.3,0.5-2.9,0.8-4.7,0.8c-2.8,0-4.9-0.6-6.4-1.9
				C140.8,179.8,139.9,177.9,139.6,175.5z"/>
		</g>
	</g>
</g>
</svg>
