<?xml version="1.0" encoding="utf-8"?>
<!-- Generator: Adobe Illustrator 21.1.0, SVG Export Plug-In . SVG Version: 6.00 Build 0)  -->
<svg version="1.1" id="Layer_1" xmlns="http://www.w3.org/2000/svg" xmlns:xlink="http://www.w3.org/1999/xlink" x="0px" y="0px"
	 viewBox="0 0 203 202" style="enable-background:new 0 0 203 202;" xml:space="preserve">
<style type="text/css">
	.st0{fill:#FFFFFF;stroke:#000000;stroke-width:0.25;}
	.st1{fill:#FFFFFF;stroke:#000000;}
	.st2{fill:#FFFFFF;stroke:#000000;stroke-width:0.2581;}
	.st3{fill:#07519F;}
	.st4{fill-rule:evenodd;clip-rule:evenodd;fill:#FFFFFF;}
	.st5{fill:none;}
	.st6{fill:#231F20;}
	.st7{fill:#CA2027;}
</style>
<g>
	<path class="st0" d="M166.7,195.1c0,2.5-2.1,4.6-4.6,4.6H34c-2.5,0-4.6-2.1-4.6-4.6V7.1c0-2.5,2.1-4.6,4.6-4.6h128.1
		c2.5,0,4.6,2.1,4.6,4.6V195.1z"/>
	<path class="st1" d="M163,191.2c0,2.5-2.1,4.6-4.6,4.6H37.8c-2.5,0-4.6-2.1-4.6-4.6V10.5c0-2.5,2.1-4.6,4.6-4.6h120.5
		c2.5,0,4.6,2.1,4.6,4.6V191.2z"/>
</g>
<g>
	<polygon points="139.7,183.3 139.9,188.4 152.8,180.1 139.7,171.4 139.7,176.7 139.7,176.8 135.5,176.8 135.5,183.3 	"/>
</g>
<g>
	<polygon points="55.8,176.5 55.6,171.4 42.8,179.7 55.8,188.4 55.8,183.1 55.8,183 60,183 60,176.5 	"/>
</g>
<g id="_x3C_HANDICAPPED_Sign_x3E__2_">
	<path class="st2" d="M129.5,132.7c0,2.6-2.1,4.7-4.7,4.7H71.3c-2.6,0-4.7-2.1-4.7-4.7V79.2c0-2.6,2.1-4.7,4.7-4.7h53.5
		c2.6,0,4.7,2.1,4.7,4.7V132.7z"/>
	<path class="st3" d="M124.4,76.1H71.6c-1.9,0-3.5,1.6-3.5,3.5v52.7c0,1.9,1.6,3.5,3.5,3.5h52.7c1.9,0,3.5-1.6,3.5-3.5V79.6
		C127.8,77.6,126.3,76.1,124.4,76.1z"/>
	<g>
		<path class="st4" d="M106.5,115c-0.7,5.1-5,9-10.3,9c-5.7,0-10.4-4.7-10.4-10.4c0-3.7,1.9-6.9,4.9-8.8l-0.3-4.7
			c-5.2,2.3-8.8,7.4-8.8,13.4c0,8.1,6.6,14.7,14.7,14.7c5.5,0,10.3-3,12.8-7.5L106.5,115z"/>
	</g>
	<path class="st4" d="M119.4,120.1l-1.2-3.2l-4.2,1.5l-4.7-12.8l0,0v0H95.9l-0.1-2.1h10.1v-3.8H95.5l-0.5-8c1.9-0.3,3.4-2,3.4-4
		c0-2.2-1.8-4.1-4.1-4.1c-2.2,0-4.1,1.8-4.1,4.1c0,0.8,0.3,1.6,0.7,2.3l1.3,19.4h0v0.1h14.4l4.9,13.5l0,0v0L119.4,120.1z"/>
</g>
<g>
	<rect x="38.8" y="149.1" class="st5" width="118.6" height="41.7"/>
	<path class="st6" d="M54.5,162.7h-4.1c-0.6,0-1-0.2-1.3-0.5s-0.4-0.8-0.4-1.5v-12.3c0-0.7,0.1-1.2,0.4-1.6s0.7-0.5,1.3-0.5h4.3
		c0.6,0,1.2,0,1.7,0.1s0.9,0.3,1.3,0.6c0.3,0.2,0.6,0.5,0.8,0.9c0.2,0.4,0.4,0.7,0.6,1.2c0.1,0.4,0.2,0.9,0.2,1.4
		c0,1.6-0.7,2.8-2,3.6c1.8,0.7,2.6,2,2.6,4c0,0.9-0.2,1.7-0.6,2.5c-0.4,0.7-0.9,1.3-1.6,1.6c-0.4,0.2-0.9,0.4-1.4,0.4
		C55.9,162.7,55.2,162.7,54.5,162.7z M51.5,148.8v4.2H54c0.7,0,1.2-0.1,1.6-0.2s0.7-0.5,0.8-0.9c0.2-0.3,0.2-0.7,0.2-1
		c0-0.8-0.2-1.4-0.7-1.6c-0.5-0.3-1.2-0.4-2.2-0.4H51.5z M54.3,155.4h-2.8v4.8h2.9c1.8,0,2.8-0.8,2.8-2.4c0-0.8-0.2-1.4-0.7-1.8
		C56,155.6,55.3,155.4,54.3,155.4z"/>
	<path class="st6" d="M65.3,161v-5.2l-3.3-6.2c-0.3-0.6-0.5-1-0.6-1.3c-0.1-0.3-0.2-0.6-0.2-0.8c0-0.4,0.1-0.7,0.4-1
		c0.2-0.3,0.5-0.4,0.9-0.4c0.4,0,0.7,0.1,0.8,0.4s0.5,0.8,0.9,1.5l2.5,5l2.5-5c0.2-0.3,0.3-0.6,0.4-0.8c0.1-0.2,0.2-0.4,0.3-0.6
		s0.3-0.3,0.4-0.4c0.2-0.1,0.3-0.1,0.6-0.1c0.3,0,0.6,0.1,0.9,0.4s0.3,0.6,0.3,0.9c0,0.3-0.1,0.6-0.2,0.9c-0.1,0.3-0.3,0.7-0.6,1.2
		l-3.4,6.3v5.2c0,0.7-0.1,1.2-0.4,1.5c-0.3,0.3-0.6,0.5-1,0.5c-0.4,0-0.7-0.2-1-0.5S65.3,161.6,65.3,161z"/>
	<path class="st6" d="M83.9,156.3h-2.5v4.6c0,0.7-0.1,1.2-0.4,1.5c-0.3,0.3-0.6,0.5-1,0.5c-0.4,0-0.7-0.2-1-0.5
		c-0.3-0.3-0.4-0.8-0.4-1.5v-12.6c0-0.7,0.1-1.3,0.4-1.6s0.7-0.5,1.3-0.5h3.5c1,0,1.8,0.1,2.4,0.3c0.5,0.2,1,0.5,1.4,0.9
		s0.7,1,0.9,1.6c0.2,0.6,0.3,1.3,0.3,2.1c0,1.7-0.4,2.9-1.3,3.8S85.5,156.3,83.9,156.3z M83.2,148.8h-1.8v5h1.8
		c0.6,0,1.2-0.1,1.6-0.2c0.4-0.2,0.8-0.4,1-0.8s0.3-0.9,0.3-1.5c0-0.7-0.2-1.3-0.5-1.8C85.2,149.1,84.4,148.8,83.2,148.8z"/>
	<path class="st6" d="M100,148.9h-6.1v4h5.6c0.4,0,0.7,0.1,0.9,0.3c0.2,0.2,0.3,0.5,0.3,0.9s-0.1,0.7-0.3,0.9s-0.5,0.4-0.9,0.4h-5.6
		v4.7h6.3c0.4,0,0.7,0.1,1,0.4c0.2,0.2,0.3,0.6,0.3,1c0,0.4-0.1,0.7-0.3,0.9c-0.2,0.2-0.5,0.4-1,0.4h-7.4c-0.6,0-1-0.2-1.3-0.5
		c-0.3-0.3-0.4-0.8-0.4-1.6v-12.3c0-0.5,0.1-0.9,0.2-1.2c0.1-0.3,0.3-0.5,0.5-0.7s0.6-0.2,0.9-0.2h7.2c0.4,0,0.8,0.1,1,0.4
		c0.2,0.2,0.3,0.5,0.3,0.9c0,0.4-0.1,0.7-0.3,0.9C100.8,148.8,100.4,148.9,100,148.9z"/>
	<path class="st6" d="M107.3,155.7h-1v5.3c0,0.7-0.1,1.2-0.4,1.5s-0.6,0.5-1,0.5c-0.4,0-0.8-0.2-1-0.5c-0.2-0.3-0.4-0.8-0.4-1.5
		v-12.6c0-0.7,0.1-1.2,0.4-1.6c0.3-0.3,0.7-0.5,1.3-0.5h4.4c0.6,0,1.1,0,1.6,0.1c0.4,0.1,0.8,0.2,1.2,0.4c0.4,0.2,0.8,0.5,1.1,0.9
		c0.3,0.4,0.6,0.9,0.7,1.4c0.2,0.5,0.3,1.1,0.3,1.7c0,1.2-0.3,2.2-0.8,2.9c-0.6,0.7-1.4,1.2-2.6,1.6c0.5,0.3,0.9,0.8,1.4,1.4
		c0.4,0.6,0.8,1.3,1.2,1.9c0.3,0.7,0.6,1.3,0.8,1.9c0.2,0.6,0.3,0.9,0.3,1.1c0,0.2-0.1,0.4-0.2,0.6c-0.1,0.2-0.3,0.4-0.5,0.5
		s-0.4,0.2-0.7,0.2c-0.3,0-0.6-0.1-0.8-0.3s-0.4-0.4-0.5-0.7s-0.4-0.7-0.6-1.2l-1.1-2.2c-0.4-0.8-0.7-1.4-1-1.9
		c-0.3-0.4-0.6-0.7-0.9-0.9S107.8,155.7,107.3,155.7z M108.9,148.8h-2.5v4.5h2.4c0.7,0,1.2-0.1,1.6-0.2c0.4-0.1,0.8-0.4,1-0.7
		c0.2-0.3,0.4-0.8,0.4-1.4c0-0.5-0.1-0.9-0.3-1.2c-0.2-0.3-0.5-0.6-0.8-0.8C110.4,148.9,109.8,148.8,108.9,148.8z"/>
	<path class="st6" d="M121.7,160.2l-2.1-10.4v11.3c0,0.6-0.1,1.1-0.3,1.4s-0.5,0.5-0.9,0.5c-0.4,0-0.7-0.2-0.9-0.5
		c-0.2-0.3-0.3-0.8-0.3-1.4v-12.9c0-0.7,0.2-1.2,0.5-1.4c0.3-0.2,0.7-0.4,1.2-0.4h0.8c0.5,0,0.9,0.1,1.1,0.2s0.4,0.3,0.5,0.6
		c0.1,0.3,0.2,0.8,0.4,1.4l1.9,9l1.9-9c0.1-0.7,0.3-1.1,0.4-1.4c0.1-0.3,0.3-0.5,0.5-0.6s0.6-0.2,1.1-0.2h0.8c0.5,0,0.9,0.1,1.2,0.4
		c0.3,0.3,0.5,0.7,0.5,1.4v12.9c0,0.6-0.1,1.1-0.3,1.4c-0.2,0.3-0.5,0.5-0.9,0.5c-0.4,0-0.7-0.2-0.9-0.5c-0.2-0.3-0.3-0.8-0.3-1.4
		v-11.3l-2.1,10.4c-0.1,0.7-0.3,1.2-0.3,1.5c-0.1,0.3-0.3,0.6-0.5,0.9c-0.2,0.3-0.6,0.4-1,0.4c-0.3,0-0.6-0.1-0.8-0.3
		c-0.2-0.2-0.4-0.4-0.5-0.6c-0.1-0.3-0.2-0.5-0.3-0.9C121.8,160.9,121.7,160.6,121.7,160.2z"/>
	<path class="st6" d="M132.8,161v-12.9c0-0.7,0.1-1.2,0.4-1.5s0.6-0.5,1-0.5c0.4,0,0.7,0.2,1,0.5s0.4,0.8,0.4,1.5V161
		c0,0.7-0.1,1.2-0.4,1.5c-0.3,0.3-0.6,0.5-1,0.5c-0.4,0-0.7-0.2-1-0.5C133,162.1,132.8,161.6,132.8,161z"/>
	<path class="st6" d="M147.3,149.1h-3V161c0,0.7-0.1,1.2-0.4,1.5s-0.6,0.5-1,0.5c-0.4,0-0.7-0.2-1-0.5c-0.3-0.3-0.4-0.8-0.4-1.5
		v-11.9h-3c-0.5,0-0.8-0.1-1-0.4s-0.3-0.6-0.3-1c0-0.4,0.1-0.8,0.4-1c0.2-0.2,0.6-0.4,1-0.4h8.6c0.5,0,0.8,0.1,1,0.4
		c0.2,0.3,0.3,0.6,0.3,1s-0.1,0.7-0.3,1C148.1,148.9,147.8,149.1,147.3,149.1z"/>
	<path class="st6" d="M80.6,170.1c1.4,0,2.6,0.3,3.6,1c1,0.7,1.8,1.7,2.3,2.9c0.5,1.3,0.8,2.8,0.8,4.5c0,1.3-0.1,2.4-0.4,3.4
		c-0.3,1-0.7,1.9-1.3,2.7c-0.6,0.8-1.3,1.3-2.1,1.7c-0.8,0.4-1.8,0.6-2.8,0.6c-1,0-2-0.2-2.8-0.6c-0.8-0.4-1.5-1-2.1-1.7
		c-0.6-0.8-1-1.7-1.3-2.7c-0.3-1.1-0.4-2.2-0.4-3.4c0-1.3,0.1-2.4,0.4-3.5c0.3-1,0.7-1.9,1.3-2.7s1.2-1.3,2-1.7
		C78.6,170.3,79.6,170.1,80.6,170.1z M84.4,178.6c0-1.2-0.2-2.2-0.5-3.1s-0.8-1.5-1.4-2s-1.3-0.7-2-0.7c-0.5,0-1,0.1-1.5,0.4
		c-0.5,0.3-0.9,0.6-1.2,1.1c-0.3,0.5-0.6,1.1-0.8,1.8c-0.2,0.7-0.3,1.6-0.3,2.5c0,0.9,0.1,1.8,0.3,2.5c0.2,0.8,0.5,1.4,0.8,1.9
		c0.4,0.5,0.8,0.9,1.2,1.1c0.5,0.2,1,0.4,1.5,0.4c0.7,0,1.3-0.2,1.9-0.6c0.6-0.4,1-1.1,1.4-2C84.3,180.9,84.4,179.9,84.4,178.6z"/>
	<path class="st6" d="M93.1,172.1l5.2,9.6V172c0-0.6,0.1-1.1,0.3-1.4s0.5-0.5,0.9-0.5c0.4,0,0.7,0.2,0.9,0.5s0.3,0.8,0.3,1.4v12.9
		c0,1.4-0.5,2.2-1.5,2.2c-0.2,0-0.5,0-0.7-0.1c-0.2-0.1-0.4-0.2-0.5-0.4c-0.2-0.2-0.3-0.4-0.5-0.7s-0.3-0.5-0.4-0.8l-5.1-9.5v9.6
		c0,0.6-0.1,1.1-0.4,1.4c-0.2,0.3-0.5,0.5-0.9,0.5c-0.4,0-0.7-0.2-0.9-0.5c-0.2-0.3-0.3-0.8-0.3-1.4v-12.6c0-0.5,0-1,0.1-1.3
		c0.1-0.3,0.3-0.6,0.6-0.8s0.6-0.3,0.9-0.3c0.2,0,0.5,0,0.6,0.1s0.3,0.2,0.5,0.4c0.1,0.2,0.3,0.4,0.4,0.6
		C92.8,171.6,92.9,171.8,93.1,172.1z"/>
	<path class="st6" d="M106.4,172.2v11.9h5.5c0.4,0,0.8,0.1,1,0.4c0.2,0.3,0.4,0.6,0.4,1c0,0.4-0.1,0.7-0.3,1c-0.2,0.3-0.6,0.4-1,0.4
		h-6.6c-0.6,0-1-0.2-1.3-0.5c-0.3-0.3-0.4-0.8-0.4-1.6v-12.6c0-0.7,0.1-1.2,0.4-1.5s0.6-0.5,1-0.5c0.4,0,0.7,0.2,1,0.5
		S106.4,171.5,106.4,172.2z"/>
	<path class="st6" d="M115.7,185v-5.2l-3.3-6.2c-0.3-0.6-0.5-1-0.6-1.3c-0.1-0.3-0.2-0.6-0.2-0.8c0-0.4,0.1-0.7,0.4-1
		c0.2-0.3,0.5-0.4,0.9-0.4c0.4,0,0.7,0.1,0.8,0.4c0.2,0.3,0.5,0.8,0.9,1.5l2.5,5l2.5-5c0.2-0.3,0.3-0.6,0.4-0.8
		c0.1-0.2,0.2-0.4,0.3-0.6c0.1-0.2,0.3-0.3,0.4-0.4c0.2-0.1,0.3-0.1,0.6-0.1c0.3,0,0.6,0.1,0.9,0.4s0.3,0.6,0.3,0.9
		c0,0.3-0.1,0.6-0.2,0.9s-0.3,0.7-0.6,1.2l-3.4,6.3v5.2c0,0.7-0.1,1.2-0.4,1.5c-0.3,0.3-0.6,0.5-1,0.5c-0.4,0-0.7-0.2-1-0.5
		S115.7,185.7,115.7,185z"/>
</g>
<g>
	<rect x="38.8" y="18.7" class="st5" width="122.6" height="43.1"/>
	<path class="st7" d="M88.7,17.5L94.9,29V17.4c0-0.8,0.1-1.3,0.4-1.7s0.6-0.6,1.1-0.6c0.5,0,0.8,0.2,1.1,0.6s0.4,0.9,0.4,1.7v15.3
		c0,1.7-0.6,2.6-1.7,2.6c-0.3,0-0.6-0.1-0.8-0.2c-0.2-0.1-0.5-0.3-0.7-0.5c-0.2-0.2-0.4-0.5-0.6-0.8s-0.3-0.6-0.5-0.9l-6.1-11.3V33
		c0,0.7-0.1,1.3-0.4,1.7s-0.6,0.6-1.1,0.6c-0.5,0-0.8-0.2-1.1-0.6c-0.3-0.4-0.4-0.9-0.4-1.7V18c0-0.6,0.1-1.1,0.2-1.5
		c0.1-0.4,0.4-0.7,0.7-1s0.7-0.4,1-0.4c0.3,0,0.5,0.1,0.7,0.2s0.4,0.3,0.5,0.5c0.2,0.2,0.3,0.4,0.5,0.8
		C88.4,16.8,88.5,17.2,88.7,17.5z"/>
	<path class="st7" d="M108.5,15.1c1.7,0,3.1,0.4,4.3,1.2c1.2,0.8,2.1,2,2.7,3.5c0.6,1.5,0.9,3.3,0.9,5.3c0,1.5-0.2,2.9-0.5,4.1
		c-0.3,1.2-0.8,2.3-1.5,3.2c-0.7,0.9-1.5,1.6-2.5,2.1c-1,0.5-2.1,0.7-3.3,0.7c-1.2,0-2.4-0.2-3.4-0.7c-1-0.5-1.8-1.2-2.5-2.1
		c-0.7-0.9-1.2-2-1.5-3.2c-0.3-1.3-0.5-2.6-0.5-4.1c0-1.5,0.2-2.9,0.5-4.1c0.4-1.2,0.9-2.3,1.5-3.2s1.5-1.5,2.4-2
		C106.2,15.4,107.2,15.1,108.5,15.1z M113.1,25.2c0-1.4-0.2-2.7-0.6-3.7c-0.4-1-0.9-1.8-1.6-2.4c-0.7-0.5-1.5-0.8-2.4-0.8
		c-0.6,0-1.2,0.1-1.8,0.4c-0.5,0.3-1,0.7-1.4,1.3s-0.7,1.3-0.9,2.2s-0.3,1.9-0.3,3c0,1.1,0.1,2.1,0.3,3c0.2,0.9,0.6,1.6,1,2.2
		c0.4,0.6,0.9,1,1.4,1.3c0.5,0.3,1.1,0.4,1.8,0.4c0.8,0,1.6-0.3,2.3-0.8s1.2-1.3,1.7-2.3C112.9,28,113.1,26.7,113.1,25.2z"/>
	<path class="st7" d="M54.7,54.6c0,1.2-0.2,2.2-0.7,3.2c-0.5,0.9-1.2,1.7-2.2,2.2c-1,0.5-2.1,0.8-3.4,0.8c-1.6,0-2.9-0.4-3.9-1.1
		c-0.7-0.5-1.3-1.2-1.8-2.1C42.2,56.7,42,55.9,42,55c0-0.5,0.1-0.9,0.4-1.2c0.3-0.3,0.6-0.5,1-0.5c0.3,0,0.6,0.1,0.9,0.4
		c0.2,0.3,0.4,0.7,0.6,1.2c0.2,0.6,0.4,1.1,0.7,1.6c0.2,0.4,0.6,0.8,1,1c0.4,0.3,1,0.4,1.7,0.4c1,0,1.7-0.3,2.3-0.8s0.9-1.2,0.9-2
		c0-0.6-0.2-1.2-0.5-1.6c-0.3-0.4-0.7-0.7-1.3-0.9c-0.5-0.2-1.2-0.4-2.1-0.7c-1.1-0.3-2.1-0.7-2.9-1.1s-1.4-1-1.8-1.8
		c-0.5-0.8-0.7-1.7-0.7-2.8c0-1.1,0.2-2,0.7-2.9c0.5-0.8,1.2-1.5,2.1-1.9c0.9-0.4,2-0.7,3.2-0.7c1,0,1.8,0.1,2.5,0.4
		s1.3,0.7,1.8,1.2c0.5,0.5,0.8,1,1,1.5c0.2,0.5,0.3,1.1,0.3,1.6c0,0.5-0.1,0.9-0.4,1.3c-0.3,0.4-0.6,0.6-1,0.6
		c-0.4,0-0.7-0.1-0.8-0.3s-0.4-0.6-0.6-1.1c-0.3-0.7-0.6-1.3-1-1.7s-1.1-0.6-2-0.6c-0.8,0-1.5,0.2-2,0.7c-0.5,0.4-0.8,1-0.8,1.6
		c0,0.4,0.1,0.7,0.3,1s0.4,0.5,0.7,0.7c0.3,0.2,0.6,0.4,0.9,0.5c0.3,0.1,0.8,0.3,1.5,0.5c0.9,0.3,1.7,0.5,2.4,0.9
		c0.7,0.3,1.4,0.7,1.9,1.1c0.5,0.4,0.9,1,1.2,1.7C54.5,52.8,54.7,53.6,54.7,54.6z"/>
	<path class="st7" d="M67.8,44.2h-3.5v14.2c0,0.8-0.1,1.4-0.4,1.8c-0.3,0.4-0.7,0.6-1.2,0.6c-0.5,0-0.9-0.2-1.2-0.6
		c-0.3-0.4-0.5-1-0.5-1.8V44.2h-3.5c-0.6,0-1-0.1-1.2-0.4s-0.4-0.7-0.4-1.2c0-0.5,0.1-0.9,0.4-1.2c0.3-0.3,0.7-0.4,1.2-0.4h10.3
		c0.6,0,1,0.2,1.2,0.5c0.3,0.3,0.4,0.7,0.4,1.2s-0.1,0.9-0.4,1.2S68.3,44.2,67.8,44.2z"/>
	<path class="st7" d="M80.2,58.2l-0.8-2.4h-6.5l-0.8,2.5c-0.3,1-0.6,1.6-0.8,2c-0.2,0.3-0.6,0.5-1,0.5c-0.4,0-0.8-0.2-1.1-0.5
		c-0.3-0.4-0.5-0.8-0.5-1.2c0-0.3,0-0.5,0.1-0.8c0.1-0.3,0.2-0.7,0.4-1.2l4.1-12.7c0.1-0.4,0.3-0.8,0.4-1.3c0.2-0.5,0.3-0.9,0.5-1.3
		c0.2-0.3,0.4-0.6,0.7-0.8c0.3-0.2,0.7-0.3,1.1-0.3c0.5,0,0.8,0.1,1.1,0.3c0.3,0.2,0.5,0.5,0.7,0.8c0.2,0.3,0.3,0.7,0.5,1.1
		s0.3,0.9,0.5,1.5l4.2,12.6c0.3,1,0.5,1.7,0.5,2.1c0,0.5-0.2,0.9-0.5,1.2s-0.7,0.6-1.1,0.6c-0.3,0-0.5-0.1-0.7-0.2s-0.3-0.3-0.5-0.5
		c-0.1-0.2-0.3-0.5-0.4-0.9S80.3,58.5,80.2,58.2z M73.8,52.8h4.8l-2.4-8L73.8,52.8z"/>
	<path class="st7" d="M90.2,43l6.2,11.5V42.9c0-0.8,0.1-1.3,0.4-1.7s0.6-0.6,1.1-0.6c0.5,0,0.8,0.2,1.1,0.6s0.4,0.9,0.4,1.7v15.3
		c0,1.7-0.6,2.6-1.7,2.6c-0.3,0-0.6-0.1-0.8-0.2c-0.2-0.1-0.5-0.3-0.7-0.5c-0.2-0.2-0.4-0.5-0.6-0.8s-0.3-0.6-0.5-0.9l-6.1-11.3
		v11.4c0,0.7-0.1,1.3-0.4,1.7s-0.6,0.6-1.1,0.6c-0.5,0-0.8-0.2-1.1-0.6c-0.3-0.4-0.4-0.9-0.4-1.7v-15c0-0.6,0.1-1.1,0.2-1.5
		c0.1-0.4,0.4-0.7,0.7-1s0.7-0.4,1-0.4c0.3,0,0.5,0.1,0.7,0.2s0.4,0.3,0.5,0.5c0.2,0.2,0.3,0.4,0.5,0.8C89.9,42.3,90,42.6,90.2,43z"
		/>
	<path class="st7" d="M105,40.9h4.2c1.1,0,2,0.1,2.8,0.4s1.5,0.7,2.1,1.4c1.7,1.7,2.5,4.4,2.5,7.9c0,1.2-0.1,2.2-0.3,3.2
		c-0.2,1-0.4,1.8-0.8,2.6c-0.3,0.8-0.8,1.5-1.3,2.1c-0.4,0.5-0.9,0.8-1.4,1.1c-0.5,0.3-1.1,0.5-1.6,0.6c-0.6,0.1-1.2,0.2-2,0.2H105
		c-0.6,0-1-0.1-1.3-0.3c-0.3-0.2-0.5-0.5-0.6-0.9c-0.1-0.4-0.1-0.9-0.1-1.5V43.4c0-0.9,0.2-1.5,0.5-1.8
		C103.8,41.1,104.3,40.9,105,40.9z M106.2,44.1v13.2h2.5c0.5,0,1,0,1.3-0.1c0.3,0,0.6-0.1,0.9-0.3c0.3-0.1,0.6-0.3,0.8-0.6
		c1.1-1.1,1.6-3,1.6-5.8c0-1.9-0.2-3.4-0.7-4.3c-0.5-1-1.1-1.6-1.8-1.8c-0.7-0.3-1.5-0.4-2.5-0.4H106.2z"/>
	<path class="st7" d="M119.6,58.4V43c0-0.8,0.1-1.4,0.4-1.8c0.3-0.4,0.7-0.6,1.2-0.6c0.5,0,0.9,0.2,1.2,0.6c0.3,0.4,0.5,1,0.5,1.8
		v15.3c0,0.8-0.2,1.4-0.5,1.8c-0.3,0.4-0.7,0.6-1.2,0.6c-0.5,0-0.8-0.2-1.1-0.6C119.7,59.8,119.6,59.2,119.6,58.4z"/>
	<path class="st7" d="M130.7,43l6.2,11.5V42.9c0-0.8,0.1-1.3,0.4-1.7s0.6-0.6,1.1-0.6c0.5,0,0.8,0.2,1.1,0.6s0.4,0.9,0.4,1.7v15.3
		c0,1.7-0.6,2.6-1.7,2.6c-0.3,0-0.6-0.1-0.8-0.2c-0.2-0.1-0.5-0.3-0.7-0.5c-0.2-0.2-0.4-0.5-0.6-0.8s-0.3-0.6-0.5-0.9l-6.1-11.3
		v11.4c0,0.7-0.1,1.3-0.4,1.7s-0.6,0.6-1.1,0.6c-0.5,0-0.8-0.2-1.1-0.6c-0.3-0.4-0.4-0.9-0.4-1.7v-15c0-0.6,0.1-1.1,0.2-1.5
		c0.1-0.4,0.4-0.7,0.7-1s0.7-0.4,1-0.4c0.3,0,0.5,0.1,0.7,0.2s0.4,0.3,0.5,0.5c0.2,0.2,0.3,0.4,0.5,0.8
		C130.3,42.3,130.5,42.6,130.7,43z"/>
	<path class="st7" d="M158,52.5v3.7c0,0.5,0,0.9-0.1,1.2s-0.2,0.6-0.4,0.8c-0.2,0.2-0.5,0.5-0.8,0.7c-1,0.6-1.9,1.1-2.8,1.4
		c-0.9,0.3-1.9,0.4-2.9,0.4c-1.2,0-2.3-0.2-3.4-0.7s-1.9-1.1-2.6-2c-0.7-0.9-1.3-1.9-1.6-3.2s-0.6-2.6-0.6-4.2
		c0-1.5,0.2-2.9,0.6-4.2s0.9-2.3,1.6-3.2s1.6-1.5,2.6-2c1-0.5,2.2-0.7,3.5-0.7c1.1,0,2,0.2,2.9,0.5c0.8,0.4,1.5,0.8,2,1.3
		c0.5,0.5,0.9,1.1,1.2,1.7c0.3,0.6,0.4,1.1,0.4,1.6c0,0.5-0.2,0.9-0.5,1.3c-0.3,0.4-0.7,0.5-1.1,0.5c-0.2,0-0.5-0.1-0.7-0.2
		s-0.4-0.3-0.5-0.6c-0.4-0.8-0.7-1.3-1-1.7c-0.3-0.4-0.6-0.7-1.1-1c-0.5-0.3-1.1-0.4-1.8-0.4c-0.7,0-1.4,0.2-2,0.5s-1.1,0.8-1.5,1.4
		c-0.4,0.6-0.7,1.3-1,2.2s-0.3,1.8-0.3,2.9c0,2.3,0.4,4,1.3,5.3c0.9,1.2,2.1,1.8,3.6,1.8c0.7,0,1.5-0.1,2.1-0.4s1.3-0.6,2-1v-3.2
		h-2.5c-0.6,0-1.1-0.1-1.4-0.3c-0.3-0.2-0.5-0.6-0.5-1.1c0-0.4,0.1-0.8,0.4-1.1c0.3-0.3,0.6-0.4,1.1-0.4h3.7c0.5,0,0.8,0,1.1,0.1
		c0.3,0.1,0.6,0.3,0.8,0.7C157.9,51.3,158,51.8,158,52.5z"/>
</g>
</svg>
