<?xml version="1.0" encoding="utf-8"?>
<!-- Generator: Adobe Illustrator 21.1.0, SVG Export Plug-In . SVG Version: 6.00 Build 0)  -->
<svg version="1.1" id="Layer_1" xmlns="http://www.w3.org/2000/svg" xmlns:xlink="http://www.w3.org/1999/xlink" x="0px" y="0px"
	 viewBox="0 0 203 202" style="enable-background:new 0 0 203 202;" xml:space="preserve">
<style type="text/css">
	.st0{fill:#FEE503;}
</style>
<g id="_x3C_DEER_CROSSING_Sign_x3E__2_">
	<path class="st0" d="M96.3,195.9c3,3,7.7,3,10.7,0l89.1-89.1c3-3,3-7.8,0-10.7L107,6.9c-3-3-7.7-3-10.7,0L7.2,96.1
		c-3,2.9-3,7.7,0,10.7L96.3,195.9z"/>
	<path d="M10.6,104.8l87.6,87.7c1.9,1.9,4.9,1.9,6.8,0l87.6-87.7c1.9-1.9,1.9-4.9,0-6.8L105,10.4c-1.9-1.9-4.9-1.9-6.8,0L10.6,98
		C8.8,99.9,8.8,102.9,10.6,104.8z M14,99.7l85.7-85.9c1-1,2.6-1,3.6,0l85.9,85.7c1,1,1,2.6,0,3.6l-85.8,85.8c-1,1-2.6,1-3.6,0
		L14,103.3C13.1,102.3,13.1,100.7,14,99.7z"/>
	<path d="M127.4,103.8c-1.3,1.3,0.8,3.8,0.8,5.2c0,2.9-1.7,5.4-1.6,8.4c0.2,4.9,3.4,7.2,6.2,10.7c3.4,4.1,0.7,10.1,2.5,14.9
		c0.6,1.5,1.6,2,2.9,2.7c0.4,1,0,2.9,0,4c-1.8,0-6.4-5.1-6.9-6.7c-0.5-3.3,0-7.8-1.7-10.8c-2.8-5.1-7.9-7.8-12.5-11.1
		c-3.3-2.4-3.8-6.8-6.9-8.9c-5.4-3.8-13.5-4.6-19.8-5.9c-4-0.8-6.9-3.3-10.7-4.5c-3.1-1-7.4-6.5-10.7-6c-0.3,0,0.6,9.1,1.4,10
		c2,2.2,2.4,2.7,1.6,5.7c-0.9-1-2.7-4.1-3.9-4.5c-2.9-1-1.5-5.7-1.8-7.9c-0.2-1.4-5.5-8.4-1.4-9c4.6-0.6,9.1,1.7,13.3,3.2
		c0-4.1,1.8-7.6,3.5-11.2c1.7-3.5,0.6-8.3,0.7-12.1c0.1-3.1-4.1-2.8-6.3-3.5c-0.7-0.2-1.7-3.4-2-4.2c-0.7-1.9,4-1.2,4.8-1.2
		c2.5-0.3,4.2-1.8,6.9-1.7c2.1,0.1,4.3,0,5.3-1.2c0.4-0.5,0.7-0.6,0.2-2.7c-0.7-3-4-2.3-6.5-3.5c-0.8-0.4-4.2-4.2-3.8-6.9
		c-0.2,0,3,5,4.4,5.6c-0.3-1-2.5-8.7,0.6-8.8c-0.7,1.2-1.1,2.9-0.2,5.2c0.8,2,2.4,3.4,2.8,3.8c0.1-1.3,1.4-6.8,2.7-7.9
		c-2.1,7.1,0.4,8.4,1.9,9.5c1.9,1.4,2-5.5,1.6-8.5c2.3,2.9,2,5.4,1.3,7.8C95.2,55.1,93,58,93,58.7c0,0.5,3.2-0.6,3.9-0.3
		c1.1,0.5-2,4.4-4.1,3.8c1,6.3-0.8,12.6,0.7,19c1.7,7.3,8.9,9.6,14.3,13.3c5.2,3.5,12.6,2.4,16.7,7.3c1.9,0.4,3.2-0.2,5-1.2
		c1.4-0.9,2.8-6.8,2.9-6.9c2.5-0.3,2.7,5,2.3,6.3C133.7,104.1,129.5,101.8,127.4,103.8z"/>
</g>
</svg>
