<?xml version="1.0" encoding="utf-8"?>
<!-- Generator: Adobe Illustrator 21.1.0, SVG Export Plug-In . SVG Version: 6.00 Build 0)  -->
<svg version="1.1" id="Layer_1" xmlns="http://www.w3.org/2000/svg" xmlns:xlink="http://www.w3.org/1999/xlink" x="0px" y="0px"
	 viewBox="0 0 203 202" style="enable-background:new 0 0 203 202;" xml:space="preserve">
<style type="text/css">
	.st0{fill:#FFFFFF;stroke:#000000;stroke-width:0.2994;}
	.st1{fill:#231F20;}
	.st2{fill:#F58532;}
</style>
<path class="st0" d="M201.3,129.2c0,1.5-1.3,2.8-2.8,2.8H5.4c-1.5,0-2.8-1.3-2.8-2.8V62.8c0-1.5,1.3-2.8,2.8-2.8h193.1
	c1.5,0,2.8,1.3,2.8,2.8V129.2z"/>
<path d="M198.3,60.9H5.7c-1.2,0-2.1,0.9-2.1,2.1v66c0,1.2,0.9,2.1,2.1,2.1h192.6c1.2,0,2.1-0.9,2.1-2.1V63
	C200.4,61.9,199.5,60.9,198.3,60.9z M199.6,128.9c0,0.8-0.6,1.4-1.4,1.4H5.8c-0.8,0-1.4-0.6-1.4-1.4V63.2c0-0.8,0.6-1.4,1.4-1.4
	h192.3c0.8,0,1.4,0.6,1.4,1.4V128.9z"/>
<g>
	<g>
		<path class="st1" d="M28.8,100.7V86.8h8.5v2.4h-6v3.3h5.2v2.4h-5.2v5.9H28.8z"/>
		<path class="st1" d="M38.9,93.8c0-1.4,0.2-2.6,0.6-3.6c0.3-0.7,0.7-1.3,1.2-1.9c0.5-0.6,1-1,1.6-1.3c0.8-0.4,1.7-0.6,2.7-0.6
			c1.8,0,3.3,0.6,4.4,1.9c1.1,1.3,1.6,3,1.6,5.3c0,2.3-0.5,4-1.6,5.3s-2.5,1.9-4.4,1.9c-1.8,0-3.3-0.6-4.4-1.9S38.9,96,38.9,93.8z
			 M41.4,93.7c0,1.6,0.3,2.8,1,3.6c0.6,0.8,1.5,1.2,2.5,1.2c1,0,1.8-0.4,2.5-1.2c0.6-0.8,1-2,1-3.6c0-1.6-0.3-2.8-0.9-3.6
			c-0.6-0.8-1.5-1.2-2.5-1.2c-1,0-1.9,0.4-2.5,1.2C41.8,90.9,41.4,92.1,41.4,93.7z"/>
		<path class="st1" d="M52.9,100.7V86.9h2.5v11.5h6.2v2.4H52.9z"/>
		<path class="st1" d="M63.5,100.7V86.9H66v11.5h6.2v2.4H63.5z"/>
		<path class="st1" d="M73.5,93.8c0-1.4,0.2-2.6,0.6-3.6c0.3-0.7,0.7-1.3,1.2-1.9c0.5-0.6,1-1,1.6-1.3c0.8-0.4,1.7-0.6,2.7-0.6
			c1.8,0,3.3,0.6,4.4,1.9c1.1,1.3,1.6,3,1.6,5.3c0,2.3-0.5,4-1.6,5.3s-2.5,1.9-4.4,1.9c-1.8,0-3.3-0.6-4.4-1.9S73.5,96,73.5,93.8z
			 M76.1,93.7c0,1.6,0.3,2.8,1,3.6c0.6,0.8,1.5,1.2,2.5,1.2c1,0,1.8-0.4,2.5-1.2c0.6-0.8,1-2,1-3.6c0-1.6-0.3-2.8-0.9-3.6
			c-0.6-0.8-1.5-1.2-2.5-1.2c-1,0-1.9,0.4-2.5,1.2C76.4,90.9,76.1,92.1,76.1,93.7z"/>
		<path class="st1" d="M89.2,100.7l-3-13.9h2.6l1.9,9.6l2.3-9.6h3l2.2,9.7l1.9-9.7h2.5l-3,13.9h-2.7l-2.5-10.4L92,100.7H89.2z"/>
	</g>
	<g>
		<polygon class="st2" points="176.4,122.9 122.7,122.9 130.9,69.1 168.3,69.1 		"/>
		<g>
			<path class="st1" d="M137.6,100.9h3.8c0.9,0,1.5,0.1,2,0.2c0.6,0.2,1.1,0.6,1.6,1.1c0.4,0.5,0.8,1.2,1,1.9s0.3,1.7,0.3,2.8
				c0,1-0.1,1.8-0.3,2.5c-0.3,0.9-0.6,1.5-1.1,2.1c-0.4,0.4-0.9,0.7-1.5,0.9c-0.5,0.2-1.1,0.2-1.9,0.2h-4V100.9z M139.7,102.9v7.8
				h1.6c0.6,0,1,0,1.3-0.1c0.3-0.1,0.6-0.3,0.8-0.5c0.2-0.2,0.4-0.6,0.6-1.1c0.1-0.5,0.2-1.2,0.2-2.1s-0.1-1.6-0.2-2.1
				c-0.1-0.5-0.3-0.9-0.6-1.1c-0.3-0.3-0.6-0.5-1-0.6c-0.3-0.1-0.9-0.1-1.7-0.1H139.7z"/>
			<path class="st1" d="M147.9,109.5v-2.2h3.9v2.2H147.9z"/>
			<path class="st1" d="M157.6,112.6h-2v-8.5c-0.7,0.8-1.6,1.3-2.6,1.7v-2c0.5-0.2,1.1-0.6,1.7-1.1s1-1.2,1.3-1.9h1.6V112.6z"/>
		</g>
		<g>
			<path class="st1" d="M130.8,85.4h2.5c0.6,0,1,0,1.3,0.1c0.4,0.1,0.7,0.4,1,0.7c0.3,0.3,0.5,0.7,0.6,1.2c0.1,0.5,0.2,1.1,0.2,1.8
				c0,0.6-0.1,1.2-0.2,1.6c-0.2,0.5-0.4,1-0.7,1.3c-0.2,0.3-0.6,0.5-0.9,0.6c-0.3,0.1-0.7,0.2-1.2,0.2h-2.5V85.4z M132.1,86.7v5h1
				c0.4,0,0.6,0,0.8-0.1c0.2-0.1,0.4-0.2,0.5-0.3c0.1-0.1,0.3-0.4,0.4-0.7c0.1-0.3,0.1-0.8,0.1-1.4c0-0.6,0-1-0.1-1.3
				c-0.1-0.3-0.2-0.6-0.4-0.7c-0.2-0.2-0.4-0.3-0.6-0.4c-0.2,0-0.6-0.1-1.1-0.1H132.1z"/>
			<path class="st1" d="M137.5,93v-7.5h5v1.3h-3.6v1.7h3.4v1.3h-3.4v2h3.7V93H137.5z"/>
			<path class="st1" d="M145.3,93v-6.3h-2v-1.3h5.3v1.3h-2V93H145.3z"/>
			<path class="st1" d="M149,89.2c0-0.8,0.1-1.4,0.3-1.9c0.2-0.4,0.4-0.7,0.6-1c0.3-0.3,0.6-0.5,0.9-0.7c0.4-0.2,0.9-0.3,1.4-0.3
				c1,0,1.8,0.3,2.4,1c0.6,0.7,0.9,1.6,0.9,2.9c0,1.2-0.3,2.2-0.9,2.9c-0.6,0.7-1.4,1-2.4,1c-1,0-1.8-0.3-2.4-1
				C149.3,91.4,149,90.4,149,89.2z M150.4,89.2c0,0.9,0.2,1.5,0.5,1.9c0.3,0.4,0.8,0.7,1.3,0.7c0.5,0,1-0.2,1.3-0.7
				c0.3-0.4,0.5-1.1,0.5-2c0-0.9-0.2-1.5-0.5-1.9c-0.3-0.4-0.8-0.6-1.3-0.6c-0.6,0-1,0.2-1.3,0.6S150.4,88.3,150.4,89.2z"/>
			<path class="st1" d="M156.6,85.4h1.4v4.1c0,0.6,0,1.1,0,1.3c0.1,0.3,0.2,0.6,0.4,0.7c0.2,0.2,0.5,0.3,0.9,0.3
				c0.4,0,0.7-0.1,0.9-0.3c0.2-0.2,0.3-0.4,0.4-0.6c0-0.3,0.1-0.7,0.1-1.3v-4.2h1.4v4c0,0.9,0,1.5-0.1,1.9c-0.1,0.4-0.2,0.7-0.4,0.9
				s-0.5,0.5-0.8,0.6c-0.3,0.2-0.8,0.2-1.3,0.2c-0.6,0-1.1-0.1-1.5-0.2c-0.3-0.2-0.6-0.4-0.8-0.6c-0.2-0.3-0.3-0.5-0.4-0.8
				c-0.1-0.4-0.1-1.1-0.1-1.9V85.4z"/>
			<path class="st1" d="M163.4,93v-7.5h2.8c0.7,0,1.2,0.1,1.6,0.2c0.3,0.1,0.6,0.4,0.8,0.7c0.2,0.3,0.3,0.7,0.3,1.2
				c0,0.6-0.1,1-0.4,1.4c-0.3,0.4-0.7,0.6-1.3,0.7c0.3,0.2,0.5,0.4,0.7,0.6c0.2,0.2,0.4,0.6,0.8,1.2l0.8,1.5h-1.6l-1-1.6
				c-0.3-0.6-0.6-1-0.7-1.1s-0.3-0.3-0.4-0.3c-0.1-0.1-0.4-0.1-0.7-0.1h-0.3V93H163.4z M164.7,88.6h1c0.6,0,1.1,0,1.2-0.1
				s0.3-0.2,0.4-0.3c0.1-0.2,0.1-0.3,0.1-0.6c0-0.3-0.1-0.5-0.2-0.6s-0.3-0.3-0.5-0.3c-0.1,0-0.4,0-1,0h-1.1V88.6z"/>
		</g>
	</g>
</g>
</svg>
