<?xml version="1.0" encoding="utf-8"?>
<!-- Generator: Adobe Illustrator 21.1.0, SVG Export Plug-In . SVG Version: 6.00 Build 0)  -->
<svg version="1.1" id="Layer_1" xmlns="http://www.w3.org/2000/svg" xmlns:xlink="http://www.w3.org/1999/xlink" x="0px" y="0px"
	 viewBox="0 0 203 202" style="enable-background:new 0 0 203 202;" xml:space="preserve">
<style type="text/css">
	.st0{fill:#FFFFFF;}
</style>
<g>
	<g>
		<path d="M60.9,117.6c0,1.3-1.1,2.4-2.4,2.4H5.4c-1.3,0-2.4-1.1-2.4-2.4V64.5c0-1.3,1.1-2.4,2.4-2.4h53.2c1.3,0,2.4,1.1,2.4,2.4
			V117.6z"/>
		<path class="st0" d="M46.4,88.6c-2.9-5.1-8.5-9.3-16.8-11.3l0.1-0.4l1.8-3c0,0,0.5-0.8,0-1.6c-0.4-0.9-1.5-0.7-1.5-0.7l-15.3,4.6
			l9.7,12.6c0,0,0.7,0.8,1.6,0.3c0.9-0.4,0.9-1.3,0.9-1.3l0.3-3.5l0.1-0.3c6.6,1.5,10.9,4.7,12.9,8.1c1.8,3.1,1.7,7.2,1.6,12.2
			c0,0.9,0,5.1,0,6.1l7,0c0-1,0-5,0-5.9C49.1,98.8,49.2,93.5,46.4,88.6z"/>
	</g>
	<g>
		<circle cx="31.9" cy="136.2" r="9.1"/>
		<g>
			<path class="st0" d="M32.7,139.7h-1.6v-5.9c-0.6,0.5-1.3,0.9-2,1.2v-1.4c0.4-0.1,0.9-0.4,1.3-0.8s0.8-0.8,1-1.3h1.3V139.7z"/>
		</g>
	</g>
</g>
<g>
	<g>
		<path d="M201.2,117.6c0,1.3-1.1,2.4-2.4,2.4h-53.2c-1.3,0-2.4-1.1-2.4-2.4V64.5c0-1.3,1.1-2.4,2.4-2.4h53.2c1.3,0,2.4,1.1,2.4,2.4
			V117.6z"/>
		<path class="st0" d="M157.5,88.6c3-5.2,8.7-9.4,17-11.5l-0.1-0.4l-1.8-3.1c0,0-0.5-0.8,0-1.6c0.5-0.9,1.5-0.7,1.5-0.7l15.5,4.6
			l-9.9,12.8c0,0-0.7,0.8-1.6,0.3c-0.9-0.4-0.9-1.4-0.9-1.4l-0.3-3.5l-0.1-0.3c-6.7,1.5-11.1,4.8-13.1,8.2
			c-1.8,3.2-1.8,7.3-1.7,12.4c0,0.9,0,5.2,0,6.2l-7.1,0c0-1,0-5.1,0-6C154.8,98.9,154.7,93.5,157.5,88.6z"/>
	</g>
	<g>
		<path d="M172.2,127.1c-5,0-9.1,4.1-9.1,9.1c0,5,4.1,9.1,9.1,9.1s9.1-4.1,9.1-9.1C181.3,131.2,177.3,127.1,172.2,127.1"/>
		<g>
			<path class="st0" d="M168.9,137.5l1.5-0.2c0,0.4,0.2,0.7,0.4,0.9c0.2,0.2,0.5,0.3,0.8,0.3c0.3,0,0.6-0.1,0.8-0.4
				c0.2-0.2,0.3-0.6,0.3-1c0-0.4-0.1-0.7-0.3-0.9c-0.2-0.2-0.5-0.3-0.8-0.3c-0.2,0-0.4,0-0.7,0.1l0.2-1.3c0.4,0,0.8-0.1,1-0.3
				c0.2-0.2,0.3-0.5,0.3-0.8c0-0.3-0.1-0.5-0.2-0.7c-0.2-0.2-0.4-0.2-0.7-0.2c-0.3,0-0.5,0.1-0.7,0.3c-0.2,0.2-0.3,0.5-0.3,0.8
				l-1.5-0.2c0.1-0.5,0.3-0.9,0.5-1.2c0.2-0.3,0.5-0.5,0.9-0.7c0.4-0.2,0.8-0.3,1.2-0.3c0.8,0,1.4,0.2,1.9,0.7
				c0.4,0.4,0.6,0.9,0.6,1.4c0,0.7-0.4,1.3-1.2,1.7c0.5,0.1,0.8,0.3,1.1,0.7c0.3,0.4,0.4,0.8,0.4,1.3c0,0.7-0.3,1.3-0.8,1.8
				c-0.5,0.5-1.2,0.8-2,0.8c-0.7,0-1.4-0.2-1.9-0.6C169.3,138.8,169,138.2,168.9,137.5z"/>
		</g>
	</g>
</g>
<g>
	<g>
		<path d="M131,117.6c0,1.3-1.1,2.4-2.4,2.4H75.5c-1.3,0-2.4-1.1-2.4-2.4V64.5c0-1.3,1.1-2.4,2.4-2.4h53.2c1.3,0,2.4,1.1,2.4,2.4
			V117.6z"/>
		<path class="st0" d="M120.4,77.3l-8.5-12.4l-8.5,12.4c0,0-0.5,0.9,0.2,1.5c0.6,0.6,1.5,0.4,1.5,0.4l3.2-0.7l0,16.1
			c-2.8-2.3-6.5-4.2-11-5.3l0.1-0.3l1.6-2.7c0,0,0.4-0.7,0-1.5c-0.4-0.8-1.3-0.6-1.3-0.6l-13.9,4.2l8.8,11.5c0,0,0.7,0.7,1.4,0.3
			c0.8-0.4,0.8-1.2,0.8-1.2l0.3-3.2l0.1-0.3c6,1.4,9.9,4.3,11.7,7.4c0.7,1.2,1.1,2.6,1.3,4.2l0,10.4h7.3l0-38.8l3.2,0.8
			c0,0,0.8,0.2,1.5-0.4C120.8,78.1,120.4,77.3,120.4,77.3z"/>
	</g>
	<g>
		<path d="M102.1,127.1c-5,0-9.1,4.1-9.1,9.1c0,5,4.1,9.1,9.1,9.1s9.1-4.1,9.1-9.1C111.2,131.2,107.1,127.1,102.1,127.1"/>
		<g>
			<path class="st0" d="M104.2,138.3v1.5h-5.5c0.1-0.6,0.2-1.1,0.5-1.6c0.3-0.5,0.9-1.2,1.8-2c0.7-0.7,1.1-1.1,1.3-1.3
				c0.2-0.3,0.3-0.6,0.3-1c0-0.4-0.1-0.6-0.3-0.8c-0.2-0.2-0.4-0.3-0.8-0.3c-0.3,0-0.6,0.1-0.8,0.3s-0.3,0.5-0.3,1l-1.6-0.2
				c0.1-0.9,0.4-1.5,0.9-1.9c0.5-0.4,1.1-0.6,1.9-0.6c0.8,0,1.4,0.2,1.9,0.7c0.5,0.4,0.7,1,0.7,1.6c0,0.4-0.1,0.7-0.2,1.1
				c-0.1,0.3-0.3,0.7-0.6,1.1c-0.2,0.2-0.5,0.6-1,1s-0.8,0.8-0.9,0.9c-0.1,0.1-0.2,0.3-0.3,0.4H104.2z"/>
		</g>
	</g>
</g>
</svg>
