<?xml version="1.0" encoding="utf-8"?>
<!-- Generator: Adobe Illustrator 21.1.0, SVG Export Plug-In . SVG Version: 6.00 Build 0)  -->
<svg version="1.1" id="Layer_1" xmlns="http://www.w3.org/2000/svg" xmlns:xlink="http://www.w3.org/1999/xlink" x="0px" y="0px"
	 viewBox="0 0 203 202" style="enable-background:new 0 0 203 202;" xml:space="preserve">
<style type="text/css">
	.st0{fill:#FFFFFF;stroke:#000000;stroke-width:0.25;}
	.st1{fill:#058040;}
	.st2{fill:none;}
	.st3{fill:#FFFFFF;}
	.st4{fill:none;stroke:#FFFFFF;stroke-width:0.75;}
</style>
<g>
	<path class="st0" d="M194.9,42.2c3,0,5.4,2.3,5.4,5.2v118.1c0,2.9-2.4,5.2-5.4,5.2H8.1c-3,0-5.4-2.3-5.4-5.2V47.5
		c0-2.9,2.4-5.2,5.4-5.2H194.9z"/>
	<g>
		<path class="st1" d="M192.9,44.2c3.1,0,5.5,2.5,5.5,5.5v113.6c0,3.1-2.5,5.5-5.5,5.5H10.2c-3.1,0-5.5-2.5-5.5-5.5V49.7
			c0-3.1,2.5-5.5,5.5-5.5H192.9z"/>
		<g>
			<rect x="13" y="56.2" class="st2" width="177.1" height="107.4"/>
			<path class="st3" d="M95.1,70.6V57.9h-4.8v-1.7h11.5v1.7H97v12.7H95.1z"/>
			<path class="st3" d="M102.8,63.6c0-2.4,0.6-4.3,1.9-5.6c1.3-1.4,3-2,5-2c1.3,0,2.5,0.3,3.6,1c1.1,0.6,1.9,1.5,2.4,2.7
				c0.6,1.1,0.8,2.4,0.8,3.9c0,1.5-0.3,2.8-0.9,3.9c-0.6,1.2-1.4,2-2.5,2.6s-2.3,0.9-3.5,0.9c-1.4,0-2.6-0.3-3.6-1
				c-1.1-0.7-1.9-1.6-2.4-2.7C103.1,66.1,102.8,64.9,102.8,63.6z M104.8,63.6c0,1.7,0.5,3.1,1.4,4.1c0.9,1,2.1,1.5,3.5,1.5
				c1.4,0,2.6-0.5,3.6-1.5c0.9-1,1.4-2.4,1.4-4.3c0-1.2-0.2-2.2-0.6-3.1c-0.4-0.9-1-1.6-1.7-2s-1.6-0.7-2.6-0.7
				c-1.4,0-2.5,0.5-3.5,1.4C105.3,59.9,104.8,61.4,104.8,63.6z"/>
			<path class="st3" d="M119.1,70.6V56.2h6.4c1.3,0,2.3,0.1,2.9,0.4c0.7,0.3,1.2,0.7,1.6,1.4c0.4,0.7,0.6,1.4,0.6,2.2
				c0,1-0.3,1.9-1,2.6c-0.7,0.7-1.7,1.1-3.1,1.3c0.5,0.2,0.9,0.5,1.2,0.7c0.6,0.5,1.1,1.2,1.6,1.9l2.5,3.9h-2.4l-1.9-3
				c-0.6-0.9-1-1.5-1.4-2s-0.7-0.8-1-1c-0.3-0.2-0.6-0.3-0.9-0.4c-0.2,0-0.6-0.1-1.1-0.1H121v6.4H119.1z M121,62.6h4.1
				c0.9,0,1.6-0.1,2-0.3c0.5-0.2,0.9-0.5,1.1-0.9c0.3-0.4,0.4-0.8,0.4-1.3c0-0.7-0.2-1.2-0.7-1.7c-0.5-0.4-1.3-0.7-2.4-0.7H121V62.6
				z"/>
			<path class="st3" d="M133.1,63.6c0-2.4,0.6-4.3,1.9-5.6c1.3-1.4,3-2,5-2c1.3,0,2.5,0.3,3.6,1c1.1,0.6,1.9,1.5,2.4,2.7
				c0.6,1.1,0.8,2.4,0.8,3.9c0,1.5-0.3,2.8-0.9,3.9c-0.6,1.2-1.4,2-2.5,2.6s-2.3,0.9-3.5,0.9c-1.4,0-2.6-0.3-3.6-1
				c-1.1-0.7-1.9-1.6-2.4-2.7S133.1,64.9,133.1,63.6z M135.1,63.6c0,1.7,0.5,3.1,1.4,4.1c0.9,1,2.1,1.5,3.5,1.5
				c1.4,0,2.6-0.5,3.6-1.5c0.9-1,1.4-2.4,1.4-4.3c0-1.2-0.2-2.2-0.6-3.1s-1-1.6-1.7-2c-0.8-0.5-1.6-0.7-2.6-0.7
				c-1.4,0-2.5,0.5-3.5,1.4C135.6,59.9,135.1,61.4,135.1,63.6z"/>
			<path class="st3" d="M149.4,70.6V56.2h2l7.6,11.3V56.2h1.8v14.4h-2l-7.6-11.4v11.4H149.4z"/>
			<path class="st3" d="M167.6,70.6V57.9h-4.8v-1.7h11.5v1.7h-4.8v12.7H167.6z"/>
			<path class="st3" d="M175.3,63.6c0-2.4,0.6-4.3,1.9-5.6c1.3-1.4,3-2,5-2c1.3,0,2.5,0.3,3.6,1c1.1,0.6,1.9,1.5,2.4,2.7
				c0.6,1.1,0.8,2.4,0.8,3.9c0,1.5-0.3,2.8-0.9,3.9c-0.6,1.2-1.4,2-2.5,2.6s-2.3,0.9-3.5,0.9c-1.4,0-2.6-0.3-3.6-1
				c-1.1-0.7-1.9-1.6-2.4-2.7S175.3,64.9,175.3,63.6z M177.3,63.6c0,1.7,0.5,3.1,1.4,4.1c0.9,1,2.1,1.5,3.5,1.5
				c1.4,0,2.6-0.5,3.6-1.5c0.9-1,1.4-2.4,1.4-4.3c0-1.2-0.2-2.2-0.6-3.1s-1-1.6-1.7-2c-0.8-0.5-1.6-0.7-2.6-0.7
				c-1.4,0-2.5,0.5-3.5,1.4C177.8,59.9,177.3,61.4,177.3,63.6z"/>
			<path class="st3" d="M117.2,113.1V98.7h2.9l3.4,10.2c0.3,1,0.5,1.7,0.7,2.1c0.2-0.5,0.4-1.3,0.8-2.3l3.5-10.1h2.6v14.4h-1.8V101
				l-4.2,12.1h-1.7l-4.2-12.3v12.3H117.2z"/>
			<path class="st3" d="M134.4,113.1V98.7h1.9v14.4H134.4z"/>
			<path class="st3" d="M139.6,113.1V98.7h1.9v12.7h7.1v1.7H139.6z"/>
			<path class="st3" d="M153,113.1v-12.7h-4.8v-1.7h11.5v1.7H155v12.7H153z"/>
			<path class="st3" d="M160.8,106.1c0-2.4,0.6-4.3,1.9-5.6c1.3-1.4,3-2,5-2c1.3,0,2.5,0.3,3.6,1c1.1,0.6,1.9,1.5,2.4,2.7
				c0.6,1.1,0.8,2.4,0.8,3.9c0,1.5-0.3,2.8-0.9,3.9c-0.6,1.2-1.4,2-2.5,2.6s-2.3,0.9-3.5,0.9c-1.4,0-2.6-0.3-3.6-1
				c-1.1-0.7-1.9-1.6-2.4-2.7S160.8,107.4,160.8,106.1z M162.7,106.1c0,1.7,0.5,3.1,1.4,4.1c0.9,1,2.1,1.5,3.5,1.5
				c1.4,0,2.6-0.5,3.6-1.5c0.9-1,1.4-2.4,1.4-4.3c0-1.2-0.2-2.2-0.6-3.1s-1-1.6-1.7-2c-0.8-0.5-1.6-0.7-2.6-0.7
				c-1.4,0-2.5,0.5-3.5,1.4C163.2,102.4,162.7,103.9,162.7,106.1z"/>
			<path class="st3" d="M177,113.1V98.7h2l7.6,11.3V98.7h1.8v14.4h-2l-7.6-11.4v11.4H177z"/>
			<path class="st3" d="M14,148.6c0-2.4,0.6-4.3,1.9-5.6s3-2,5-2c1.3,0,2.5,0.3,3.6,1c1.1,0.6,1.9,1.5,2.4,2.7
				c0.6,1.1,0.8,2.4,0.8,3.9c0,1.5-0.3,2.8-0.9,3.9c-0.6,1.2-1.4,2-2.5,2.6c-1.1,0.6-2.3,0.9-3.5,0.9c-1.4,0-2.6-0.3-3.6-1
				s-1.9-1.6-2.4-2.7C14.2,151,14,149.8,14,148.6z M15.9,148.6c0,1.7,0.5,3.1,1.4,4.1c0.9,1,2.1,1.5,3.5,1.5c1.4,0,2.6-0.5,3.6-1.5
				s1.4-2.4,1.4-4.3c0-1.2-0.2-2.2-0.6-3.1s-1-1.6-1.7-2c-0.8-0.5-1.6-0.7-2.6-0.7c-1.4,0-2.5,0.5-3.5,1.4S15.9,146.4,15.9,148.6z"
				/>
			<path class="st3" d="M28.7,155.6l5.5-14.4h2.1l5.9,14.4H40l-1.7-4.4h-6l-1.6,4.4H28.7z M32.8,149.7h4.9l-1.5-4
				c-0.5-1.2-0.8-2.2-1-3c-0.2,0.9-0.4,1.8-0.8,2.8L32.8,149.7z"/>
			<path class="st3" d="M43.6,155.6v-14.4h1.9v7.2l7.2-7.2h2.6l-6.1,5.9l6.3,8.6H53l-5.1-7.3l-2.4,2.3v5H43.6z"/>
			<path class="st3" d="M61.3,155.6l-5.6-14.4h2.1l3.8,10.5c0.3,0.8,0.6,1.6,0.8,2.4c0.2-0.8,0.5-1.6,0.8-2.4l3.9-10.5h2l-5.7,14.4
				H61.3z"/>
			<path class="st3" d="M71,155.6v-14.4h1.9v14.4H71z"/>
			<path class="st3" d="M76.2,155.6v-14.4h1.9v12.7h7.1v1.7H76.2z"/>
			<path class="st3" d="M87.4,155.6v-14.4h1.9v12.7h7.1v1.7H87.4z"/>
			<path class="st3" d="M98.7,155.6v-14.4h10.4v1.7h-8.5v4.4h8v1.7h-8v4.9h8.9v1.7H98.7z"/>
		</g>
	</g>
	<g>
		<g>
			<polygon class="st3" points="38.7,99.8 38.5,93.6 23.9,103 38.7,112.8 38.7,106.4 38.7,106.3 66.9,106.3 66.9,99.8 			"/>
		</g>
		<rect x="60.3" y="99.8" class="st3" width="6.5" height="16.8"/>
	</g>
	<g>
		<polygon class="st3" points="45.2,60.9 51.4,60.6 42.1,46.1 32.2,60.8 38.6,60.8 38.7,60.8 38.7,80.3 45.2,80.3 		"/>
	</g>
	<g>
		<g>
			<polygon class="st3" points="172,145.8 172.2,152 186.8,142.6 172,132.8 172,139.2 172,139.3 143.8,139.3 143.9,145.8 			"/>
		</g>
		<rect x="143.7" y="139.5" class="st3" width="6.5" height="16.8"/>
	</g>
	<line class="st4" x1="4.3" y1="86.1" x2="198.2" y2="86.1"/>
	<line class="st4" x1="4.3" y1="127.5" x2="198.2" y2="127.5"/>
</g>
</svg>
