<?xml version="1.0" encoding="utf-8"?>
<!-- Generator: Adobe Illustrator 21.1.0, SVG Export Plug-In . SVG Version: 6.00 Build 0)  -->
<svg version="1.1" id="Layer_1" xmlns="http://www.w3.org/2000/svg" xmlns:xlink="http://www.w3.org/1999/xlink" x="0px" y="0px"
	 viewBox="0 0 203 202" style="enable-background:new 0 0 203 202;" xml:space="preserve">
<style type="text/css">
	.st0{fill:#FFFFFF;stroke:#000000;stroke-width:0.25;}
	.st1{fill:#058040;}
	.st2{fill:none;}
	.st3{fill:#FFFFFF;}
</style>
<path class="st0" d="M195.2,55.4c3,0,5.4,2.3,5.4,5.2v79.5c0,2.9-2.4,5.2-5.4,5.2H7.8c-3,0-5.4-2.4-5.4-5.2V60.6
	c0-2.9,2.4-5.2,5.4-5.2H195.2z"/>
<g>
	<path class="st1" d="M193.1,57.3c3.1,0,5.5,2.5,5.5,5.5v74.9c0,3.1-2.5,5.5-5.5,5.5H9.9c-3.1,0-5.5-2.5-5.5-5.5V62.9
		c0-3.1,2.5-5.5,5.5-5.5H193.1z"/>
	<g>
		<rect x="12.7" y="69.4" class="st2" width="177.6" height="69"/>
		<path class="st3" d="M14.6,87V69.4h6.1c1.4,0,2.4,0.1,3.1,0.3c1,0.2,1.9,0.7,2.6,1.3c0.9,0.8,1.6,1.8,2.1,3
			c0.5,1.2,0.7,2.6,0.7,4.2c0,1.3-0.2,2.5-0.5,3.6c-0.3,1-0.7,1.9-1.2,2.6s-1,1.2-1.6,1.6c-0.6,0.4-1.3,0.7-2.1,0.9
			C23,86.9,22,87,21,87H14.6z M16.9,84.9h3.8c1.2,0,2.1-0.1,2.7-0.3c0.7-0.2,1.2-0.5,1.6-0.9c0.6-0.6,1-1.3,1.3-2.2
			c0.3-0.9,0.5-2.1,0.5-3.4c0-1.8-0.3-3.3-0.9-4.2c-0.6-1-1.3-1.7-2.2-2c-0.6-0.2-1.6-0.4-3-0.4h-3.7V84.9z"/>
		<path class="st3" d="M32.4,87V69.4h12.7v2.1H34.8v5.4h9.7v2.1h-9.7v6h10.8V87H32.4z"/>
		<path class="st3" d="M48.7,87V69.4H51v15.5h8.7V87H48.7z"/>
		<path class="st3" d="M65.1,87V71.4h-5.8v-2.1h14v2.1h-5.8V87H65.1z"/>
		<path class="st3" d="M71.9,87l6.8-17.6h2.5L88.4,87h-2.7l-2.1-5.3h-7.4L74.4,87H71.9z M77,79.7h6l-1.8-4.9c-0.6-1.5-1-2.7-1.2-3.6
			c-0.2,1.1-0.5,2.2-0.9,3.4L77,79.7z"/>
		<path class="st3" d="M153,87h-2.2V73.2c-0.5,0.5-1.2,1-2,1.5c-0.8,0.5-1.6,0.9-2.3,1.1v-2.1c1.2-0.6,2.3-1.3,3.2-2.1
			c0.9-0.8,1.5-1.6,1.9-2.4h1.4V87z"/>
		<path class="st3" d="M165.5,87v-4.2h-7.6v-2l8-11.4h1.8v11.4h2.4v2h-2.4V87H165.5z M165.5,80.8v-7.9l-5.5,7.9H165.5z"/>
		<path class="st3" d="M179.2,87v-4.2h-7.6v-2l8-11.4h1.8v11.4h2.4v2h-2.4V87H179.2z M179.2,80.8v-7.9l-5.5,7.9H179.2z"/>
		<path class="st3" d="M13.8,122.3l2.2-0.2c0.1,0.9,0.3,1.6,0.7,2.2c0.4,0.6,1,1,1.8,1.4c0.8,0.3,1.7,0.5,2.7,0.5
			c0.9,0,1.7-0.1,2.4-0.4c0.7-0.3,1.2-0.6,1.5-1.1s0.5-1,0.5-1.5c0-0.6-0.2-1-0.5-1.4c-0.3-0.4-0.8-0.8-1.6-1
			c-0.5-0.2-1.5-0.5-3.1-0.9c-1.6-0.4-2.7-0.8-3.4-1.1c-0.8-0.4-1.5-1-1.9-1.6s-0.6-1.4-0.6-2.2c0-0.9,0.3-1.7,0.8-2.5
			s1.2-1.4,2.2-1.8c1-0.4,2-0.6,3.2-0.6c1.3,0,2.5,0.2,3.5,0.6c1,0.4,1.8,1,2.3,1.9s0.8,1.7,0.9,2.8l-2.2,0.2
			c-0.1-1.1-0.5-2-1.2-2.5c-0.7-0.6-1.7-0.9-3.1-0.9c-1.4,0-2.4,0.3-3.1,0.8c-0.6,0.5-1,1.1-1,1.9c0,0.6,0.2,1.2,0.7,1.6
			c0.4,0.4,1.6,0.8,3.5,1.3c1.9,0.4,3.2,0.8,3.9,1.1c1,0.5,1.8,1.1,2.3,1.8c0.5,0.7,0.7,1.6,0.7,2.5c0,0.9-0.3,1.8-0.8,2.6
			s-1.3,1.5-2.3,1.9c-1,0.5-2.1,0.7-3.4,0.7c-1.6,0-2.9-0.2-4-0.7c-1.1-0.5-1.9-1.2-2.5-2.1S13.9,123.5,13.8,122.3z"/>
		<path class="st3" d="M42.6,110.3h2.3v10.2c0,1.8-0.2,3.2-0.6,4.2c-0.4,1-1.1,1.9-2.2,2.5s-2.4,1-4.1,1c-1.6,0-3-0.3-4-0.9
			c-1-0.6-1.8-1.4-2.2-2.5c-0.4-1.1-0.7-2.5-0.7-4.4v-10.2h2.3v10.2c0,1.5,0.1,2.7,0.4,3.4c0.3,0.7,0.8,1.3,1.5,1.7
			c0.7,0.4,1.5,0.6,2.5,0.6c1.7,0,2.9-0.4,3.7-1.2s1.1-2.3,1.1-4.5V110.3z"/>
		<path class="st3" d="M48.8,127.9v-17.6h7.8c1.6,0,2.8,0.2,3.6,0.5c0.8,0.3,1.5,0.9,2,1.7c0.5,0.8,0.7,1.7,0.7,2.7
			c0,1.2-0.4,2.3-1.2,3.2c-0.8,0.9-2.1,1.4-3.7,1.6c0.6,0.3,1.1,0.6,1.4,0.9c0.7,0.6,1.3,1.4,1.9,2.3l3.1,4.8h-2.9l-2.3-3.7
			c-0.7-1.1-1.2-1.9-1.7-2.4c-0.4-0.6-0.8-1-1.2-1.2c-0.3-0.2-0.7-0.4-1.1-0.5c-0.3-0.1-0.7-0.1-1.3-0.1h-2.7v7.8H48.8z M51.1,118.1
			h5c1.1,0,1.9-0.1,2.5-0.3c0.6-0.2,1.1-0.6,1.4-1.1c0.3-0.5,0.5-1,0.5-1.6c0-0.8-0.3-1.5-0.9-2.1c-0.6-0.5-1.6-0.8-2.9-0.8h-5.6
			V118.1z"/>
		<path class="st3" d="M66.6,127.9v-17.6h7.8c1.6,0,2.8,0.2,3.6,0.5c0.8,0.3,1.5,0.9,2,1.7c0.5,0.8,0.7,1.7,0.7,2.7
			c0,1.2-0.4,2.3-1.2,3.2c-0.8,0.9-2.1,1.4-3.7,1.6c0.6,0.3,1.1,0.6,1.4,0.9c0.7,0.6,1.3,1.4,1.9,2.3l3.1,4.8h-2.9l-2.3-3.7
			c-0.7-1.1-1.2-1.9-1.7-2.4c-0.4-0.6-0.8-1-1.2-1.2c-0.3-0.2-0.7-0.4-1.1-0.5c-0.3-0.1-0.7-0.1-1.3-0.1h-2.7v7.8H66.6z M68.9,118.1
			h5c1.1,0,1.9-0.1,2.5-0.3c0.6-0.2,1.1-0.6,1.4-1.1c0.3-0.5,0.5-1,0.5-1.6c0-0.8-0.3-1.5-0.9-2.1c-0.6-0.5-1.6-0.8-2.9-0.8h-5.6
			V118.1z"/>
		<path class="st3" d="M84.3,127.9v-17.6h12.7v2.1H86.7v5.4h9.7v2.1h-9.7v6h10.8v2.1H84.3z"/>
		<path class="st3" d="M105.6,127.9v-7.5l-6.8-10.1h2.8l3.5,5.3c0.6,1,1.2,2,1.8,3c0.5-0.9,1.2-2,1.9-3.1l3.4-5.2h2.7l-7,10.1v7.5
			H105.6z"/>
		<path class="st3" d="M153,127.9h-2.2v-13.8c-0.5,0.5-1.2,1-2,1.5s-1.6,0.9-2.3,1.1v-2.1c1.2-0.6,2.3-1.3,3.2-2.1s1.5-1.6,1.9-2.4
			h1.4V127.9z"/>
		<path class="st3" d="M158.6,123.3l2.3-0.2c0.2,1.1,0.6,1.9,1.2,2.5c0.6,0.6,1.4,0.8,2.2,0.8c1,0,1.9-0.4,2.6-1.2
			c0.7-0.8,1.1-1.8,1.1-3.1c0-1.2-0.3-2.2-1-2.9c-0.7-0.7-1.6-1.1-2.7-1.1c-0.7,0-1.3,0.2-1.9,0.5c-0.6,0.3-1,0.7-1.3,1.2l-2-0.3
			l1.7-9h8.8v2.1h-7l-0.9,4.7c1.1-0.7,2.2-1.1,3.3-1.1c1.5,0,2.8,0.5,3.9,1.6s1.6,2.4,1.6,4.1c0,1.6-0.5,3-1.4,4.1
			c-1.1,1.4-2.7,2.1-4.6,2.1c-1.6,0-2.9-0.4-3.9-1.3C159.3,126,158.7,124.8,158.6,123.3z"/>
		<path class="st3" d="M179.2,127.9v-4.2h-7.6v-2l8-11.4h1.8v11.4h2.4v2h-2.4v4.2H179.2z M179.2,121.8v-7.9l-5.5,7.9H179.2z"/>
	</g>
</g>
</svg>
