<?xml version="1.0" encoding="utf-8"?>
<!-- Generator: Adobe Illustrator 21.1.0, SVG Export Plug-In . SVG Version: 6.00 Build 0)  -->
<svg version="1.1" id="Layer_1" xmlns="http://www.w3.org/2000/svg" xmlns:xlink="http://www.w3.org/1999/xlink" x="0px" y="0px"
	 viewBox="0 0 203 202" style="enable-background:new 0 0 203 202;" xml:space="preserve">
<style type="text/css">
	.st0{fill:#FEE503;stroke:#000000;stroke-width:0.25;}
</style>
<g id="_x3C_DIVIDED_HIGHWAY_Sign_x3E__3_">
	<path class="st0" d="M106.7,5c-3-3-7.9-3-10.9,0L5.4,95.6c-3,3-3,7.9,0,10.9L95.9,197c3,3,7.9,3,10.9,0l90.5-90.5c3-3,3-7.9,0-10.9
		L106.7,5z"/>
	<path d="M193.7,97.6l-89-89c-1.9-1.9-5-1.9-6.9,0l-89,89c-1.9,1.9-1.9,5,0,6.9l89,89c1.9,1.9,5,1.9,6.9,0l89-89
		C195.6,102.5,195.6,99.5,193.7,97.6z M190.3,102.7L103.2,190c-1,1-2.6,1-3.6,0l-87.3-87c-1-1-1-2.6,0-3.6l87.1-87.2
		c1-1,2.6-1,3.6,0l87.1,86.9C191.3,100.1,191.3,101.7,190.3,102.7z"/>
	<path d="M50.7,113.2l19.2,27.9L89,113.3c0,0,1.1-1.9-0.4-3.4s-3.3-1-3.3-1l-7.5,1.9h-0.5l-0.1-2.3c0-9.2,0.5-18.6,6.1-25.9
		c5.7-7.4,8.9-15.1,8.9-24.3V47.7h-15v6.5c0,9.2-3.2,16.9-8.9,24.3c-5.6,7.3-6.1,16.7-6.1,25.9v6.3h-0.4l-7.5-1.9c0,0-1.9-0.5-3.3,1
		C49.6,111.2,50.7,113.2,50.7,113.2z"/>
	<path d="M105.2,75.7l19.2-27.9l19.2,27.8c0,0,1.1,2-0.4,3.4c-1.5,1.5-3.3,1-3.3,1l-7.5-1.9h-0.5l-0.1,2.3c0,9.2,0.5,18.6,6.1,25.9
		c5.8,7.4,8.9,15.1,8.9,24.3v10.6h-15v-6.5c0-9.3-3.2-16.9-8.9-24.3c-5.6-7.3-6.1-16.7-6.1-25.9v-6.3h-0.4l-7.5,1.9
		c0,0-1.8,0.5-3.3-1C104.1,77.6,105.2,75.7,105.2,75.7z"/>
	<path d="M86.8,159.4c0-1.2,0-6.5,0.7-13.2c0.6-5.7,2.2-12.4,3.6-18.5c1.3-5.2,3.4-11.3,3.8-12.3c0.8-1.9,3-5.4,7.4-5.4h0.3
		c4.4,0,6.6,3.4,7.4,5.4c0.4,1,2.6,7.1,3.9,12.3c1.5,6.1,3,12.8,3.6,18.5c0.7,6.7,0.7,12,0.7,13.2H86.8z"/>
</g>
</svg>
