<?xml version="1.0" encoding="utf-8"?>
<!-- Generator: Adobe Illustrator 21.1.0, SVG Export Plug-In . SVG Version: 6.00 Build 0)  -->
<svg version="1.1" id="Layer_1" xmlns="http://www.w3.org/2000/svg" xmlns:xlink="http://www.w3.org/1999/xlink" x="0px" y="0px"
	 viewBox="0 0 203 202" style="enable-background:new 0 0 203 202;" xml:space="preserve">
<style type="text/css">
	.st0{fill:#FFFFFF;stroke:#000000;stroke-width:0.2994;}
	.st1{fill:#CA2027;}
</style>
<g>
	<g>
		<path class="st0" d="M200.7,185.8c0,8.1-6.6,14.7-14.7,14.7H17.5c-8.1,0-14.7-6.6-14.7-14.7V17.3c0-8.1,6.6-14.7,14.7-14.7H186
			c8.1,0,14.7,6.6,14.7,14.7V185.8z"/>
		<path d="M184.5,7.5h-166c-6.1,0-11,4.9-11,11v166c0,6.1,4.9,11,11,11h166c6.1,0,11-4.9,11-11v-166C195.5,12.5,190.5,7.5,184.5,7.5
			z M191,183.8c0,4-3.3,7.3-7.3,7.3H19.2c-4.1,0-7.3-3.3-7.3-7.3V19.3c0-4,3.3-7.3,7.3-7.3h164.5c4.1,0,7.3,3.3,7.3,7.3V183.8z"/>
	</g>
	<path d="M128.6,71.5l-23.8-34.6L81,71.3c0,0-1.3,2.4,0.5,4.2c1.8,1.8,4.1,1.2,4.1,1.2l8.9-2.1l0,89.7h20.4l0.1-89.6l9,2.1
		c0,0,2.3,0.6,4.1-1.2C129.9,73.9,128.6,71.5,128.6,71.5z"/>
	<path class="st1" d="M102.8,21.3c-44.8,0-81.1,36.3-81.1,81.1c0,44.8,36.3,81.1,81.1,81.1c44.8,0,81.1-36.3,81.1-81.1
		C183.8,57.6,147.5,21.3,102.8,21.3z M170.2,102.4c0,16-5.6,30.6-14.9,42.2L60.6,49.9C72.1,40.6,86.8,35,102.8,35
		C139.9,35,170.2,65.2,170.2,102.4z M35.4,102.4c0-16.1,5.7-30.9,15.2-42.5l94.7,94.7c-11.6,9.5-26.4,15.2-42.5,15.2
		C65.6,169.8,35.4,139.6,35.4,102.4z"/>
</g>
</svg>
