<?xml version="1.0" encoding="utf-8"?>
<!-- Generator: Adobe Illustrator 21.1.0, SVG Export Plug-In . SVG Version: 6.00 Build 0)  -->
<svg version="1.1" id="Layer_1" xmlns="http://www.w3.org/2000/svg" xmlns:xlink="http://www.w3.org/1999/xlink" x="0px" y="0px"
	 viewBox="0 0 203 202" style="enable-background:new 0 0 203 202;" xml:space="preserve">
<style type="text/css">
	.st0{fill:#FFFFFF;stroke:#000000;stroke-width:0.2994;}
	.st1{fill:#CA2027;}
	.st2{fill:#FFFFFF;}
</style>
<g>
	<g>
		<path class="st0" d="M198,183.2c0,7.9-6.4,14.3-14.3,14.3H19.8c-7.9,0-14.3-6.4-14.3-14.3V19.3C5.6,11.4,12,5,19.8,5h163.9
			c7.9,0,14.3,6.4,14.3,14.3V183.2z"/>
		<path d="M182.2,9.8H20.7C14.8,9.8,10,14.6,10,20.5V182c0,5.9,4.8,10.7,10.7,10.7h161.5c5.9,0,10.7-4.8,10.7-10.7V20.5
			C192.9,14.6,188.1,9.8,182.2,9.8z M188.6,181.2c0,3.9-3.2,7.1-7.1,7.1h-160c-3.9,0-7.1-3.2-7.1-7.1v-160c0-3.9,3.2-7.1,7.1-7.1
			h160c3.9,0,7.1,3.2,7.1,7.1V181.2z"/>
	</g>
	<g>
		<path class="st1" d="M101.8,21.9c-43.8,0-79.3,35.5-79.3,79.3c0,43.8,35.5,79.3,79.3,79.3c43.8,0,79.3-35.5,79.3-79.3
			C181.1,57.4,145.6,21.9,101.8,21.9z"/>
	</g>
	<rect x="38.3" y="93.4" class="st2" width="127" height="15.6"/>
</g>
</svg>
