<?xml version="1.0" encoding="utf-8"?>
<!-- Generator: Adobe Illustrator 21.1.0, SVG Export Plug-In . SVG Version: 6.00 Build 0)  -->
<svg version="1.1" id="Layer_1" xmlns="http://www.w3.org/2000/svg" xmlns:xlink="http://www.w3.org/1999/xlink" x="0px" y="0px"
	 viewBox="0 0 203 202" style="enable-background:new 0 0 203 202;" xml:space="preserve">
<style type="text/css">
	.st0{fill:#FFFFFF;stroke:#000000;stroke-width:0.2994;}
	.st1{fill:#231F20;}
	.st2{fill:none;}
</style>
<g>
	<path class="st0" d="M200.7,185.1c0,8.1-6.5,14.6-14.6,14.6H18.6c-8.1,0-14.6-6.5-14.6-14.6V17.6C4,9.5,10.5,3,18.6,3h167.5
		c8.1,0,14.6,6.5,14.6,14.6V185.1z"/>
	<path d="M184.6,7.9H19.5c-6,0-10.9,4.9-10.9,10.9v165.1c0,6,4.9,10.9,10.9,10.9h165.1c6,0,10.9-4.9,10.9-10.9V18.8
		C195.5,12.8,190.7,7.9,184.6,7.9z M191.1,183.1c0,4-3.3,7.3-7.3,7.3H20.3c-4,0-7.3-3.3-7.3-7.3V19.6c0-4,3.3-7.3,7.3-7.3h163.6
		c4,0,7.3,3.3,7.3,7.3V183.1z"/>
</g>
<g>
	<rect x="18.4" y="21.2" class="st1" width="7.5" height="161.8"/>
	<rect x="61" y="21.2" class="st1" width="7.5" height="161.8"/>
	<polygon class="st1" points="53.9,42.9 31.7,74.8 31.4,56.9 53.5,25.2 	"/>
	<polygon class="st1" points="53.9,77.4 31.7,109.3 31.4,91.4 53.5,59.7 	"/>
	<polygon class="st1" points="53.9,111.9 31.7,143.8 31.4,125.9 53.5,94.2 	"/>
	<polygon class="st1" points="53.9,146.4 31.7,178.3 31.4,160.4 53.5,128.7 	"/>
</g>
<g>
	<rect x="75.7" y="35.1" class="st2" width="102.7" height="137.1"/>
	<path class="st1" d="M105.7,60.8V35.1h8.9c2,0,3.5,0.1,4.6,0.4c1.5,0.3,2.7,1,3.8,1.8c1.4,1.1,2.4,2.6,3.1,4.4s1,3.8,1,6.1
		c0,2-0.2,3.7-0.7,5.2s-1,2.8-1.8,3.8s-1.5,1.8-2.3,2.3s-1.9,1-3.1,1.3s-2.6,0.4-4.1,0.4H105.7z M109.2,57.8h5.5c1.7,0,3-0.2,4-0.5
		s1.7-0.8,2.3-1.3c0.8-0.8,1.4-1.9,1.9-3.3s0.7-3,0.7-5c0-2.7-0.4-4.8-1.3-6.2s-2-2.4-3.2-2.9c-0.9-0.4-2.4-0.5-4.4-0.5h-5.4V57.8z"
		/>
	<path class="st1" d="M132.2,51.5c0-3.5,1-6,2.9-7.7c1.6-1.4,3.6-2.1,5.9-2.1c2.6,0,4.7,0.8,6.3,2.5s2.4,4,2.4,7
		c0,2.4-0.4,4.3-1.1,5.7s-1.8,2.4-3.1,3.2s-2.9,1.1-4.5,1.1c-2.6,0-4.7-0.8-6.3-2.5S132.2,54.7,132.2,51.5z M135.5,51.5
		c0,2.4,0.5,4.2,1.6,5.4s2.4,1.8,3.9,1.8c1.6,0,2.9-0.6,3.9-1.8s1.6-3,1.6-5.5c0-2.3-0.5-4.1-1.6-5.2s-2.4-1.8-3.9-1.8
		c-1.6,0-2.9,0.6-3.9,1.8S135.5,49.1,135.5,51.5z"/>
	<path class="st1" d="M99.7,107.7V82h3.5l13.5,20.2V82h3.3v25.8h-3.5l-13.5-20.3v20.3H99.7z"/>
	<path class="st1" d="M126.2,98.4c0-3.5,1-6,2.9-7.7c1.6-1.4,3.6-2.1,5.9-2.1c2.6,0,4.7,0.8,6.3,2.5s2.4,4,2.4,7
		c0,2.4-0.4,4.3-1.1,5.7s-1.8,2.4-3.1,3.2s-2.9,1.1-4.5,1.1c-2.6,0-4.7-0.8-6.3-2.5S126.2,101.6,126.2,98.4z M129.4,98.4
		c0,2.4,0.5,4.2,1.6,5.4s2.4,1.8,3.9,1.8c1.6,0,2.9-0.6,3.9-1.8s1.6-3,1.6-5.5c0-2.3-0.5-4.1-1.6-5.2s-2.4-1.8-3.9-1.8
		c-1.6,0-2.9,0.6-3.9,1.8S129.4,96,129.4,98.4z"/>
	<path class="st1" d="M156.3,104.9l0.5,2.8c-0.9,0.2-1.7,0.3-2.4,0.3c-1.1,0-2-0.2-2.7-0.5s-1.1-0.8-1.3-1.4s-0.4-1.8-0.4-3.7V91.5
		h-2.3v-2.5h2.3v-4.6l3.1-1.9v6.5h3.2v2.5h-3.2v10.9c0,0.9,0.1,1.5,0.2,1.7s0.3,0.5,0.5,0.6s0.6,0.2,1.1,0.2
		C155.3,105,155.8,105,156.3,104.9z"/>
	<path class="st1" d="M97.1,145.6l3.4,0.9c-0.7,2.8-2,4.9-3.9,6.4s-4.1,2.2-6.8,2.2c-2.8,0-5-0.6-6.8-1.7s-3.1-2.8-4-4.9
		s-1.4-4.4-1.4-6.9c0-2.7,0.5-5,1.5-7s2.5-3.5,4.4-4.6s4-1.6,6.2-1.6c2.6,0,4.7,0.7,6.5,2s3,3.2,3.7,5.5l-3.4,0.8
		c-0.6-1.9-1.5-3.2-2.6-4.1s-2.6-1.3-4.3-1.3c-2,0-3.6,0.5-5,1.4s-2.3,2.2-2.8,3.8s-0.8,3.2-0.8,4.9c0,2.2,0.3,4.1,1,5.7
		s1.6,2.9,3,3.7s2.8,1.2,4.4,1.2c1.9,0,3.5-0.6,4.9-1.7S96.6,147.8,97.1,145.6z"/>
	<path class="st1" d="M106.3,154.6V136h2.8v2.8c0.7-1.3,1.4-2.2,2-2.6s1.3-0.6,2-0.6c1.1,0,2.2,0.3,3.3,1l-1.1,2.9
		c-0.8-0.5-1.5-0.7-2.3-0.7c-0.7,0-1.3,0.2-1.9,0.6s-0.9,1-1.2,1.7c-0.4,1.1-0.5,2.4-0.5,3.7v9.8H106.3z"/>
	<path class="st1" d="M119.2,145.3c0-3.5,1-6,2.9-7.7c1.6-1.4,3.6-2.1,5.9-2.1c2.6,0,4.7,0.8,6.3,2.5s2.4,4,2.4,7
		c0,2.4-0.4,4.3-1.1,5.7s-1.8,2.4-3.1,3.2s-2.9,1.1-4.5,1.1c-2.6,0-4.7-0.8-6.3-2.5S119.2,148.5,119.2,145.3z M122.4,145.3
		c0,2.4,0.5,4.2,1.6,5.4s2.4,1.8,3.9,1.8c1.6,0,2.9-0.6,3.9-1.8s1.6-3,1.6-5.5c0-2.3-0.5-4.1-1.6-5.2s-2.4-1.8-3.9-1.8
		c-1.6,0-2.9,0.6-3.9,1.8S122.4,142.9,122.4,145.3z"/>
	<path class="st1" d="M141.2,149.1l3.1-0.5c0.2,1.3,0.7,2.2,1.5,2.9s1.9,1,3.4,1c1.5,0,2.5-0.3,3.2-0.9s1.1-1.3,1.1-2.1
		c0-0.7-0.3-1.3-0.9-1.7c-0.4-0.3-1.5-0.6-3.2-1.1c-2.3-0.6-3.9-1.1-4.8-1.5s-1.6-1-2-1.8s-0.7-1.6-0.7-2.5c0-0.8,0.2-1.6,0.6-2.3
		s0.9-1.3,1.6-1.8c0.5-0.4,1.2-0.7,2-0.9s1.8-0.4,2.7-0.4c1.5,0,2.8,0.2,3.9,0.6s1.9,1,2.5,1.7s0.9,1.7,1.1,2.9l-3.1,0.4
		c-0.1-1-0.5-1.7-1.2-2.3s-1.6-0.8-2.9-0.8c-1.5,0-2.5,0.2-3.1,0.7s-0.9,1-0.9,1.7c0,0.4,0.1,0.8,0.4,1.1c0.3,0.3,0.7,0.6,1.2,0.8
		c0.3,0.1,1.2,0.4,2.8,0.8c2.2,0.6,3.8,1.1,4.7,1.5s1.6,0.9,2.1,1.7s0.8,1.6,0.8,2.7c0,1.1-0.3,2-0.9,3s-1.5,1.7-2.7,2.2
		s-2.5,0.8-3.9,0.8c-2.4,0-4.3-0.5-5.5-1.5S141.5,151.1,141.2,149.1z"/>
	<path class="st1" d="M161.2,149.1l3.1-0.5c0.2,1.3,0.7,2.2,1.5,2.9s1.9,1,3.4,1c1.5,0,2.5-0.3,3.2-0.9s1.1-1.3,1.1-2.1
		c0-0.7-0.3-1.3-0.9-1.7c-0.4-0.3-1.5-0.6-3.2-1.1c-2.3-0.6-3.9-1.1-4.8-1.5s-1.6-1-2-1.8s-0.7-1.6-0.7-2.5c0-0.8,0.2-1.6,0.6-2.3
		s0.9-1.3,1.6-1.8c0.5-0.4,1.2-0.7,2-0.9s1.8-0.4,2.7-0.4c1.5,0,2.8,0.2,3.9,0.6s1.9,1,2.5,1.7s0.9,1.7,1.1,2.9l-3.1,0.4
		c-0.1-1-0.5-1.7-1.2-2.3s-1.6-0.8-2.9-0.8c-1.5,0-2.5,0.2-3.1,0.7s-0.9,1-0.9,1.7c0,0.4,0.1,0.8,0.4,1.1c0.3,0.3,0.7,0.6,1.2,0.8
		c0.3,0.1,1.2,0.4,2.8,0.8c2.2,0.6,3.8,1.1,4.7,1.5s1.6,0.9,2.1,1.7s0.8,1.6,0.8,2.7c0,1.1-0.3,2-0.9,3s-1.5,1.7-2.7,2.2
		s-2.5,0.8-3.9,0.8c-2.4,0-4.3-0.5-5.5-1.5S161.6,151.1,161.2,149.1z"/>
</g>
</svg>
