<?xml version="1.0" encoding="utf-8"?>
<!-- Generator: Adobe Illustrator 21.1.0, SVG Export Plug-In . SVG Version: 6.00 Build 0)  -->
<svg version="1.1" id="Layer_1" xmlns="http://www.w3.org/2000/svg" xmlns:xlink="http://www.w3.org/1999/xlink" x="0px" y="0px"
	 viewBox="0 0 203 202" style="enable-background:new 0 0 203 202;" xml:space="preserve">
<style type="text/css">
	.st0{fill:#F58532;stroke:#000000;stroke-width:0.25;}
	.st1{fill:#FFFFFF;stroke:#000000;stroke-width:0.2994;}
	.st2{fill:none;stroke:#231F20;stroke-width:0.5;stroke-miterlimit:10;}
	.st3{fill:#CA2027;}
	.st4{fill:#231F20;}
</style>
<g>
	<path class="st0" d="M199.3,134.4c0,1.8-1.4,3.2-3.2,3.2H6.6c-1.8,0-3.2-1.4-3.2-3.2V57.9c0-1.8,1.4-3.2,3.2-3.2h189.5
		c1.8,0,3.2,1.4,3.2,3.2V134.4z"/>
	<path d="M195.9,55.7H6.9c-1.3,0-2.4,1.1-2.4,2.4v76c0,1.3,1.1,2.4,2.4,2.4h189c1.3,0,2.4-1.1,2.4-2.4v-76
		C198.3,56.8,197.2,55.7,195.9,55.7z M197.3,134c0,0.9-0.7,1.6-1.6,1.6H7c-0.9,0-1.6-0.7-1.6-1.6V58.3c0-0.9,0.7-1.6,1.6-1.6h188.7
		c0.9,0,1.6,0.7,1.6,1.6V134z"/>
	<g>
		<path class="st1" d="M75.8,123.2c0,2.7-2.2,4.8-4.8,4.8H15.3c-2.7,0-4.8-2.2-4.8-4.8V67.6c0-2.7,2.2-4.8,4.8-4.8h55.6
			c2.7,0,4.8,2.2,4.8,4.8V123.2z"/>
		<path d="M70.5,64.3H15.7c-2,0-3.6,1.6-3.6,3.6v54.8c0,2,1.6,3.6,3.6,3.6h54.8c2,0,3.6-1.6,3.6-3.6V68
			C74.2,65.9,72.5,64.3,70.5,64.3z M72.7,122.5c0,1.3-1.1,2.4-2.4,2.4H15.9c-1.3,0-2.4-1.1-2.4-2.4V68.2c0-1.3,1.1-2.4,2.4-2.4h54.3
			c1.3,0,2.4,1.1,2.4,2.4V122.5z"/>
		<path d="M41.1,99.2v-4.9c0-0.7-0.6-1.3-1.3-1.3h-0.5c-0.2-0.5-1.3-3.2-1.3-3.3c-0.1-0.3-0.3-0.6-0.6-0.9c-0.4-0.3-0.8-0.3-1.2-0.3
			h-7c-0.4,0-0.8,0-1.2,0.3c-0.3,0.3-0.5,0.6-0.6,0.9c0,0.1-1.1,2.8-1.3,3.3H26c-0.7,0-1.3,0.6-1.3,1.3v4.9H26v1.7c0,0,0,0,0,0.1
			c0,0.2,0.2,0.3,0.3,0.3h1.7c0.2,0,0.3-0.2,0.3-0.3c0,0,0-0.1,0-0.1v-1.6h8.9l0,1.9h0c0,0.2,0.2,0.3,0.3,0.3h1.7
			c0.2,0,0.3-0.1,0.3-0.3c0-0.1,0-0.1,0-0.1l0-1.8H41.1z M32.8,92.9v-0.2c0-0.4-0.3-0.7-0.7-0.7h-2.8c-0.4,0-0.7,0.3-0.7,0.7v0.2
			h-1.3c0.3-0.8,1.1-2.9,1.1-2.9c0.1-0.3,0.2-0.4,0.3-0.6c0.1-0.1,0.2-0.1,0.5-0.1h0.1h6.9c0.3,0,0.4,0,0.5,0.1
			c0.1,0.1,0.2,0.3,0.3,0.6c0,0.1,0.8,2.2,1.1,2.9H32.8z"/>
		<circle cx="30.5" cy="91" r="0.8"/>
		<path d="M62.5,99.3v-4.9c0-0.7-0.6-1.3-1.3-1.3h-0.5c-0.2-0.5-1.3-3.2-1.3-3.3c-0.1-0.3-0.3-0.6-0.6-0.9c-0.4-0.3-0.8-0.3-1.2-0.3
			h-7c-0.4,0-0.8,0-1.2,0.3c-0.3,0.3-0.5,0.6-0.6,0.9c0,0.1-1.1,2.8-1.3,3.3h-0.2c-0.7,0-1.3,0.6-1.3,1.3v4.9h1.3v1.7c0,0,0,0,0,0.1
			c0,0.2,0.2,0.3,0.3,0.3h1.7c0.2,0,0.3-0.2,0.3-0.3c0,0,0-0.1,0-0.1v-1.6h8.9l0,1.9h0c0,0.2,0.2,0.3,0.3,0.3h1.7
			c0.2,0,0.3-0.1,0.3-0.3c0-0.1,0-0.1,0-0.1l0-1.8H62.5z M54.2,93v-0.2c0-0.4-0.3-0.7-0.7-0.7h-2.8c-0.4,0-0.7,0.3-0.7,0.7V93h-1.3
			c0.3-0.8,1.1-2.9,1.1-2.9c0.1-0.3,0.2-0.4,0.3-0.6c0.1-0.1,0.2-0.1,0.5-0.1h0.1h6.9c0.3,0,0.4,0,0.5,0.1c0.1,0.1,0.2,0.3,0.3,0.6
			c0,0.1,0.8,2.2,1.1,2.9H54.2z"/>
		<circle cx="52" cy="91.1" r="0.8"/>
		<line class="st2" x1="28.8" y1="102.2" x2="55.6" y2="102.2"/>
		<path class="st3" d="M43,68.5c-14.6,0-26.5,11.9-26.5,26.5c0,14.6,11.9,26.5,26.5,26.5c14.6,0,26.5-11.9,26.5-26.5
			C69.5,80.4,57.6,68.5,43,68.5z M65,95.1c0,5.2-1.8,10-4.9,13.8l-31-31C33,74.9,37.8,73,43,73C55.2,73,65,82.9,65,95.1z M21,95.1
			c0-5.3,1.9-10.1,5-13.9l31,31c-3.8,3.1-8.6,5-13.9,5C30.8,117.1,21,107.2,21,95.1z"/>
	</g>
	<g>
		<path class="st4" d="M107.8,87.6l-3.7-17.3h3.2l2.3,11.9l2.8-11.9h3.7l2.7,12.1l2.4-12.1h3.1l-3.7,17.3h-3.3l-3.1-13l-3.1,13
			H107.8z"/>
		<path class="st4" d="M125.9,87.6V70.3h3.1v6.8h6.1v-6.8h3.1v17.3h-3.1V80H129v7.6H125.9z"/>
		<path class="st4" d="M141.4,87.6V70.3h11.4v2.9h-8.3V77h7.7v2.9h-7.7v4.7h8.6v2.9H141.4z"/>
		<path class="st4" d="M155.8,87.6V70.3h3l6.3,11.6V70.3h2.9v17.3h-3.1l-6.2-11.3v11.3H155.8z"/>
		<path class="st4" d="M83.5,124.2v-17.3h10.6v2.9h-7.4v4.1H93v2.9h-6.4v7.4H83.5z"/>
		<path class="st4" d="M96.7,124.2V107h3.1v14.3h7.7v2.9H96.7z"/>
		<path class="st4" d="M123.7,124.2h-3.4l-1.3-3.9h-6.2l-1.3,3.9h-3.3l6-17.3h3.3L123.7,124.2z M117.9,117.3l-2.1-6.4l-2.1,6.4
			H117.9z"/>
		<path class="st4" d="M124.5,118.5l3-0.3c0.2,1.1,0.6,2,1.1,2.5c0.6,0.5,1.3,0.8,2.3,0.8c1,0,1.8-0.2,2.3-0.7
			c0.5-0.5,0.8-1,0.8-1.7c0-0.4-0.1-0.8-0.3-1c-0.2-0.3-0.6-0.5-1.1-0.8c-0.4-0.1-1.2-0.4-2.5-0.8c-1.7-0.5-2.8-1-3.5-1.7
			c-0.9-1-1.4-2.1-1.4-3.5c0-0.9,0.2-1.7,0.7-2.5c0.4-0.8,1.1-1.4,1.9-1.8s1.8-0.6,3-0.6c1.9,0,3.4,0.5,4.4,1.4c1,1,1.5,2.2,1.5,3.8
			l-3.1,0.2c-0.1-0.9-0.4-1.5-0.9-1.9c-0.4-0.4-1.1-0.6-2-0.6c-0.9,0-1.6,0.2-2.1,0.6c-0.3,0.3-0.5,0.6-0.5,1.1
			c0,0.4,0.2,0.8,0.5,1.1c0.4,0.4,1.3,0.8,2.9,1.2c1.5,0.4,2.6,0.8,3.4,1.2c0.7,0.4,1.3,1,1.7,1.8c0.4,0.7,0.6,1.7,0.6,2.8
			c0,1-0.2,1.9-0.7,2.8c-0.5,0.9-1.2,1.5-2.1,1.9c-0.9,0.4-2,0.6-3.4,0.6c-1.9,0-3.4-0.5-4.5-1.5C125.3,122,124.7,120.5,124.5,118.5
			z"/>
		<path class="st4" d="M139.7,124.2v-17.3h3.1v6.8h6.1v-6.8h3.1v17.3h-3.1v-7.6h-6.1v7.6H139.7z"/>
		<path class="st4" d="M155.1,124.2v-17.3h3.1v17.3H155.1z"/>
		<path class="st4" d="M161.2,124.2v-17.3h3l6.3,11.6v-11.6h2.9v17.3h-3.1l-6.2-11.3v11.3H161.2z"/>
		<path class="st4" d="M183.9,117.8v-2.9h6.7v6.9c-0.7,0.7-1.6,1.3-2.8,1.9c-1.2,0.5-2.5,0.8-3.8,0.8c-1.6,0-3-0.4-4.2-1.1
			c-1.2-0.8-2.1-1.8-2.7-3.3s-0.9-3-0.9-4.6c0-1.8,0.3-3.4,1-4.8c0.7-1.4,1.7-2.5,3-3.2c1-0.6,2.2-0.9,3.7-0.9
			c1.9,0,3.4,0.5,4.5,1.4c1.1,0.9,1.8,2.1,2.1,3.7l-3.1,0.7c-0.2-0.9-0.6-1.5-1.2-2s-1.3-0.7-2.2-0.7c-1.4,0-2.4,0.5-3.2,1.5
			c-0.8,1-1.2,2.4-1.2,4.3c0,2.1,0.4,3.6,1.2,4.6c0.8,1,1.9,1.5,3.2,1.5c0.7,0,1.3-0.1,2-0.4c0.7-0.3,1.2-0.6,1.7-1v-2.2H183.9z"/>
	</g>
</g>
</svg>
