<?xml version="1.0" encoding="utf-8"?>
<!-- Generator: Adobe Illustrator 21.1.0, SVG Export Plug-In . SVG Version: 6.00 Build 0)  -->
<svg version="1.1" id="Layer_1" xmlns="http://www.w3.org/2000/svg" xmlns:xlink="http://www.w3.org/1999/xlink" x="0px" y="0px"
	 viewBox="0 0 203 202" style="enable-background:new 0 0 203 202;" xml:space="preserve">
<style type="text/css">
	.st0{fill:#FFFFFF;stroke:#000000;stroke-width:0.25;}
	.st1{fill:#058040;}
	.st2{fill:#FFFFFF;}
	.st3{fill:none;}
</style>
<g>
	<g>
		<path class="st0" d="M194.2,54c3,0,5.4,2.3,5.4,5.2v72.2c0,2.9-2.4,5.2-5.4,5.2H7.7c-3,0-5.4-2.3-5.4-5.2V59.2
			c0-2.9,2.4-5.2,5.4-5.2H194.2z"/>
		<path class="st1" d="M191.6,56.4c3,0,5.5,2.5,5.5,5.5l0,66.9c0,3-2.5,5.5-5.5,5.5H10.3c-3,0-5.5-2.5-5.5-5.5V61.9
			c0-3,2.5-5.5,5.5-5.5H191.6z"/>
	</g>
	<g>
		<path class="st2" d="M127.4,97.1c2.9-4.9,16.3-17.9,24.3-19.8l-0.1-0.4l-1.8-2.9c0,0-0.5-0.7,0-1.6c0.4-0.8,1.4-0.6,1.4-0.6
			l14.9,4.4l-9.5,12.1c0,0-0.7,0.7-1.5,0.3c-0.8-0.4-0.9-1.3-0.9-1.3l-0.3-3.3l-0.1-0.3c-6.4,1.4-18.6,13.5-20.5,16.8
			c-1.8,3-1.7,6.9-1.6,11.8c0,0.9,0,4.9,0,5.8l-6.9,0c0-0.9,0-4.8,0-5.7C124.8,106.9,124.7,101.8,127.4,97.1z"/>
		<path class="st2" d="M137,75.8l-9.2-11.1l-9.2,11c0,0-0.5,0.8,0.2,1.3c0.7,0.6,1.6,0.4,1.6,0.4l3.5-0.7l0,49h7.9l0-49l3.5,0.7
			c0,0,0.9,0.2,1.6-0.4C137.5,76.6,137,75.8,137,75.8z"/>
		<path class="st2" d="M158.8,102.7c2.9-4.9,9.5-12.3,17.5-14.2l-0.1-0.4l-1.8-2.9c0,0-0.5-0.7,0-1.6c0.4-0.8,1.4-0.6,1.4-0.6
			l14.9,4.4l-9.5,12.1c0,0-0.7,0.7-1.5,0.3c-0.8-0.4-0.9-1.3-0.9-1.3l-0.3-3.3l-0.1-0.3c-6.4,1.4-11.8,7.9-13.7,11.2
			c-1.8,3-1.7,6.9-1.6,11.8c0,0.9,0,7.1,0,8.1l-6.9,0c0-0.9,0-7.1,0-7.9C156.1,112.5,156,107.4,158.8,102.7z"/>
	</g>
	<g>
		<rect x="15.8" y="68" class="st3" width="108.8" height="54.6"/>
		<path class="st2" d="M17.2,81.7V68h5.1c1,0,1.9,0.1,2.5,0.4s1.1,0.7,1.5,1.3c0.4,0.6,0.5,1.2,0.5,1.8c0,0.6-0.2,1.1-0.5,1.6
			s-0.8,0.9-1.4,1.2c0.8,0.2,1.5,0.7,1.9,1.2c0.4,0.6,0.7,1.3,0.7,2.1c0,0.6-0.1,1.2-0.4,1.8c-0.3,0.5-0.6,1-1,1.3s-0.9,0.5-1.5,0.7
			c-0.6,0.2-1.3,0.2-2.2,0.2H17.2z M19,73.8h3c0.8,0,1.4-0.1,1.7-0.2c0.5-0.1,0.8-0.4,1-0.7s0.3-0.7,0.3-1.2c0-0.5-0.1-0.9-0.3-1.2
			c-0.2-0.3-0.5-0.6-0.9-0.7c-0.4-0.1-1.1-0.2-2.1-0.2H19V73.8z M19,80.1h3.4c0.6,0,1,0,1.2-0.1c0.4-0.1,0.8-0.2,1-0.4
			c0.3-0.2,0.5-0.4,0.7-0.8c0.2-0.3,0.3-0.7,0.3-1.2c0-0.5-0.1-1-0.4-1.3c-0.3-0.4-0.6-0.6-1.1-0.8s-1.1-0.2-2-0.2H19V80.1z"/>
		<path class="st2" d="M29.7,81.7v-9.9h1.5v1.5c0.4-0.7,0.7-1.2,1.1-1.4s0.7-0.3,1.1-0.3c0.6,0,1.1,0.2,1.7,0.5l-0.6,1.6
			c-0.4-0.2-0.8-0.4-1.2-0.4c-0.4,0-0.7,0.1-1,0.3c-0.3,0.2-0.5,0.5-0.6,0.9c-0.2,0.6-0.3,1.2-0.3,2v5.2H29.7z"/>
		<path class="st2" d="M42.6,80.5c-0.6,0.5-1.2,0.9-1.8,1.1c-0.6,0.2-1.2,0.3-1.8,0.3c-1.1,0-1.9-0.3-2.5-0.8
			c-0.6-0.5-0.9-1.2-0.9-2c0-0.5,0.1-0.9,0.3-1.3c0.2-0.4,0.5-0.7,0.9-1s0.8-0.4,1.2-0.5c0.3-0.1,0.8-0.2,1.5-0.3
			c1.4-0.2,2.4-0.4,3-0.6c0-0.2,0-0.4,0-0.4c0-0.7-0.2-1.2-0.5-1.4C41.5,73.2,40.9,73,40,73c-0.8,0-1.4,0.1-1.7,0.4
			s-0.7,0.8-0.8,1.5l-1.6-0.2c0.1-0.7,0.4-1.3,0.7-1.7s0.8-0.8,1.5-1s1.4-0.3,2.2-0.3c0.8,0,1.5,0.1,2.1,0.3
			c0.5,0.2,0.9,0.4,1.2,0.8c0.2,0.3,0.4,0.7,0.5,1.1c0.1,0.3,0.1,0.8,0.1,1.5v2.2c0,1.6,0,2.5,0.1,3s0.2,0.8,0.4,1.2h-1.8
			C42.7,81.3,42.6,80.9,42.6,80.5z M42.4,76.7c-0.6,0.2-1.5,0.5-2.7,0.6c-0.7,0.1-1.2,0.2-1.5,0.3c-0.3,0.1-0.5,0.3-0.7,0.5
			s-0.2,0.5-0.2,0.8c0,0.4,0.2,0.8,0.5,1.1c0.3,0.3,0.8,0.4,1.5,0.4c0.6,0,1.2-0.1,1.7-0.4c0.5-0.3,0.9-0.7,1.1-1.2
			c0.2-0.4,0.3-0.9,0.3-1.7V76.7z"/>
		<path class="st2" d="M46.7,81.7v-9.9h1.5v1.4c0.3-0.5,0.7-0.9,1.2-1.2c0.5-0.3,1.1-0.4,1.8-0.4c0.7,0,1.3,0.2,1.8,0.5
			c0.5,0.3,0.8,0.7,1,1.3c0.8-1.2,1.8-1.7,3.1-1.7c1,0,1.7,0.3,2.3,0.8c0.5,0.5,0.8,1.4,0.8,2.5v6.8h-1.7v-6.2
			c0-0.7-0.1-1.2-0.2-1.4c-0.1-0.3-0.3-0.5-0.6-0.7s-0.6-0.3-1-0.3c-0.7,0-1.3,0.2-1.7,0.7c-0.5,0.5-0.7,1.2-0.7,2.2v5.7h-1.7v-6.4
			c0-0.7-0.1-1.3-0.4-1.7c-0.3-0.4-0.7-0.6-1.3-0.6c-0.5,0-0.9,0.1-1.3,0.4c-0.4,0.2-0.7,0.6-0.9,1.1c-0.2,0.5-0.3,1.2-0.3,2.1v5.1
			H46.7z"/>
		<path class="st2" d="M62.6,85.5V71.8h1.5v1.3c0.4-0.5,0.8-0.9,1.2-1.1c0.5-0.3,1-0.4,1.6-0.4c0.8,0,1.6,0.2,2.2,0.7
			c0.6,0.4,1.1,1,1.5,1.8c0.3,0.8,0.5,1.7,0.5,2.6c0,1-0.2,1.9-0.5,2.7c-0.4,0.8-0.9,1.4-1.6,1.9c-0.7,0.4-1.4,0.6-2.2,0.6
			c-0.6,0-1.1-0.1-1.5-0.4c-0.4-0.2-0.8-0.5-1.1-0.9v4.8H62.6z M64.1,76.8c0,1.3,0.3,2.2,0.8,2.8s1.1,0.9,1.9,0.9
			c0.7,0,1.4-0.3,1.9-0.9c0.5-0.6,0.8-1.6,0.8-2.9c0-1.3-0.3-2.2-0.8-2.8s-1.1-0.9-1.9-0.9c-0.7,0-1.3,0.3-1.9,1
			C64.4,74.6,64.1,75.5,64.1,76.8z"/>
		<path class="st2" d="M76.9,80.2l0.2,1.5c-0.5,0.1-0.9,0.1-1.3,0.1c-0.6,0-1.1-0.1-1.4-0.3c-0.3-0.2-0.6-0.4-0.7-0.8
			c-0.1-0.3-0.2-1-0.2-2v-5.7h-1.2v-1.3h1.2v-2.5l1.7-1v3.5h1.7v1.3h-1.7v5.8c0,0.5,0,0.8,0.1,0.9c0.1,0.1,0.2,0.2,0.3,0.3
			c0.1,0.1,0.3,0.1,0.6,0.1C76.3,80.3,76.6,80.2,76.9,80.2z"/>
		<path class="st2" d="M77.9,76.7c0-1.8,0.5-3.2,1.5-4.1c0.9-0.7,1.9-1.1,3.1-1.1c1.4,0,2.5,0.4,3.3,1.3c0.9,0.9,1.3,2.1,1.3,3.7
			c0,1.3-0.2,2.3-0.6,3c-0.4,0.7-0.9,1.3-1.7,1.7c-0.7,0.4-1.5,0.6-2.4,0.6c-1.4,0-2.5-0.4-3.4-1.3C78.3,79.7,77.9,78.4,77.9,76.7z
			 M79.6,76.7c0,1.3,0.3,2.2,0.8,2.8s1.2,0.9,2.1,0.9c0.8,0,1.5-0.3,2.1-1c0.6-0.6,0.8-1.6,0.8-2.9c0-1.2-0.3-2.2-0.8-2.8
			c-0.6-0.6-1.2-0.9-2.1-0.9c-0.8,0-1.5,0.3-2.1,0.9C79.9,74.5,79.6,75.5,79.6,76.7z"/>
		<path class="st2" d="M89.1,81.7v-9.9h1.5v1.4c0.7-1.1,1.8-1.6,3.1-1.6c0.6,0,1.1,0.1,1.6,0.3s0.9,0.5,1.1,0.8
			c0.2,0.3,0.4,0.8,0.5,1.2c0.1,0.3,0.1,0.9,0.1,1.6v6.1h-1.7v-6c0-0.7-0.1-1.2-0.2-1.5c-0.1-0.3-0.4-0.6-0.7-0.8
			c-0.3-0.2-0.7-0.3-1.2-0.3c-0.7,0-1.3,0.2-1.8,0.7c-0.5,0.5-0.8,1.3-0.8,2.6v5.4H89.1z"/>
		<path class="st2" d="M16.6,105.9l1.7-0.1c0.1,0.7,0.3,1.2,0.6,1.7c0.3,0.4,0.8,0.8,1.4,1.1c0.6,0.3,1.3,0.4,2.1,0.4
			c0.7,0,1.3-0.1,1.8-0.3c0.5-0.2,0.9-0.5,1.2-0.8s0.4-0.7,0.4-1.2c0-0.4-0.1-0.8-0.4-1.1c-0.2-0.3-0.7-0.6-1.2-0.8
			c-0.4-0.1-1.2-0.4-2.4-0.7c-1.3-0.3-2.1-0.6-2.6-0.9c-0.7-0.3-1.1-0.8-1.5-1.3c-0.3-0.5-0.5-1.1-0.5-1.7c0-0.7,0.2-1.3,0.6-1.9
			c0.4-0.6,1-1.1,1.7-1.4c0.8-0.3,1.6-0.5,2.5-0.5c1,0,1.9,0.2,2.7,0.5s1.4,0.8,1.8,1.4c0.4,0.6,0.6,1.4,0.7,2.2l-1.7,0.1
			c-0.1-0.9-0.4-1.5-0.9-2C23.9,98.2,23.1,98,22,98c-1.1,0-1.9,0.2-2.4,0.6c-0.5,0.4-0.8,0.9-0.8,1.4c0,0.5,0.2,0.9,0.5,1.2
			c0.3,0.3,1.3,0.6,2.7,1c1.5,0.3,2.5,0.6,3,0.9c0.8,0.4,1.4,0.8,1.8,1.4c0.4,0.6,0.6,1.2,0.6,1.9c0,0.7-0.2,1.4-0.6,2.1
			c-0.4,0.6-1,1.1-1.8,1.5c-0.8,0.4-1.7,0.5-2.6,0.5c-1.2,0-2.3-0.2-3.1-0.5s-1.5-0.9-2-1.6C16.9,107.7,16.6,106.8,16.6,105.9z"/>
		<path class="st2" d="M33.4,108.8l0.2,1.5c-0.5,0.1-0.9,0.1-1.3,0.1c-0.6,0-1.1-0.1-1.4-0.3s-0.6-0.4-0.7-0.8c-0.1-0.3-0.2-1-0.2-2
			v-5.7h-1.2v-1.3h1.2V98l1.7-1v3.5h1.7v1.3h-1.7v5.8c0,0.5,0,0.8,0.1,0.9s0.2,0.2,0.3,0.3c0.1,0.1,0.3,0.1,0.6,0.1
			C32.9,108.9,33.1,108.9,33.4,108.8z"/>
		<path class="st2" d="M35,110.3v-9.9h1.5v1.5c0.4-0.7,0.7-1.2,1.1-1.4s0.7-0.3,1.1-0.3c0.6,0,1.1,0.2,1.7,0.5l-0.6,1.6
			c-0.4-0.2-0.8-0.4-1.2-0.4c-0.4,0-0.7,0.1-1,0.3s-0.5,0.5-0.6,0.9c-0.2,0.6-0.3,1.2-0.3,2v5.2H35z"/>
		<path class="st2" d="M48.2,107.1l1.7,0.2c-0.3,1-0.8,1.8-1.5,2.4c-0.7,0.6-1.7,0.8-2.8,0.8c-1.4,0-2.6-0.4-3.4-1.3
			c-0.8-0.9-1.3-2.1-1.3-3.8c0-1.7,0.4-3,1.3-3.9c0.9-0.9,2-1.4,3.3-1.4c1.3,0,2.4,0.5,3.2,1.4c0.8,0.9,1.3,2.2,1.3,3.8
			c0,0.1,0,0.2,0,0.4h-7.4c0.1,1.1,0.4,1.9,0.9,2.5c0.6,0.6,1.2,0.9,2.1,0.9c0.6,0,1.1-0.2,1.6-0.5
			C47.6,108.4,47.9,107.8,48.2,107.1z M42.7,104.4h5.5c-0.1-0.8-0.3-1.5-0.6-1.9c-0.5-0.6-1.2-1-2.1-1c-0.8,0-1.4,0.3-1.9,0.8
			C43,102.9,42.7,103.6,42.7,104.4z"/>
		<path class="st2" d="M58.8,107.1l1.7,0.2c-0.3,1-0.8,1.8-1.5,2.4c-0.7,0.6-1.7,0.8-2.8,0.8c-1.4,0-2.6-0.4-3.4-1.3
			c-0.8-0.9-1.3-2.1-1.3-3.8c0-1.7,0.4-3,1.3-3.9c0.9-0.9,2-1.4,3.3-1.4c1.3,0,2.4,0.5,3.2,1.4c0.8,0.9,1.3,2.2,1.3,3.8
			c0,0.1,0,0.2,0,0.4h-7.4c0.1,1.1,0.4,1.9,0.9,2.5c0.6,0.6,1.2,0.9,2.1,0.9c0.6,0,1.1-0.2,1.6-0.5
			C58.2,108.4,58.5,107.8,58.8,107.1z M53.3,104.4h5.5c-0.1-0.8-0.3-1.5-0.6-1.9c-0.5-0.6-1.2-1-2.1-1c-0.8,0-1.4,0.3-1.9,0.8
			C53.6,102.9,53.3,103.6,53.3,104.4z"/>
		<path class="st2" d="M66.3,108.8l0.2,1.5c-0.5,0.1-0.9,0.1-1.3,0.1c-0.6,0-1.1-0.1-1.4-0.3s-0.6-0.4-0.7-0.8c-0.1-0.3-0.2-1-0.2-2
			v-5.7h-1.2v-1.3h1.2V98l1.7-1v3.5h1.7v1.3h-1.7v5.8c0,0.5,0,0.8,0.1,0.9s0.2,0.2,0.3,0.3c0.1,0.1,0.3,0.1,0.6,0.1
			C65.7,108.9,66,108.9,66.3,108.8z"/>
	</g>
</g>
</svg>
