<?xml version="1.0" encoding="utf-8"?>
<!-- Generator: Adobe Illustrator 21.1.0, SVG Export Plug-In . SVG Version: 6.00 Build 0)  -->
<svg version="1.1" id="Layer_1" xmlns="http://www.w3.org/2000/svg" xmlns:xlink="http://www.w3.org/1999/xlink" x="0px" y="0px"
	 viewBox="0 0 203 202" style="enable-background:new 0 0 203 202;" xml:space="preserve">
<style type="text/css">
	.st0{fill:#FEE503;stroke:#000000;stroke-width:0.25;}
	.st1{fill:#231F20;}
</style>
<g>
	<g>
		<path class="st0" d="M95.7,197.9c3,3,7.9,3,11,0l91.4-91.4c3-3,3-7.9,0-11L106.7,4.2c-3-3-7.9-3-11,0L4.4,95.5c-3,3-3,7.9,0,11
			L95.7,197.9z"/>
		<path d="M7.9,104.5l89.8,89.8c1.9,1.9,5,1.9,6.9,0l89.8-89.8c1.9-1.9,1.9-5,0-6.9L104.7,7.7c-1.9-1.9-5-1.9-6.9,0L7.9,97.5
			C6,99.5,6,102.6,7.9,104.5z M11.4,99.3l87.9-88.1c1-1,2.6-1,3.6,0L191,99.1c1,1,1,2.6,0,3.6l-88,88c-1,1-2.6,1-3.7,0l-88-87.7
			C10.4,101.9,10.4,100.3,11.4,99.3z"/>
	</g>
	<g>
		<path class="st1" d="M80.5,136.7H138c0,0,6-63-28.7-90.3c0,0-8.6-9.1-28.7,69.6v20.7H80.5z"/>
		<ellipse class="st1" cx="80.4" cy="75.9" rx="3.3" ry="4.2"/>
		<ellipse class="st1" cx="61" cy="101.7" rx="3.7" ry="3.7"/>
		<ellipse class="st1" cx="80.4" cy="95.8" rx="3.3" ry="3.4"/>
		<ellipse class="st1" cx="71.2" cy="95.8" rx="3.3" ry="2.4"/>
		<ellipse class="st1" cx="88.6" cy="72.5" rx="4.6" ry="3.4"/>
		<ellipse class="st1" cx="93.1" cy="59.7" rx="3.6" ry="4.4"/>
		<ellipse class="st1" cx="80.4" cy="85.2" rx="5.9" ry="3.3"/>
		<ellipse class="st1" cx="77.5" cy="111.9" rx="3" ry="2.6"/>
		<ellipse class="st1" cx="57.9" cy="121.5" rx="2.3" ry="4.8"/>
		<ellipse class="st1" cx="64.7" cy="119.1" rx="2.3" ry="4.6"/>
		<ellipse class="st1" cx="71.2" cy="107.8" rx="4.1" ry="4.1"/>
		<ellipse class="st1" cx="66.7" cy="85.2" rx="1.1" ry="3.3"/>
		<circle class="st1" cx="55.1" cy="109.5" r="2.8"/>
	</g>
</g>
</svg>
