<?xml version="1.0" encoding="utf-8"?>
<!-- Generator: Adobe Illustrator 21.1.0, SVG Export Plug-In . SVG Version: 6.00 Build 0)  -->
<svg version="1.1" id="Layer_1" xmlns="http://www.w3.org/2000/svg" xmlns:xlink="http://www.w3.org/1999/xlink" x="0px" y="0px"
	 viewBox="0 0 203 202" style="enable-background:new 0 0 203 202;" xml:space="preserve">
<style type="text/css">
	.st0{fill:#F58532;stroke:#000000;stroke-width:0.25;}
	.st1{fill:#FBDD2B;}
</style>
<path class="st0" d="M194.6,145.5c2.9,0,5.3-2.3,5.3-5.1l0-71c0-2.8-2.4-5.1-5.3-5.1l-186.6,0c-2.9,0-5.3,2.3-5.3,5.1l0,71
	c0,2.8,2.4,5.1,5.3,5.1L194.6,145.5z"/>
<g>
	<path d="M61.3,70.1l-50.8,34.8l50.6,34.8c0,0,3.5,1.9,6.2-0.7c2.7-2.6,1.8-6,1.8-6L66,119.9L192,120V90.1L66.1,90l3.1-13.2
		c0,0,0.9-3.4-1.7-6C64.8,68.2,61.3,70.1,61.3,70.1z"/>
	<g>
		
			<ellipse transform="matrix(0.3159 -0.9488 0.9488 0.3159 -82.2183 95.8593)" class="st1" cx="25.4" cy="104.9" rx="5.2" ry="5.2"/>
		
			<ellipse transform="matrix(0.3159 -0.9488 0.9488 0.3159 -39.9831 111.9033)" class="st1" cx="57.6" cy="83.7" rx="5.2" ry="5.2"/>
		
			<ellipse transform="matrix(0.3159 -0.9488 0.9488 0.3159 -68.1399 101.2073)" class="st1" cx="36.1" cy="97.9" rx="5.2" ry="5.2"/>
		
			<ellipse transform="matrix(0.3159 -0.9488 0.9488 0.3159 -54.0615 106.5553)" class="st1" cx="46.9" cy="90.8" rx="5.2" ry="5.2"/>
		
			<ellipse transform="matrix(0.9952 -9.830453e-02 9.830453e-02 0.9952 -12.1079 6.3321)" class="st1" cx="58.2" cy="126" rx="5.2" ry="5.2"/>
		
			<ellipse transform="matrix(0.9952 -9.830453e-02 9.830453e-02 0.9952 -10.8515 4.1311)" class="st1" cx="36.5" cy="112.2" rx="5.2" ry="5.2"/>
		
			<ellipse transform="matrix(0.9952 -9.830453e-02 9.830453e-02 0.9952 -11.4797 5.2316)" class="st1" cx="47.3" cy="119.1" rx="5.2" ry="5.2"/>
	</g>
	
		<ellipse transform="matrix(0.3159 -0.9488 0.9488 0.3159 -50.2189 141.2639)" class="st1" cx="72.8" cy="105.5" rx="5.2" ry="5.2"/>
	
		<ellipse transform="matrix(0.3159 -0.9488 0.9488 0.3159 -62.6028 124.0893)" class="st1" cx="54.7" cy="105.5" rx="5.2" ry="5.2"/>
	<ellipse transform="matrix(0.3159 -0.9488 0.9488 0.3159 -25.4513 175.613)" class="st1" cx="109" cy="105.5" rx="5.2" ry="5.2"/>
	
		<ellipse transform="matrix(0.3159 -0.9488 0.9488 0.3159 -37.8351 158.4384)" class="st1" cx="90.9" cy="105.5" rx="5.2" ry="5.2"/>
	
		<ellipse transform="matrix(0.3159 -0.9488 0.9488 0.3159 -0.6836 209.9622)" class="st1" cx="145.3" cy="105.5" rx="5.2" ry="5.2"/>
	
		<ellipse transform="matrix(0.3159 -0.9488 0.9488 0.3159 -13.0675 192.7876)" class="st1" cx="127.2" cy="105.5" rx="5.2" ry="5.2"/>
	<ellipse transform="matrix(0.3159 -0.9488 0.9488 0.3159 24.084 244.3114)" class="st1" cx="181.5" cy="105.5" rx="5.2" ry="5.2"/>
	
		<ellipse transform="matrix(0.3159 -0.9488 0.9488 0.3159 11.7002 227.1368)" class="st1" cx="163.4" cy="105.5" rx="5.2" ry="5.2"/>
</g>
</svg>
