<?xml version="1.0" encoding="utf-8"?>
<!-- Generator: Adobe Illustrator 21.1.0, SVG Export Plug-In . SVG Version: 6.00 Build 0)  -->
<svg version="1.1" id="Layer_1" xmlns="http://www.w3.org/2000/svg" xmlns:xlink="http://www.w3.org/1999/xlink" x="0px" y="0px"
	 viewBox="0 0 203 202" style="enable-background:new 0 0 203 202;" xml:space="preserve">
<style type="text/css">
	.st0{fill:#F58532;stroke:#000000;stroke-width:0.25;}
</style>
<g>
	<g id="_x3C_BLANK_ORANGE_Sign_x3E__3_">
		<path class="st0" d="M96,196.1c3,3,7.8,3,10.8,0l90-90c3-3,3-7.8,0-10.8l-90-90c-3-3-7.8-3-10.8,0l-90,90c-3,3-3,7.8,0,10.8
			L96,196.1z"/>
		<path d="M9.5,104.1L98,192.6c1.9,1.9,4.9,1.9,6.8,0l88.5-88.5c1.9-1.9,1.9-4.9,0-6.8L104.8,8.8C102.9,7,99.8,7,98,8.8L9.5,97.3
			C7.6,99.2,7.6,102.3,9.5,104.1z M12.9,99l86.5-86.7c1-1,2.6-1,3.6,0l86.7,86.5c1,1,1,2.6,0,3.6L103.2,189c-1,1-2.6,1-3.6,0
			l-86.6-86.4C12,101.6,12,100,12.9,99z"/>
	</g>
</g>
<g>
	<g>
		<g>
			<path d="M124.5,126.6v7.4h11.8v-7.4C136.3,126.6,130.4,119.6,124.5,126.6z"/>
			<path d="M136.3,126.6v7.4h11.8v-7.4C148.1,126.6,142.2,119.6,136.3,126.6z"/>
		</g>
		<g>
			<path d="M101.4,126.6v7.4h11.8v-7.4C113.2,126.6,107.3,119.6,101.4,126.6z"/>
			<path d="M113.1,126.6v7.4h11.8v-7.4C124.9,126.6,119,119.6,113.1,126.6z"/>
		</g>
	</g>
	<g>
		<g>
			<path d="M77.8,126.6v7.4h11.8v-7.4C89.6,126.6,83.7,119.6,77.8,126.6z"/>
			<path d="M89.6,126.6v7.4h11.8v-7.4C101.4,126.6,95.5,119.6,89.6,126.6z"/>
		</g>
		<g>
			<path d="M54.7,126.6v7.4h11.8v-7.4C66.5,126.6,60.6,119.6,54.7,126.6z"/>
			<path d="M66.4,126.6v7.4h11.8v-7.4C78.2,126.6,72.3,119.6,66.4,126.6z"/>
		</g>
	</g>
</g>
<g>
	<g>
		<g>
			<path d="M89.6,126.6v7.4h11.8v-7.4C101.4,126.6,95.5,119.6,89.6,126.6z"/>
			<path d="M101.4,126.6v7.4h11.8v-7.4C113.1,126.6,107.2,119.6,101.4,126.6z"/>
		</g>
	</g>
</g>
<g>
	<ellipse cx="90.8" cy="75.8" rx="3.7" ry="3.7"/>
	<path d="M138.9,111.2V88.5c0-3.3-2.6-6-5.8-6h-2.2c-0.8-2.2-5.8-14.9-5.9-15.2c-0.6-1.5-1.2-3-2.7-4.3c-1.8-1.6-3.7-1.6-5.3-1.6
		H84.6c-1.6,0-3.5,0-5.3,1.6c-1.5,1.3-2.1,2.7-2.7,4.3c-0.1,0.3-5,13-5.9,15.2h-1c-3.2,0-5.8,2.7-5.8,6v22.7h5.8v7.7
		c0,0.1-0.1,0.2-0.1,0.3c0,0.9,0.7,1.5,1.5,1.5h8c0.9,0,1.5-0.7,1.5-1.5c0-0.2-0.1-0.4-0.1-0.6v-7.3h41l0,8.9h0
		c0.1,0.8,0.7,1.4,1.5,1.4h8c0.9,0,1.5-0.7,1.5-1.5c0-0.2-0.1-0.4-0.1-0.6l0-8.1H138.9z M100.8,82.5v-0.8c0-1.8-1.5-3.2-3.2-3.2h-13
		c-1.8,0-3.2,1.5-3.2,3.2v0.8h-5.8c1.4-3.5,5.1-13.2,5.2-13.5c0.6-1.4,0.8-2,1.5-2.6c0.5-0.4,0.8-0.5,2.3-0.5h0.6h31.7
		c1.5,0,1.9,0,2.3,0.5c0.6,0.6,0.9,1.2,1.5,2.6c0.1,0.2,3.9,10,5.2,13.5H100.8z"/>
</g>
</svg>
