<?xml version="1.0" encoding="utf-8"?>
<!-- Generator: Adobe Illustrator 21.1.0, SVG Export Plug-In . SVG Version: 6.00 Build 0)  -->
<svg version="1.1" id="Layer_1" xmlns="http://www.w3.org/2000/svg" xmlns:xlink="http://www.w3.org/1999/xlink" x="0px" y="0px"
	 viewBox="0 0 203 202" style="enable-background:new 0 0 203 202;" xml:space="preserve">
<style type="text/css">
	.st0{fill:#FEE503;stroke:#000000;stroke-width:0.25;}
	.st1{fill:#231F20;}
	.st2{fill:#FFF100;}
	.st3{fill:#EC1C24;}
	.st4{fill:#FFFFFF;}
	.st5{fill:none;stroke:#231F20;stroke-width:2;stroke-miterlimit:10;}
</style>
<g>
	<path class="st0" d="M96.3,197.2c3,3,7.9,3,10.9,0l90.9-90.9c3-3,3-7.9,0-10.9L107.2,4.5c-3-3-7.9-3-10.9,0L5.4,95.4
		c-3,3-3,7.9,0,10.9L96.3,197.2z"/>
	<path d="M8.9,104.3l89.4,89.4c1.9,1.9,5,1.9,6.9,0l89.4-89.4c1.9-1.9,1.9-5,0-6.9L105.2,8.1c-1.9-1.9-5-1.9-6.9,0L8.9,97.4
		C7,99.3,7,102.4,8.9,104.3z M12.4,99.2l87.4-87.6c1-1,2.6-1,3.6,0L191.1,99c1,1,1,2.6,0,3.6l-87.5,87.5c-1,1-2.6,1-3.6,0
		l-87.5-87.3C11.4,101.8,11.4,100.2,12.4,99.2z"/>
	<g>
		<polygon points="146.5,116.1 142.3,114.8 143.6,110.8 144.6,111.1 144.2,108.9 147.6,102.5 149.6,101.6 149.8,101.2 152,101.8 
			152,102.1 153.5,103.4 155.2,109.2 158.1,110.8 157.7,111.9 154.3,111.1 153.6,110 152.4,114.5 154.7,121.3 155.3,131.7 
			152.8,131.9 151.9,123.2 150.5,119.7 149.4,124.4 145.3,131.9 143,130.8 146.9,122.9 		"/>
		<ellipse cx="152.1" cy="98.4" rx="2.8" ry="2.8"/>
	</g>
	<g>
		<polyline points="59.1,108.6 57.4,104.6 54.8,103 52.6,103.4 50.8,105.2 48.8,111 45.4,114.5 46.2,115.5 50.3,112.7 51.2,111 
			51.7,112.5 48.9,120.4 49.9,120.8 47.1,131.4 48.6,131.9 52.4,121.6 54.4,121.6 58.8,131.9 60.3,131.3 57.1,121.2 58.8,120.5 
			57,115.9 60.9,114.9 60.2,111.1 59.3,111.3 59.5,110.4 		"/>
		<circle cx="53" cy="100" r="3"/>
	</g>
	<g>
		<path class="st1" d="M76,76.3h-0.9c-2.8,0-5.1,2.4-5.1,5.3v41.8h7c0,0,0,6.9,0,7c0,0.7,0.6,1.4,1.4,1.4h5.2c0.8,0,1.3-0.6,1.3-1.4
			c0-0.2,0-7,0-7h36.2v7.8c0.1,0.7,0.6,1.3,1.4,1.3h5.2c0.8,0,1.2-0.6,1.2-1.3c0-0.2,0-7.8,0-7.8h7.6V81.6c0-2.9-2.3-5.3-5.1-5.3
			h-1.9"/>
		<g>
			<g>
				<path class="st2" d="M76.7,81.5c0,1.3-1,2.3-2.3,2.3s-2.3-1-2.3-2.3c0-1.2,1-2.3,2.3-2.3S76.7,80.2,76.7,81.5z"/>
				<path class="st3" d="M133.9,81.5c0,1.3-1,2.3-2.3,2.3c-1.2,0-2.3-1-2.3-2.3c0-1.2,1-2.3,2.3-2.3S133.9,80.2,133.9,81.5z"/>
			</g>
			<g>
				<path class="st4" d="M126.1,101.8h-46c-1.2,0-2.2-1-2.2-2.2V86.3c0-1.2,1-2.2,2.2-2.2h46c1.2,0,2.2,1,2.2,2.2v13.4
					C128.3,100.9,127.3,101.8,126.1,101.8z"/>
				<g>
					<line class="st5" x1="91.2" y1="82.2" x2="91.2" y2="103.6"/>
					<line class="st5" x1="115" y1="82.2" x2="115" y2="103.6"/>
				</g>
			</g>
		</g>
	</g>
</g>
</svg>
