<?xml version="1.0" encoding="utf-8"?>
<!-- Generator: Adobe Illustrator 21.1.0, SVG Export Plug-In . SVG Version: 6.00 Build 0)  -->
<svg version="1.1" id="Layer_1" xmlns="http://www.w3.org/2000/svg" xmlns:xlink="http://www.w3.org/1999/xlink" x="0px" y="0px"
	 viewBox="0 0 203 202" style="enable-background:new 0 0 203 202;" xml:space="preserve">
<style type="text/css">
	.st0{fill:#FFFFFF;stroke:#000000;stroke-width:0.25;}
	.st1{fill:#058040;}
	.st2{fill:#FFFFFF;}
	.st3{fill:none;stroke:#231F20;stroke-miterlimit:10;stroke-dasharray:6,3;}
	.st4{fill:#231F20;}
</style>
<g>
	<path class="st0" d="M195.5,62.7c2.5,0,4.5,1.9,4.5,4.3v60.1c0,2.4-2,4.3-4.5,4.3H7c-2.5,0-4.5-1.9-4.5-4.3V67c0-2.4,2-4.3,4.5-4.3
		H195.5z"/>
	<path class="st1" d="M193.5,64.6c2.5,0,4.6,2,4.6,4.6v55.7c0,2.5-2,4.6-4.6,4.6H9c-2.5,0-4.6-2-4.6-4.6V69.2c0-2.5,2-4.6,4.6-4.6
		H193.5z"/>
	<g>
		<g>
			<path class="st2" d="M90.3,79.9l-3.2-1.5c0,0-0.8-0.4-1-1.4c-0.1-1,0.8-1.5,0.8-1.5l15.2-5.4l-0.8,16.7c0,0-0.2,1.1-1.1,1.2
				c-1,0.1-1.5-0.6-1.5-0.6l-2.2-2.8L90.3,79.9z"/>
			<path class="st2" d="M58.1,82.8c0,0,4.3,11,4.8,21.2c0.5,8,0.4,22.5,0.4,22.5l16,0.3v-23.2c0,0-0.8-17.7-8.2-27.5L58.1,82.8z"/>
			<path class="st2" d="M90,79c0,0-10.8,10.6-10.8,25.9s-0.1,21.9-0.1,21.9H89l0.7-22c0,0,0.8-12.7,7.7-20.1L90,79z"/>
			<path class="st2" d="M60.4,82.3L57,85.5c0,0-0.9,0.8-2.1,0.4c-1.2-0.4-1.2-1.8-1.2-1.8l3.5-18.2l17.2,6.7c0,0,1.1,0.8,0.8,2.1
				c-0.4,1.3-1.5,1.5-1.5,1.5l-4.4,1.2L60.4,82.3z"/>
		</g>
		<path class="st3" d="M63,82.2c0,0,6.7,9.7,5.3,43.2"/>
		<path class="st3" d="M68.9,81.8c0,0,6.1,11.5,4.6,44.9"/>
		<path class="st3" d="M92.9,83.5c0,0-11,10-9.5,43.4"/>
	</g>
	<g>
		<path class="st2" d="M16,119.7V111h1.6v7.2h3.9v1.5H16z"/>
		<path class="st2" d="M22.3,116.4c0-0.6,0.1-1.1,0.4-1.6c0.2-0.5,0.6-0.9,1-1.2c0.5-0.3,1-0.4,1.5-0.4c0.9,0,1.6,0.3,2.1,0.9
			c0.5,0.6,0.8,1.4,0.8,2.4c0,1-0.3,1.8-0.8,2.4c-0.6,0.6-1.2,1-2.1,1c-0.5,0-1-0.1-1.5-0.4s-0.8-0.7-1.1-1.2
			C22.4,117.8,22.3,117.1,22.3,116.4z M23.8,116.5c0,0.6,0.1,1.1,0.4,1.5c0.3,0.3,0.6,0.5,1,0.5s0.7-0.2,1-0.5
			c0.3-0.3,0.4-0.8,0.4-1.5c0-0.6-0.1-1.1-0.4-1.4c-0.3-0.3-0.6-0.5-1-0.5s-0.7,0.2-1,0.5C24,115.4,23.8,115.9,23.8,116.5z"/>
		<path class="st2" d="M34.5,119.7H33v-3.3c0-0.7,0-1.1-0.1-1.3c-0.1-0.2-0.2-0.4-0.3-0.5s-0.3-0.2-0.5-0.2c-0.3,0-0.5,0.1-0.7,0.2
			c-0.2,0.2-0.3,0.4-0.4,0.6c-0.1,0.3-0.1,0.8-0.1,1.5v2.9h-1.5v-6.4h1.4v0.9c0.5-0.7,1.1-1.1,1.9-1.1c0.3,0,0.6,0.1,0.9,0.2
			c0.3,0.1,0.5,0.3,0.6,0.5c0.1,0.2,0.2,0.4,0.3,0.7s0.1,0.6,0.1,1.1V119.7z"/>
		<path class="st2" d="M41.2,119.7h-1.4v-0.9c-0.2,0.4-0.5,0.6-0.8,0.8c-0.3,0.2-0.6,0.3-1,0.3c-0.7,0-1.2-0.3-1.7-0.9
			c-0.5-0.6-0.7-1.4-0.7-2.5c0-1.1,0.2-1.9,0.7-2.5s1-0.8,1.7-0.8c0.6,0,1.2,0.3,1.6,0.9v-3.2h1.5V119.7z M37.2,116.4
			c0,0.7,0.1,1.2,0.3,1.5c0.2,0.4,0.6,0.7,1,0.7c0.3,0,0.6-0.2,0.9-0.5c0.2-0.3,0.4-0.8,0.4-1.5c0-0.7-0.1-1.3-0.4-1.6
			c-0.2-0.3-0.5-0.5-0.9-0.5c-0.4,0-0.7,0.2-0.9,0.5C37.3,115.2,37.2,115.7,37.2,116.4z"/>
		<path class="st2" d="M42.3,116.4c0-0.6,0.1-1.1,0.4-1.6c0.2-0.5,0.6-0.9,1-1.2c0.5-0.3,1-0.4,1.5-0.4c0.9,0,1.6,0.3,2.1,0.9
			c0.5,0.6,0.8,1.4,0.8,2.4c0,1-0.3,1.8-0.8,2.4c-0.6,0.6-1.2,1-2.1,1c-0.5,0-1-0.1-1.5-0.4s-0.8-0.7-1.1-1.2
			C42.5,117.8,42.3,117.1,42.3,116.4z M43.9,116.5c0,0.6,0.1,1.1,0.4,1.5c0.3,0.3,0.6,0.5,1,0.5s0.7-0.2,1-0.5
			c0.3-0.3,0.4-0.8,0.4-1.5c0-0.6-0.1-1.1-0.4-1.4c-0.3-0.3-0.6-0.5-1-0.5s-0.7,0.2-1,0.5C44,115.4,43.9,115.9,43.9,116.5z"/>
		<path class="st2" d="M54.5,119.7H53v-3.3c0-0.7,0-1.1-0.1-1.3c-0.1-0.2-0.2-0.4-0.3-0.5s-0.3-0.2-0.5-0.2c-0.3,0-0.5,0.1-0.7,0.2
			c-0.2,0.2-0.3,0.4-0.4,0.6c-0.1,0.3-0.1,0.8-0.1,1.5v2.9h-1.5v-6.4h1.4v0.9c0.5-0.7,1.1-1.1,1.9-1.1c0.3,0,0.6,0.1,0.9,0.2
			c0.3,0.1,0.5,0.3,0.6,0.5c0.1,0.2,0.2,0.4,0.3,0.7s0.1,0.6,0.1,1.1V119.7z"/>
	</g>
	<g>
		<path class="st2" d="M125.2,119.7v-8.8h1.6v3.5h3.1v-3.5h1.6v8.8h-1.6v-3.8h-3.1v3.8H125.2z"/>
		<path class="st2" d="M134.2,115.2l-1.4-0.3c0.2-0.6,0.4-1.1,0.8-1.4c0.4-0.3,0.9-0.4,1.7-0.4c0.7,0,1.2,0.1,1.5,0.3
			s0.6,0.4,0.7,0.7c0.1,0.3,0.2,0.8,0.2,1.5l0,2c0,0.6,0,1,0.1,1.2c0,0.3,0.1,0.6,0.3,0.9h-1.5c0-0.1-0.1-0.3-0.1-0.5
			c0-0.1,0-0.2-0.1-0.2c-0.3,0.3-0.5,0.5-0.8,0.6c-0.3,0.1-0.6,0.2-0.9,0.2c-0.6,0-1-0.2-1.4-0.5c-0.3-0.4-0.5-0.8-0.5-1.4
			c0-0.4,0.1-0.7,0.2-1c0.2-0.3,0.4-0.5,0.6-0.6s0.7-0.3,1.2-0.4c0.7-0.1,1.2-0.3,1.5-0.4v-0.2c0-0.3-0.1-0.6-0.2-0.7
			c-0.1-0.1-0.4-0.2-0.8-0.2c-0.3,0-0.5,0.1-0.6,0.2S134.3,115,134.2,115.2z M136.2,116.6c-0.2,0.1-0.5,0.2-0.9,0.3
			c-0.4,0.1-0.7,0.2-0.8,0.3c-0.2,0.2-0.3,0.4-0.3,0.6c0,0.2,0.1,0.4,0.2,0.6c0.2,0.2,0.4,0.3,0.6,0.3c0.3,0,0.5-0.1,0.8-0.3
			c0.2-0.2,0.3-0.3,0.4-0.6c0-0.1,0.1-0.4,0.1-0.8V116.6z"/>
		<path class="st2" d="M139,113.3h1.4v0.9c0.5-0.7,1.1-1,1.8-1c0.4,0,0.7,0.1,0.9,0.3s0.5,0.4,0.7,0.8c0.2-0.3,0.5-0.6,0.8-0.8
			s0.6-0.3,0.9-0.3c0.4,0,0.8,0.1,1.1,0.3c0.3,0.2,0.5,0.5,0.6,0.8c0.1,0.3,0.2,0.7,0.2,1.3v4.1h-1.5V116c0-0.6-0.1-1-0.2-1.2
			c-0.1-0.2-0.4-0.4-0.6-0.4c-0.2,0-0.4,0.1-0.6,0.2c-0.2,0.1-0.3,0.4-0.4,0.6c-0.1,0.3-0.1,0.7-0.1,1.3v3.1h-1.5v-3.5
			c0-0.6,0-1-0.1-1.2c-0.1-0.2-0.1-0.3-0.2-0.4s-0.3-0.1-0.5-0.1c-0.2,0-0.4,0.1-0.6,0.2c-0.2,0.1-0.3,0.3-0.4,0.6
			c-0.1,0.3-0.1,0.7-0.1,1.3v3.1H139V113.3z"/>
		<path class="st2" d="M148.9,112.4v-1.6h1.5v1.6H148.9z M148.9,119.7v-6.4h1.5v6.4H148.9z"/>
		<path class="st2" d="M151.9,119.7v-8.8h1.5v8.8H151.9z"/>
		<path class="st2" d="M157.5,113.3v1.3h-1v2.6c0,0.5,0,0.8,0,0.9c0,0.1,0.1,0.2,0.1,0.2c0.1,0.1,0.2,0.1,0.3,0.1
			c0.1,0,0.3-0.1,0.6-0.2l0.1,1.3c-0.3,0.2-0.7,0.3-1.2,0.3c-0.3,0-0.5-0.1-0.7-0.2c-0.2-0.1-0.4-0.2-0.5-0.4s-0.2-0.4-0.2-0.7
			c0-0.2,0-0.6,0-1.2v-2.8h-0.7v-1.3h0.7V112l1.5-1v2.3H157.5z"/>
		<path class="st2" d="M158.2,116.4c0-0.6,0.1-1.1,0.4-1.6c0.2-0.5,0.6-0.9,1-1.2c0.4-0.3,1-0.4,1.5-0.4c0.9,0,1.6,0.3,2.1,0.9
			s0.8,1.4,0.8,2.4c0,1-0.3,1.8-0.8,2.4c-0.6,0.6-1.2,1-2.1,1c-0.5,0-1-0.1-1.5-0.4c-0.5-0.3-0.8-0.7-1.1-1.2
			S158.2,117.1,158.2,116.4z M159.8,116.5c0,0.6,0.1,1.1,0.4,1.5s0.6,0.5,1,0.5c0.4,0,0.7-0.2,1-0.5s0.4-0.8,0.4-1.5
			c0-0.6-0.1-1.1-0.4-1.4s-0.6-0.5-1-0.5c-0.4,0-0.7,0.2-1,0.5S159.8,115.9,159.8,116.5z"/>
		<path class="st2" d="M170.4,119.7h-1.5v-3.3c0-0.7,0-1.1-0.1-1.3c-0.1-0.2-0.2-0.4-0.3-0.5c-0.1-0.1-0.3-0.2-0.5-0.2
			c-0.3,0-0.5,0.1-0.7,0.2c-0.2,0.2-0.3,0.4-0.4,0.6c-0.1,0.3-0.1,0.8-0.1,1.5v2.9h-1.5v-6.4h1.4v0.9c0.5-0.7,1.1-1.1,1.9-1.1
			c0.3,0,0.6,0.1,0.9,0.2c0.3,0.1,0.5,0.3,0.6,0.5s0.2,0.4,0.3,0.7c0.1,0.3,0.1,0.6,0.1,1.1V119.7z"/>
	</g>
	<g>
		<path class="st2" d="M146,97.2l-2.8-7.5h1.7l2,5.6l2-5.6h1.7l-2.9,7.5H146z"/>
		<path class="st2" d="M151.2,91v-1.3h1.5V91H151.2z M151.2,97.2v-5.4h1.5v5.4H151.2z"/>
		<path class="st2" d="M155.4,93.4l-1.4-0.2c0.2-0.5,0.4-0.9,0.8-1.2s0.9-0.4,1.7-0.4c0.7,0,1.2,0.1,1.5,0.2
			c0.3,0.2,0.6,0.3,0.7,0.6c0.1,0.2,0.2,0.7,0.2,1.3l0,1.7c0,0.5,0,0.8,0.1,1.1c0,0.2,0.1,0.5,0.3,0.7h-1.5c0-0.1-0.1-0.2-0.1-0.4
			c0-0.1,0-0.1-0.1-0.2c-0.3,0.2-0.5,0.4-0.8,0.5s-0.6,0.2-1,0.2c-0.6,0-1.1-0.2-1.4-0.5c-0.3-0.3-0.5-0.7-0.5-1.2
			c0-0.3,0.1-0.6,0.2-0.8c0.2-0.2,0.4-0.4,0.7-0.6c0.3-0.1,0.7-0.2,1.2-0.3c0.7-0.1,1.2-0.2,1.5-0.4v-0.1c0-0.3-0.1-0.5-0.2-0.6
			c-0.1-0.1-0.4-0.2-0.8-0.2c-0.3,0-0.5,0.1-0.6,0.2C155.6,93,155.5,93.2,155.4,93.4z M157.5,94.6c-0.2,0.1-0.5,0.1-0.9,0.2
			s-0.7,0.2-0.8,0.3c-0.2,0.1-0.3,0.3-0.3,0.5c0,0.2,0.1,0.4,0.2,0.5c0.2,0.1,0.4,0.2,0.6,0.2c0.3,0,0.5-0.1,0.8-0.3
			c0.2-0.1,0.3-0.3,0.4-0.5c0-0.1,0.1-0.4,0.1-0.7V94.6z"/>
	</g>
	<path class="st2" d="M43.7,97.5c0,0-0.6-0.5-0.6-2.6c0-2.3,0-3,0-3s0.1-1.9,0.8-3.8l0,0c0.4-0.5,0.6-1.1,0.6-1.8c0-2-2-3.7-4.5-3.7
		c-1.3,0-2.4,0.4-3.2,1.1c-1,0.6-2.9,1.6-4.9,1.7c-0.3,0-2.2,0-2.5,0c-2-0.1-3.9-1.1-4.9-1.7c-0.8-0.7-2-1.1-3.2-1.1
		c-2.5,0-4.5,1.7-4.5,3.7c0,0.7,0.2,1.3,0.6,1.8l0,0c0.8,1.9,0.8,3.8,0.8,3.8s0,0.7,0,3c0,2-0.6,2.6-0.6,2.6l0,0
		c-0.5,0.4-0.8,1-0.8,1.6c0,1.3,1.3,2.3,2.8,2.3c0,0,0.1,0,0.1,0l0,0l8.7,0.1l2.3,0l2.3,0l8.7-0.1l0,0c0,0,0.1,0,0.1,0
		c1.6,0,2.8-1,2.8-2.3C44.5,98.5,44.2,97.9,43.7,97.5L43.7,97.5z"/>
	<ellipse class="st2" cx="30.4" cy="83.3" rx="2.3" ry="2.7"/>
	<g>
		<path class="st2" d="M30.2,79.6c0-0.1,0-0.2,0-0.4c-0.6-0.1-1.7-0.3-2.4-0.8v2.2c0,0,1-0.7,2.4-0.7C30.2,79.7,30.2,79.6,30.2,79.6
			L30.2,79.6z"/>
		<path class="st2" d="M33.3,78.4c0,0-0.9,0.7-2.3,0.8c0,0.2,0,0.3,0,0.3h0c0,0.1,0,0.2,0,0.3c0.6,0.1,1.7,0.2,2.3,0.7V78.4z"/>
		<path class="st2" d="M30.5,79.8c-0.1,0-0.3,0-0.4,0c-0.1,0.5-0.3,1.4-1,1.9h2.7c0,0-0.8-0.8-0.9-1.9
			C30.7,79.9,30.5,79.9,30.5,79.8L30.5,79.8z"/>
		<path class="st2" d="M30.5,79.8L30.5,79.8C30.5,79.8,30.5,79.8,30.5,79.8c-0.2,0-0.3-0.1-0.3-0.3c0,0,0,0,0,0h0h0c0,0,0,0.1,0,0.3
			C30.3,79.8,30.4,79.8,30.5,79.8z"/>
		<path class="st2" d="M31,79.6h-0.1c0,0,0,0,0,0c0,0.1-0.1,0.3-0.3,0.3v0v0c0,0,0.2,0,0.4,0C31,79.8,30.9,79.7,31,79.6z"/>
		<path class="st2" d="M30.5,79.2c0.2,0,0.3,0,0.4,0c0.1-0.5,0.3-1.4,0.9-1.9h-2.7c0,0,0.9,0.8,1,1.8C30.4,79.2,30.5,79.2,30.5,79.2
			L30.5,79.2z"/>
		<path class="st2" d="M30.2,79.6L30.2,79.6c0-0.1,0.1-0.2,0.3-0.2c0,0,0,0,0,0v-0.1v0c0,0-0.1,0-0.3,0
			C30.2,79.3,30.2,79.4,30.2,79.6z"/>
		<path class="st2" d="M30.5,79.2L30.5,79.2c0.2,0.1,0.3,0.2,0.3,0.3H31h0c0,0,0-0.1,0-0.3C30.8,79.2,30.7,79.3,30.5,79.2z"/>
	</g>
	<g>
		<path class="st4" d="M25,95.7v-1.4h-2.8v-0.7l2.9-3.8h0.6v3.8h0.9v0.7h-0.9v1.4H25z M25,93.6V91l-2,2.7H25z"/>
		<path class="st4" d="M27.4,92.8c0-0.7,0.1-1.3,0.2-1.7c0.2-0.4,0.4-0.8,0.7-1s0.7-0.3,1.2-0.3c0.3,0,0.6,0.1,0.9,0.2
			c0.3,0.1,0.5,0.3,0.6,0.6c0.2,0.2,0.3,0.5,0.4,0.9c0.1,0.3,0.1,0.8,0.1,1.4c0,0.7-0.1,1.3-0.2,1.7c-0.2,0.4-0.4,0.8-0.7,1
			c-0.3,0.2-0.7,0.3-1.2,0.3c-0.6,0-1.1-0.2-1.5-0.6C27.6,94.7,27.4,93.9,27.4,92.8z M28.2,92.8c0,1,0.1,1.6,0.4,1.9
			c0.2,0.3,0.6,0.5,0.9,0.5c0.4,0,0.7-0.2,0.9-0.5s0.4-1,0.4-1.9c0-1-0.1-1.6-0.4-1.9c-0.2-0.3-0.6-0.5-0.9-0.5
			c-0.4,0-0.7,0.1-0.9,0.4C28.4,91.2,28.2,91.8,28.2,92.8z"/>
		<path class="st4" d="M35.4,95.7h-0.8v-4.6c-0.2,0.2-0.4,0.3-0.7,0.5S33.3,91.9,33,92v-0.7c0.4-0.2,0.8-0.4,1.2-0.7
			c0.3-0.3,0.6-0.5,0.7-0.8h0.5V95.7z"/>
	</g>
	<path class="st2" d="M134.5,97.5c0,0-0.6-0.5-0.6-2.6c0-2.3,0-3,0-3s0.1-1.9,0.8-3.8l0,0c0.4-0.5,0.6-1.1,0.6-1.8
		c0-2-2-3.7-4.5-3.7c-1.3,0-2.4,0.4-3.2,1.1c-1,0.6-2.9,1.6-4.9,1.7c-0.3,0-2.2,0-2.5,0c-2-0.1-3.9-1.1-4.9-1.7
		c-0.8-0.7-2-1.1-3.2-1.1c-2.5,0-4.5,1.7-4.5,3.7c0,0.7,0.2,1.3,0.6,1.8l0,0c0.8,1.9,0.8,3.8,0.8,3.8s0,0.7,0,3c0,2-0.6,2.6-0.6,2.6
		l0,0c-0.5,0.4-0.8,1-0.8,1.6c0,1.3,1.3,2.3,2.8,2.3c0,0,0.1,0,0.1,0l0,0l8.7,0.1l2.3,0l2.3,0l8.7-0.1l0,0c0,0,0.1,0,0.1,0
		c1.6,0,2.8-1,2.8-2.3C135.3,98.5,135,97.9,134.5,97.5L134.5,97.5z"/>
	<ellipse class="st2" cx="121.2" cy="83.3" rx="2.3" ry="2.7"/>
	<g>
		<path class="st2" d="M121,79.6c0-0.1,0-0.2,0-0.4c-0.6-0.1-1.7-0.3-2.4-0.8v2.2c0,0,1-0.7,2.4-0.7C121,79.7,121,79.6,121,79.6
			L121,79.6z"/>
		<path class="st2" d="M124,78.4c0,0-0.9,0.7-2.3,0.8c0,0.2,0,0.3,0,0.3h0c0,0.1,0,0.2,0,0.3c0.6,0.1,1.7,0.2,2.3,0.7V78.4z"/>
		<path class="st2" d="M121.3,79.8c-0.1,0-0.3,0-0.4,0c-0.1,0.5-0.3,1.4-1,1.9h2.7c0,0-0.8-0.8-0.9-1.9
			C121.5,79.9,121.3,79.9,121.3,79.8L121.3,79.8z"/>
		<path class="st2" d="M121.3,79.8L121.3,79.8C121.3,79.8,121.3,79.8,121.3,79.8c-0.2,0-0.3-0.1-0.3-0.3c0,0,0,0,0,0h0h0
			c0,0,0,0.1,0,0.3C121.1,79.8,121.2,79.8,121.3,79.8z"/>
		<path class="st2" d="M121.7,79.6h-0.1c0,0,0,0,0,0c0,0.1-0.1,0.3-0.3,0.3v0v0c0,0,0.2,0,0.4,0C121.7,79.8,121.7,79.7,121.7,79.6z"
			/>
		<path class="st2" d="M121.3,79.2c0.2,0,0.3,0,0.4,0c0.1-0.5,0.3-1.4,0.9-1.9H120c0,0,0.9,0.8,1,1.8
			C121.2,79.2,121.3,79.2,121.3,79.2L121.3,79.2z"/>
		<path class="st2" d="M121,79.6L121,79.6c0-0.1,0.1-0.2,0.3-0.2c0,0,0,0,0,0v-0.1v0c0,0-0.1,0-0.3,0C121,79.3,121,79.4,121,79.6z"
			/>
		<path class="st2" d="M121.3,79.2L121.3,79.2c0.2,0.1,0.3,0.2,0.3,0.3h0.1h0c0,0,0-0.1,0-0.3C121.6,79.2,121.5,79.3,121.3,79.2z"/>
	</g>
	<g>
		<path class="st4" d="M114.9,95.5c0.4,0.2,0.8,0.4,1.1,0.5l-0.3,0.5c-0.5-0.2-0.9-0.4-1.4-0.7c-0.5,0.2-1,0.4-1.6,0.4
			c-0.6,0-1.1-0.1-1.6-0.4s-0.8-0.6-1.1-1.1s-0.4-1-0.4-1.6c0-0.6,0.1-1.1,0.4-1.6c0.3-0.5,0.6-0.8,1.1-1.1s1-0.4,1.6-0.4
			c0.6,0,1.1,0.1,1.6,0.4s0.8,0.6,1.1,1.1s0.4,1,0.4,1.6c0,0.5-0.1,0.9-0.2,1.3C115.5,94.9,115.2,95.2,114.9,95.5z M113,94.5
			c0.5,0.1,0.9,0.3,1.2,0.6c0.5-0.4,0.8-1,0.8-1.9c0-0.5-0.1-0.9-0.3-1.3c-0.2-0.4-0.4-0.6-0.8-0.8s-0.7-0.3-1.1-0.3
			c-0.6,0-1.2,0.2-1.6,0.6c-0.4,0.4-0.6,1-0.6,1.8c0,0.8,0.2,1.4,0.6,1.8c0.4,0.4,0.9,0.6,1.6,0.6c0.3,0,0.6-0.1,0.9-0.2
			c-0.3-0.2-0.5-0.3-0.8-0.3L113,94.5z"/>
		<path class="st4" d="M116.3,96.2v-0.8h0.9v0.8H116.3z"/>
		<path class="st4" d="M117.8,96.2v-5.9h4.7V91h-3.8v1.8h3.6v0.7h-3.6v2h3.9v0.7H117.8z"/>
		<path class="st4" d="M123.1,96.2v-0.8h0.9v0.8H123.1z"/>
		<path class="st4" d="M125.7,96.2l-1.7-5.9h0.9l1,3.9c0.1,0.4,0.2,0.8,0.3,1.2c0.2-0.6,0.3-1,0.3-1.1l1.2-4h1l0.9,3
			c0.2,0.7,0.4,1.4,0.5,2.1c0.1-0.4,0.2-0.8,0.3-1.3l1-3.8h0.9l-1.8,5.9h-0.8l-1.4-4.5c-0.1-0.4-0.2-0.6-0.2-0.7
			c-0.1,0.3-0.1,0.5-0.2,0.7l-1.4,4.5H125.7z"/>
		<path class="st4" d="M131.9,96.2v-0.8h0.9v0.8H131.9z"/>
	</g>
	<path class="st2" d="M194,97.5c0,0-0.6-0.5-0.6-2.6c0-2.3,0-3,0-3s0.1-1.9,0.8-3.8l0,0c0.4-0.5,0.6-1.1,0.6-1.8c0-2-2-3.7-4.5-3.7
		c-1.3,0-2.4,0.4-3.2,1.1c-1,0.6-2.9,1.6-4.9,1.7c-0.3,0-2.2,0-2.5,0c-2-0.1-3.9-1.1-4.9-1.7c-0.8-0.7-2-1.1-3.2-1.1
		c-2.5,0-4.5,1.7-4.5,3.7c0,0.7,0.2,1.3,0.6,1.8l0,0c0.8,1.9,0.8,3.8,0.8,3.8s0,0.7,0,3c0,2-0.6,2.6-0.6,2.6l0,0
		c-0.5,0.4-0.8,1-0.8,1.6c0,1.3,1.3,2.3,2.8,2.3c0,0,0.1,0,0.1,0l0,0l8.7,0.1l2.3,0l2.3,0l8.7-0.1l0,0c0,0,0.1,0,0.1,0
		c1.6,0,2.8-1,2.8-2.3C194.8,98.5,194.5,97.9,194,97.5L194,97.5z"/>
	<ellipse class="st2" cx="180.7" cy="83.3" rx="2.3" ry="2.7"/>
	<g>
		<path class="st2" d="M180.5,79.6c0-0.1,0-0.2,0-0.4c-0.6-0.1-1.7-0.3-2.4-0.8v2.2c0,0,1-0.7,2.4-0.7
			C180.5,79.7,180.5,79.6,180.5,79.6L180.5,79.6z"/>
		<path class="st2" d="M183.5,78.4c0,0-0.9,0.7-2.3,0.8c0,0.2,0,0.3,0,0.3h0c0,0.1,0,0.2,0,0.3c0.6,0.1,1.7,0.2,2.3,0.7V78.4z"/>
		<path class="st2" d="M180.8,79.8c-0.1,0-0.3,0-0.4,0c-0.1,0.5-0.3,1.4-1,1.9h2.7c0,0-0.8-0.8-0.9-1.9
			C181,79.9,180.8,79.9,180.8,79.8L180.8,79.8z"/>
		<path class="st2" d="M180.8,79.8L180.8,79.8C180.8,79.8,180.8,79.8,180.8,79.8c-0.2,0-0.3-0.1-0.3-0.3c0,0,0,0,0,0h0h0
			c0,0,0,0.1,0,0.3C180.6,79.8,180.7,79.8,180.8,79.8z"/>
		<path class="st2" d="M181.2,79.6h-0.1c0,0,0,0,0,0c0,0.1-0.1,0.3-0.3,0.3v0v0c0,0,0.2,0,0.4,0C181.2,79.8,181.2,79.7,181.2,79.6z"
			/>
		<path class="st2" d="M180.8,79.2c0.2,0,0.3,0,0.4,0c0.1-0.5,0.3-1.4,0.9-1.9h-2.7c0,0,0.9,0.8,1,1.8
			C180.7,79.2,180.8,79.2,180.8,79.2L180.8,79.2z"/>
		<path class="st2" d="M180.5,79.6L180.5,79.6c0-0.1,0.1-0.2,0.3-0.2c0,0,0,0,0,0v-0.1v0c0,0-0.1,0-0.3,0
			C180.5,79.3,180.5,79.4,180.5,79.6z"/>
		<path class="st2" d="M180.8,79.2L180.8,79.2c0.2,0.1,0.3,0.2,0.3,0.3h0.1h0c0,0,0-0.1,0-0.3C181.1,79.2,181,79.3,180.8,79.2z"/>
	</g>
	<g>
		<path class="st4" d="M175.2,95.7v-1.4h-2.8v-0.7l2.9-3.8h0.6v3.8h0.9v0.7H176v1.4H175.2z M175.2,93.6V91l-2,2.7H175.2z"/>
		<path class="st4" d="M177.7,92.8c0-0.7,0.1-1.3,0.2-1.7c0.2-0.4,0.4-0.8,0.7-1c0.3-0.2,0.7-0.3,1.2-0.3c0.3,0,0.6,0.1,0.9,0.2
			c0.3,0.1,0.5,0.3,0.6,0.6c0.2,0.2,0.3,0.5,0.4,0.9c0.1,0.3,0.1,0.8,0.1,1.4c0,0.7-0.1,1.3-0.2,1.7c-0.2,0.4-0.4,0.8-0.7,1
			c-0.3,0.2-0.7,0.3-1.2,0.3c-0.6,0-1.1-0.2-1.5-0.6C177.9,94.7,177.7,93.9,177.7,92.8z M178.5,92.8c0,1,0.1,1.6,0.4,1.9
			c0.2,0.3,0.6,0.5,0.9,0.5c0.4,0,0.7-0.2,0.9-0.5s0.4-1,0.4-1.9c0-1-0.1-1.6-0.4-1.9c-0.2-0.3-0.6-0.5-0.9-0.5
			c-0.4,0-0.7,0.1-0.9,0.4C178.7,91.2,178.5,91.8,178.5,92.8z"/>
		<path class="st4" d="M182.7,94.2l0.8-0.1c0.1,0.4,0.2,0.7,0.5,0.9c0.2,0.2,0.5,0.3,0.8,0.3c0.4,0,0.7-0.1,0.9-0.4s0.4-0.5,0.4-0.9
			c0-0.3-0.1-0.6-0.4-0.8c-0.2-0.2-0.5-0.3-0.9-0.3c-0.1,0-0.3,0-0.6,0.1l0.1-0.6c0.1,0,0.1,0,0.1,0c0.3,0,0.6-0.1,0.9-0.2
			c0.3-0.2,0.4-0.4,0.4-0.7c0-0.3-0.1-0.5-0.3-0.7c-0.2-0.2-0.4-0.3-0.8-0.3c-0.3,0-0.6,0.1-0.8,0.3c-0.2,0.2-0.3,0.4-0.4,0.8
			l-0.8-0.1c0.1-0.5,0.3-0.9,0.7-1.1c0.3-0.3,0.8-0.4,1.3-0.4c0.4,0,0.7,0.1,1,0.2c0.3,0.1,0.5,0.3,0.7,0.6c0.2,0.2,0.2,0.5,0.2,0.8
			c0,0.3-0.1,0.5-0.2,0.7c-0.1,0.2-0.4,0.4-0.7,0.5c0.4,0.1,0.7,0.2,0.9,0.5c0.2,0.3,0.3,0.6,0.3,1c0,0.5-0.2,1-0.6,1.3
			s-0.9,0.5-1.6,0.5c-0.6,0-1-0.2-1.4-0.5C183,95.1,182.8,94.7,182.7,94.2z"/>
	</g>
</g>
</svg>
