<?xml version="1.0" encoding="utf-8"?>
<!-- Generator: Adobe Illustrator 21.1.0, SVG Export Plug-In . SVG Version: 6.00 Build 0)  -->
<svg version="1.1" id="Layer_1" xmlns="http://www.w3.org/2000/svg" xmlns:xlink="http://www.w3.org/1999/xlink" x="0px" y="0px"
	 viewBox="0 0 203 202" style="enable-background:new 0 0 203 202;" xml:space="preserve">
<style type="text/css">
	.st0{fill:#FFFFFF;stroke:#000000;stroke-width:0.2581;}
	.st1{fill:#058040;}
	.st2{fill:#FFFFFF;}
	.st3{fill:#03519F;}
	.st4{fill:#EFCF26;}
	.st5{fill:#EFCF26;stroke:#000000;stroke-width:0.25;stroke-miterlimit:10;}
	.st6{stroke:#000000;stroke-width:0.25;stroke-miterlimit:10;}
	.st7{fill:#231F20;}
</style>
<g>
	<g>
		<g id="_x3C_HANDICAPPED_Sign_x3E__3_">
			<path class="st0" d="M130.7,161.6c0,2.4-1.9,4.3-4.3,4.3H76.7c-2.4,0-4.3-1.9-4.3-4.3v-49.7c0-2.4,1.9-4.3,4.3-4.3h49.7
				c2.4,0,4.3,1.9,4.3,4.3V161.6z"/>
			<path class="st1" d="M125.9,109h-49c-1.8,0-3.2,1.5-3.2,3.2v49c0,1.8,1.5,3.2,3.2,3.2h49c1.8,0,3.2-1.5,3.2-3.2v-49
				C129.2,110.4,127.7,109,125.9,109z"/>
		</g>
		<path class="st2" d="M111.3,159.3l2.6-2.6l-1.4-6.6l3.5-3.5l-2-2l-1.8,1.8l-0.8-4l3.2-3.2l-1.6-1.6l-2,2l-0.9-7.1l5.1-5.1
			c1-1.9,1.5-3.2,1.7-4.1c0.5-1.5,0.7-3.8-5.8-0.4l-5.1,5.1l-7.1-0.9l2-2l-1.6-1.6l-3.2,3.2l-4-0.8l1.8-1.8l-2-2l-3.5,3.5l-6.6-1.4
			l-2.6,2.6l18.6,9.4l-8.1,8.1l-7.4-1.6l-2.5,2.8l6.7,3.6l0.5,0.4l2,2.6l3.6,6.7l2.8-2.5l-1.6-7.4l8.1-8.1L111.3,159.3z"/>
	</g>
	<g>
		<path class="st0" d="M130.9,86.1c0,2.4-2,4.4-4.4,4.4H76.5c-2.4,0-4.4-2-4.4-4.4V36c0-2.4,2-4.4,4.4-4.4h50.1c2.4,0,4.4,2,4.4,4.4
			V86.1z"/>
		<path class="st3" d="M126.1,33.1H76.8c-1.8,0-3.3,1.5-3.3,3.3v49.4c0,1.8,1.5,3.3,3.3,3.3h49.4c1.8,0,3.3-1.5,3.3-3.3V36.4
			C129.4,34.6,127.9,33.1,126.1,33.1z"/>
		<polygon class="st2" points="118.4,41.2 110.2,41.2 110.2,56.9 93.3,56.9 93.3,41.2 85.1,41.2 85.1,82.2 93.3,82.2 93.3,65 
			110.2,65 110.2,82.2 118.4,82.2 		"/>
	</g>
</g>
<g>
	<g>
		<path class="st0" d="M199.6,86.1c0,2.4-2,4.4-4.4,4.4h-50.1c-2.4,0-4.4-2-4.4-4.4V36c0-2.4,2-4.4,4.4-4.4h50.1
			c2.4,0,4.4,2,4.4,4.4V86.1z"/>
		<path class="st3" d="M194.7,33.1h-49.4c-1.8,0-3.3,1.5-3.3,3.3v49.4c0,1.8,1.5,3.3,3.3,3.3h49.4c1.8,0,3.3-1.5,3.3-3.3V36.4
			C198,34.6,196.5,33.1,194.7,33.1z"/>
	</g>
	<g>
		<path class="st2" d="M172.8,71.7h-7.3c0-1,0-1.6,0-1.8c0-2.2,0.4-4.1,1.2-5.5s2.4-3.1,4.7-4.9c2.4-1.8,3.8-3,4.2-3.5
			c0.7-0.9,1.1-1.9,1.1-2.9c0-1.5-0.6-2.7-1.9-3.8c-1.3-1.1-2.9-1.6-5.1-1.6c-2,0-3.8,0.6-5.1,1.7c-1.4,1.1-2.3,2.8-2.8,5l-7.4-0.9
			c0.2-3.2,1.7-6,4.4-8.2c2.7-2.3,6.3-3.4,10.7-3.4c4.6,0,8.3,1.1,11,3.4c2.7,2.3,4.1,4.9,4.1,8c0,1.7-0.5,3.3-1.5,4.8
			c-1,1.5-3.2,3.5-6.4,6.1c-1.7,1.3-2.8,2.4-3.2,3.2C172.9,68.1,172.7,69.6,172.8,71.7z M165.4,81.9v-7.6h8.1v7.6H165.4z"/>
	</g>
</g>
<g>
	<g>
		<path class="st0" d="M62.3,86.1c0,2.4-2,4.4-4.4,4.4H7.9c-2.4,0-4.4-2-4.4-4.4V36c0-2.4,2-4.4,4.4-4.4h50.1c2.4,0,4.4,2,4.4,4.4
			V86.1z"/>
		<path class="st4" d="M57.5,33.1H8.1c-1.8,0-3.3,1.5-3.3,3.3v49.4c0,1.8,1.5,3.3,3.3,3.3h49.4c1.8,0,3.3-1.5,3.3-3.3V36.4
			C60.8,34.6,59.3,33.1,57.5,33.1z"/>
	</g>
	<g>
		<g>
			<g>
				<path class="st5" d="M34.4,75.5L56,45.9c-6.4-4.9-14.4-7.7-23-7.7c-8.7,0-16.7,2.9-23.1,7.8l21.5,29.6
					C32.2,76.7,33.5,76.7,34.4,75.5z"/>
			</g>
			<g>
				<path class="st6" d="M34.2,73.6l19.5-27.1c-5.5-4.3-13.3-6.4-20.7-6.4c-7.5,0-15.2,2-20.7,6.4l19.4,27.1
					C32.3,74.7,33.5,74.7,34.2,73.6z"/>
			</g>
		</g>
		<g>
			<path class="st7" d="M10.8,83.4v-3.7h1.5c0.3,0,0.5,0,0.6,0c0.2,0,0.4,0.1,0.5,0.2c0.1,0.1,0.2,0.2,0.3,0.4
				c0.1,0.2,0.1,0.3,0.1,0.5c0,0.3-0.1,0.6-0.3,0.8s-0.6,0.3-1.2,0.3h-1v1.5H10.8z M11.3,81.4h1c0.3,0,0.6-0.1,0.7-0.2
				c0.1-0.1,0.2-0.3,0.2-0.5c0-0.2,0-0.3-0.1-0.4c-0.1-0.1-0.2-0.2-0.3-0.2c-0.1,0-0.3,0-0.5,0h-1V81.4z"/>
			<path class="st7" d="M14.4,81.5c0-0.6,0.2-1.1,0.5-1.5c0.4-0.4,0.8-0.5,1.4-0.5c0.4,0,0.7,0.1,1,0.2c0.3,0.2,0.5,0.4,0.7,0.7
				c0.2,0.3,0.2,0.6,0.2,1c0,0.4-0.1,0.7-0.2,1c-0.2,0.3-0.4,0.5-0.7,0.7c-0.3,0.2-0.6,0.2-1,0.2c-0.4,0-0.7-0.1-1-0.3
				c-0.3-0.2-0.5-0.4-0.7-0.7S14.4,81.9,14.4,81.5z M14.9,81.5c0,0.5,0.1,0.8,0.4,1.1c0.3,0.3,0.6,0.4,1,0.4c0.4,0,0.7-0.1,1-0.4
				s0.4-0.6,0.4-1.1c0-0.3-0.1-0.6-0.2-0.8c-0.1-0.2-0.3-0.4-0.5-0.5S16.5,80,16.3,80c-0.4,0-0.7,0.1-1,0.4
				C15,80.6,14.9,81,14.9,81.5z"/>
			<path class="st7" d="M18.8,83.4v-3.7h0.5v3.3h2v0.4H18.8z"/>
			<path class="st7" d="M22,83.4v-3.7h0.5v3.7H22z"/>
			<path class="st7" d="M26.3,82l0.5,0.1c-0.1,0.4-0.3,0.7-0.6,0.9c-0.3,0.2-0.6,0.3-1,0.3c-0.4,0-0.8-0.1-1-0.2s-0.5-0.4-0.6-0.7
				s-0.2-0.6-0.2-1c0-0.4,0.1-0.7,0.2-1c0.2-0.3,0.4-0.5,0.7-0.7s0.6-0.2,1-0.2c0.4,0,0.7,0.1,1,0.3s0.5,0.5,0.6,0.8l-0.5,0.1
				c-0.1-0.3-0.2-0.5-0.4-0.6C25.6,80,25.4,80,25.1,80c-0.3,0-0.6,0.1-0.8,0.2c-0.2,0.1-0.3,0.3-0.4,0.6c-0.1,0.2-0.1,0.5-0.1,0.7
				c0,0.3,0,0.6,0.1,0.8s0.3,0.4,0.5,0.5c0.2,0.1,0.4,0.2,0.7,0.2c0.3,0,0.5-0.1,0.7-0.2C26,82.6,26.2,82.4,26.3,82z"/>
			<path class="st7" d="M27.4,83.4v-3.7h2.9v0.4H28v1.1h2.2v0.4H28v1.3h2.4v0.4H27.4z"/>
			<path class="st7" d="M32.5,82.2l0.5,0c0,0.2,0.1,0.3,0.2,0.5c0.1,0.1,0.2,0.2,0.4,0.3s0.4,0.1,0.6,0.1c0.2,0,0.4,0,0.5-0.1
				s0.3-0.1,0.3-0.2s0.1-0.2,0.1-0.3c0-0.1,0-0.2-0.1-0.3c-0.1-0.1-0.2-0.2-0.4-0.2c-0.1,0-0.3-0.1-0.7-0.2
				c-0.4-0.1-0.6-0.2-0.8-0.2c-0.2-0.1-0.3-0.2-0.4-0.3c-0.1-0.1-0.1-0.3-0.1-0.5c0-0.2,0.1-0.4,0.2-0.5c0.1-0.2,0.3-0.3,0.5-0.4
				c0.2-0.1,0.5-0.1,0.7-0.1c0.3,0,0.6,0,0.8,0.1c0.2,0.1,0.4,0.2,0.5,0.4s0.2,0.4,0.2,0.6l-0.5,0c0-0.2-0.1-0.4-0.3-0.5
				S34.4,80,34,80c-0.3,0-0.5,0.1-0.7,0.2c-0.1,0.1-0.2,0.2-0.2,0.4c0,0.1,0.1,0.2,0.2,0.3c0.1,0.1,0.4,0.2,0.8,0.3
				c0.4,0.1,0.7,0.2,0.9,0.2c0.2,0.1,0.4,0.2,0.5,0.4s0.2,0.3,0.2,0.5c0,0.2-0.1,0.4-0.2,0.6c-0.1,0.2-0.3,0.3-0.5,0.4
				s-0.5,0.1-0.8,0.1c-0.4,0-0.7,0-0.9-0.1c-0.2-0.1-0.4-0.2-0.6-0.4C32.6,82.6,32.5,82.4,32.5,82.2z"/>
			<path class="st7" d="M37.4,83.4v-3.3h-1.3v-0.4h3.1v0.4h-1.3v3.3H37.4z"/>
			<path class="st7" d="M38.9,83.4l1.5-3.7H41l1.6,3.7H42l-0.5-1.1h-1.7l-0.4,1.1H38.9z M40,81.8h1.3l-0.4-1
				c-0.1-0.3-0.2-0.6-0.3-0.8c-0.1,0.2-0.1,0.5-0.2,0.7L40,81.8z"/>
			<path class="st7" d="M43.6,83.4v-3.3h-1.3v-0.4h3.1v0.4h-1.3v3.3H43.6z"/>
			<path class="st7" d="M46.1,83.4v-3.7h0.5v3.7H46.1z"/>
			<path class="st7" d="M47.4,81.5c0-0.6,0.2-1.1,0.5-1.5c0.4-0.4,0.8-0.5,1.4-0.5c0.4,0,0.7,0.1,1,0.2c0.3,0.2,0.5,0.4,0.7,0.7
				c0.2,0.3,0.2,0.6,0.2,1c0,0.4-0.1,0.7-0.2,1c-0.2,0.3-0.4,0.5-0.7,0.7c-0.3,0.2-0.6,0.2-1,0.2c-0.4,0-0.7-0.1-1-0.3
				c-0.3-0.2-0.5-0.4-0.7-0.7S47.4,81.9,47.4,81.5z M47.9,81.5c0,0.5,0.1,0.8,0.4,1.1c0.3,0.3,0.6,0.4,1,0.4c0.4,0,0.7-0.1,1-0.4
				s0.4-0.6,0.4-1.1c0-0.3-0.1-0.6-0.2-0.8c-0.1-0.2-0.3-0.4-0.5-0.5S49.5,80,49.3,80c-0.4,0-0.7,0.1-1,0.4
				C48,80.6,47.9,81,47.9,81.5z"/>
			<path class="st7" d="M51.8,83.4v-3.7h0.5l2.1,2.9v-2.9h0.5v3.7h-0.5l-2.1-2.9v2.9H51.8z"/>
		</g>
	</g>
</g>
</svg>
