<?xml version="1.0" encoding="utf-8"?>
<!-- Generator: Adobe Illustrator 21.1.0, SVG Export Plug-In . SVG Version: 6.00 Build 0)  -->
<svg version="1.1" id="Layer_1" xmlns="http://www.w3.org/2000/svg" xmlns:xlink="http://www.w3.org/1999/xlink" x="0px" y="0px"
	 viewBox="0 0 203 202" style="enable-background:new 0 0 203 202;" xml:space="preserve">
<style type="text/css">
	.st0{fill:#FFFFFF;stroke:#000000;stroke-width:0.25;}
	.st1{fill:#FFFFFF;stroke:#000000;}
	.st2{fill:#231F20;}
	.st3{fill:#FFFFFF;}
	.st4{fill:#E6E7E8;}
	.st5{fill:none;}
</style>
<g>
	<path class="st0" d="M182.3,194.5c0,3-2.4,5.5-5.5,5.5H24.8c-3,0-5.5-2.4-5.5-5.5V8.3c0-3,2.4-5.5,5.5-5.5h152.1
		c3,0,5.5,2.4,5.5,5.5V194.5z"/>
	<path class="st1" d="M177.8,189.9c0,3-2.4,5.5-5.5,5.5H29.3c-3,0-5.5-2.4-5.5-5.5V12.3c0-3,2.4-5.5,5.5-5.5h143.1
		c3,0,5.5,2.4,5.5,5.5V189.9z"/>
</g>
<g>
	<g>
		<path class="st2" d="M118.1,15h-0.5c-1.8,0-3.2,1.5-3.2,3.3v26h3.2v4.2c0,0,0,0.1,0,0.2c0,0.5,0.4,0.8,0.8,0.8h4.4
			c0.5,0,0.8-0.4,0.8-0.8c0-0.1,0-0.2-0.1-0.4v-4H146l0,4.9h0c0,0.4,0.4,0.8,0.8,0.8h4.4c0.5,0,0.8-0.4,0.8-0.8c0-0.1,0-0.2-0.1-0.4
			l0-4.5h3.6v-26c0-1.8-1.4-3.3-3.2-3.3h-1.2 M148.5,15"/>
	</g>
	<path class="st3" d="M152.8,28.5c0,2-1.8,3.6-4.1,3.6h-27.3c-2.2,0-4.1-1.6-4.1-3.6v-5c0-2,1.8-3.6,4.1-3.6h27.3
		c2.2,0,4.1,1.6,4.1,3.6V28.5z"/>
	<path class="st2" d="M148.9,31.9c0,1.7-1.3,3-3,3h-5.3c-1.7,0-3-1.3-3-3l0,0c0-1.7,1.3-3,3-3h5.3C147.5,28.9,148.9,30.2,148.9,31.9
		L148.9,31.9z"/>
	<ellipse class="st2" cx="143.2" cy="27.1" rx="2.1" ry="2.1"/>
	<path class="st4" d="M151,17.4c0,0.7-0.5,1.2-1.2,1.2h-29.5c-0.7,0-1.2-0.5-1.2-1.2l0,0c0-0.7,0.5-1.2,1.2-1.2h29.5
		C150.5,16.1,151,16.7,151,17.4L151,17.4z"/>
	<circle class="st3" cx="120.5" cy="37.9" r="1.3"/>
	<circle class="st3" cx="149.1" cy="37.9" r="1.3"/>
</g>
<g>
	<rect x="30.3" y="129" class="st5" width="136.8" height="53.7"/>
	<path class="st2" d="M42.3,145.8h7c0.7,0,1.2,0.1,1.6,0.4c0.4,0.3,0.5,0.7,0.5,1.2c0,0.4-0.1,0.8-0.4,1.1c-0.3,0.3-0.7,0.5-1.3,0.5
		h-9.8c-0.7,0-1.2-0.2-1.6-0.6c-0.4-0.4-0.6-0.8-0.6-1.3c0-0.3,0.1-0.7,0.4-1.3c0.2-0.5,0.5-0.9,0.8-1.2c1.2-1.2,2.2-2.3,3.2-3.1
		c0.9-0.9,1.6-1.4,2-1.7c0.7-0.5,1.3-1,1.8-1.6s0.9-1.1,1.1-1.6c0.3-0.5,0.4-1.1,0.4-1.6c0-0.6-0.1-1.1-0.4-1.5s-0.6-0.8-1.1-1
		c-0.5-0.2-1-0.4-1.5-0.4c-1.2,0-2.1,0.5-2.7,1.5c-0.1,0.1-0.2,0.5-0.4,1.1c-0.2,0.6-0.4,1.1-0.7,1.4c-0.3,0.3-0.6,0.5-1.2,0.5
		c-0.4,0-0.8-0.1-1.1-0.4s-0.4-0.7-0.4-1.2c0-0.6,0.1-1.3,0.4-1.9c0.3-0.7,0.7-1.3,1.2-1.8c0.5-0.5,1.2-1,2.1-1.3
		c0.8-0.3,1.8-0.5,2.9-0.5c1.4,0,2.5,0.2,3.5,0.6c0.6,0.3,1.2,0.7,1.6,1.2c0.5,0.5,0.8,1.1,1.1,1.7c0.3,0.7,0.4,1.3,0.4,2
		c0,1.1-0.3,2.1-0.8,3c-0.5,0.9-1.1,1.6-1.7,2.1c-0.6,0.5-1.5,1.3-2.9,2.4c-1.3,1.1-2.3,1.9-2.8,2.5
		C42.7,145.1,42.5,145.4,42.3,145.8z"/>
	<path class="st2" d="M74.7,141.8c0,1.1-0.2,2.1-0.5,3c-0.3,0.9-0.8,1.7-1.5,2.4c-0.6,0.7-1.4,1.2-2.3,1.5c-0.9,0.4-1.9,0.5-3,0.5
		c-1.1,0-2.1-0.2-3-0.5c-0.9-0.4-1.6-0.9-2.3-1.5c-0.6-0.7-1.1-1.4-1.5-2.3s-0.5-1.9-0.5-3c0-1.1,0.2-2.1,0.5-3
		c0.3-0.9,0.8-1.7,1.5-2.3c0.6-0.6,1.4-1.1,2.3-1.5c0.9-0.4,1.9-0.5,3-0.5c1.1,0,2.1,0.2,3,0.5c0.9,0.4,1.7,0.9,2.3,1.5
		c0.6,0.7,1.1,1.4,1.5,2.3C74.6,139.8,74.7,140.8,74.7,141.8z M71.1,141.8c0-1.5-0.3-2.6-1-3.5c-0.7-0.8-1.5-1.2-2.6-1.2
		c-0.7,0-1.3,0.2-1.9,0.6s-1,0.9-1.3,1.6c-0.3,0.7-0.4,1.6-0.4,2.5c0,1,0.1,1.8,0.4,2.5c0.3,0.7,0.7,1.3,1.2,1.6s1.2,0.6,1.9,0.6
		c1.1,0,2-0.4,2.6-1.2C70.8,144.5,71.1,143.3,71.1,141.8z"/>
	<path class="st2" d="M81.2,144v3c0,0.7-0.2,1.3-0.5,1.7c-0.3,0.4-0.8,0.6-1.3,0.6c-0.5,0-1-0.2-1.3-0.6c-0.3-0.4-0.5-0.9-0.5-1.7
		v-10.1c0-1.6,0.6-2.5,1.8-2.5c0.6,0,1,0.2,1.3,0.6c0.3,0.4,0.4,0.9,0.4,1.7c0.4-0.7,0.9-1.3,1.3-1.7c0.5-0.4,1.1-0.6,1.8-0.6
		s1.5,0.2,2.2,0.6s1.1,0.9,1.1,1.5c0,0.4-0.2,0.8-0.5,1.1c-0.3,0.3-0.6,0.4-1,0.4c-0.1,0-0.5-0.1-1-0.2c-0.5-0.2-1-0.2-1.4-0.2
		c-0.5,0-1,0.1-1.3,0.4c-0.3,0.3-0.6,0.7-0.8,1.2c-0.2,0.6-0.3,1.2-0.4,2C81.2,142,81.2,142.9,81.2,144z"/>
	<path class="st2" d="M103.2,146l-3.1-12.4V147c0,0.7-0.2,1.3-0.5,1.7s-0.8,0.6-1.3,0.6c-0.5,0-1-0.2-1.3-0.6s-0.5-0.9-0.5-1.7
		v-15.4c0-0.9,0.2-1.4,0.7-1.7c0.4-0.3,1-0.4,1.8-0.4h1.2c0.7,0,1.3,0.1,1.6,0.2s0.6,0.4,0.7,0.7c0.2,0.3,0.3,0.9,0.5,1.7l2.8,10.7
		l2.8-10.7c0.2-0.8,0.4-1.3,0.5-1.7c0.2-0.3,0.4-0.6,0.7-0.7c0.3-0.1,0.9-0.2,1.6-0.2h1.2c0.8,0,1.4,0.1,1.8,0.4
		c0.4,0.3,0.7,0.9,0.7,1.7V147c0,0.7-0.2,1.3-0.5,1.7s-0.8,0.6-1.3,0.6c-0.5,0-1-0.2-1.3-0.6c-0.3-0.4-0.5-0.9-0.5-1.7v-13.5
		l-3.1,12.4c-0.2,0.8-0.4,1.4-0.5,1.8c-0.1,0.4-0.4,0.7-0.7,1c-0.3,0.3-0.8,0.5-1.4,0.5c-0.5,0-0.9-0.1-1.2-0.3
		c-0.3-0.2-0.6-0.5-0.7-0.8s-0.3-0.7-0.4-1C103.4,146.8,103.3,146.4,103.2,146z"/>
	<path class="st2" d="M132.7,141.8c0,1.1-0.2,2.1-0.5,3c-0.3,0.9-0.8,1.7-1.5,2.4c-0.6,0.7-1.4,1.2-2.3,1.5c-0.9,0.4-1.9,0.5-3,0.5
		c-1.1,0-2.1-0.2-3-0.5c-0.9-0.4-1.6-0.9-2.3-1.5s-1.1-1.4-1.5-2.3s-0.5-1.9-0.5-3c0-1.1,0.2-2.1,0.5-3c0.3-0.9,0.8-1.7,1.5-2.3
		c0.6-0.6,1.4-1.1,2.3-1.5s1.9-0.5,3-0.5c1.1,0,2.1,0.2,3,0.5c0.9,0.4,1.7,0.9,2.3,1.5c0.6,0.7,1.1,1.4,1.5,2.3
		C132.5,139.8,132.7,140.8,132.7,141.8z M129,141.8c0-1.5-0.3-2.6-1-3.5c-0.7-0.8-1.5-1.2-2.6-1.2c-0.7,0-1.3,0.2-1.9,0.6
		s-1,0.9-1.3,1.6c-0.3,0.7-0.4,1.6-0.4,2.5c0,1,0.1,1.8,0.4,2.5c0.3,0.7,0.7,1.3,1.2,1.6s1.2,0.6,1.9,0.6c1.1,0,2-0.4,2.6-1.2
		C128.7,144.5,129,143.3,129,141.8z"/>
	<path class="st2" d="M139.2,144v3c0,0.7-0.2,1.3-0.5,1.7c-0.3,0.4-0.8,0.6-1.3,0.6c-0.5,0-1-0.2-1.3-0.6c-0.3-0.4-0.5-0.9-0.5-1.7
		v-10.1c0-1.6,0.6-2.5,1.8-2.5c0.6,0,1,0.2,1.3,0.6s0.4,0.9,0.4,1.7c0.4-0.7,0.9-1.3,1.3-1.7c0.5-0.4,1.1-0.6,1.8-0.6
		c0.8,0,1.5,0.2,2.2,0.6s1.1,0.9,1.1,1.5c0,0.4-0.2,0.8-0.5,1.1c-0.3,0.3-0.6,0.4-1,0.4c-0.1,0-0.5-0.1-1-0.2
		c-0.5-0.2-1-0.2-1.4-0.2c-0.5,0-1,0.1-1.3,0.4c-0.3,0.3-0.6,0.7-0.8,1.2s-0.3,1.2-0.4,2C139.2,142,139.2,142.9,139.2,144z"/>
	<path class="st2" d="M157,142.7h-7.1c0,0.8,0.2,1.6,0.5,2.2c0.3,0.6,0.8,1.1,1.3,1.4c0.5,0.3,1.1,0.5,1.8,0.5
		c0.4,0,0.8-0.1,1.2-0.2c0.4-0.1,0.7-0.3,1-0.5c0.3-0.2,0.6-0.5,0.9-0.7c0.3-0.2,0.7-0.6,1.1-1c0.2-0.2,0.5-0.2,0.8-0.2
		c0.4,0,0.7,0.1,0.9,0.3c0.2,0.2,0.3,0.5,0.3,0.9c0,0.3-0.1,0.7-0.4,1.2c-0.3,0.4-0.6,0.9-1.2,1.3c-0.5,0.4-1.2,0.7-2,1
		c-0.8,0.3-1.7,0.4-2.7,0.4c-2.3,0-4.2-0.7-5.4-2c-1.3-1.3-1.9-3.1-1.9-5.4c0-1.1,0.2-2.1,0.5-3c0.3-0.9,0.8-1.7,1.4-2.4
		c0.6-0.7,1.4-1.2,2.3-1.5c0.9-0.4,1.9-0.5,3-0.5c1.4,0,2.6,0.3,3.7,0.9c1,0.6,1.8,1.4,2.3,2.3c0.5,1,0.8,1.9,0.8,2.9
		c0,0.9-0.3,1.5-0.8,1.8C158.7,142.6,157.9,142.7,157,142.7z M149.9,140.7h6.6c-0.1-1.2-0.4-2.2-1-2.8c-0.6-0.6-1.3-0.9-2.3-0.9
		c-0.9,0-1.6,0.3-2.2,0.9C150.3,138.5,150,139.5,149.9,140.7z"/>
	<path class="st2" d="M54.8,174h-3.6v5.5c0,0.8-0.2,1.4-0.6,1.8s-0.8,0.6-1.4,0.6c-0.6,0-1.1-0.2-1.4-0.6c-0.4-0.4-0.5-1-0.5-1.8
		v-15c0-0.9,0.2-1.5,0.6-1.9c0.4-0.4,1-0.6,1.9-0.6h5.1c1.5,0,2.7,0.1,3.5,0.3c0.8,0.2,1.5,0.6,2.1,1.1s1,1.1,1.3,1.9
		c0.3,0.7,0.5,1.6,0.5,2.5c0,2-0.6,3.5-1.8,4.5C59.1,173.5,57.2,174,54.8,174z M53.9,165.1h-2.7v6h2.7c0.9,0,1.7-0.1,2.3-0.3
		s1.1-0.5,1.4-1c0.3-0.4,0.5-1,0.5-1.7c0-0.9-0.3-1.6-0.8-2.1C56.8,165.4,55.6,165.1,53.9,165.1z"/>
	<path class="st2" d="M74.3,175.5h-7.1c0,0.8,0.2,1.6,0.5,2.2c0.3,0.6,0.8,1.1,1.3,1.4c0.5,0.3,1.1,0.5,1.8,0.5
		c0.4,0,0.8-0.1,1.2-0.2c0.4-0.1,0.7-0.3,1-0.5s0.6-0.5,0.9-0.7c0.3-0.2,0.7-0.6,1.1-1c0.2-0.2,0.5-0.2,0.8-0.2
		c0.4,0,0.7,0.1,0.9,0.3c0.2,0.2,0.3,0.5,0.3,0.9c0,0.3-0.1,0.7-0.4,1.2c-0.3,0.4-0.6,0.9-1.2,1.3c-0.5,0.4-1.2,0.7-2,1
		s-1.7,0.4-2.7,0.4c-2.3,0-4.2-0.7-5.4-2c-1.3-1.3-1.9-3.1-1.9-5.4c0-1.1,0.2-2.1,0.5-3c0.3-0.9,0.8-1.7,1.4-2.4
		c0.6-0.7,1.4-1.2,2.3-1.5s1.9-0.5,3-0.5c1.4,0,2.6,0.3,3.7,0.9c1,0.6,1.8,1.4,2.3,2.3c0.5,1,0.8,1.9,0.8,2.9c0,0.9-0.3,1.5-0.8,1.8
		S75.2,175.5,74.3,175.5z M67.2,173.4h6.6c-0.1-1.2-0.4-2.2-1-2.8s-1.3-0.9-2.3-0.9c-0.9,0-1.6,0.3-2.2,0.9S67.3,172.2,67.2,173.4z"
		/>
	<path class="st2" d="M84,176.7v3c0,0.7-0.2,1.3-0.5,1.7c-0.3,0.4-0.8,0.6-1.3,0.6c-0.5,0-1-0.2-1.3-0.6c-0.3-0.4-0.5-0.9-0.5-1.7
		v-10.1c0-1.6,0.6-2.5,1.8-2.5c0.6,0,1,0.2,1.3,0.6c0.3,0.4,0.4,0.9,0.4,1.7c0.4-0.7,0.9-1.3,1.3-1.7c0.5-0.4,1.1-0.6,1.8-0.6
		s1.5,0.2,2.2,0.6s1.1,0.9,1.1,1.5c0,0.4-0.2,0.8-0.5,1.1c-0.3,0.3-0.6,0.4-1,0.4c-0.1,0-0.5-0.1-1-0.2c-0.5-0.2-1-0.2-1.4-0.2
		c-0.5,0-1,0.1-1.3,0.4c-0.3,0.3-0.6,0.7-0.8,1.2c-0.2,0.6-0.3,1.2-0.4,2C84,174.7,84,175.6,84,176.7z"/>
	<path class="st2" d="M103.3,177.2c0,1-0.2,1.9-0.7,2.6s-1.2,1.3-2.2,1.6s-2.1,0.6-3.5,0.6c-1.3,0-2.4-0.2-3.4-0.6
		c-0.9-0.4-1.6-0.9-2.1-1.5c-0.4-0.6-0.7-1.2-0.7-1.8c0-0.4,0.1-0.7,0.4-1s0.6-0.4,1.1-0.4c0.4,0,0.7,0.1,0.9,0.3s0.4,0.4,0.6,0.8
		c0.4,0.6,0.8,1.1,1.3,1.5c0.5,0.3,1.2,0.5,2.1,0.5c0.7,0,1.3-0.2,1.8-0.5c0.5-0.3,0.7-0.7,0.7-1.1c0-0.6-0.2-1.1-0.7-1.4
		s-1.3-0.6-2.4-0.8c-1.3-0.3-2.3-0.6-3.1-1c-0.8-0.3-1.4-0.8-1.9-1.4s-0.7-1.2-0.7-2.1c0-0.7,0.2-1.4,0.7-2.1
		c0.4-0.6,1.1-1.2,1.9-1.6c0.8-0.4,1.9-0.6,3.1-0.6c0.9,0,1.8,0.1,2.5,0.3c0.8,0.2,1.4,0.5,1.9,0.8c0.5,0.3,0.9,0.7,1.1,1.1
		s0.4,0.8,0.4,1.2c0,0.4-0.1,0.8-0.4,1c-0.3,0.3-0.7,0.4-1.2,0.4c-0.4,0-0.7-0.1-1-0.3c-0.3-0.2-0.6-0.5-0.9-1
		c-0.3-0.4-0.6-0.6-1-0.9c-0.4-0.2-0.9-0.3-1.5-0.3c-0.7,0-1.2,0.1-1.6,0.4c-0.4,0.3-0.7,0.6-0.7,1c0,0.4,0.2,0.7,0.5,0.9
		c0.3,0.2,0.8,0.4,1.3,0.6c0.5,0.2,1.3,0.4,2.2,0.6c1.1,0.3,2,0.6,2.8,1c0.7,0.4,1.3,0.8,1.6,1.4C103.1,176,103.3,176.5,103.3,177.2
		z"/>
	<path class="st2" d="M120,174.6c0,1.1-0.2,2.1-0.5,3c-0.3,0.9-0.8,1.7-1.5,2.4c-0.6,0.7-1.4,1.2-2.3,1.5s-1.9,0.5-3,0.5
		c-1.1,0-2.1-0.2-3-0.5c-0.9-0.4-1.6-0.9-2.3-1.5c-0.6-0.7-1.1-1.4-1.5-2.3c-0.3-0.9-0.5-1.9-0.5-3c0-1.1,0.2-2.1,0.5-3
		c0.3-0.9,0.8-1.7,1.5-2.3c0.6-0.6,1.4-1.1,2.3-1.5c0.9-0.4,1.9-0.5,3-0.5c1.1,0,2.1,0.2,3,0.5c0.9,0.4,1.7,0.9,2.3,1.5
		c0.6,0.7,1.1,1.4,1.5,2.3C119.8,172.5,120,173.5,120,174.6z M116.4,174.6c0-1.5-0.3-2.6-1-3.5c-0.7-0.8-1.5-1.2-2.6-1.2
		c-0.7,0-1.3,0.2-1.9,0.6c-0.5,0.4-1,0.9-1.3,1.6c-0.3,0.7-0.4,1.6-0.4,2.5c0,1,0.1,1.8,0.4,2.5c0.3,0.7,0.7,1.3,1.2,1.6
		s1.2,0.6,1.9,0.6c1.1,0,2-0.4,2.6-1.2C116,177.2,116.4,176,116.4,174.6z"/>
	<path class="st2" d="M126.2,169.2v0.4c0.6-0.8,1.3-1.5,2.1-1.9c0.8-0.4,1.6-0.6,2.6-0.6c1,0,1.8,0.2,2.6,0.6c0.8,0.4,1.3,1,1.7,1.8
		c0.2,0.4,0.4,0.9,0.5,1.4s0.1,1.2,0.1,2v6.8c0,0.7-0.2,1.3-0.5,1.7s-0.8,0.6-1.3,0.6c-0.5,0-1-0.2-1.3-0.6
		c-0.3-0.4-0.5-0.9-0.5-1.6v-6.1c0-1.2-0.2-2.1-0.5-2.8c-0.3-0.6-1-1-2-1c-0.6,0-1.2,0.2-1.8,0.6c-0.5,0.4-0.9,0.9-1.2,1.6
		c-0.2,0.5-0.3,1.6-0.3,3v4.6c0,0.7-0.2,1.3-0.5,1.7s-0.8,0.6-1.3,0.6c-0.5,0-1-0.2-1.3-0.6c-0.3-0.4-0.5-0.9-0.5-1.6v-10.5
		c0-0.7,0.2-1.2,0.5-1.6c0.3-0.3,0.7-0.5,1.2-0.5c0.3,0,0.6,0.1,0.9,0.2c0.3,0.2,0.5,0.4,0.6,0.7
		C126.1,168.4,126.2,168.8,126.2,169.2z"/>
	<path class="st2" d="M151.1,177.2c0,1-0.2,1.9-0.7,2.6s-1.2,1.3-2.2,1.6s-2.1,0.6-3.5,0.6c-1.3,0-2.4-0.2-3.4-0.6
		c-0.9-0.4-1.6-0.9-2.1-1.5c-0.4-0.6-0.7-1.2-0.7-1.8c0-0.4,0.1-0.7,0.4-1s0.6-0.4,1.1-0.4c0.4,0,0.7,0.1,0.9,0.3
		c0.2,0.2,0.4,0.4,0.6,0.8c0.4,0.6,0.8,1.1,1.3,1.5s1.2,0.5,2.1,0.5c0.7,0,1.3-0.2,1.8-0.5c0.5-0.3,0.7-0.7,0.7-1.1
		c0-0.6-0.2-1.1-0.7-1.4c-0.5-0.3-1.3-0.6-2.4-0.8c-1.3-0.3-2.3-0.6-3.1-1c-0.8-0.3-1.4-0.8-1.9-1.4s-0.7-1.2-0.7-2.1
		c0-0.7,0.2-1.4,0.7-2.1c0.4-0.6,1.1-1.2,1.9-1.6c0.8-0.4,1.9-0.6,3.1-0.6c0.9,0,1.8,0.1,2.5,0.3c0.8,0.2,1.4,0.5,1.9,0.8
		c0.5,0.3,0.9,0.7,1.1,1.1s0.4,0.8,0.4,1.2c0,0.4-0.1,0.8-0.4,1c-0.3,0.3-0.7,0.4-1.2,0.4c-0.4,0-0.7-0.1-1-0.3s-0.6-0.5-0.9-1
		c-0.3-0.4-0.6-0.6-1-0.9c-0.4-0.2-0.9-0.3-1.5-0.3c-0.7,0-1.2,0.1-1.6,0.4c-0.4,0.3-0.7,0.6-0.7,1c0,0.4,0.2,0.7,0.5,0.9
		c0.3,0.2,0.8,0.4,1.3,0.6c0.5,0.2,1.3,0.4,2.2,0.6c1.1,0.3,2,0.6,2.8,1c0.7,0.4,1.3,0.8,1.6,1.4S151.1,176.5,151.1,177.2z"/>
</g>
<g>
	<g>
		<g>
			<path d="M155.7,88.8V76.3c0-1.8-1.4-3.3-3.2-3.3h-1.2c-0.5-1.2-3.2-8.2-3.2-8.4c-0.3-0.8-0.7-1.6-1.5-2.4c-1-0.9-2-0.9-2.9-0.9
				h-17.8c-0.9,0-1.9,0-2.9,0.9c-0.8,0.7-1.1,1.5-1.5,2.4c-0.1,0.1-2.8,7.2-3.2,8.4h-0.5c-1.8,0-3.2,1.5-3.2,3.3v12.5h3.2V93
				c0,0.1,0,0.1,0,0.2c0,0.5,0.4,0.8,0.8,0.8h4.4c0.5,0,0.9-0.4,0.9-0.8c0-0.1,0-0.2-0.1-0.4v-4h22.6l0,4.9h0c0,0.4,0.4,0.8,0.8,0.8
				h4.4c0.5,0,0.9-0.4,0.9-0.8c0-0.1,0-0.2-0.1-0.4l0-4.5H155.7z M134.7,73v-0.4c0-1-0.8-1.8-1.8-1.8h-7.1c-1,0-1.8,0.8-1.8,1.8V73
				h-3.2c0.7-1.9,2.8-7.3,2.9-7.4c0.3-0.8,0.5-1.1,0.8-1.4c0.3-0.2,0.5-0.3,1.3-0.2h0.3h17.5c0.8,0,1,0,1.3,0.2
				c0.4,0.3,0.5,0.7,0.8,1.4c0.1,0.1,2.1,5.5,2.9,7.4H134.7z"/>
		</g>
		<path d="M147.9,74.6c0,2.2-1.8,4-4,4h-3.6c-2.2,0-4-1.8-4-4l0,0c0-2.2,1.8-4,4-4h3.6C146.1,70.6,147.9,72.4,147.9,74.6L147.9,74.6
			z"/>
		<circle cx="128.9" cy="69.3" r="2"/>
		<circle cx="141.8" cy="69" r="2"/>
	</g>
	<g>
		<rect x="130.5" y="76.2" class="st5" width="11.3" height="10"/>
		<path class="st3" d="M137.4,84.8v1.2h-6.5c0-0.3,0-0.6,0.1-0.8c0.2-0.4,0.4-0.9,0.8-1.3s0.9-0.9,1.6-1.5c1.1-0.9,1.8-1.6,2.2-2.1
			s0.6-1,0.6-1.4c0-0.5-0.2-0.9-0.5-1.2c-0.3-0.3-0.8-0.5-1.3-0.5c-0.6,0-1,0.2-1.4,0.5c-0.3,0.3-0.5,0.8-0.5,1.4l-1.2-0.1
			c0.1-0.9,0.4-1.6,1-2.1c0.6-0.5,1.3-0.7,2.2-0.7c0.9,0,1.7,0.3,2.2,0.8c0.5,0.5,0.8,1.2,0.8,1.9c0,0.4-0.1,0.8-0.2,1.2
			c-0.2,0.4-0.4,0.8-0.8,1.2c-0.4,0.4-1,1-1.8,1.7c-0.7,0.6-1.2,1-1.4,1.2c-0.2,0.2-0.4,0.4-0.5,0.6H137.4z"/>
	</g>
</g>
<g>
	<path d="M92.1,12.3V6.6H78.6v0H28.7c-2.8,0-5.1,3.3-5.1,7.4V96h68.6V14.1C92.2,13.5,92.2,12.9,92.1,12.3z M57.9,84.8L33.4,51.3
		l24.5-33.5l24.5,33.5L57.9,84.8z"/>
</g>
<polygon points="41.1,51.3 58.8,75.5 76.5,51.3 58.8,27.2 "/>
</svg>
