<?xml version="1.0" encoding="utf-8"?>
<!-- Generator: Adobe Illustrator 21.1.0, SVG Export Plug-In . SVG Version: 6.00 Build 0)  -->
<svg version="1.1" id="Layer_1" xmlns="http://www.w3.org/2000/svg" xmlns:xlink="http://www.w3.org/1999/xlink" x="0px" y="0px"
	 viewBox="0 0 203 202" style="enable-background:new 0 0 203 202;" xml:space="preserve">
<style type="text/css">
	.st0{fill:#FFFFFF;stroke:#000000;stroke-width:0.25;}
	.st1{fill:#FFFFFF;stroke:#000000;}
	.st2{fill:none;}
	.st3{fill:#FFFFFF;}
	.st4{font-family:'Arial-BoldMT';}
	.st5{font-size:5.2023px;}
	.st6{fill:#231F20;}
	.st7{fill:#E6E7E8;}
	.st8{font-size:10.3439px;}
	.st9{font-family:'ArialMT';}
	.st10{font-size:8.3606px;}
	.st11{font-family:'ArialRoundedMTBold';}
	.st12{font-size:11.5762px;}
</style>
<g>
	<g>
		<path class="st0" d="M164.3,195.2c0,2.3-1.9,4.2-4.2,4.2H43.9c-2.3,0-4.2-1.9-4.2-4.2V6.5c0-2.3,1.9-4.2,4.2-4.2h116.2
			c2.3,0,4.2,1.9,4.2,4.2V195.2z"/>
		<path class="st1" d="M160.8,191.7c0,2.3-1.9,4.2-4.2,4.2H47.3c-2.3,0-4.2-1.9-4.2-4.2V9.5c0-2.3,1.9-4.2,4.2-4.2h109.4
			c2.3,0,4.2,1.9,4.2,4.2V191.7z"/>
	</g>
	<g>
		<g>
			<path d="M145.6,91.4v-9.5c0-1.4-1.1-2.5-2.5-2.5h-0.9c-0.4-0.9-2.4-6.3-2.5-6.4c-0.3-0.6-0.5-1.3-1.1-1.8
				c-0.8-0.7-1.6-0.7-2.2-0.7h-13.6c-0.7,0-1.5,0-2.2,0.7c-0.6,0.5-0.9,1.2-1.1,1.8c0,0.1-2.1,5.5-2.5,6.4h-0.4
				c-1.4,0-2.5,1.1-2.5,2.5v9.5h2.5v3.2c0,0,0,0.1,0,0.1c0,0.4,0.3,0.6,0.6,0.6h3.4c0.4,0,0.6-0.3,0.6-0.6c0-0.1,0-0.2-0.1-0.3v-3.1
				h17.2l0,3.7h0c0,0.3,0.3,0.6,0.6,0.6h3.4c0.4,0,0.6-0.3,0.6-0.6c0-0.1,0-0.2-0.1-0.3l0-3.4H145.6z M129.6,79.3V79
				c0-0.8-0.6-1.4-1.4-1.4h-5.5c-0.8,0-1.4,0.6-1.4,1.4v0.3H119c0.6-1.5,2.2-5.6,2.2-5.7c0.2-0.6,0.4-0.8,0.6-1.1
				c0.2-0.2,0.4-0.2,1-0.2h0.2h13.4c0.6,0,0.8,0,1,0.2c0.3,0.2,0.4,0.5,0.6,1.1c0,0.1,1.6,4.2,2.2,5.7H129.6z"/>
		</g>
		<path d="M139.7,80.5c0,1.7-1.4,3.1-3.1,3.1h-2.7c-1.7,0-3.1-1.4-3.1-3.1l0,0c0-1.7,1.4-3.1,3.1-3.1h2.7
			C138.3,77.5,139.7,78.9,139.7,80.5L139.7,80.5z"/>
		<circle cx="125.2" cy="76.5" r="1.6"/>
		<circle cx="135" cy="76.2" r="1.6"/>
	</g>
	<circle cx="125.4" cy="47.4" r="1.6"/>
	<path d="M145.6,62.3v-9.5c0-1.4-1.1-2.5-2.5-2.5h-0.9c-0.4-0.9-2.4-6.3-2.5-6.4c-0.3-0.6-0.5-1.3-1.1-1.8c-0.8-0.7-1.6-0.7-2.2-0.7
		h-13.6c-0.7,0-1.5,0-2.2,0.7c-0.6,0.5-0.9,1.2-1.1,1.8c0,0.1-2.1,5.5-2.5,6.4h-0.4c-1.4,0-2.5,1.1-2.5,2.5v9.5h2.5v3.2
		c0,0,0,0.1,0,0.1c0,0.4,0.3,0.7,0.6,0.7h3.4c0.4,0,0.6-0.3,0.6-0.7c0-0.1,0-0.2-0.1-0.3v-3.1h17.2l0,3.7h0c0,0.3,0.3,0.6,0.6,0.6
		h3.4c0.4,0,0.6-0.3,0.6-0.6c0-0.1,0-0.2-0.1-0.3l0-3.4H145.6z M129.6,50.3v-0.3c0-0.8-0.6-1.4-1.4-1.4h-5.5c-0.8,0-1.4,0.6-1.4,1.4
		v0.3H119c0.6-1.5,2.2-5.6,2.2-5.7c0.2-0.6,0.4-0.8,0.6-1.1c0.2-0.2,0.4-0.2,1-0.2h0.2h13.4c0.6,0,0.8,0,1,0.2
		c0.3,0.2,0.4,0.5,0.6,1.1c0,0.1,1.6,4.2,2.2,5.7H129.6z"/>
	<rect x="123.4" y="53.9" class="st2" width="14.4" height="5.2"/>
	<text transform="matrix(1 0 0 1 123.4355 57.6704)" class="st3 st4 st5">TAXI</text>
	<g>
		<g>
			<path class="st6" d="M117,11.6h-0.4c-1.4,0-2.4,1.1-2.4,2.5V34h2.4v3.2c0,0,0,0.1,0,0.1c0,0.4,0.3,0.6,0.6,0.6h3.3
				c0.4,0,0.6-0.3,0.6-0.6c0-0.1,0-0.2-0.1-0.3V34h17.2l0,3.7h0c0,0.3,0.3,0.6,0.6,0.6h3.3c0.4,0,0.6-0.3,0.6-0.6
				c0-0.1,0-0.2-0.1-0.3l0-3.4h2.7V14.1c0-1.4-1.1-2.5-2.4-2.5h-0.9 M140.2,11.6"/>
		</g>
		<path class="st3" d="M143.4,21.9c0,1.5-1.4,2.8-3.1,2.8h-20.9c-1.7,0-3.1-1.2-3.1-2.8v-3.8c0-1.5,1.4-2.8,3.1-2.8h20.9
			c1.7,0,3.1,1.2,3.1,2.8V21.9z"/>
		<path class="st6" d="M140.5,24.5c0,1.3-1,2.3-2.3,2.3h-4c-1.3,0-2.3-1-2.3-2.3l0,0c0-1.3,1-2.3,2.3-2.3h4
			C139.4,22.2,140.5,23.2,140.5,24.5L140.5,24.5z"/>
		<circle class="st6" cx="136.2" cy="20.9" r="1.6"/>
		<path class="st7" d="M142.1,13.4c0,0.5-0.4,0.9-0.9,0.9h-22.6c-0.5,0-0.9-0.4-0.9-0.9l0,0c0-0.5,0.4-0.9,0.9-0.9h22.6
			C141.7,12.5,142.1,12.9,142.1,13.4L142.1,13.4z"/>
		<circle class="st3" cx="118.8" cy="29.2" r="1"/>
		<circle class="st3" cx="140.6" cy="29.2" r="1"/>
	</g>
	<path d="M140,106.1c-1.2,0-2.3,0.3-3.2,0.9l-2.2-2.9l0.3-0.9l2.1-1l-0.3-0.5l-4.7,0.3c0,0-0.4,0-0.4,0.2c-0.1,0.2,2.3,0.9,2.3,0.9
		l-0.2,0.7l-8.8,0l0.9-2.4l-0.8-0.8l0.3-0.4l2.3-0.1l0-0.8l-2.7,0.1l-1.1,1l0.8,1l-1.9,5.1c-0.9-0.4-1.8-0.7-2.8-0.7
		c-3.4,0-6.1,2.7-6.1,6.1c0,3.4,2.7,6.1,6.1,6.1c3.4,0,6.1-2.7,6.1-6.1c0-2-1-3.7-2.4-4.9l0.3-0.9c0,0,6,6.8,6.4,7.3l0,0
		c-0.1,0.1-0.1,0.3-0.1,0.4c0,0.4,0.3,0.8,0.7,0.8l0.4,1.5l-0.4,0l0,0.5l1.4-0.1l0-0.5l-0.5,0l-0.4-1.5c0.3-0.1,0.4-0.4,0.4-0.7
		l2.2-0.4c0.7,2.6,3.1,4.6,5.9,4.6c3.4,0,6.1-2.7,6.1-6.1C146.1,108.8,143.4,106.1,140,106.1z M125.1,112.2c0,2.9-2.3,5.2-5.2,5.2
		c-2.9,0-5.2-2.3-5.2-5.2c0-2.9,2.3-5.2,5.2-5.2c0.9,0,1.8,0.2,2.5,0.7l-0.4,1.2c-0.4,1.2-1.5,2.2-2,2.7c0,0,0,0-0.1,0
		c-0.4,0-0.7,0.3-0.7,0.7c0,0.4,0.3,0.7,0.7,0.7c0.4,0,0.7-0.3,0.7-0.7c0,0,0-0.1,0-0.1c0.7-0.6,1.9-1.6,2.3-2.9l0.4-1
		C124.4,109.1,125.1,110.6,125.1,112.2z M131,112.4l-0.2-1.1l0.4,0l0-0.5l-1.4,0.1l0,0.5l0.4,0l0.3,1.2l-6.2-7l0.3-0.8l8.9,0
		L131,112.4z M131.7,113.2l2.6-8.1l1.8,2.4c-1.3,1.1-2.2,2.8-2.2,4.7c0,0.2,0,0.4,0,0.7L131.7,113.2z M134.7,112.2
		c0-1.6,0.7-3,1.9-4l2.8,3.6c0,0,0,0,0,0l-4.6,0.8C134.7,112.5,134.7,112.4,134.7,112.2z M140,117.4c-2.4,0-4.5-1.7-5.1-3.9l4.5-0.9
		c0.1,0.2,0.3,0.3,0.6,0.3c0.4,0,0.7-0.3,0.7-0.7c0-0.3-0.2-0.6-0.5-0.7l-3-3.8c0.8-0.5,1.7-0.7,2.7-0.7c2.9,0,5.2,2.3,5.2,5.2
		C145.2,115.1,142.9,117.4,140,117.4z"/>
	<rect x="60.9" y="124.2" class="st2" width="72.1" height="22.6"/>
	<text transform="matrix(1 0 0 1 69.8032 131.5654)"><tspan x="0" y="0" class="st6 st4 st8">7 </tspan><tspan x="8.6" y="0" class="st6 st9 st10">AM</tspan><tspan x="21.2" y="0" class="st6 st9 st8">  - </tspan><tspan x="33.2" y="0" class="st6 st4 st8">9</tspan><tspan x="39" y="0" class="st6 st9 st8"> </tspan><tspan x="41.9" y="0" class="st6 st9 st10">AM</tspan><tspan x="0" y="12.4" class="st6 st4 st8">4</tspan><tspan x="5.8" y="12.4" class="st6 st9 st8"> </tspan><tspan x="8.6" y="12.4" class="st6 st9 st10">PM</tspan><tspan x="21.2" y="12.4" class="st6 st9 st8">  - </tspan><tspan x="33.2" y="12.4" class="st6 st4 st8">6</tspan><tspan x="39" y="12.4" class="st6 st9 st8"> </tspan><tspan x="41.9" y="12.4" class="st6 st9 st10">PM</tspan></text>
	<rect x="67.8" y="149.5" class="st2" width="58.4" height="9.2"/>
	<text transform="matrix(1 0 0 1 68.9087 157.9678)" class="st6 st11 st12">MON - FRI</text>
	<g>
		<polygon points="92.9,177.1 81.6,174 96.6,191 112.5,173.7 100.5,177.2 100.5,166 92.9,166 		"/>
	</g>
	<g>
		<path d="M95.3,9.9V5.6H84.9v0H46.9c-2.1,0-3.9,2.5-3.9,5.6v62.6h52.4V11.3C95.4,10.8,95.4,10.3,95.3,9.9z M69.2,65.3L50.4,39.7
			l18.8-25.6l18.8,25.6L69.2,65.3z"/>
	</g>
	<polygon points="55.7,39.7 69.2,58.2 82.7,39.7 69.2,21.3 	"/>
</g>
</svg>
