<?xml version="1.0" encoding="utf-8"?>
<!-- Generator: Adobe Illustrator 21.1.0, SVG Export Plug-In . SVG Version: 6.00 Build 0)  -->
<svg version="1.1" id="Layer_1" xmlns="http://www.w3.org/2000/svg" xmlns:xlink="http://www.w3.org/1999/xlink" x="0px" y="0px"
	 viewBox="0 0 203 202" style="enable-background:new 0 0 203 202;" xml:space="preserve">
<style type="text/css">
	.st0{fill:#FEE503;stroke:#000000;stroke-width:0.25;}
	.st1{fill:#231F20;}
</style>
<g>
	<g>
		<g id="_x3C_SLIPPERY_ROAD_Sign_x3E__1_">
			<path class="st0" d="M95.8,196c3,3,7.8,3,10.8,0l89.7-89.8c3-3,3-7.8,0-10.8L106.5,5.8c-3-3-7.8-3-10.8,0L6,95.5
				c-3,3-3,7.8,0,10.8L95.8,196z"/>
			<path d="M9.5,104.3l88.2,88.2c1.9,1.9,4.9,1.9,6.8,0l88.2-88.2c1.9-1.9,1.9-4.9,0-6.8L104.5,9.2c-1.9-1.9-4.9-1.9-6.8,0L9.5,97.5
				C7.6,99.4,7.6,102.4,9.5,104.3z M12.9,99.2l86.3-86.5c1-1,2.6-1,3.6,0L189.3,99c1,1,1,2.6,0,3.6L102.9,189c-1,1-2.6,1-3.6,0
				l-86.4-86.2C11.9,101.8,11.9,100.2,12.9,99.2z"/>
			<g>
				<path d="M138.3,142.1c-0.6-6.8-8.7-9.2-12.6-10.4c-1.6-0.5-4.2-1.2-7.3-2c-5.1-1.4-11.4-3.1-14.2-4c-3-1.1-6.2-3.8-6.2-8.3
					c0-4,4.5-6.6,8.3-7.6c4.3-1.1,16.2-4.2,19.8-5.1c1.4,0,2.5-1.2,2.5-2.6v-7.3h5.1v-18c0-2.6-2.1-4.8-4.6-4.8h-1.7
					c-0.7-1.7-4.6-11.8-4.7-12c-0.5-1.2-1-2.4-2.1-3.4c-1.4-1.3-2.9-1.3-4.2-1.2H90.8c-1.3,0-2.8,0-4.2,1.2c-1.2,1-1.6,2.2-2.1,3.4
					c-0.1,0.2-4,10.3-4.7,12H79c-2.6,0-4.6,2.1-4.6,4.8v18H79v6.1c-4.5,1.1-11.7,3-15.1,3.9c-5.7,1.5-11.7,5.5-11.7,12.1
					c0,5.7,3.6,10.6,9.3,12.6c2.9,1,9,2.7,14.5,4.1c2.9,0.8,5.6,1.5,7.2,2c4.4,1.3,9,3.1,9.3,6.3c0.3,2.9-2.2,5.3-4.6,7.7l-0.5,0.5
					c-2.8,2.8-6.9,6.9-6.9,7l3.3,3.2c0,0,4.1-4.2,6.8-6.9l0.5-0.5c2.9-2.8,6.4-6.3,6-11.4c-0.6-6.8-8.7-9.2-12.6-10.4
					c-1.6-0.5-4.2-1.2-7.3-2c-5.1-1.4-11.5-3.1-14.2-4c-3-1.1-6.2-3.8-6.2-8.3c0-4,4.5-6.6,8.3-7.6c4.1-1.1,14.7-3.6,18.5-4.5H85
					c1.4,0,2.6-1.2,2.6-2.6v-7.3h32.5v6.6c-4.5,1.2-11.6,3-14.9,3.9c-5.7,1.5-11.7,5.5-11.7,12.1c0,5.8,3.6,10.6,9.3,12.6
					c2.9,1,9.1,2.7,14.5,4.1c2.9,0.8,5.6,1.5,7.2,2c4.4,1.3,9,3.1,9.3,6.3c0.3,3-2.2,5.4-4.6,7.7l-0.5,0.5c-2.8,2.8-6.9,6.9-6.9,7
					l3.3,3.2c0,0,4-4.2,6.8-6.9l0.5-0.5C135.2,150.7,138.8,147.2,138.3,142.1z M87.8,61.5c0.5-1.1,0.7-1.6,1.2-2
					c0.4-0.3,0.7-0.4,1.9-0.4h0.4l0,0h25.2c1.2,0,1.5,0,1.9,0.4c0.5,0.4,0.7,1,1.2,2c0.1,0.2,3.1,7.9,4.1,10.7h-20v-0.6
					c0-1.4-1.1-2.6-2.6-2.6H90.8c-1.4,0-2.6,1.1-2.6,2.6v0.6h-4.6C84.7,69.4,87.7,61.7,87.8,61.5z"/>
				<path d="M99.4,64.7c0,1.9-1.6,3.5-3.5,3.5s-3.5-1.6-3.5-3.5s1.6-3.5,3.5-3.5C97.9,61.2,99.4,62.7,99.4,64.7z"/>
			</g>
		</g>
		<g>
			<g>
				<path class="st1" d="M138.3,61c0,0.7,0,1.5,0.6,2c0.3,0.4,2.1-0.3,1.8-0.7c-0.4-0.5-0.4-1.3-0.4-1.9
					C140.2,60.1,138.3,60.4,138.3,61L138.3,61z"/>
			</g>
		</g>
		<g>
			<g>
				<path class="st1" d="M58.5,72.5c0.6,0,2.1-0.9,0.8-0.9C58.7,71.6,57.2,72.5,58.5,72.5L58.5,72.5z"/>
			</g>
		</g>
		<g>
			<g>
				<path class="st1" d="M65.2,69.3c1.1,0,1.5-1.4,0.2-1.4C64.2,67.9,63.9,69.3,65.2,69.3L65.2,69.3z"/>
			</g>
		</g>
		<g>
			<g>
				<path class="st1" d="M65.3,61.1c0.3,0.3,0.4,0.4,0.4,0.9s1.9,0.2,1.9-0.5c0-0.5-0.2-0.7-0.6-1.1C66.7,59.9,64.9,60.6,65.3,61.1
					L65.3,61.1z"/>
			</g>
		</g>
		<g>
			<g>
				<path class="st1" d="M63.9,85.5c0.9,0,2-1.3,0.7-1.3C63.8,84.2,62.6,85.5,63.9,85.5L63.9,85.5z"/>
			</g>
		</g>
		<g>
			<g>
				<path class="st1" d="M62.8,94.5c0,0.3,0,0.7,0,1c0,0.5,1.9,0.1,1.9-0.5c0-0.3,0-0.7,0-1C64.8,93.5,62.8,93.8,62.8,94.5
					L62.8,94.5z"/>
			</g>
		</g>
		<g>
			<g>
				<path class="st1" d="M69.3,75.5c0.7,0,2.1-1.1,0.8-1.1C69.4,74.5,68,75.5,69.3,75.5L69.3,75.5z"/>
			</g>
		</g>
		<g>
			<g>
				<path class="st1" d="M131,61.7c0.6,0,2.1-1,0.8-1C131.1,60.7,129.7,61.7,131,61.7L131,61.7z"/>
			</g>
		</g>
		<g>
			<g>
				<path class="st1" d="M140.2,73.3c0-0.5,0-1,0-1.5s-1.9-0.2-1.9,0.5c0,0.5,0,1,0,1.5S140.2,74,140.2,73.3L140.2,73.3z"/>
			</g>
		</g>
		<g>
			<g>
				<path class="st1" d="M147.1,74.2c0-0.6,0-1.3,0.4-1.7c0.3-0.3-0.3-0.4-0.5-0.4c-0.4,0-1,0.2-1.3,0.5c-0.5,0.6-0.6,1.4-0.6,2.2
					C145.2,75.2,147.1,74.9,147.1,74.2L147.1,74.2z"/>
			</g>
		</g>
		<g>
			<g>
				<path class="st1" d="M145.6,87.1c1.1,0,1.5-1.5,0.2-1.5C144.6,85.6,144.3,87.1,145.6,87.1L145.6,87.1z"/>
			</g>
		</g>
		<g>
			<g>
				<path class="st1" d="M155.1,87.3c0.6,0,2.1-0.9,0.8-0.9C155.3,86.4,153.8,87.3,155.1,87.3L155.1,87.3z"/>
			</g>
		</g>
		<g>
			<g>
				<path class="st1" d="M155.7,78.6c0.8,0,2-1.3,0.7-1.3C155.5,77.3,154.3,78.6,155.7,78.6L155.7,78.6z"/>
			</g>
		</g>
		<g>
			<g>
				<path class="st1" d="M154.1,70.5c0.6,0,2.1-1,0.8-1C154.3,69.6,152.8,70.5,154.1,70.5L154.1,70.5z"/>
			</g>
		</g>
		<g>
			<g>
				<path class="st1" d="M141.3,79.9c0.6,0,2.1-0.9,0.8-0.9C141.5,79,140,79.9,141.3,79.9L141.3,79.9z"/>
			</g>
		</g>
		<g>
			<g>
				<path class="st1" d="M138.1,89.2c0.4,0,2.2-0.8,1.3-0.8C139,88.4,137.2,89.2,138.1,89.2L138.1,89.2z"/>
			</g>
		</g>
		<g>
			<g>
				<path class="st1" d="M143.8,64.2c0.7,0,2.1-1,0.8-1C143.9,63.1,142.5,64.2,143.8,64.2L143.8,64.2z"/>
			</g>
		</g>
		<g>
			<g>
				<path class="st1" d="M59.9,61.1c0.6,0,2.1-0.9,0.8-0.9C60.2,60.3,58.6,61.1,59.9,61.1L59.9,61.1z"/>
			</g>
		</g>
		<g>
			<g>
				<path class="st1" d="M58.9,60.3c0,0.3,0,0.7,0,1c0,1,2,0.7,2-0.2c0-0.3,0-0.7,0-1C60.8,59.1,58.9,59.5,58.9,60.3L58.9,60.3z"/>
			</g>
		</g>
		<g>
			<g>
				<path class="st1" d="M57.9,71.2c0,0.3,0,0.7,0,1c0,0.9,1.9,0.6,1.9-0.2c0-0.3,0-0.7,0-1C59.8,70,57.9,70.4,57.9,71.2L57.9,71.2z
					"/>
			</g>
		</g>
		<g>
			<g>
				<path class="st1" d="M137.3,89.6c0,0.3,0,0.7,0,1s1.9,0,1.9-0.5c0-0.3,0-0.7,0-1C139.2,88.8,137.3,89,137.3,89.6L137.3,89.6z"/>
			</g>
		</g>
	</g>
	<g>
		<g>
			<path class="st1" d="M68.9,47.9c0,1.4,0.6,2.5,1.5,3.5c0.4,0.4,2.2-0.3,1.8-0.7c-0.9-1-1.4-2-1.4-3.4
				C70.8,46.9,68.9,47.2,68.9,47.9L68.9,47.9z"/>
		</g>
	</g>
	<g>
		<g>
			<path class="st1" d="M94.1,28.3c0.9,0,2-1.3,0.7-1.3C93.9,27,92.8,28.3,94.1,28.3L94.1,28.3z"/>
		</g>
	</g>
	<g>
		<g>
			<path class="st1" d="M94.3,53.6c0,0.3,0,0.7,0,1c0,0.6,1.9,0.2,1.9-0.5c0-0.3,0-0.7,0-1C96.2,52.5,94.3,52.8,94.3,53.6L94.3,53.6
				z"/>
		</g>
	</g>
	<g>
		<g>
			<path class="st1" d="M104.3,48.1c0,0.3,0,0.7,0,1c0,0.4,1.9,0.1,1.9-0.5c0-0.3,0-0.7,0-1C106.2,47.2,104.3,47.5,104.3,48.1
				L104.3,48.1z"/>
		</g>
	</g>
	<g>
		<g>
			<path class="st1" d="M91.5,43.7c0,0.2,0,0.3,0,0.5c0,0.5,1.9,0.2,1.9-0.5c0-0.2,0-0.3,0-0.5C93.5,42.7,91.5,43,91.5,43.7
				L91.5,43.7z"/>
		</g>
	</g>
	<g>
		<g>
			<path class="st1" d="M100.9,26.3c0,1,0,2,0,3s2,0.7,2-0.2c0-1,0-2,0-3C102.8,25.1,100.9,25.4,100.9,26.3L100.9,26.3z"/>
		</g>
	</g>
	<g>
		<g>
			<path class="st1" d="M109.9,37.6c0.8,0,2-1.1,0.7-1.1C109.9,36.5,108.6,37.6,109.9,37.6L109.9,37.6z"/>
		</g>
	</g>
	<g>
		<g>
			<path class="st1" d="M104.3,22.3c0,0.7,0,1.3,0,2c0,1,2,0.8,2-0.1c0-0.7,0-1.3,0-2C106.2,21.1,104.3,21.4,104.3,22.3L104.3,22.3z
				"/>
		</g>
	</g>
	<g>
		<g>
			<path class="st1" d="M100.4,42.9c0-0.3,0-0.7,0-1c0-0.2-1.9,0-1.9,0.5c0,0.3,0,0.7,0,1S100.4,43.4,100.4,42.9L100.4,42.9z"/>
		</g>
	</g>
	<g>
		<g>
			<path class="st1" d="M102.7,37.4c-0.2-0.2-0.3-0.3-0.5-0.5c-0.5-0.5-2.4,0.2-1.8,0.8c0.2,0.2,0.3,0.3,0.5,0.5
				C101.5,38.7,103.3,37.9,102.7,37.4L102.7,37.4z"/>
		</g>
	</g>
	<g>
		<g>
			<path class="st1" d="M93.5,37.7c0-0.3,0-0.7,0-1c0-0.8-1.9-0.4-1.9,0.2c0,0.3,0,0.7,0,1C91.5,38.7,93.5,38.3,93.5,37.7L93.5,37.7
				z"/>
		</g>
	</g>
	<g>
		<g>
			<path class="st1" d="M126.4,50.3c0-0.2,0-0.3,0-0.5c0-0.3-1.9,0-1.9,0.5c0,0.2,0,0.3,0,0.5C124.5,51.1,126.4,50.8,126.4,50.3
				L126.4,50.3z"/>
		</g>
	</g>
	<g>
		<g>
			<path class="st1" d="M119.3,41.5c0-0.3,0-0.7,0-1c0-0.5-1.9-0.2-1.9,0.5c0,0.3,0,0.7,0,1C117.4,42.5,119.3,42.1,119.3,41.5
				L119.3,41.5z"/>
		</g>
	</g>
	<g>
		<g>
			<path class="st1" d="M101,40.4c0.4,0,2.2-0.8,1.2-0.8C101.8,39.6,100,40.4,101,40.4L101,40.4z"/>
		</g>
	</g>
	<g>
		<g>
			<path class="st1" d="M113.3,29c0,0.2,0,0.3,0,0.5c0,1,1.9,0.6,1.9-0.2c0-0.2,0-0.3,0-0.5C115.3,27.8,113.3,28.2,113.3,29
				L113.3,29z"/>
		</g>
	</g>
	<g>
		<g>
			<path class="st1" d="M81.5,36.6c-0.2,0.2-0.3,0.3-0.5,0.5c-0.3,0.3,0.3,0.3,0.5,0.3c0.4,0,1-0.2,1.3-0.5c0.2-0.2,0.3-0.3,0.5-0.5
				c0.3-0.3-0.3-0.3-0.5-0.3C82.3,36.2,81.8,36.3,81.5,36.6L81.5,36.6z"/>
		</g>
	</g>
	<g>
		<g>
			<path class="st1" d="M132.3,49.8c0-0.3,0-0.7,0-1c0-0.5-1.9-0.2-1.9,0.5c0,0.3,0,0.7,0,1C130.4,50.9,132.3,50.5,132.3,49.8
				L132.3,49.8z"/>
		</g>
	</g>
	<g>
		<g>
			<path class="st1" d="M81.1,50.2c0,0.7,0.5,1.1,1.1,1.1c0.5,0,1.1-0.1,1.3-0.6c0.2-0.4-0.2-0.8-0.6-0.8c0.1,0,0.1,0.1,0.2,0.1
				c0,0,0-0.3,0,0c0-0.5-0.5-0.7-0.9-0.7C81.8,49.4,81.1,49.7,81.1,50.2L81.1,50.2z"/>
		</g>
	</g>
	<g>
		<g>
			<path class="st1" d="M117.4,42c0,0.7,0,1.3,0,2c0,0.3,1.9,0,1.9-0.5c0-0.7,0-1.3,0-2C119.3,41.2,117.4,41.4,117.4,42L117.4,42z"
				/>
		</g>
	</g>
</g>
</svg>
