<?xml version="1.0" encoding="utf-8"?>
<!-- Generator: Adobe Illustrator 21.1.0, SVG Export Plug-In . SVG Version: 6.00 Build 0)  -->
<svg version="1.1" id="Layer_1" xmlns="http://www.w3.org/2000/svg" xmlns:xlink="http://www.w3.org/1999/xlink" x="0px" y="0px"
	 viewBox="0 0 203 202" style="enable-background:new 0 0 203 202;" xml:space="preserve">
<style type="text/css">
	.st0{fill:#FFFFFF;stroke:#000000;stroke-width:0.2994;}
	.st1{fill-rule:evenodd;clip-rule:evenodd;}
</style>
<g>
	<path class="st0" d="M183.9,188.1c0,6.7-5.5,12.2-12.2,12.2H31.6c-6.7,0-12.2-5.5-12.2-12.2v-173C19.4,8.4,24.8,3,31.6,3h140.1
		c6.7,0,12.2,5.5,12.2,12.2V188.1z"/>
	<path d="M170.4,7H32.3c-5.1,0-9.2,4.1-9.2,9.2v170.9c0,5.1,4.1,9.2,9.2,9.2h138.1c5.1,0,9.2-4.1,9.2-9.2V16.2
		C179.6,11.1,175.5,7,170.4,7z M175.9,186.5c0,3.4-2.7,6.1-6.1,6.1H33c-3.4,0-6.1-2.7-6.1-6.1V16.8c0-3.4,2.7-6.1,6.1-6.1h136.8
		c3.4,0,6.1,2.7,6.1,6.1V186.5z"/>
</g>
<g>
	<path class="st1" d="M158.1,76l-30.2-44.1L97.5,75.8c0,0-1.7,3.1,0.6,5.4c2.3,2.3,5.2,1.5,5.2,1.5l11.8-3l0.7,0l0.2,3.6
		c-0.1,14.5-0.9,17.9-9.7,29.4c-9.1,11.6-18.3,16.9-18.3,31.5v36.1l23.6,0v-29.6c0-14.6,9.2-19.9,18.3-31.5
		c8.8-11.5,9.7-14.9,9.7-29.4l-0.1-9.9l0.6,0l11.9,3c0,0,2.9,0.8,5.2-1.5C159.7,79.1,158.1,76,158.1,76z"/>
	<path class="st1" d="M92.3,37.9c0,1.1,0,3.5-0.9,10c-0.8,5.4-2.9,11.9-4.9,17.7c-1.7,5-4.6,10.9-5.2,11.8c-1.1,1.8-4.1,5.2-9.9,5.1
		H71c-5.9,0-8.8-3.3-9.9-5.1c-0.6-1-3.5-6.8-5.2-11.8c-2-5.8-4.1-12.3-4.9-17.7c-0.9-6.4-0.9-8.8-0.9-10L92.3,37.9z"/>
</g>
</svg>
