<?xml version="1.0" encoding="utf-8"?>
<!-- Generator: Adobe Illustrator 21.1.0, SVG Export Plug-In . SVG Version: 6.00 Build 0)  -->
<svg version="1.1" id="Layer_1" xmlns="http://www.w3.org/2000/svg" xmlns:xlink="http://www.w3.org/1999/xlink" x="0px" y="0px"
	 viewBox="0 0 203 202" style="enable-background:new 0 0 203 202;" xml:space="preserve">
<style type="text/css">
	.st0{fill:#F58532;stroke:#000000;stroke-width:0.25;}
	.st1{fill:#231F20;}
</style>
<g>
	<path class="st0" d="M95.7,197.8c3,3,7.9,3,10.9,0l90.8-90.8c3-3,3-7.9,0-10.9L106.6,5.2c-3-3-7.9-3-10.9,0L4.8,96
		c-3,3-3,7.9,0,10.9L95.7,197.8z"/>
	<path d="M8.3,104.9l89.3,89.3c1.9,1.9,5,1.9,6.9,0l89.3-89.3c1.9-1.9,1.9-5,0-6.9L104.6,8.7c-1.9-1.9-5-1.9-6.9,0L8.3,98
		C6.4,99.9,6.4,103,8.3,104.9z M11.8,99.8l87.4-87.6c1-1,2.6-1,3.6,0l87.6,87.4c1,1,1,2.6,0,3.6l-87.5,87.5c-1,1-2.6,1-3.6,0
		l-87.5-87.2C10.8,102.4,10.8,100.8,11.8,99.8z"/>
	<g>
		<g>
			<rect x="67" y="55.6" class="st1" width="12.2" height="93.5"/>
			<polygon class="st1" points="135.3,149.1 123.2,149.1 123.2,110.9 97.9,85.2 97.9,55.6 109.9,55.6 109.9,81 135.3,108 			"/>
		</g>
		<rect x="98.8" y="93.3" class="st1" width="4.6" height="14.5"/>
		<rect x="98.8" y="114.2" class="st1" width="4.6" height="14.5"/>
		<rect x="98.8" y="135.1" class="st1" width="4.6" height="14.5"/>
	</g>
</g>
</svg>
