<?xml version="1.0" encoding="utf-8"?>
<!-- Generator: Adobe Illustrator 21.1.0, SVG Export Plug-In . SVG Version: 6.00 Build 0)  -->
<svg version="1.1" id="Layer_1" xmlns="http://www.w3.org/2000/svg" xmlns:xlink="http://www.w3.org/1999/xlink" x="0px" y="0px"
	 viewBox="0 0 203 202" style="enable-background:new 0 0 203 202;" xml:space="preserve">
<style type="text/css">
	.st0{fill:#231F20;}
	.st1{fill:none;}
	.st2{fill:#FFFFFF;}
	.st3{fill:#58595B;stroke:#000000;stroke-width:3;}
	.st4{fill:#FFFFFF;stroke:#000000;stroke-width:0.25;}
	.st5{fill:#EFD90F;stroke:#221F1F;stroke-width:2;}
	.st6{fill:#FBED1D;stroke:#000000;stroke-width:0.25;}
	.st7{fill:#FAEC1B;stroke:#221F1F;stroke-width:2;}
</style>
<g>
	<rect x="66.7" y="125" class="st0" width="65.3" height="34.3"/>
	<g>
		<rect x="71.2" y="132.6" class="st1" width="57.9" height="27.1"/>
		<path class="st2" d="M77.3,149.4v-16.9h2v9.6l4.7-5h2.6l-4.5,4.5l4.9,7.7h-2.4l-3.9-6.2l-1.4,1.4v4.8H77.3z"/>
		<path class="st2" d="M88.5,149.4v-12.2h1.8v1.7c0.4-0.6,0.9-1.1,1.5-1.4c0.6-0.4,1.3-0.5,2.1-0.5c0.9,0,1.6,0.2,2.1,0.6
			c0.6,0.4,0.9,0.9,1.2,1.6c0.9-1.4,2.1-2.1,3.6-2.1c1.2,0,2,0.3,2.7,1c0.6,0.7,0.9,1.7,0.9,3.1v8.4h-2v-7.7c0-0.8-0.1-1.4-0.2-1.8
			c-0.1-0.4-0.4-0.7-0.7-0.9s-0.7-0.3-1.2-0.3c-0.8,0-1.5,0.3-2,0.9s-0.8,1.5-0.8,2.7v7.1h-2v-7.9c0-0.9-0.2-1.6-0.5-2.1
			c-0.3-0.5-0.8-0.7-1.6-0.7c-0.6,0-1.1,0.2-1.5,0.5c-0.5,0.3-0.8,0.8-1,1.3c-0.2,0.6-0.3,1.4-0.3,2.6v6.3H88.5z"/>
		<path class="st2" d="M105.8,149.7l4.7-17.4h1.6l-4.7,17.4H105.8z"/>
		<path class="st2" d="M113.5,149.4v-16.9h2v6.1c0.9-1.1,2.1-1.7,3.5-1.7c0.9,0,1.6,0.2,2.3,0.5s1.1,0.8,1.4,1.5s0.4,1.5,0.4,2.7
			v7.7h-2v-7.7c0-1-0.2-1.8-0.6-2.3s-1-0.7-1.8-0.7c-0.6,0-1.1,0.2-1.7,0.5c-0.5,0.3-0.9,0.8-1.1,1.3s-0.3,1.3-0.3,2.3v6.7H113.5z"
			/>
	</g>
	<ellipse cx="105.8" cy="30.7" rx="3.9" ry="4.1"/>
	<line class="st3" x1="32.4" y1="72.2" x2="66.8" y2="72.2"/>
	<line class="st3" x1="164.7" y1="95" x2="164.7" y2="72.2"/>
	<path class="st4" d="M132.6,125c0,1.5-1.2,2.7-2.6,2.7H69c-1.4,0-2.6-1.2-2.6-2.7V89c0-1.5,1.2-2.7,2.6-2.7h61
		c1.4,0,2.6,1.2,2.6,2.7V125z"/>
	<path d="M129.3,87.8H69.6c-1,0-1.7,0.8-1.7,1.8v34.5c0,1,0.8,1.8,1.7,1.8h59.7c1,0,1.7-0.8,1.7-1.8V89.6
		C131,88.6,130.2,87.8,129.3,87.8z M129.6,124.1c0,0.1-0.1,0.3-0.3,0.3H69.6c-0.1,0-0.3-0.1-0.3-0.3V89.6c0-0.2,0.1-0.3,0.3-0.3
		h59.7c0.1,0,0.3,0.1,0.3,0.3V124.1z"/>
	<ellipse class="st5" cx="33.4" cy="106.7" rx="9.5" ry="10"/>
	<line class="st3" x1="33.4" y1="96.3" x2="33.4" y2="72.3"/>
	<line class="st3" x1="131.3" y1="72.2" x2="165.6" y2="72.2"/>
	<ellipse class="st5" cx="164.7" cy="103.9" rx="9.5" ry="10"/>
	<g>
		<rect x="71" y="92.7" class="st1" width="57.9" height="39.9"/>
		<path class="st0" d="M76.5,99.8l-1.3-5.3v5.7c0,0.3-0.1,0.6-0.2,0.7s-0.3,0.2-0.5,0.2c-0.2,0-0.4-0.1-0.5-0.2
			c-0.1-0.2-0.2-0.4-0.2-0.7v-6.5c0-0.4,0.1-0.6,0.3-0.7c0.2-0.1,0.4-0.2,0.7-0.2h0.5c0.3,0,0.5,0,0.6,0.1c0.1,0.1,0.2,0.2,0.3,0.3
			c0.1,0.1,0.1,0.4,0.2,0.7l1.1,4.5l1.1-4.5c0.1-0.3,0.2-0.6,0.2-0.7c0.1-0.1,0.2-0.2,0.3-0.3c0.1-0.1,0.3-0.1,0.6-0.1h0.5
			c0.3,0,0.5,0.1,0.7,0.2c0.2,0.1,0.3,0.4,0.3,0.7v6.5c0,0.3-0.1,0.6-0.2,0.7s-0.3,0.2-0.5,0.2c-0.2,0-0.4-0.1-0.5-0.2
			s-0.2-0.4-0.2-0.7v-5.7l-1.3,5.3c-0.1,0.3-0.1,0.6-0.2,0.8c-0.1,0.2-0.1,0.3-0.3,0.4s-0.3,0.2-0.6,0.2c-0.2,0-0.3,0-0.5-0.1
			s-0.2-0.2-0.3-0.3c-0.1-0.1-0.1-0.3-0.2-0.4S76.6,100,76.5,99.8z"/>
		<path class="st0" d="M88.1,100.2l-0.4-1h-3.2l-0.4,1.1c-0.1,0.4-0.3,0.7-0.4,0.8c-0.1,0.1-0.3,0.2-0.5,0.2c-0.2,0-0.4-0.1-0.5-0.2
			c-0.2-0.2-0.2-0.3-0.2-0.5c0-0.1,0-0.2,0.1-0.3s0.1-0.3,0.2-0.5l2-5.4c0.1-0.2,0.1-0.3,0.2-0.6s0.2-0.4,0.3-0.5s0.2-0.3,0.4-0.3
			c0.1-0.1,0.3-0.1,0.6-0.1c0.2,0,0.4,0,0.6,0.1c0.1,0.1,0.3,0.2,0.4,0.3c0.1,0.1,0.2,0.3,0.2,0.4c0.1,0.2,0.1,0.4,0.2,0.6l2.1,5.3
			c0.2,0.4,0.2,0.7,0.2,0.9c0,0.2-0.1,0.4-0.2,0.5c-0.2,0.2-0.3,0.2-0.6,0.2c-0.1,0-0.2,0-0.3-0.1s-0.2-0.1-0.2-0.2
			s-0.1-0.2-0.2-0.4S88.1,100.3,88.1,100.2z M84.9,97.9h2.4l-1.2-3.4L84.9,97.9z"/>
		<path class="st0" d="M90.6,99.5l1.8-2.7l-1.5-2.4c-0.1-0.2-0.2-0.4-0.3-0.6c-0.1-0.2-0.1-0.3-0.1-0.5c0-0.2,0.1-0.3,0.2-0.4
			c0.1-0.1,0.3-0.2,0.5-0.2c0.2,0,0.4,0.1,0.5,0.2c0.1,0.1,0.3,0.4,0.5,0.8l1.2,2l1.3-2c0.1-0.2,0.2-0.3,0.3-0.4
			c0.1-0.1,0.1-0.2,0.2-0.3c0.1-0.1,0.1-0.1,0.2-0.2c0.1,0,0.2-0.1,0.3-0.1c0.2,0,0.4,0.1,0.5,0.2c0.1,0.1,0.2,0.3,0.2,0.4
			c0,0.3-0.1,0.6-0.4,1l-1.6,2.4l1.7,2.7c0.2,0.2,0.3,0.4,0.3,0.6s0.1,0.3,0.1,0.4c0,0.1,0,0.3-0.1,0.4s-0.1,0.2-0.3,0.3
			c-0.1,0.1-0.2,0.1-0.4,0.1c-0.2,0-0.3,0-0.4-0.1c-0.1-0.1-0.2-0.1-0.3-0.2s-0.2-0.3-0.4-0.6L93.4,98l-1.5,2.4
			c-0.1,0.2-0.2,0.3-0.2,0.4s-0.1,0.1-0.2,0.2c-0.1,0.1-0.1,0.1-0.2,0.2c-0.1,0-0.2,0.1-0.3,0.1c-0.2,0-0.4-0.1-0.5-0.2
			c-0.1-0.1-0.2-0.3-0.2-0.5C90.3,100.2,90.4,99.9,90.6,99.5z"/>
		<path class="st0" d="M97.6,100.2v-6.5c0-0.3,0.1-0.6,0.2-0.8c0.1-0.2,0.3-0.3,0.6-0.3c0.2,0,0.4,0.1,0.6,0.3s0.2,0.4,0.2,0.8v6.5
			c0,0.3-0.1,0.6-0.2,0.8s-0.3,0.3-0.6,0.3c-0.2,0-0.4-0.1-0.6-0.3C97.7,100.8,97.6,100.6,97.6,100.2z"/>
		<path class="st0" d="M103.7,99.8l-1.3-5.3v5.7c0,0.3-0.1,0.6-0.2,0.7c-0.1,0.2-0.3,0.2-0.5,0.2c-0.2,0-0.4-0.1-0.5-0.2
			c-0.1-0.2-0.2-0.4-0.2-0.7v-6.5c0-0.4,0.1-0.6,0.3-0.7c0.2-0.1,0.4-0.2,0.7-0.2h0.5c0.3,0,0.5,0,0.6,0.1c0.1,0.1,0.2,0.2,0.3,0.3
			c0.1,0.1,0.1,0.4,0.2,0.7l1.1,4.5l1.1-4.5c0.1-0.3,0.2-0.6,0.2-0.7c0.1-0.1,0.2-0.2,0.3-0.3c0.1-0.1,0.3-0.1,0.6-0.1h0.5
			c0.3,0,0.5,0.1,0.7,0.2c0.2,0.1,0.3,0.4,0.3,0.7v6.5c0,0.3-0.1,0.6-0.2,0.7c-0.1,0.2-0.3,0.2-0.5,0.2c-0.2,0-0.4-0.1-0.5-0.2
			c-0.1-0.2-0.2-0.4-0.2-0.7v-5.7l-1.3,5.3c-0.1,0.3-0.1,0.6-0.2,0.8s-0.1,0.3-0.3,0.4c-0.1,0.1-0.3,0.2-0.6,0.2
			c-0.2,0-0.3,0-0.5-0.1s-0.2-0.2-0.3-0.3c-0.1-0.1-0.1-0.3-0.2-0.4S103.7,100,103.7,99.8z"/>
		<path class="st0" d="M110.2,97.7v-4c0-0.3,0.1-0.6,0.2-0.8c0.1-0.2,0.3-0.3,0.6-0.3c0.2,0,0.4,0.1,0.6,0.3
			c0.1,0.2,0.2,0.4,0.2,0.8v4.1c0,0.5,0,0.8,0.1,1.2c0.1,0.3,0.3,0.5,0.5,0.7c0.3,0.2,0.6,0.3,1.1,0.3c0.6,0,1.1-0.2,1.3-0.5
			s0.4-0.9,0.4-1.6v-4.1c0-0.3,0.1-0.6,0.2-0.8c0.1-0.2,0.3-0.3,0.6-0.3s0.4,0.1,0.6,0.3s0.2,0.4,0.2,0.8v4c0,0.6-0.1,1.2-0.2,1.6
			s-0.3,0.8-0.7,1.1c-0.3,0.3-0.6,0.5-1,0.6s-0.8,0.2-1.3,0.2c-0.6,0-1.1-0.1-1.6-0.2c-0.4-0.1-0.8-0.3-1.1-0.6
			c-0.3-0.3-0.5-0.7-0.6-1.1S110.2,98.3,110.2,97.7z"/>
		<path class="st0" d="M121.2,99.8l-1.3-5.3v5.7c0,0.3-0.1,0.6-0.2,0.7c-0.1,0.2-0.3,0.2-0.5,0.2c-0.2,0-0.4-0.1-0.5-0.2
			c-0.1-0.2-0.2-0.4-0.2-0.7v-6.5c0-0.4,0.1-0.6,0.3-0.7c0.2-0.1,0.4-0.2,0.7-0.2h0.5c0.3,0,0.5,0,0.6,0.1c0.1,0.1,0.2,0.2,0.3,0.3
			c0.1,0.1,0.1,0.4,0.2,0.7l1.1,4.5l1.1-4.5c0.1-0.3,0.2-0.6,0.2-0.7c0.1-0.1,0.2-0.2,0.3-0.3c0.1-0.1,0.3-0.1,0.6-0.1h0.5
			c0.3,0,0.5,0.1,0.7,0.2c0.2,0.1,0.3,0.4,0.3,0.7v6.5c0,0.3-0.1,0.6-0.2,0.7c-0.1,0.2-0.3,0.2-0.5,0.2c-0.2,0-0.4-0.1-0.5-0.2
			c-0.1-0.2-0.2-0.4-0.2-0.7v-5.7l-1.3,5.3c-0.1,0.3-0.1,0.6-0.2,0.8s-0.1,0.3-0.3,0.4s-0.3,0.2-0.6,0.2c-0.2,0-0.3,0-0.5-0.1
			s-0.2-0.2-0.3-0.3c-0.1-0.1-0.1-0.3-0.2-0.4C121.3,100.2,121.2,100,121.2,99.8z"/>
		<path class="st0" d="M94.4,120.4v-2.1h-5.5c-0.7,0-1.2-0.2-1.6-0.5c-0.3-0.3-0.5-0.8-0.5-1.3c0-0.1,0-0.3,0.1-0.4
			c0.1-0.2,0.1-0.3,0.2-0.5s0.2-0.3,0.3-0.5c0.1-0.2,0.2-0.3,0.4-0.6l5.8-8.2c0.4-0.5,0.7-0.9,0.9-1.2c0.2-0.2,0.5-0.4,0.9-0.4
			c1.1,0,1.7,0.7,1.7,2v8.9h0.5c0.6,0,1,0.1,1.4,0.2c0.3,0.2,0.5,0.5,0.5,1.1c0,0.4-0.1,0.8-0.4,1c-0.3,0.2-0.7,0.3-1.3,0.3h-0.7
			v2.1c0,0.6-0.1,1-0.4,1.3c-0.2,0.3-0.6,0.4-1,0.4c-0.4,0-0.7-0.1-1-0.4S94.4,121,94.4,120.4z M89.7,115.7h4.7V109L89.7,115.7z"/>
		<path class="st0" d="M112.2,113.6c0,1.3-0.1,2.3-0.2,3.2s-0.4,1.7-0.8,2.5c-0.5,0.9-1.1,1.6-1.9,2.1c-0.8,0.5-1.7,0.7-2.6,0.7
			c-1.1,0-2.1-0.3-3-1c-0.9-0.7-1.5-1.6-2-2.7c-0.2-0.6-0.4-1.3-0.5-2.1c-0.1-0.8-0.2-1.6-0.2-2.5c0-1.2,0.1-2.2,0.2-3.1
			c0.1-0.9,0.3-1.7,0.5-2.4c0.4-1.1,1.1-1.9,1.9-2.5s1.8-0.9,2.9-0.9c0.8,0,1.4,0.1,2.1,0.4c0.6,0.3,1.2,0.6,1.6,1.1
			c0.5,0.5,0.9,1.1,1.2,1.8C111.9,109.5,112.2,111.3,112.2,113.6z M109.2,113.3c0-1.4-0.1-2.6-0.2-3.4c-0.2-0.9-0.4-1.6-0.8-2
			c-0.4-0.5-0.9-0.7-1.6-0.7c-1,0-1.6,0.5-2,1.5s-0.6,2.6-0.6,4.7c0,1.4,0.1,2.6,0.2,3.5c0.2,0.9,0.4,1.6,0.8,2.1
			c0.4,0.5,0.9,0.7,1.5,0.7c0.7,0,1.2-0.2,1.6-0.7s0.6-1.2,0.8-2.1C109.1,116,109.2,114.8,109.2,113.3z"/>
	</g>
	<path class="st4" d="M132.4,197.9c0,1.5-1.2,2.7-2.6,2.7h-61c-1.4,0-2.6-1.2-2.6-2.7v-36c0-1.5,1.2-2.7,2.6-2.7h61
		c1.4,0,2.6,1.2,2.6,2.7V197.9z"/>
	<path d="M129.2,160.7H69.5c-1,0-1.7,0.8-1.7,1.8V197c0,1,0.8,1.8,1.7,1.8h59.7c1,0,1.7-0.8,1.7-1.8v-34.5
		C130.9,161.5,130.1,160.7,129.2,160.7z M129.4,197c0,0.1-0.1,0.3-0.3,0.3H69.5c-0.1,0-0.3-0.1-0.3-0.3v-34.5c0-0.1,0.1-0.3,0.3-0.3
		h59.7c0.1,0,0.3,0.1,0.3,0.3V197z"/>
	<g>
		<rect x="70.4" y="165.8" class="st1" width="57.9" height="39.9"/>
		<path class="st0" d="M86.8,174l-1.9-7.8h1l0.9,3.9c0.2,1,0.4,1.9,0.6,2.7h0c0.1-0.8,0.4-1.7,0.6-2.7l1-3.9h1l0.9,3.9
			c0.2,0.9,0.4,1.8,0.5,2.7h0c0.2-0.9,0.4-1.7,0.6-2.7l1-3.9h1l-2.1,7.8h-1l-0.9-4c-0.2-1-0.4-1.8-0.5-2.5h0
			c-0.1,0.8-0.3,1.5-0.6,2.5l-1.1,4H86.8z"/>
		<path class="st0" d="M95.9,166.2v3.3h3.6v-3.3h1v7.8h-1v-3.6h-3.6v3.6h-1v-7.8H95.9z"/>
		<path class="st0" d="M105.9,170.3H103v2.8h3.2v0.8h-4.2v-7.8h4v0.8h-3v2.5h2.9V170.3z"/>
		<path class="st0" d="M107.5,174v-7.8h1l2.4,3.9c0.6,0.9,1,1.7,1.3,2.5l0,0c-0.1-1-0.1-2-0.1-3.2v-3.3h0.9v7.8h-1l-2.4-3.9
			c-0.5-0.9-1-1.8-1.4-2.6l0,0c0.1,1,0.1,1.9,0.1,3.2v3.3H107.5z"/>
		<path class="st0" d="M76.7,180.1h4v0.8h-3v2.6h2.8v0.8h-2.8v3.5h-1V180.1z"/>
		<path class="st0" d="M82.1,180.1h1v6.9h3.2v0.8h-4.1V180.1z"/>
		<path class="st0" d="M88.5,185.4l-0.8,2.4h-1l2.5-7.8h1.2l2.5,7.8h-1l-0.8-2.4H88.5z M90.9,184.6l-0.7-2.2c-0.2-0.5-0.3-1-0.4-1.4
			h0c-0.1,0.5-0.2,0.9-0.4,1.4l-0.7,2.3H90.9z"/>
		<path class="st0" d="M93.9,186.6c0.4,0.3,1.1,0.5,1.7,0.5c1,0,1.6-0.5,1.6-1.3c0-0.7-0.4-1.1-1.4-1.5c-1.2-0.4-2-1.1-2-2.2
			c0-1.2,1-2.1,2.4-2.1c0.8,0,1.3,0.2,1.6,0.4l-0.3,0.8c-0.2-0.1-0.7-0.4-1.4-0.4c-1,0-1.4,0.6-1.4,1.2c0,0.7,0.5,1.1,1.5,1.5
			c1.3,0.5,1.9,1.1,1.9,2.3c0,1.2-0.8,2.2-2.6,2.2c-0.7,0-1.5-0.2-1.9-0.5L93.9,186.6z"/>
		<path class="st0" d="M100.4,180.1v3.3h3.6v-3.3h1v7.8h-1v-3.6h-3.6v3.6h-1v-7.8H100.4z"/>
		<path class="st0" d="M107.6,180.1v7.8h-1v-7.8H107.6z"/>
		<path class="st0" d="M109.2,187.8v-7.8h1l2.4,3.9c0.5,0.9,1,1.7,1.3,2.5l0,0c-0.1-1-0.1-2-0.1-3.2v-3.3h0.9v7.8h-1l-2.4-3.9
			c-0.5-0.9-1-1.8-1.4-2.6l0,0c0.1,1,0.1,1.9,0.1,3.2v3.3H109.2z"/>
		<path class="st0" d="M122.1,187.5c-0.4,0.2-1.3,0.4-2.3,0.4c-1.1,0-2-0.3-2.8-1c-0.6-0.6-1-1.7-1-2.9c0-2.3,1.5-4,4-4
			c0.9,0,1.5,0.2,1.8,0.4l-0.2,0.8c-0.4-0.2-0.9-0.3-1.6-0.3c-1.8,0-3,1.2-3,3.1c0,2,1.1,3.1,2.9,3.1c0.6,0,1.1-0.1,1.3-0.2v-2.3
			h-1.5v-0.8h2.4V187.5z"/>
	</g>
	<polygon class="st6" points="100.1,1.3 66.5,35.9 66.5,86.8 132.3,86.8 132.3,34.5 	"/>
	<polygon class="st7" points="100.3,4.1 68.7,36.7 68.7,84.6 130.5,84.6 130.5,35.5 	"/>
	<polygon points="115.1,79.4 118.3,77.8 113,66.3 113.5,56.4 119.3,54.6 117.5,48.7 116.1,49.2 116.6,46 111.9,36.6 109.2,35.4 
		108.9,34.7 105.8,35.6 105.8,36.1 103.8,37.9 101.5,46.3 97.4,48.4 95.3,43.5 92.2,41.5 89.6,41.9 87.5,44.2 85.1,51.5 81,55.8 
		82,57.2 86.8,53.7 88,51.5 88.5,53.4 85.2,63.3 86.4,63.8 83,77.1 84.8,77.8 89.4,64.8 91.8,64.8 97,77.7 98.8,76.9 94.9,64.3 
		97,63.4 94.9,57.6 99.6,56.4 98.7,51.7 97.6,51.9 97.9,50.7 102.7,49.1 103.7,47.5 105.3,54.1 102.2,64 101.3,79 104.8,79.4 
		106,66.7 108,61.6 109.4,68.5 	"/>
	<ellipse cx="90.2" cy="37.7" rx="3.6" ry="3.7"/>
	<ellipse cx="105.1" cy="30.5" rx="3.9" ry="4.1"/>
</g>
</svg>
