<?xml version="1.0" encoding="utf-8"?>
<!-- Generator: Adobe Illustrator 21.1.0, SVG Export Plug-In . SVG Version: 6.00 Build 0)  -->
<svg version="1.1" id="Layer_1" xmlns="http://www.w3.org/2000/svg" xmlns:xlink="http://www.w3.org/1999/xlink" x="0px" y="0px"
	 viewBox="0 0 203 202" style="enable-background:new 0 0 203 202;" xml:space="preserve">
<style type="text/css">
	.st0{fill:#FDE500;stroke:#000000;stroke-width:0.25;}
	.st1{fill:#231F20;}
	.st2{fill:none;}
	.st3{fill:#FFFFFF;}
	.st4{fill-rule:evenodd;clip-rule:evenodd;}
</style>
<g>
	<g>
		<path class="st0" d="M168.4,199.8c4.6,0,8.2-3.7,8.2-8.2l0-180.3c0-4.6-3.7-8.2-8.2-8.2H31.1c-4.6,0-8.2,3.7-8.2,8.2l0,180.3
			c0,4.6,3.7,8.2,8.2,8.2L168.4,199.8z"/>
		<path d="M32.2,195.6l135.1,0c2.9,0,5.2-2.3,5.2-5.2l0-178c0-2.9-2.3-5.2-5.2-5.2H32.2c-2.9,0-5.2,2.3-5.2,5.2v178
			C27,193.2,29.3,195.6,32.2,195.6z M30.9,189L30.8,13.8c0-1.5,1.2-2.7,2.7-2.7l132.3-0.2c1.5,0,2.7,1.2,2.7,2.7v175.2
			c0,1.5-1.2,2.7-2.7,2.7l-132.1,0.2C32.2,191.8,30.9,190.6,30.9,189z"/>
		<rect x="28.8" y="152.8" class="st1" width="142" height="39.7"/>
		<g>
			<rect x="35.7" y="159.3" class="st2" width="127" height="37.4"/>
			<path class="st3" d="M50.8,185.5v-19.2h5v10.2l5.9-4.9H68l-6.5,5.1l7,8.8H63l-4.8-6.2l-2.3,1.8v4.4H50.8z"/>
			<path class="st3" d="M76.4,171.6H81v1.9c1.7-1.5,3.6-2.2,5.9-2.2c1.2,0,2.3,0.2,3.2,0.5c0.9,0.4,1.6,0.9,2.2,1.7
				c0.8-0.7,1.7-1.3,2.7-1.7c1-0.4,2-0.5,3.1-0.5c1.4,0,2.6,0.2,3.5,0.6c1,0.4,1.7,1,2.2,1.8c0.3,0.6,0.5,1.6,0.5,2.9v8.9h-5v-7.9
				c0-1.4-0.2-2.3-0.5-2.7c-0.5-0.5-1.2-0.8-2.1-0.8c-0.7,0-1.4,0.2-2,0.5c-0.6,0.3-1.1,0.8-1.3,1.4c-0.3,0.6-0.4,1.6-0.4,2.9v6.7
				h-5v-7.6c0-1.3-0.1-2.2-0.3-2.6c-0.2-0.4-0.5-0.7-0.8-0.9c-0.4-0.2-0.9-0.3-1.5-0.3c-0.8,0-1.5,0.2-2.1,0.5
				c-0.6,0.3-1.1,0.7-1.3,1.3s-0.4,1.5-0.4,2.9v6.7h-5V171.6z"/>
			<path class="st3" d="M112,185.8l6.5-19.8h3.8l-6.6,19.8H112z"/>
			<path class="st3" d="M135.2,166.4v7c1.6-1.4,3.6-2.1,5.8-2.1c1.2,0,2.2,0.2,3.1,0.5s1.6,0.7,2.1,1.2c0.5,0.5,0.8,1,1,1.6
				s0.3,1.5,0.3,2.8v8.1h-5v-7.3c0-1.5-0.1-2.4-0.3-2.8c-0.2-0.4-0.5-0.7-1-0.9c-0.5-0.2-1.1-0.3-1.8-0.3c-0.8,0-1.6,0.1-2.2,0.4
				s-1.1,0.7-1.4,1.3c-0.3,0.6-0.5,1.5-0.5,2.6v7h-5v-19.2H135.2z"/>
		</g>
	</g>
	<g>
		<path id="_x3C_0_x3E__2_" class="st4" d="M125.7,56c9.7-0.6,16.5,3.1,21,8.7c4.2,5.2,7.2,13.1,7.2,22.5c0,18.4-7.4,33.7-25,34.3
			c-19,0.7-27.4-13.3-28.2-31.2c-0.4-9.6,2.2-18.1,6-23.7C110.8,60.6,116.4,56.6,125.7,56z M116.2,73.4c-5.9,8.6-5.1,26.7,1.9,33.2
			c4.6,4.3,12.7,4.5,17.3,0.9c8.9-6.8,9.7-29.4,1.2-37c-2.4-2.1-6.1-3.5-10.3-3.1C121.4,67.8,118.2,70.5,116.2,73.4z"/>
		<path id="_x3C_5_x3E__2_" class="st4" d="M59.6,77.2c5.2-1.2,10.7-2.1,16.2-1.4C85.6,77,93,82.9,95.7,91.5
			c1.4,4.6,1.4,10.4-0.5,15.2c-3.3,8.3-11,13.3-21.2,14.5c-11.7,1.3-20.9-2.5-28.4-6.8c1.8-3.4,4.1-6.4,6-9.8
			c4.6,2.7,9.9,4.6,16.7,5c7,0.4,13.1-1.4,15.7-5.8c3-5,0.5-11.8-3-14.4c-4.6-3.3-14-2.5-19.5-0.7c-0.9,0.3-1.7,0.8-2.4,0.8
			c-0.8,0-2-0.4-2.9-0.6c-2.8-0.7-5.6-1.6-8.5-2.2c0.7-10,1.4-19.9,2-29.9c14.1,0,28.2,0,42.3,0c0,3.8-0.1,7.5-0.2,11.2
			c-10.4,0-20.9,0-31.3,0C60,71.1,59.9,74.2,59.6,77.2z"/>
	</g>
</g>
</svg>
