<?xml version="1.0" encoding="utf-8"?>
<!-- Generator: Adobe Illustrator 21.1.0, SVG Export Plug-In . SVG Version: 6.00 Build 0)  -->
<svg version="1.1" id="Layer_1" xmlns="http://www.w3.org/2000/svg" xmlns:xlink="http://www.w3.org/1999/xlink" x="0px" y="0px"
	 viewBox="0 0 203 202" style="enable-background:new 0 0 203 202;" xml:space="preserve">
<style type="text/css">
	.st0{fill:#F58532;stroke:#000000;stroke-width:0.25;}
</style>
<g>
	<g id="_x3C_BLANK_ORANGE_Sign_x3E__2_">
		<path class="st0" d="M97.4,195.5c3,3,7.8,3,10.8,0l89.6-89.6c3-3,3-7.8,0-10.8L108.2,5.5c-3-3-7.8-3-10.8,0L7.8,95.2
			c-3,3-3,7.8,0,10.8L97.4,195.5z"/>
		<path d="M11.3,103.9l88.1,88.1c1.9,1.9,4.9,1.9,6.8,0l88.1-88.1c1.9-1.9,1.9-4.9,0-6.8L106.2,9c-1.9-1.9-4.9-1.9-6.8,0L11.3,97.1
			C9.4,99,9.4,102.1,11.3,103.9z M14.7,98.9l86.2-86.4c1-1,2.6-1,3.6,0l86.4,86.2c1,1,1,2.6,0,3.6l-86.3,86.3c-1,1-2.6,1-3.6,0
			l-86.3-86.1C13.7,101.5,13.7,99.9,14.7,98.9z"/>
	</g>
	<path d="M126.6,101.2l7-37.6L96,70.5c0,0-2.4,0.7-2.4,3c0,2.3,1.9,3.4,1.9,3.4l7.1,4.4L55.9,128L69,141.1l46.7-46.6l4.4,7.1
		c0,0,1.1,1.9,3.4,1.9C125.9,103.6,126.6,101.2,126.6,101.2z"/>
</g>
</svg>
