<?xml version="1.0" encoding="utf-8"?>
<!-- Generator: Adobe Illustrator 21.1.0, SVG Export Plug-In . SVG Version: 6.00 Build 0)  -->
<svg version="1.1" id="Layer_1" xmlns="http://www.w3.org/2000/svg" xmlns:xlink="http://www.w3.org/1999/xlink" x="0px" y="0px"
	 viewBox="0 0 203 202" style="enable-background:new 0 0 203 202;" xml:space="preserve">
<style type="text/css">
	.st0{fill:#FEE503;stroke:#000000;stroke-width:0.25;}
</style>
<g>
	<g>
		<path class="st0" d="M96,195c2.9,2.9,7.7,2.9,10.6,0l88.5-88.5c2.9-2.9,2.9-7.7,0-10.6L106.6,7.4c-2.9-2.9-7.7-2.9-10.6,0
			L7.5,95.9c-2.9,2.9-2.9,7.7,0,10.6L96,195z"/>
		<path d="M10.9,104.6l87,87c1.9,1.9,4.9,1.9,6.7,0l87-87c1.9-1.9,1.9-4.9,0-6.7l-87-87c-1.9-1.9-4.9-1.9-6.7,0l-87,87
			C9.1,99.7,9.1,102.7,10.9,104.6z M14.3,99.6l85.1-85.3c1-1,2.6-1,3.5,0l85.3,85.1c1,1,1,2.6,0,3.5L103,188.1c-1,1-2.6,1-3.5,0
			l-85.2-85C13.3,102.1,13.3,100.5,14.3,99.6z"/>
	</g>
	<g>
		<polygon points="136.2,111.3 126.4,82.5 126.4,45.2 113,45.2 113,85.4 113,85.4 113,85.5 113,85.5 113,85.5 122.9,114.6 
			122.9,151.9 136.3,151.9 136.3,111.3 		"/>
		<polygon points="66.4,110.3 76.2,81.5 76.2,44.3 89.6,44.3 89.6,84.4 89.6,84.5 89.6,84.5 89.6,84.5 89.6,84.5 79.7,113.6 
			79.7,150.9 66.3,150.9 66.3,110.3 		"/>
	</g>
</g>
</svg>
