<?xml version="1.0" encoding="utf-8"?>
<!-- Generator: Adobe Illustrator 21.1.0, SVG Export Plug-In . SVG Version: 6.00 Build 0)  -->
<svg version="1.1" id="Layer_1" xmlns="http://www.w3.org/2000/svg" xmlns:xlink="http://www.w3.org/1999/xlink" x="0px" y="0px"
	 viewBox="0 0 203 202" style="enable-background:new 0 0 203 202;" xml:space="preserve">
<style type="text/css">
	.st0{fill:#FEE503;stroke:#000000;stroke-width:0.25;}
	.st1{fill:#231F20;stroke:#231F20;stroke-width:2;}
</style>
<g>
	<g>
		<path class="st0" d="M95.2,196.1c3,3,7.8,3,10.8,0l89.7-89.7c3-3,3-7.8,0-10.8L106,5.9c-3-3-7.8-3-10.8,0L5.5,95.6
			c-3,3-3,7.8,0,10.8L95.2,196.1z"/>
		<path d="M9,104.4l88.2,88.2c1.9,1.9,4.9,1.9,6.8,0l88.2-88.2c1.9-1.9,1.9-4.9,0-6.8L104,9.4c-1.9-1.9-4.9-1.9-6.8,0L9,97.6
			C7.1,99.5,7.1,102.5,9,104.4z M12.4,99.3l86.3-86.5c1-1,2.6-1,3.6,0l86.5,86.3c1,1,1,2.6,0,3.6l-86.4,86.4c-1,1-2.6,1-3.6,0
			l-86.4-86.2C11.5,101.9,11.5,100.3,12.4,99.3z"/>
	</g>
	<g>
		<polygon class="st1" points="129.3,142.1 139.3,142.1 122.5,119.7 122.5,83.5 139.3,59.9 129.3,59.9 112.5,83.9 112.5,119.9 		"/>
		<polygon class="st1" points="72,142.1 61.9,142.1 78.7,119.7 78.7,83.5 61.9,59.9 72,59.9 88.8,83.9 88.8,119.9 		"/>
	</g>
</g>
</svg>
