<?xml version="1.0" encoding="utf-8"?>
<!-- Generator: Adobe Illustrator 21.1.0, SVG Export Plug-In . SVG Version: 6.00 Build 0)  -->
<svg version="1.1" id="Layer_1" xmlns="http://www.w3.org/2000/svg" xmlns:xlink="http://www.w3.org/1999/xlink" x="0px" y="0px"
	 viewBox="0 0 203 202" style="enable-background:new 0 0 203 202;" xml:space="preserve">
<style type="text/css">
	.st0{fill:#58595B;stroke:#000000;stroke-width:3;}
	.st1{fill:#FFFFFF;stroke:#000000;stroke-width:0.2994;}
	.st2{fill:#CC1612;}
</style>
<path class="st0" d="M17,181.5"/>
<g id="_x3C_NO_BICYCLES_Sign_x3E_">
	<path class="st1" d="M200,185.1c0,8-6.5,14.5-14.5,14.5H18.5c-8,0-14.5-6.5-14.5-14.5V18.2c0-8,6.5-14.5,14.5-14.5h166.9
		c8,0,14.5,6.5,14.5,14.5V185.1z"/>
	<path d="M183.9,8.5H19.4c-6,0-10.9,4.9-10.9,10.9v164.5c0,6,4.9,10.9,10.9,10.9h164.5c6,0,10.9-4.9,10.9-10.9V19.4
		C194.9,13.4,190,8.5,183.9,8.5z M190.5,183.2c0,4-3.3,7.3-7.3,7.3h-163c-4,0-7.3-3.3-7.3-7.3v-163c0-4,3.3-7.3,7.3-7.3h163
		c4,0,7.3,3.3,7.3,7.3V183.2z"/>
	<path d="M140.4,89.3c-4.6,0-8.9,1.3-12.6,3.6l-8.7-11.3l1.3-3.4l8.3-3.8l-1.1-2l-18.3,1.3c0,0-1.4,0.2-1.7,0.9
		c-0.2,0.8,8.8,3.5,8.8,3.5l-0.8,2.6l-34.3,0l3.5-9.4l-3.1-3l1.2-1.4l9-0.3l0-3.1L81.6,64l-4.2,4.1l3.1,3.9l-7.4,20.1
		c-3.3-1.7-7.1-2.8-11.1-2.8c-13.2,0-23.9,10.7-23.9,23.9c0,13.2,10.7,23.9,23.9,23.9c13.2,0,23.9-10.7,23.9-23.9
		c0-7.8-3.7-14.6-9.4-19l1.3-3.7c0,0,23.5,26.5,24.9,28.4l0,0c-0.3,0.5-0.4,1-0.4,1.6c0,1.6,1.1,3,2.7,3.3l1.6,5.7l-1.4,0.2l0,1.9
		l5.4-0.4l0-1.8l-1.8,0.1l-1.7-5.9c1-0.5,1.6-1.6,1.7-2.7l8.4-1.7c2.6,10.3,12,18,23.1,18c13.2,0,23.9-10.7,23.9-23.9
		C164.3,100,153.6,89.3,140.4,89.3z M82.5,113.2c0,11.3-9.2,20.5-20.5,20.5c-11.3,0-20.5-9.2-20.5-20.5c0-11.3,9.2-20.5,20.5-20.5
		c3.6,0,7,0.9,9.9,2.6l-1.7,4.7c-1.5,4.5-5.9,8.5-7.9,10.4c-0.1,0-0.2-0.1-0.3-0.1c-1.6,0-2.9,1.3-2.9,2.9c0,1.6,1.3,2.9,2.9,2.9
		c1.6,0,2.9-1.3,2.9-2.9c0-0.2-0.1-0.3-0.1-0.4c2.9-2.2,7.3-6.3,9-11.2l1.5-4C79.6,101.4,82.5,107,82.5,113.2z M105.6,114.2
		l-0.9-4.2l1.4-0.2l-0.2-2l-5.4,0.4l0.2,2l1.7-0.1l1,4.5L79.2,87.2l1.2-3.3l34.6,0L105.6,114.2z M108,117.4l10.1-31.7l7.1,9.2
		c-5.3,4.4-8.6,11-8.6,18.4c0,0.9,0,1.7,0.1,2.5L108,117.4z M120,113.2c0-6.3,2.8-11.9,7.3-15.6l10.9,14.1c0,0.1-0.1,0.1-0.1,0.2
		l-17.9,3.3C120,114.5,120,113.9,120,113.2z M140.4,133.7c-9.5,0-17.5-6.5-19.8-15.3l17.6-3.5c0.5,0.7,1.3,1.1,2.2,1.1
		c1.6,0,2.8-1.3,2.8-2.8c0-1.2-0.7-2.2-1.8-2.6l-11.5-15c3.1-1.8,6.7-2.9,10.5-2.9c11.3,0,20.5,9.2,20.5,20.5
		C160.9,124.5,151.8,133.7,140.4,133.7z"/>
	<path class="st2" d="M101.7,16.1c-47.3,0-85.6,38.3-85.6,85.6c0,47.3,38.3,85.6,85.6,85.6c47.3,0,85.6-38.3,85.6-85.6
		C187.3,54.4,149,16.1,101.7,16.1z M172.9,101.7c0,16.9-5.9,32.4-15.8,44.6l-100-100c12.2-9.8,27.7-15.8,44.6-15.8
		C140.9,30.5,172.9,62.4,172.9,101.7z M30.5,101.7c0-17,6-32.7,16-44.9l100.1,100.1c-12.3,10-27.9,16-44.9,16
		C62.5,172.8,30.5,140.9,30.5,101.7z"/>
</g>
</svg>
