<?xml version="1.0" encoding="utf-8"?>
<!-- Generator: Adobe Illustrator 21.1.0, SVG Export Plug-In . SVG Version: 6.00 Build 0)  -->
<svg version="1.1" id="Layer_1" xmlns="http://www.w3.org/2000/svg" xmlns:xlink="http://www.w3.org/1999/xlink" x="0px" y="0px"
	 viewBox="0 0 203 202" style="enable-background:new 0 0 203 202;" xml:space="preserve">
<style type="text/css">
	.st0{fill:#FFFFFF;stroke:#000000;stroke-width:0.25;}
	.st1{fill:#FFFFFF;stroke:#000000;}
	.st2{fill:#CA2027;}
	.st3{fill:none;}
	.st4{fill:#231F20;}
</style>
<g>
	<g>
		<path class="st0" d="M167,195c0,2.6-2.1,4.6-4.6,4.6H34c-2.5,0-4.6-2.1-4.6-4.6V6.6C29.4,4.1,31.4,2,34,2h128.4
			c2.5,0,4.6,2.1,4.6,4.6V195z"/>
		<path class="st1" d="M163.2,191.1c0,2.5-2.1,4.6-4.6,4.6H37.8c-2.5,0-4.6-2.1-4.6-4.6V9.9c0-2.5,2.1-4.6,4.6-4.6h120.8
			c2.5,0,4.6,2.1,4.6,4.6V191.1z"/>
	</g>
	<path d="M112.5,42.5H87.6l0-0.2l1.6-6.4c0,0,0.4-1.6-0.8-2.8c-1.2-1.2-2.9-0.3-2.9-0.3L61.8,49l23.5,16.2c0,0,1.7,0.9,2.9-0.3
		c1.2-1.2,0.8-2.8,0.8-2.8l-1.6-6.3v-0.2h18c1.7,0,3,1.3,3,3v30.6l13,0V51.5C121.5,46.5,117.4,42.5,112.5,42.5z"/>
	<path class="st2" d="M96.3,11.7c-26.8,0-48.5,21.7-48.5,48.5s21.7,48.5,48.5,48.5c26.8,0,48.5-21.7,48.5-48.5S123.1,11.7,96.3,11.7
		z M136.7,60.2c0,9.6-3.4,18.3-8.9,25.3L71.1,28.8c6.9-5.6,15.7-8.9,25.3-8.9C118.6,19.9,136.7,37.9,136.7,60.2z M56,60.2
		c0-9.6,3.4-18.5,9.1-25.4l56.7,56.7c-7,5.7-15.8,9.1-25.4,9.1C74.1,100.5,56,82.4,56,60.2z"/>
	<g>
		<rect x="48.1" y="120.2" class="st3" width="108.4" height="41.5"/>
		<path class="st4" d="M61.6,120.5h5.3c0.5,0,0.9,0.1,1.1,0.2c0.2,0.2,0.3,0.4,0.3,0.8c0,0.2-0.1,0.5-0.4,0.9
			c-0.3,0.4-0.6,0.8-0.9,1.2s-0.7,1-1,1.6c-0.4,0.7-0.7,1.4-1,2.4c-0.1,0.4-0.2,0.8-0.3,1c-0.1,0.3-0.1,0.6-0.2,1.1
			c-0.1,0.4-0.1,0.8-0.2,1c-0.1,0.5-0.3,0.9-0.5,1.1c-0.2,0.2-0.5,0.3-0.8,0.3c-0.3,0-0.6-0.1-0.8-0.3c-0.2-0.2-0.3-0.6-0.3-1
			c0-0.3,0.1-0.8,0.2-1.4c0.1-0.6,0.4-1.3,0.7-2.1c0.3-0.8,0.7-1.6,1.2-2.5c0.5-0.8,1.1-1.7,1.7-2.5h-4.2c-0.4,0-0.8-0.1-1-0.2
			c-0.2-0.2-0.3-0.4-0.3-0.8c0-0.4,0.1-0.6,0.3-0.7C60.9,120.6,61.2,120.5,61.6,120.5z"/>
		<path class="st4" d="M79.9,130.9l-0.5-1.2h-3.9l-0.5,1.2c-0.2,0.5-0.3,0.8-0.5,1c-0.1,0.2-0.3,0.3-0.6,0.3c-0.2,0-0.5-0.1-0.6-0.3
			c-0.2-0.2-0.3-0.4-0.3-0.6c0-0.1,0-0.3,0.1-0.4c0-0.1,0.1-0.3,0.2-0.6l2.5-6.2c0.1-0.2,0.2-0.4,0.3-0.6s0.2-0.5,0.3-0.6
			s0.3-0.3,0.4-0.4s0.4-0.2,0.7-0.2c0.3,0,0.5,0.1,0.7,0.2c0.2,0.1,0.3,0.2,0.4,0.4c0.1,0.2,0.2,0.3,0.3,0.5
			c0.1,0.2,0.2,0.4,0.3,0.7l2.5,6.2c0.2,0.5,0.3,0.8,0.3,1c0,0.2-0.1,0.4-0.3,0.6s-0.4,0.3-0.7,0.3c-0.2,0-0.3,0-0.4-0.1
			c-0.1-0.1-0.2-0.1-0.3-0.2s-0.2-0.2-0.2-0.4S80,131.1,79.9,130.9z M76,128.2h2.9l-1.4-4L76,128.2z"/>
		<path class="st4" d="M86.6,130.5l-1.5-6.1v6.6c0,0.4-0.1,0.6-0.2,0.8s-0.4,0.3-0.7,0.3c-0.3,0-0.5-0.1-0.6-0.3
			c-0.2-0.2-0.2-0.5-0.2-0.8v-7.6c0-0.4,0.1-0.7,0.3-0.8c0.2-0.1,0.5-0.2,0.9-0.2h0.6c0.4,0,0.6,0,0.8,0.1c0.2,0.1,0.3,0.2,0.4,0.4
			c0.1,0.2,0.2,0.4,0.3,0.8l1.4,5.3l1.4-5.3c0.1-0.4,0.2-0.7,0.3-0.8c0.1-0.2,0.2-0.3,0.4-0.4s0.4-0.1,0.8-0.1h0.6
			c0.4,0,0.7,0.1,0.9,0.2c0.2,0.1,0.3,0.4,0.3,0.8v7.6c0,0.4-0.1,0.6-0.2,0.8c-0.2,0.2-0.4,0.3-0.7,0.3c-0.3,0-0.5-0.1-0.6-0.3
			s-0.2-0.5-0.2-0.8v-6.6l-1.5,6.1c-0.1,0.4-0.2,0.7-0.2,0.9c-0.1,0.2-0.2,0.4-0.4,0.5s-0.4,0.2-0.7,0.2c-0.2,0-0.4,0-0.6-0.1
			c-0.2-0.1-0.3-0.2-0.4-0.4c-0.1-0.2-0.2-0.3-0.2-0.5C86.7,130.9,86.7,130.7,86.6,130.5z"/>
		<path class="st4" d="M105.5,128.7H103c-0.4,0-0.7-0.1-0.9-0.3c-0.2-0.2-0.3-0.4-0.3-0.7c0-0.3,0.1-0.5,0.3-0.7
			c0.2-0.2,0.5-0.3,0.9-0.3h2.5c0.4,0,0.7,0.1,0.9,0.3c0.2,0.2,0.3,0.4,0.3,0.7c0,0.3-0.1,0.5-0.3,0.7S105.9,128.7,105.5,128.7z"/>
		<path class="st4" d="M117.6,126.8c-0.3,0.4-0.7,0.7-1.2,0.9c-0.4,0.2-0.9,0.3-1.4,0.3c-0.5,0-1-0.1-1.4-0.3
			c-0.4-0.2-0.8-0.5-1.1-0.8c-0.3-0.3-0.6-0.7-0.7-1.2s-0.3-0.9-0.3-1.4c0-0.5,0.1-1.1,0.3-1.5c0.2-0.5,0.5-0.9,0.8-1.3
			c0.4-0.4,0.8-0.6,1.3-0.8c0.5-0.2,1-0.3,1.6-0.3c0.7,0,1.3,0.1,1.8,0.4c0.5,0.2,1,0.6,1.3,1.1c0.4,0.5,0.6,1.1,0.8,1.8
			c0.2,0.7,0.3,1.5,0.3,2.4c0,1-0.1,1.9-0.3,2.7s-0.5,1.4-0.9,1.9c-0.4,0.5-0.9,0.9-1.4,1.2s-1.2,0.4-1.9,0.4
			c-0.7,0-1.3-0.1-1.8-0.4s-0.9-0.6-1.2-1c-0.3-0.4-0.4-0.8-0.4-1.1c0-0.2,0.1-0.4,0.2-0.6c0.2-0.2,0.4-0.3,0.6-0.3
			c0.2,0,0.4,0.1,0.6,0.2c0.2,0.1,0.3,0.3,0.4,0.6c0.1,0.3,0.3,0.6,0.6,0.8c0.3,0.2,0.6,0.3,0.9,0.3c0.3,0,0.6-0.1,0.9-0.2
			c0.3-0.2,0.5-0.4,0.7-0.6C117.3,129.2,117.5,128.2,117.6,126.8z M117.4,124.4c0-0.4,0-0.7-0.1-1c-0.1-0.3-0.2-0.6-0.4-0.8
			s-0.4-0.4-0.6-0.5c-0.2-0.1-0.5-0.2-0.8-0.2c-0.5,0-0.9,0.2-1.3,0.6c-0.3,0.4-0.5,1-0.5,1.7c0,0.7,0.2,1.3,0.5,1.7
			c0.3,0.4,0.8,0.6,1.3,0.6c0.3,0,0.6-0.1,0.9-0.3s0.5-0.4,0.7-0.7C117.3,125.2,117.4,124.8,117.4,124.4z"/>
		<path class="st4" d="M131.8,130.9l-0.5-1.2h-3.9l-0.5,1.2c-0.2,0.5-0.3,0.8-0.5,1c-0.1,0.2-0.3,0.3-0.6,0.3
			c-0.2,0-0.5-0.1-0.6-0.3c-0.2-0.2-0.3-0.4-0.3-0.6c0-0.1,0-0.3,0.1-0.4c0-0.1,0.1-0.3,0.2-0.6l2.5-6.2c0.1-0.2,0.2-0.4,0.3-0.6
			c0.1-0.3,0.2-0.5,0.3-0.6s0.3-0.3,0.4-0.4c0.2-0.1,0.4-0.2,0.7-0.2c0.3,0,0.5,0.1,0.7,0.2c0.2,0.1,0.3,0.2,0.4,0.4
			c0.1,0.2,0.2,0.3,0.3,0.5s0.2,0.4,0.3,0.7l2.5,6.2c0.2,0.5,0.3,0.8,0.3,1c0,0.2-0.1,0.4-0.3,0.6s-0.4,0.3-0.7,0.3
			c-0.2,0-0.3,0-0.4-0.1s-0.2-0.1-0.3-0.2s-0.2-0.2-0.2-0.4C132,131.2,131.9,131.1,131.8,130.9z M128,128.2h2.9l-1.4-4L128,128.2z"
			/>
		<path class="st4" d="M138.6,130.5l-1.5-6.1v6.6c0,0.4-0.1,0.6-0.2,0.8c-0.2,0.2-0.4,0.3-0.7,0.3c-0.3,0-0.5-0.1-0.6-0.3
			c-0.2-0.2-0.2-0.5-0.2-0.8v-7.6c0-0.4,0.1-0.7,0.3-0.8c0.2-0.1,0.5-0.2,0.9-0.2h0.6c0.4,0,0.6,0,0.8,0.1c0.2,0.1,0.3,0.2,0.4,0.4
			c0.1,0.2,0.2,0.4,0.3,0.8l1.4,5.3l1.4-5.3c0.1-0.4,0.2-0.7,0.3-0.8c0.1-0.2,0.2-0.3,0.4-0.4s0.4-0.1,0.8-0.1h0.6
			c0.4,0,0.7,0.1,0.9,0.2c0.2,0.1,0.3,0.4,0.3,0.8v7.6c0,0.4-0.1,0.6-0.2,0.8c-0.2,0.2-0.4,0.3-0.7,0.3c-0.3,0-0.5-0.1-0.6-0.3
			c-0.2-0.2-0.2-0.5-0.2-0.8v-6.6l-1.5,6.1c-0.1,0.4-0.2,0.7-0.2,0.9c-0.1,0.2-0.2,0.4-0.4,0.5s-0.4,0.2-0.7,0.2
			c-0.2,0-0.4,0-0.6-0.1c-0.2-0.1-0.3-0.2-0.4-0.4c-0.1-0.2-0.2-0.3-0.2-0.5C138.7,130.9,138.6,130.7,138.6,130.5z"/>
		<path class="st4" d="M65.4,150.4v-1.5h-4c-0.5,0-0.9-0.1-1.1-0.3c-0.2-0.2-0.4-0.5-0.4-0.9c0-0.1,0-0.2,0.1-0.3
			c0-0.1,0.1-0.2,0.2-0.3c0.1-0.1,0.1-0.2,0.2-0.3c0.1-0.1,0.2-0.2,0.3-0.4l4.2-5.6c0.3-0.4,0.5-0.6,0.7-0.8
			c0.2-0.2,0.4-0.2,0.6-0.2c0.8,0,1.2,0.5,1.2,1.4v6.1h0.3c0.4,0,0.7,0.1,1,0.2c0.2,0.1,0.4,0.4,0.4,0.7c0,0.3-0.1,0.5-0.3,0.7
			c-0.2,0.1-0.5,0.2-0.9,0.2h-0.5v1.5c0,0.4-0.1,0.7-0.3,0.9s-0.4,0.3-0.7,0.3c-0.3,0-0.5-0.1-0.7-0.3S65.4,150.8,65.4,150.4z
			 M62,147.1h3.4v-4.6L62,147.1z"/>
		<path class="st4" d="M78.2,147.6h-1.8v2.7c0,0.4-0.1,0.7-0.3,0.9c-0.2,0.2-0.4,0.3-0.7,0.3c-0.3,0-0.5-0.1-0.7-0.3
			c-0.2-0.2-0.3-0.5-0.3-0.9V143c0-0.4,0.1-0.7,0.3-0.9c0.2-0.2,0.5-0.3,0.9-0.3h2.5c0.7,0,1.3,0.1,1.7,0.2c0.4,0.1,0.7,0.3,1,0.5
			c0.3,0.3,0.5,0.6,0.7,0.9c0.1,0.4,0.2,0.8,0.2,1.2c0,1-0.3,1.7-0.9,2.2S79.4,147.6,78.2,147.6z M77.7,143.2h-1.3v2.9h1.3
			c0.5,0,0.8,0,1.1-0.1c0.3-0.1,0.5-0.3,0.7-0.5c0.2-0.2,0.2-0.5,0.2-0.9c0-0.4-0.1-0.8-0.4-1C79.2,143.4,78.6,143.2,77.7,143.2z"/>
		<path class="st4" d="M86.6,149.9l-1.5-6.1v6.6c0,0.4-0.1,0.6-0.2,0.8s-0.4,0.3-0.7,0.3c-0.3,0-0.5-0.1-0.6-0.3
			c-0.2-0.2-0.2-0.5-0.2-0.8v-7.6c0-0.4,0.1-0.7,0.3-0.8c0.2-0.1,0.5-0.2,0.9-0.2h0.6c0.4,0,0.6,0,0.8,0.1c0.2,0.1,0.3,0.2,0.4,0.4
			c0.1,0.2,0.2,0.4,0.3,0.8l1.4,5.3l1.4-5.3c0.1-0.4,0.2-0.7,0.3-0.8c0.1-0.2,0.2-0.3,0.4-0.4s0.4-0.1,0.8-0.1h0.6
			c0.4,0,0.7,0.1,0.9,0.2c0.2,0.1,0.3,0.4,0.3,0.8v7.6c0,0.4-0.1,0.6-0.2,0.8c-0.2,0.2-0.4,0.3-0.7,0.3c-0.3,0-0.5-0.1-0.6-0.3
			s-0.2-0.5-0.2-0.8v-6.6l-1.5,6.1c-0.1,0.4-0.2,0.7-0.2,0.9c-0.1,0.2-0.2,0.4-0.4,0.5s-0.4,0.2-0.7,0.2c-0.2,0-0.4,0-0.6-0.1
			c-0.2-0.1-0.3-0.2-0.4-0.4c-0.1-0.2-0.2-0.3-0.2-0.5C86.7,150.3,86.7,150.1,86.6,149.9z"/>
		<path class="st4" d="M105.5,148.1H103c-0.4,0-0.7-0.1-0.9-0.3s-0.3-0.4-0.3-0.7c0-0.3,0.1-0.5,0.3-0.7c0.2-0.2,0.5-0.3,0.9-0.3
			h2.5c0.4,0,0.7,0.1,0.9,0.3c0.2,0.2,0.3,0.4,0.3,0.7c0,0.3-0.1,0.5-0.3,0.7S105.9,148.1,105.5,148.1z"/>
		<path class="st4" d="M113.9,145.1c0.4-0.4,0.7-0.7,1.2-0.9c0.4-0.2,0.9-0.3,1.4-0.3c0.5,0,1,0.1,1.4,0.3s0.8,0.5,1.1,0.8
			c0.3,0.3,0.6,0.8,0.7,1.2c0.2,0.5,0.3,1,0.3,1.5c0,0.7-0.2,1.4-0.5,2c-0.3,0.6-0.8,1.1-1.4,1.4c-0.6,0.3-1.3,0.5-2.1,0.5
			c-0.9,0-1.6-0.2-2.3-0.6c-0.6-0.4-1.1-1.1-1.5-1.9c-0.3-0.8-0.5-1.9-0.5-3.1c0-1,0.1-1.9,0.3-2.7c0.2-0.8,0.5-1.4,0.9-1.9
			c0.4-0.5,0.8-0.9,1.4-1.2c0.5-0.3,1.2-0.4,1.9-0.4c0.7,0,1.3,0.1,1.8,0.4c0.5,0.3,0.9,0.6,1.2,1c0.3,0.4,0.4,0.8,0.4,1.1
			c0,0.2-0.1,0.4-0.2,0.6c-0.2,0.2-0.4,0.3-0.6,0.3c-0.2,0-0.4-0.1-0.6-0.2c-0.2-0.1-0.3-0.3-0.4-0.6c-0.1-0.3-0.3-0.6-0.6-0.8
			c-0.3-0.2-0.6-0.3-0.9-0.3c-0.3,0-0.6,0.1-0.8,0.2c-0.3,0.2-0.5,0.4-0.7,0.7C114.2,142.7,114,143.7,113.9,145.1z M116.1,150
			c0.5,0,1-0.2,1.3-0.7s0.5-1,0.5-1.7c0-0.5-0.1-0.9-0.2-1.2c-0.2-0.3-0.4-0.6-0.7-0.8c-0.3-0.2-0.6-0.3-0.9-0.3
			c-0.3,0-0.6,0.1-0.9,0.3c-0.3,0.2-0.5,0.4-0.7,0.8c-0.2,0.3-0.3,0.7-0.3,1.2c0,0.7,0.2,1.3,0.6,1.8C115,149.8,115.5,150,116.1,150
			z"/>
		<path class="st4" d="M129.4,147.6h-1.8v2.7c0,0.4-0.1,0.7-0.3,0.9c-0.2,0.2-0.4,0.3-0.7,0.3c-0.3,0-0.5-0.1-0.7-0.3
			c-0.2-0.2-0.3-0.5-0.3-0.9V143c0-0.4,0.1-0.7,0.3-0.9c0.2-0.2,0.5-0.3,0.9-0.3h2.5c0.7,0,1.3,0.1,1.7,0.2c0.4,0.1,0.7,0.3,1,0.5
			c0.3,0.3,0.5,0.6,0.7,0.9c0.1,0.4,0.2,0.8,0.2,1.2c0,1-0.3,1.7-0.9,2.2C131.5,147.4,130.6,147.6,129.4,147.6z M128.9,143.2h-1.3
			v2.9h1.3c0.5,0,0.8,0,1.1-0.1c0.3-0.1,0.5-0.3,0.7-0.5c0.2-0.2,0.2-0.5,0.2-0.9c0-0.4-0.1-0.8-0.4-1
			C130.4,143.4,129.8,143.2,128.9,143.2z"/>
		<path class="st4" d="M137.9,149.9l-1.5-6.1v6.6c0,0.4-0.1,0.6-0.2,0.8c-0.2,0.2-0.4,0.3-0.7,0.3c-0.3,0-0.5-0.1-0.6-0.3
			c-0.2-0.2-0.2-0.5-0.2-0.8v-7.6c0-0.4,0.1-0.7,0.3-0.8c0.2-0.1,0.5-0.2,0.9-0.2h0.6c0.4,0,0.6,0,0.8,0.1c0.2,0.1,0.3,0.2,0.4,0.4
			c0.1,0.2,0.2,0.4,0.3,0.8l1.4,5.3l1.4-5.3c0.1-0.4,0.2-0.7,0.3-0.8c0.1-0.2,0.2-0.3,0.4-0.4s0.4-0.1,0.8-0.1h0.6
			c0.4,0,0.7,0.1,0.9,0.2c0.2,0.1,0.3,0.4,0.3,0.8v7.6c0,0.4-0.1,0.6-0.2,0.8c-0.2,0.2-0.4,0.3-0.7,0.3c-0.3,0-0.5-0.1-0.6-0.3
			c-0.2-0.2-0.2-0.5-0.2-0.8v-6.6l-1.5,6.1c-0.1,0.4-0.2,0.7-0.2,0.9c-0.1,0.2-0.2,0.4-0.4,0.5s-0.4,0.2-0.7,0.2
			c-0.2,0-0.4,0-0.6-0.1c-0.2-0.1-0.3-0.2-0.4-0.4c-0.1-0.2-0.2-0.3-0.2-0.5C138,150.3,137.9,150.1,137.9,149.9z"/>
	</g>
	<g>
		<rect x="44.8" y="173.3" class="st3" width="109.2" height="21.5"/>
		<path class="st4" d="M71.1,183.3l-1.9-7.4v8c0,0.4-0.1,0.8-0.3,1s-0.5,0.3-0.8,0.3c-0.3,0-0.6-0.1-0.8-0.3c-0.2-0.2-0.3-0.6-0.3-1
			v-9.1c0-0.5,0.1-0.8,0.4-1s0.6-0.3,1.1-0.3h0.7c0.4,0,0.8,0,0.9,0.1c0.2,0.1,0.3,0.2,0.4,0.4c0.1,0.2,0.2,0.5,0.3,1l1.7,6.3
			l1.7-6.3c0.1-0.5,0.2-0.8,0.3-1c0.1-0.2,0.2-0.3,0.4-0.4c0.2-0.1,0.5-0.1,1-0.1h0.7c0.4,0,0.8,0.1,1.1,0.3s0.4,0.5,0.4,1v9.1
			c0,0.4-0.1,0.8-0.3,1s-0.5,0.3-0.8,0.3c-0.3,0-0.6-0.1-0.8-0.3c-0.2-0.2-0.3-0.6-0.3-1v-8l-1.9,7.4c-0.1,0.5-0.2,0.8-0.3,1.1
			c-0.1,0.2-0.2,0.4-0.4,0.6c-0.2,0.2-0.5,0.3-0.9,0.3c-0.3,0-0.5-0.1-0.7-0.2c-0.2-0.1-0.3-0.3-0.4-0.5s-0.2-0.4-0.2-0.6
			C71.2,183.8,71.1,183.5,71.1,183.3z"/>
		<path class="st4" d="M88.5,180.9c0,0.6-0.1,1.2-0.3,1.8s-0.5,1-0.9,1.4s-0.8,0.7-1.4,0.9c-0.5,0.2-1.1,0.3-1.8,0.3
			c-0.7,0-1.2-0.1-1.8-0.3c-0.5-0.2-1-0.5-1.4-0.9s-0.7-0.9-0.9-1.4c-0.2-0.5-0.3-1.1-0.3-1.8c0-0.7,0.1-1.2,0.3-1.8
			c0.2-0.5,0.5-1,0.9-1.4s0.8-0.7,1.4-0.9s1.1-0.3,1.8-0.3c0.7,0,1.2,0.1,1.8,0.3s1,0.5,1.4,0.9s0.7,0.9,0.9,1.4
			C88.4,179.6,88.5,180.2,88.5,180.9z M86.4,180.9c0-0.9-0.2-1.6-0.6-2c-0.4-0.5-0.9-0.7-1.6-0.7c-0.4,0-0.8,0.1-1.1,0.3
			c-0.3,0.2-0.6,0.5-0.7,1s-0.3,0.9-0.3,1.5c0,0.6,0.1,1.1,0.3,1.5c0.2,0.4,0.4,0.7,0.7,1s0.7,0.3,1.1,0.3c0.7,0,1.2-0.2,1.6-0.7
			C86.2,182.4,86.4,181.7,86.4,180.9z"/>
		<path class="st4" d="M92.2,177.7v0.3c0.4-0.5,0.8-0.9,1.2-1.1c0.4-0.2,1-0.4,1.5-0.4c0.6,0,1.1,0.1,1.5,0.4c0.4,0.2,0.8,0.6,1,1
			c0.1,0.3,0.2,0.5,0.3,0.9s0.1,0.7,0.1,1.2v4c0,0.4-0.1,0.8-0.3,1c-0.2,0.2-0.5,0.3-0.8,0.3c-0.3,0-0.6-0.1-0.8-0.3
			c-0.2-0.2-0.3-0.5-0.3-1v-3.6c0-0.7-0.1-1.3-0.3-1.6c-0.2-0.4-0.6-0.6-1.2-0.6c-0.4,0-0.7,0.1-1,0.3s-0.5,0.5-0.7,0.9
			c-0.1,0.3-0.2,0.9-0.2,1.8v2.7c0,0.4-0.1,0.8-0.3,1c-0.2,0.2-0.5,0.3-0.8,0.3c-0.3,0-0.6-0.1-0.8-0.3c-0.2-0.2-0.3-0.5-0.3-1v-6.2
			c0-0.4,0.1-0.7,0.3-0.9s0.4-0.3,0.7-0.3c0.2,0,0.4,0,0.5,0.1c0.2,0.1,0.3,0.2,0.4,0.4C92.1,177.2,92.2,177.4,92.2,177.7z"/>
		<path class="st4" d="M106.8,181.8h-2.5c-0.4,0-0.7-0.1-0.9-0.3c-0.2-0.2-0.3-0.4-0.3-0.7c0-0.3,0.1-0.5,0.3-0.7
			c0.2-0.2,0.5-0.3,0.9-0.3h2.5c0.4,0,0.7,0.1,0.9,0.3c0.2,0.2,0.3,0.4,0.3,0.7c0,0.3-0.1,0.5-0.3,0.7S107.2,181.8,106.8,181.8z"/>
		<path class="st4" d="M120.5,175.3h-4.6v3h3.9c0.4,0,0.6,0.1,0.8,0.2c0.2,0.2,0.3,0.4,0.3,0.6c0,0.3-0.1,0.5-0.3,0.6
			c-0.2,0.2-0.4,0.2-0.8,0.2h-3.9v3.8c0,0.5-0.1,0.8-0.3,1.1c-0.2,0.2-0.5,0.4-0.8,0.4c-0.3,0-0.6-0.1-0.8-0.4
			c-0.2-0.2-0.3-0.6-0.3-1.1v-8.9c0-0.3,0-0.6,0.1-0.8c0.1-0.2,0.3-0.4,0.5-0.5s0.5-0.1,0.8-0.1h5.5c0.4,0,0.7,0.1,0.8,0.2
			c0.2,0.2,0.3,0.4,0.3,0.7c0,0.3-0.1,0.5-0.3,0.7C121.1,175.2,120.8,175.3,120.5,175.3z"/>
		<path class="st4" d="M124.7,182.1v1.8c0,0.4-0.1,0.8-0.3,1s-0.5,0.3-0.8,0.3c-0.3,0-0.6-0.1-0.8-0.3c-0.2-0.2-0.3-0.5-0.3-1v-6
			c0-1,0.3-1.5,1-1.5c0.4,0,0.6,0.1,0.8,0.3c0.2,0.2,0.2,0.6,0.3,1c0.3-0.4,0.5-0.8,0.8-1c0.3-0.2,0.6-0.3,1.1-0.3s0.9,0.1,1.3,0.3
			c0.4,0.2,0.6,0.5,0.6,0.9c0,0.3-0.1,0.5-0.3,0.7c-0.2,0.2-0.4,0.3-0.6,0.3c-0.1,0-0.3,0-0.6-0.1c-0.3-0.1-0.6-0.1-0.8-0.1
			c-0.3,0-0.6,0.1-0.8,0.2c-0.2,0.2-0.4,0.4-0.5,0.7s-0.2,0.7-0.2,1.2C124.7,180.9,124.7,181.5,124.7,182.1z"/>
		<path class="st4" d="M130.7,175.5c-0.3,0-0.6-0.1-0.8-0.3c-0.2-0.2-0.3-0.4-0.3-0.8c0-0.3,0.1-0.6,0.3-0.8
			c0.2-0.2,0.5-0.3,0.8-0.3c0.3,0,0.5,0.1,0.7,0.3c0.2,0.2,0.3,0.4,0.3,0.8c0,0.3-0.1,0.6-0.3,0.8S131,175.5,130.7,175.5z
			 M131.8,177.7v6.2c0,0.4-0.1,0.8-0.3,1s-0.5,0.3-0.8,0.3s-0.6-0.1-0.8-0.3c-0.2-0.2-0.3-0.5-0.3-1v-6.2c0-0.4,0.1-0.7,0.3-1
			s0.5-0.3,0.8-0.3s0.6,0.1,0.8,0.3S131.8,177.3,131.8,177.7z"/>
	</g>
</g>
</svg>
