<?xml version="1.0" encoding="utf-8"?>
<!-- Generator: Adobe Illustrator 21.1.0, SVG Export Plug-In . SVG Version: 6.00 Build 0)  -->
<svg version="1.1" id="Layer_1" xmlns="http://www.w3.org/2000/svg" xmlns:xlink="http://www.w3.org/1999/xlink" x="0px" y="0px"
	 viewBox="0 0 203 202" style="enable-background:new 0 0 203 202;" xml:space="preserve">
<style type="text/css">
	.st0{fill:#FFFFFF;stroke:#000000;stroke-width:0.2994;}
	.st1{fill:#CA2027;}
</style>
<g>
	<path class="st0" d="M200.2,185c0,8.1-6.5,14.6-14.6,14.6H18c-8.1,0-14.6-6.5-14.6-14.6V17.3C3.4,9.3,9.9,2.8,18,2.8h167.6
		c8.1,0,14.6,6.5,14.6,14.6V185z"/>
	<path d="M184.3,7.6H19.2c-6,0-10.9,4.9-10.9,11v165.2c0,6,4.9,11,10.9,11h165.2c6.1,0,11-4.9,11-11V18.6
		C195.3,12.5,190.4,7.6,184.3,7.6z M190.9,183c0,4-3.3,7.3-7.3,7.3H19.9c-4,0-7.3-3.3-7.3-7.3V19.3c0-4,3.3-7.3,7.3-7.3h163.7
		c4,0,7.3,3.3,7.3,7.3V183z"/>
	<g>
		<path d="M71.1,50.9h36.4c8,0,14.2,2.4,18.4,7.1c4.3,4.7,6.5,10.7,6.5,18.1c0,8-2.4,14.4-7.1,19.2c-4.7,4.8-10.8,7.2-18.4,7.2H87.8
			v29H71.1V50.9z M87.8,65v23.4h15.4c8.2,0,12.3-4,12.3-12c0-4.3-1.2-7.3-3.6-8.9c-2.4-1.6-6.1-2.4-11-2.4H87.8z"/>
	</g>
	<path class="st1" d="M101.8,26c-36,0-65.1,29.2-65.1,65.1c0,36,29.2,65.2,65.1,65.2c36,0,65.2-29.2,65.2-65.2
		C166.9,55.2,137.7,26,101.8,26z M155.9,91.2c0,12.8-4.5,24.6-12,33.9L67.8,49c9.3-7.5,21.1-12,33.9-12
		C131.6,37,155.9,61.3,155.9,91.2z M47.6,91.2c0-13,4.6-24.8,12.2-34.2l76.2,76.2c-9.3,7.6-21.2,12.2-34.2,12.2
		C71.9,145.3,47.6,121,47.6,91.2z"/>
	<g>
		<g>
			<polygon points="160.4,179.5 160.7,186.8 179.2,174.9 160.5,162.5 160.5,170 160.5,170.2 154.4,170.2 154.4,179.5 			"/>
		</g>
		<g>
			<polygon points="40.1,169.8 39.8,162.5 21.4,174.3 40,186.8 40,179.2 40,179.1 46.1,179.1 46.1,169.8 			"/>
		</g>
	</g>
</g>
</svg>
