<?xml version="1.0" encoding="utf-8"?>
<!-- Generator: Adobe Illustrator 21.1.0, SVG Export Plug-In . SVG Version: 6.00 Build 0)  -->
<svg version="1.1" id="Layer_1" xmlns="http://www.w3.org/2000/svg" xmlns:xlink="http://www.w3.org/1999/xlink" x="0px" y="0px"
	 viewBox="0 0 203 202" style="enable-background:new 0 0 203 202;" xml:space="preserve">
<style type="text/css">
	.st0{fill:#FFFFFF;stroke:#000000;stroke-width:0.2994;}
	.st1{fill:none;stroke:#231F20;stroke-width:0.5;stroke-miterlimit:10;}
	.st2{fill:#CA2027;}
</style>
<g>
	<path class="st0" d="M198.1,184.2c0,7.9-6.4,14.3-14.3,14.3H19.3c-7.9,0-14.3-6.4-14.3-14.3V19.7c0-7.9,6.4-14.3,14.3-14.3h164.4
		c7.9,0,14.3,6.4,14.3,14.3V184.2z"/>
	<path d="M182.6,10.2h-162c-5.9,0-10.7,4.8-10.7,10.7v162c0,5.9,4.8,10.7,10.7,10.7h162c5.9,0,10.7-4.8,10.7-10.7v-162
		C193.3,15,188.5,10.2,182.6,10.2z M189,182.2c0,4-3.2,7.2-7.2,7.2H21.3c-4,0-7.2-3.2-7.2-7.2V21.7c0-4,3.2-7.2,7.2-7.2h160.6
		c4,0,7.2,3.2,7.2,7.2V182.2z"/>
	<path d="M95.5,113.1V98.6c0-2.1-1.7-3.9-3.7-3.9h-1.4c-0.5-1.4-3.7-9.6-3.8-9.8c-0.4-1-0.8-1.9-1.7-2.8c-1.2-1-2.4-1-3.4-1H60.7
		c-1.1,0-2.3,0-3.4,1c-1,0.8-1.3,1.8-1.7,2.8c-0.1,0.2-3.2,8.4-3.8,9.8h-0.6c-2.1,0-3.7,1.7-3.7,3.9v14.5h3.7v4.9c0,0.1,0,0.1,0,0.2
		c0,0.5,0.4,1,1,1h5.1c0.5,0,1-0.4,1-1c0-0.1,0-0.3-0.1-0.4v-4.7h26.3l0,5.7h0c0,0.5,0.5,0.9,1,0.9h5.1c0.5,0,1-0.4,1-1
		c0-0.1,0-0.3-0.1-0.4l0-5.2H95.5z M71.1,94.7v-0.5c0-1.1-0.9-2.1-2.1-2.1h-8.3c-1.1,0-2.1,0.9-2.1,2.1v0.5h-3.7
		c0.9-2.3,3.3-8.5,3.3-8.7c0.4-0.9,0.5-1.3,1-1.7c0.3-0.3,0.5-0.3,1.5-0.3h0.4h20.4c1,0,1.2,0,1.5,0.3c0.4,0.4,0.6,0.8,1,1.7
		c0.1,0.2,2.5,6.4,3.3,8.7H71.1z"/>
	<circle cx="64.3" cy="89.1" r="2.4"/>
	<path d="M159,113.5V98.9c0-2.1-1.7-3.9-3.7-3.9h-1.4c-0.5-1.4-3.7-9.6-3.8-9.8c-0.4-1-0.8-1.9-1.7-2.8c-1.2-1-2.4-1-3.4-1h-20.7
		c-1.1,0-2.3,0-3.4,1c-1,0.8-1.3,1.8-1.7,2.8c-0.1,0.2-3.2,8.4-3.8,9.8h-0.6c-2.1,0-3.7,1.7-3.7,3.9v14.5h3.7v4.9c0,0.1,0,0.1,0,0.2
		c0,0.5,0.4,1,1,1h5.1c0.5,0,1-0.4,1-1c0-0.1,0-0.3-0.1-0.4v-4.7h26.3l0,5.7h0c0,0.5,0.5,0.9,1,0.9h5.1c0.5,0,1-0.4,1-1
		c0-0.1,0-0.3-0.1-0.4l0-5.2H159z M134.5,95.1v-0.5c0-1.1-0.9-2.1-2.1-2.1h-8.3c-1.1,0-2.1,0.9-2.1,2.1v0.5h-3.7
		c0.9-2.3,3.3-8.5,3.3-8.7c0.4-0.9,0.5-1.3,1-1.7c0.3-0.3,0.5-0.3,1.5-0.3h0.4h20.4c1,0,1.2,0,1.5,0.3c0.4,0.4,0.6,0.8,1,1.7
		c0.1,0.2,2.5,6.4,3.3,8.7H134.5z"/>
	<circle cx="127.7" cy="89.4" r="2.4"/>
	<line class="st1" x1="62.3" y1="122.1" x2="141.4" y2="122.1"/>
	<path class="st2" d="M101.3,22.7C58,22.7,22.9,57.7,22.9,101c0,43.3,35.1,78.4,78.3,78.4c43.3,0,78.3-35.1,78.3-78.4
		C179.6,57.7,144.6,22.7,101.3,22.7z M166.4,101c0,15.4-5.4,29.6-14.4,40.8L60.5,50.3c11.2-9,25.4-14.4,40.8-14.4
		C137.2,35.9,166.4,65.1,166.4,101z M36.1,101c0-15.6,5.5-29.9,14.7-41.1l91.6,91.6c-11.2,9.2-25.5,14.7-41.1,14.7
		C65.4,166.2,36.1,136.9,36.1,101z"/>
</g>
</svg>
