<?xml version="1.0" encoding="utf-8"?>
<!-- Generator: Adobe Illustrator 21.1.0, SVG Export Plug-In . SVG Version: 6.00 Build 0)  -->
<svg version="1.1" id="Layer_1" xmlns="http://www.w3.org/2000/svg" xmlns:xlink="http://www.w3.org/1999/xlink" x="0px" y="0px"
	 viewBox="0 0 203 202" style="enable-background:new 0 0 203 202;" xml:space="preserve">
<style type="text/css">
	.st0{fill:#FFFFFF;stroke:#000000;stroke-width:0.25;}
	.st1{fill:#FFFFFF;stroke:#000000;}
	.st2{fill:#CA2027;}
	.st3{fill:#231F20;}
	.st4{fill:#FFFFFF;}
</style>
<g>
	<g>
		<g>
			<path class="st0" d="M169,195.7c0,2.5-2.1,4.6-4.6,4.6H35.9c-2.5,0-4.6-2.1-4.6-4.6V7.3c0-2.5,2.1-4.6,4.6-4.6h128.4
				c2.5,0,4.6,2.1,4.6,4.6V195.7z"/>
			<path class="st1" d="M165.2,191.9c0,2.5-2.1,4.6-4.6,4.6H39.7c-2.5,0-4.6-2.1-4.6-4.6V10.6c0-2.6,2.1-4.6,4.6-4.6h120.9
				c2.5,0,4.6,2.1,4.6,4.6V191.9z"/>
		</g>
		<path d="M93.2,32.3h15.9l0-0.1l-1-4.1c0,0-0.3-1,0.5-1.8c0.8-0.8,1.8-0.2,1.8-0.2l15.1,10.4l-15,10.4c0,0-1.1,0.6-1.8-0.2
			c-0.8-0.8-0.5-1.8-0.5-1.8l1-4v-0.1H97.7c-1.1,0-1.9,0.9-1.9,1.9v19.6l-8.3,0V38.1C87.5,34.9,90,32.3,93.2,32.3z"/>
		<path class="st2" d="M102.2,12.7c-17.1,0-31,13.9-31,31c0,17.1,13.9,31,31,31c17.1,0,31-13.9,31-31
			C133.2,26.5,119.3,12.7,102.2,12.7z M127.9,43.6c0,6.1-2.1,11.7-5.7,16.1L86,23.6c4.4-3.6,10-5.7,16.1-5.7
			C116.4,17.9,127.9,29.4,127.9,43.6z M76.4,43.6c0-6.2,2.2-11.8,5.8-16.3l36.2,36.2c-4.4,3.6-10.1,5.8-16.3,5.8
			C88,69.4,76.4,57.8,76.4,43.6z"/>
		<rect x="81.4" y="82.4" class="st3" width="37" height="106.9"/>
		<circle class="st2" cx="99.9" cy="105.2" r="11.3"/>
		<ellipse class="st4" cx="99.9" cy="135.3" rx="11.3" ry="11.3"/>
	</g>
	<circle class="st4" cx="99.6" cy="169.5" r="11.3"/>
</g>
</svg>
