<?xml version="1.0" encoding="utf-8"?>
<!-- Generator: Adobe Illustrator 21.1.0, SVG Export Plug-In . SVG Version: 6.00 Build 0)  -->
<svg version="1.1" id="Layer_1" xmlns="http://www.w3.org/2000/svg" xmlns:xlink="http://www.w3.org/1999/xlink" x="0px" y="0px"
	 viewBox="0 0 203 202" style="enable-background:new 0 0 203 202;" xml:space="preserve">
<style type="text/css">
	.st0{fill:#FFFFFF;stroke:#000000;stroke-width:0.2994;}
	.st1{fill:#CA2027;}
</style>
<g>
	<g>
		<path class="st0" d="M200.7,185.6c0,8.2-6.6,14.8-14.8,14.8H16.1c-8.2,0-14.8-6.6-14.8-14.8V15.8C1.4,7.7,8,1,16.1,1h169.7
			c8.2,0,14.8,6.6,14.8,14.8V185.6z"/>
		<path d="M184.3,6H17.1C10.9,6,6,10.9,6,17.1v167.3c0,6.1,5,11.1,11.1,11.1h167.3c6.1,0,11.1-5,11.1-11.1V17.1
			C195.4,10.9,190.5,6,184.3,6z M191,183.6c0,4.1-3.3,7.4-7.4,7.4H17.8c-4.1,0-7.4-3.3-7.4-7.4V17.8c0-4.1,3.3-7.4,7.4-7.4h165.7
			c4.1,0,7.4,3.3,7.4,7.4V183.6z"/>
	</g>
	<polygon points="120.3,48.9 81.8,48.9 54.5,76.1 54.5,114.6 81.8,141.9 120.3,141.9 147.5,114.6 147.5,76.1 	"/>
	<path class="st1" d="M101,26.9c-37.8,0-68.5,30.7-68.5,68.5c0,37.8,30.7,68.5,68.5,68.5c37.8,0,68.5-30.7,68.5-68.5
		C169.5,57.6,138.8,26.9,101,26.9z M157.9,95.4c0,13.5-4.7,25.9-12.6,35.7l-80-80c9.8-7.9,22.2-12.6,35.7-12.6
		C132.4,38.5,157.9,64,157.9,95.4z M44.1,95.4c0-13.6,4.8-26.1,12.8-35.9l80,80c-9.8,8-22.3,12.8-35.9,12.8
		C69.6,152.3,44.1,126.8,44.1,95.4z"/>
	<g>
		<polygon points="158.2,177.7 158.5,185.1 177.2,173.1 158.2,160.5 158.2,168.1 158.2,168.2 152.1,168.2 152.1,177.7 		"/>
	</g>
	<g>
		<polygon points="36.2,167.8 35.9,160.5 17.3,172.5 36.2,185.1 36.2,177.4 36.2,177.3 42.3,177.3 42.3,167.8 		"/>
	</g>
</g>
</svg>
