<?xml version="1.0" encoding="utf-8"?>
<!-- Generator: Adobe Illustrator 21.1.0, SVG Export Plug-In . SVG Version: 6.00 Build 0)  -->
<svg version="1.1" id="Layer_1" xmlns="http://www.w3.org/2000/svg" xmlns:xlink="http://www.w3.org/1999/xlink" x="0px" y="0px"
	 viewBox="0 0 203 202" style="enable-background:new 0 0 203 202;" xml:space="preserve">
<style type="text/css">
	.st0{fill:#CA2027;}
	.st1{fill:#FFFFFF;stroke:#000000;stroke-width:0.2994;}
	.st2{fill:none;}
</style>
<g>
	<path class="st0" d="M126.3,101.3"/>
	<g>
		<path class="st1" d="M198.1,183.6c0,7.9-6.4,14.4-14.4,14.4H19c-7.9,0-14.4-6.4-14.4-14.4V18.9C4.7,11,11.1,4.5,19,4.5h164.8
			c7.9,0,14.4,6.4,14.4,14.3V183.6z"/>
		<path d="M182.3,9.3H19.9C14,9.3,9.2,14.1,9.2,20.1v162.4c0,5.9,4.8,10.8,10.8,10.8h162.4c5.9,0,10.8-4.8,10.8-10.8V20.1
			C193.1,14.1,188.2,9.3,182.3,9.3z M188.7,181.7c0,4-3.2,7.2-7.2,7.2H20.7c-4,0-7.2-3.2-7.2-7.2V20.8c0-4,3.2-7.2,7.2-7.2h160.9
			c4,0,7.2,3.2,7.2,7.2V181.7z"/>
	</g>
	<g>
		<g>
			<polygon points="156.9,176 157.2,183.2 175.3,171.5 157,159.3 157,166.7 157,166.8 151,166.8 151,176 			"/>
		</g>
		<g>
			<polygon points="38.5,166.4 38.3,159.3 20.1,170.9 38.5,183.2 38.5,175.8 38.5,175.6 44.4,175.6 44.4,166.4 			"/>
		</g>
	</g>
	<g>
		<rect x="16.8" y="54.9" class="st2" width="168.6" height="128.2"/>
		<path class="st0" d="M85.7,53.3l8.4,15.6V53.2c0-1,0.2-1.8,0.5-2.3c0.4-0.5,0.8-0.8,1.5-0.8c0.6,0,1.1,0.3,1.5,0.8
			c0.4,0.5,0.5,1.3,0.5,2.3V74c0,2.3-0.8,3.5-2.4,3.5c-0.4,0-0.7-0.1-1.1-0.2c-0.3-0.1-0.6-0.4-0.9-0.7c-0.3-0.3-0.5-0.7-0.8-1.1
			c-0.2-0.4-0.5-0.8-0.7-1.2l-8.2-15.4v15.5c0,1-0.2,1.8-0.6,2.3c-0.4,0.5-0.9,0.8-1.5,0.8c-0.6,0-1.1-0.3-1.5-0.8
			c-0.4-0.5-0.6-1.3-0.6-2.3V54c0-0.9,0.1-1.5,0.2-2c0.2-0.5,0.5-1,0.9-1.3c0.4-0.3,0.9-0.5,1.4-0.5c0.4,0,0.7,0.1,1,0.2
			c0.3,0.2,0.5,0.4,0.7,0.6c0.2,0.3,0.4,0.6,0.7,1C85.2,52.4,85.5,52.8,85.7,53.3z"/>
		<path class="st0" d="M112.5,50.1c2.2,0,4.2,0.6,5.8,1.7c1.6,1.1,2.8,2.7,3.7,4.7c0.8,2.1,1.2,4.5,1.2,7.2c0,2-0.2,3.9-0.7,5.6
			c-0.5,1.7-1.1,3.1-2,4.3c-0.9,1.2-2,2.2-3.3,2.8c-1.3,0.6-2.8,1-4.5,1c-1.7,0-3.2-0.3-4.6-1c-1.3-0.7-2.5-1.6-3.4-2.8
			c-0.9-1.2-1.6-2.7-2-4.4c-0.5-1.7-0.7-3.6-0.7-5.5c0-2,0.2-3.9,0.7-5.6c0.5-1.7,1.2-3.1,2.1-4.3s2-2.1,3.3-2.7
			C109.4,50.4,110.9,50.1,112.5,50.1z M118.8,63.7c0-1.9-0.3-3.6-0.8-5c-0.5-1.4-1.2-2.5-2.2-3.2c-1-0.7-2-1.1-3.3-1.1
			c-0.9,0-1.7,0.2-2.4,0.6s-1.4,1-1.9,1.8c-0.5,0.8-1,1.8-1.3,2.9c-0.3,1.2-0.5,2.5-0.5,4c0,1.5,0.2,2.9,0.5,4.1
			c0.3,1.2,0.7,2.2,1.3,3c0.6,0.8,1.2,1.4,2,1.8c0.7,0.4,1.5,0.6,2.4,0.6c1.1,0,2.2-0.3,3.1-1c0.9-0.7,1.7-1.7,2.2-3.2
			C118.5,67.5,118.8,65.8,118.8,63.7z"/>
		<path class="st0" d="M39.5,118.6c0,1.6-0.3,3-1,4.3c-0.7,1.3-1.7,2.3-3,3c-1.3,0.7-2.8,1.1-4.6,1.1c-2.1,0-3.9-0.5-5.3-1.5
			c-1-0.7-1.8-1.7-2.4-2.8c-0.6-1.2-0.9-2.3-0.9-3.5c0-0.6,0.2-1.2,0.6-1.7s0.8-0.7,1.4-0.7c0.5,0,0.9,0.2,1.2,0.5
			c0.3,0.4,0.6,0.9,0.8,1.6c0.3,0.8,0.6,1.5,0.9,2.1c0.3,0.6,0.8,1,1.4,1.4c0.6,0.4,1.3,0.5,2.3,0.5c1.3,0,2.4-0.4,3.2-1.1
			c0.8-0.7,1.2-1.7,1.2-2.8c0-0.9-0.2-1.6-0.7-2.1c-0.4-0.5-1-1-1.7-1.3c-0.7-0.3-1.6-0.6-2.8-0.9c-1.6-0.4-2.9-1-3.9-1.6
			c-1-0.6-1.9-1.4-2.5-2.4c-0.6-1-0.9-2.3-0.9-3.8c0-1.5,0.3-2.7,1-3.9c0.7-1.1,1.6-2,2.8-2.6c1.2-0.6,2.7-0.9,4.3-0.9
			c1.3,0,2.5,0.2,3.5,0.6c1,0.4,1.8,0.9,2.4,1.6c0.6,0.7,1.1,1.4,1.4,2.1c0.3,0.7,0.4,1.4,0.4,2.1c0,0.6-0.2,1.2-0.6,1.7
			c-0.4,0.5-0.8,0.8-1.4,0.8c-0.5,0-0.9-0.2-1.1-0.5s-0.5-0.8-0.9-1.5c-0.4-1-0.9-1.8-1.4-2.3c-0.6-0.6-1.4-0.8-2.7-0.8
			c-1.1,0-2,0.3-2.7,0.9c-0.7,0.6-1,1.3-1,2.2c0,0.5,0.1,1,0.4,1.4c0.2,0.4,0.6,0.7,1,1s0.8,0.5,1.3,0.6c0.4,0.2,1.1,0.4,2.1,0.7
			c1.2,0.3,2.3,0.7,3.3,1.2s1.8,0.9,2.5,1.5c0.7,0.6,1.2,1.4,1.6,2.3S39.5,117.3,39.5,118.6z"/>
		<path class="st0" d="M57.3,104.5h-4.8v19.2c0,1.1-0.2,1.9-0.6,2.5S51,127,50.3,127c-0.7,0-1.2-0.3-1.6-0.8
			c-0.4-0.5-0.6-1.4-0.6-2.5v-19.2h-4.8c-0.7,0-1.3-0.2-1.7-0.6c-0.4-0.4-0.5-0.9-0.5-1.6c0-0.7,0.2-1.2,0.6-1.6
			c0.4-0.4,0.9-0.6,1.6-0.6h14c0.8,0,1.3,0.2,1.7,0.6s0.6,0.9,0.6,1.6c0,0.7-0.2,1.2-0.6,1.6C58.6,104.3,58.1,104.5,57.3,104.5z"/>
		<path class="st0" d="M74.1,123.5l-1-3.3h-8.8l-1,3.4c-0.4,1.3-0.7,2.2-1,2.7c-0.3,0.5-0.8,0.7-1.4,0.7c-0.6,0-1-0.2-1.5-0.7
			c-0.4-0.5-0.6-1.1-0.6-1.7c0-0.4,0-0.7,0.1-1.1s0.3-0.9,0.5-1.6l5.5-17.2c0.2-0.5,0.3-1.1,0.6-1.8c0.2-0.7,0.5-1.3,0.7-1.7
			s0.6-0.8,1-1.1c0.4-0.3,0.9-0.4,1.5-0.4c0.6,0,1.1,0.1,1.5,0.4c0.4,0.3,0.7,0.6,1,1.1c0.3,0.4,0.5,0.9,0.6,1.4
			c0.2,0.5,0.4,1.2,0.7,2l5.7,17.1c0.4,1.3,0.7,2.2,0.7,2.8c0,0.6-0.2,1.2-0.6,1.7c-0.4,0.5-0.9,0.8-1.5,0.8c-0.3,0-0.6-0.1-0.9-0.2
			c-0.2-0.2-0.5-0.4-0.6-0.6c-0.2-0.3-0.3-0.7-0.5-1.2C74.4,124.4,74.3,123.9,74.1,123.5z M65.4,116.2h6.5l-3.3-10.9L65.4,116.2z"/>
		<path class="st0" d="M87.7,102.8l8.4,15.6v-15.7c0-1,0.2-1.8,0.5-2.3c0.4-0.5,0.8-0.8,1.5-0.8c0.6,0,1.1,0.3,1.5,0.8
			c0.4,0.5,0.5,1.3,0.5,2.3v20.8c0,2.3-0.8,3.5-2.4,3.5c-0.4,0-0.7-0.1-1.1-0.2c-0.3-0.1-0.6-0.4-0.9-0.7c-0.3-0.3-0.5-0.7-0.8-1.1
			c-0.2-0.4-0.5-0.8-0.7-1.2l-8.2-15.4v15.5c0,1-0.2,1.8-0.6,2.3c-0.4,0.5-0.9,0.8-1.5,0.8c-0.6,0-1.1-0.3-1.5-0.8
			c-0.4-0.5-0.6-1.3-0.6-2.3v-20.4c0-0.9,0.1-1.5,0.2-2c0.2-0.5,0.5-1,0.9-1.3c0.4-0.3,0.9-0.5,1.4-0.5c0.4,0,0.7,0.1,1,0.2
			c0.3,0.2,0.5,0.4,0.7,0.6c0.2,0.3,0.4,0.6,0.7,1C87.3,102,87.5,102.4,87.7,102.8z"/>
		<path class="st0" d="M107.8,100.1h5.7c1.5,0,2.8,0.2,3.8,0.5c1.1,0.3,2,1,2.9,1.9c2.3,2.4,3.4,5.9,3.4,10.8c0,1.6-0.1,3-0.3,4.3
			s-0.6,2.5-1,3.5c-0.5,1.1-1.1,2-1.8,2.8c-0.6,0.6-1.2,1.1-1.9,1.5c-0.7,0.4-1.4,0.7-2.2,0.8c-0.8,0.2-1.7,0.2-2.7,0.2h-5.7
			c-0.8,0-1.4-0.1-1.8-0.4c-0.4-0.3-0.7-0.7-0.8-1.2s-0.2-1.2-0.2-2.1v-19.4c0-1.2,0.2-2,0.6-2.5
			C106.1,100.3,106.8,100.1,107.8,100.1z M109.5,104.3v17.9h3.3c0.7,0,1.3,0,1.7-0.1c0.4,0,0.8-0.2,1.3-0.4c0.4-0.2,0.8-0.5,1.2-0.8
			c1.5-1.5,2.2-4.1,2.2-7.8c0-2.6-0.3-4.6-1-5.9s-1.4-2.1-2.4-2.5c-0.9-0.4-2.1-0.5-3.4-0.5H109.5z"/>
		<path class="st0" d="M127.6,123.7v-20.8c0-1.1,0.2-1.9,0.6-2.4c0.4-0.5,0.9-0.8,1.6-0.8c0.7,0,1.2,0.3,1.6,0.8
			c0.4,0.5,0.6,1.4,0.6,2.4v20.8c0,1.1-0.2,1.9-0.6,2.5c-0.4,0.5-0.9,0.8-1.6,0.8c-0.6,0-1.2-0.3-1.6-0.8
			C127.8,125.6,127.6,124.8,127.6,123.7z"/>
		<path class="st0" d="M142.6,102.8l8.4,15.6v-15.7c0-1,0.2-1.8,0.5-2.3c0.4-0.5,0.8-0.8,1.5-0.8c0.6,0,1.1,0.3,1.5,0.8
			c0.4,0.5,0.5,1.3,0.5,2.3v20.8c0,2.3-0.8,3.5-2.4,3.5c-0.4,0-0.8-0.1-1.1-0.2c-0.3-0.1-0.6-0.4-0.9-0.7c-0.3-0.3-0.5-0.7-0.8-1.1
			c-0.2-0.4-0.5-0.8-0.7-1.2l-8.2-15.4v15.5c0,1-0.2,1.8-0.6,2.3c-0.4,0.5-0.9,0.8-1.5,0.8c-0.6,0-1.1-0.3-1.5-0.8
			c-0.4-0.5-0.6-1.3-0.6-2.3v-20.4c0-0.9,0.1-1.5,0.2-2c0.2-0.5,0.5-1,0.9-1.3s0.9-0.5,1.4-0.5c0.4,0,0.7,0.1,1,0.2
			c0.3,0.2,0.5,0.4,0.7,0.6c0.2,0.3,0.4,0.6,0.7,1S142.4,102.4,142.6,102.8z"/>
		<path class="st0" d="M179.7,115.8v5.1c0,0.7-0.1,1.2-0.2,1.6c-0.1,0.4-0.3,0.8-0.6,1.1c-0.3,0.3-0.7,0.6-1.1,0.9
			c-1.3,0.9-2.6,1.5-3.8,1.9c-1.2,0.4-2.5,0.6-4,0.6c-1.7,0-3.2-0.3-4.6-0.9s-2.5-1.5-3.5-2.7s-1.7-2.6-2.2-4.3
			c-0.5-1.7-0.8-3.6-0.8-5.7c0-2.1,0.3-3.9,0.8-5.6c0.5-1.7,1.2-3.2,2.2-4.3s2.2-2.1,3.6-2.7c1.4-0.6,3-0.9,4.8-0.9
			c1.5,0,2.8,0.2,3.9,0.7c1.1,0.5,2,1.1,2.7,1.8c0.7,0.7,1.2,1.5,1.6,2.3c0.4,0.8,0.5,1.5,0.5,2.1c0,0.7-0.2,1.2-0.6,1.7
			c-0.4,0.5-0.9,0.7-1.5,0.7c-0.3,0-0.6-0.1-0.9-0.3c-0.3-0.2-0.5-0.4-0.7-0.8c-0.5-1-1-1.8-1.4-2.3c-0.4-0.5-0.9-1-1.5-1.3
			c-0.6-0.4-1.4-0.5-2.4-0.5c-1,0-1.9,0.2-2.7,0.6c-0.8,0.4-1.5,1-2,1.9c-0.6,0.8-1,1.8-1.3,3c-0.3,1.2-0.5,2.5-0.5,3.9
			c0,3.1,0.6,5.5,1.8,7.2c1.2,1.7,2.8,2.5,4.9,2.5c1,0,2-0.2,2.9-0.5c0.9-0.3,1.8-0.8,2.7-1.4v-4.3h-3.4c-0.8,0-1.4-0.2-1.9-0.5
			s-0.6-0.8-0.6-1.5c0-0.6,0.2-1.1,0.5-1.5s0.8-0.6,1.4-0.6h5c0.6,0,1.1,0.1,1.6,0.2c0.4,0.1,0.8,0.4,1,0.9
			C179.6,114.2,179.7,114.9,179.7,115.8z"/>
	</g>
</g>
</svg>
