<?xml version="1.0" encoding="utf-8"?>
<!-- Generator: Adobe Illustrator 21.1.0, SVG Export Plug-In . SVG Version: 6.00 Build 0)  -->
<svg version="1.1" id="Layer_1" xmlns="http://www.w3.org/2000/svg" xmlns:xlink="http://www.w3.org/1999/xlink" x="0px" y="0px"
	 viewBox="0 0 203 202" style="enable-background:new 0 0 203 202;" xml:space="preserve">
<style type="text/css">
	.st0{fill:#FFFFFF;stroke:#000000;stroke-width:0.2994;}
	.st1{fill:#CA2027;}
</style>
<g id="_x3C_NO_U-TURN_Sign_x3E_">
	<path class="st0" d="M199.6,184.8c0,8-6.5,14.5-14.5,14.5H18.5c-8,0-14.5-6.5-14.5-14.5V18.2c0-8,6.5-14.5,14.5-14.5h166.6
		c8,0,14.5,6.5,14.5,14.5V184.8z"/>
	<path d="M183.6,8.5H19.4c-6,0-10.9,4.9-10.9,10.9v164.2c0,6,4.9,10.9,10.9,10.9h164.2c6,0,10.9-4.9,10.9-10.9V19.4
		C194.5,13.4,189.6,8.5,183.6,8.5z M190.1,182.8c0,4-3.2,7.3-7.3,7.3H20.2c-4,0-7.3-3.3-7.3-7.3V20.1c0-4,3.3-7.3,7.3-7.3h162.7
		c4,0,7.3,3.3,7.3,7.3V182.8z"/>
	<path d="M103.1,44c-22.9,0-41.5,18.6-41.5,41.5v26.3l-0.7,0l-10.5-2.7c0,0-2.6-0.7-4.6,1.3c-2,2-0.5,4.7-0.5,4.7L71.8,154
		l26.6-38.6c0,0,1.5-2.7-0.6-4.7c-2-2-4.6-1.3-4.6-1.3L82.9,112h-0.3V85.5c0-11.3,9.2-20.5,20.5-20.5c11.3,0,20.5,9.2,20.5,20.5
		v68.6h21V85.5C144.6,62.6,126,44,103.1,44z"/>
	<path class="st1" d="M101.5,16c-47.2,0-85.4,38.3-85.4,85.4c0,47.2,38.2,85.4,85.4,85.4c47.2,0,85.4-38.3,85.4-85.4
		C187,54.3,148.7,16,101.5,16z M172.6,101.5c0,16.8-5.9,32.3-15.7,44.5L57,46.2c12.2-9.8,27.7-15.7,44.5-15.7
		C140.7,30.4,172.6,62.3,172.6,101.5z M30.5,101.5c0-17,6-32.6,16-44.8l99.9,99.9c-12.2,10-27.8,16-44.8,16
		C62.4,172.5,30.5,140.6,30.5,101.5z"/>
</g>
</svg>
