<?xml version="1.0" encoding="utf-8"?>
<!-- Generator: Adobe Illustrator 21.1.0, SVG Export Plug-In . SVG Version: 6.00 Build 0)  -->
<svg version="1.1" id="Layer_1" xmlns="http://www.w3.org/2000/svg" xmlns:xlink="http://www.w3.org/1999/xlink" x="0px" y="0px"
	 viewBox="0 0 203 202" style="enable-background:new 0 0 203 202;" xml:space="preserve">
<style type="text/css">
	.st0{fill:#FFFFFF;stroke:#000000;stroke-width:0.2807;}
	.st1{fill:#FFFFFF;}
</style>
<g id="_x3C_ONE_WAY_Sign_R_x3E_">
	<path class="st0" d="M5.3,69.9c0-3.6,2.9-6.5,6.5-6.5h179.7c3.6,0,6.5,2.9,6.5,6.5v54.3c0,3.6-2.9,6.5-6.5,6.5H11.8
		c-3.6,0-6.5-2.9-6.5-6.5V69.9z"/>
	<path d="M190.5,66.6c2.4,0,4.3,1.9,4.3,4.2v52.4c0,2.3-1.9,4.2-4.3,4.2H12.8c-2.4,0-4.3-1.9-4.3-4.2V70.8c0-2.3,1.9-4.2,4.3-4.2
		H190.5z"/>
	<path class="st1" d="M22.5,110.1l122.9,0l-2.2,6.9c0,0-0.6,2.4,1.2,4.3c1.9,1.9,4.4,0.5,4.4,0.5L185.1,97l-36-24.8
		c0,0-2.5-1.4-4.4,0.5c-1.9,1.9-1.2,4.3-1.2,4.3l2.2,6.8l-123,0V110.1z"/>
</g>
</svg>
