<?xml version="1.0" encoding="utf-8"?>
<!-- Generator: Adobe Illustrator 21.1.0, SVG Export Plug-In . SVG Version: 6.00 Build 0)  -->
<svg version="1.1" id="Layer_1" xmlns="http://www.w3.org/2000/svg" xmlns:xlink="http://www.w3.org/1999/xlink" x="0px" y="0px"
	 viewBox="0 0 203 202" style="enable-background:new 0 0 203 202;" xml:space="preserve">
<style type="text/css">
	.st0{fill:#FFFFFF;stroke:#000000;stroke-width:0.25;}
	.st1{fill:#FFFFFF;stroke:#000000;}
	.st2{fill:#058040;}
	.st3{fill:none;}
	.st4{fill:#231F20;}
</style>
<g>
	<path class="st0" d="M170.7,194.7c0,2.5-2.1,4.6-4.6,4.6H38.4c-2.5,0-4.6-2.1-4.6-4.6V7.4c0-2.5,2.1-4.6,4.6-4.6h127.7
		c2.5,0,4.6,2.1,4.6,4.6V194.7z"/>
	<path class="st1" d="M166.9,190.9c0,2.5-2.1,4.6-4.6,4.6H42.2c-2.5,0-4.6-2.1-4.6-4.6V10.7c0-2.5,2.1-4.6,4.6-4.6h120.1
		c2.5,0,4.6,2.1,4.6,4.6V190.9z"/>
	<g>
		<path class="st2" d="M102.2,17.4c-21.2,0-38.3,17.2-38.3,38.3c0,21.2,17.2,38.3,38.3,38.3c21.2,0,38.3-17.2,38.3-38.3
			C140.6,34.6,123.4,17.4,102.2,17.4z M127,75.7l-4.7,4.7c-5.5,4.5-12.5,7.2-20.1,7.2c-17.6,0-31.9-14.3-31.9-31.9
			c0-7.6,2.7-14.6,7.2-20.1l4.7-4.7c5.5-4.4,12.4-7.1,20-7.1c17.6,0,31.9,14.3,31.9,31.9C134.1,63.3,131.4,70.2,127,75.7z"/>
	</g>
	<g>
		<rect x="82" y="34.9" class="st3" width="40.5" height="39.8"/>
		<path class="st4" d="M103.4,58.6h-7v10.7c0,1.5-0.4,2.7-1.1,3.5S93.7,74,92.6,74c-1.2,0-2.1-0.4-2.8-1.2c-0.7-0.8-1.1-1.9-1.1-3.4
			V40.3c0-1.7,0.4-2.9,1.2-3.6c0.8-0.7,2-1.1,3.7-1.1h9.8c2.9,0,5.1,0.2,6.7,0.7c1.5,0.4,2.9,1.1,4,2.1c1.1,1,2,2.2,2.6,3.7
			c0.6,1.4,0.9,3.1,0.9,4.9c0,3.8-1.2,6.8-3.6,8.7C111.6,57.6,108.1,58.6,103.4,58.6z M101.6,41.3h-5.2v11.5h5.2
			c1.8,0,3.3-0.2,4.5-0.6c1.2-0.4,2.1-1,2.8-1.9c0.6-0.9,1-2,1-3.4c0-1.7-0.5-3-1.5-4.1C107.2,41.9,105,41.3,101.6,41.3z"/>
	</g>
	<g>
		<rect x="48.3" y="112.2" class="st3" width="107.8" height="41.3"/>
		<path class="st4" d="M71.8,119c0.7,0,1.3-0.2,1.8-0.6s0.7-1,0.7-1.7c0-0.6-0.2-1.1-0.6-1.5c-0.4-0.4-0.9-0.6-1.6-0.6
			c-0.5,0-0.8,0.1-1.1,0.2s-0.5,0.3-0.7,0.5c-0.2,0.2-0.3,0.5-0.5,0.8c-0.2,0.3-0.3,0.6-0.4,0.9c-0.1,0.2-0.2,0.3-0.4,0.4
			c-0.2,0.1-0.4,0.1-0.7,0.1c-0.3,0-0.6-0.1-0.8-0.4c-0.3-0.2-0.4-0.6-0.4-1c0-0.4,0.1-0.8,0.4-1.2c0.2-0.4,0.6-0.8,1-1.2
			c0.5-0.4,1-0.7,1.7-0.9c0.7-0.2,1.4-0.4,2.3-0.4c0.7,0,1.4,0.1,2,0.3c0.6,0.2,1.1,0.5,1.6,0.9c0.4,0.4,0.8,0.8,1,1.3
			c0.2,0.5,0.3,1,0.3,1.6c0,0.7-0.2,1.4-0.5,1.9c-0.3,0.5-0.8,1.1-1.4,1.6c0.6,0.3,1.1,0.7,1.5,1.1s0.7,0.8,0.9,1.3s0.3,1,0.3,1.6
			c0,0.7-0.1,1.3-0.4,2c-0.3,0.6-0.7,1.2-1.2,1.7c-0.5,0.5-1.2,0.9-1.9,1.2c-0.7,0.3-1.5,0.4-2.4,0.4c-0.9,0-1.7-0.2-2.4-0.5
			c-0.7-0.3-1.3-0.7-1.8-1.2c-0.5-0.5-0.8-1-1-1.5c-0.2-0.5-0.4-0.9-0.4-1.3c0-0.4,0.1-0.8,0.4-1c0.3-0.3,0.6-0.4,1-0.4
			c0.2,0,0.4,0.1,0.6,0.2c0.2,0.1,0.3,0.3,0.4,0.4c0.4,1,0.8,1.8,1.2,2.3s1.1,0.8,1.9,0.8c0.5,0,0.9-0.1,1.3-0.3
			c0.4-0.2,0.8-0.6,1.1-1c0.3-0.4,0.4-1,0.4-1.6c0-0.9-0.2-1.6-0.7-2.1c-0.5-0.5-1.1-0.7-2-0.7c-0.1,0-0.4,0-0.7,0
			c-0.3,0-0.5,0-0.6,0c-0.4,0-0.7-0.1-1-0.3c-0.2-0.2-0.3-0.5-0.3-0.9c0-0.4,0.1-0.6,0.4-0.9c0.3-0.2,0.7-0.3,1.2-0.3H71.8z"/>
		<path class="st4" d="M91.7,120.8c0,1.2-0.1,2.3-0.2,3.2c-0.1,0.9-0.4,1.7-0.8,2.4c-0.5,0.9-1.2,1.6-2,2c-0.8,0.5-1.7,0.7-2.7,0.7
			c-1.1,0-2.2-0.3-3.1-1c-0.9-0.6-1.6-1.5-2-2.7c-0.2-0.6-0.4-1.3-0.5-2.1c-0.1-0.8-0.2-1.6-0.2-2.4c0-1.1,0.1-2.1,0.2-3
			s0.3-1.7,0.6-2.3c0.4-1.1,1.1-1.9,1.9-2.5c0.8-0.6,1.8-0.8,3-0.8c0.8,0,1.5,0.1,2.1,0.4c0.6,0.3,1.2,0.6,1.7,1.1s0.9,1.1,1.2,1.8
			C91.4,116.8,91.7,118.6,91.7,120.8z M88.7,120.6c0-1.4-0.1-2.5-0.2-3.4c-0.2-0.9-0.4-1.5-0.8-2c-0.4-0.4-0.9-0.7-1.6-0.7
			c-1,0-1.7,0.5-2.1,1.5c-0.4,1-0.6,2.5-0.6,4.6c0,1.4,0.1,2.6,0.2,3.4c0.2,0.9,0.4,1.6,0.8,2s0.9,0.7,1.6,0.7
			c0.7,0,1.2-0.2,1.6-0.7c0.4-0.5,0.7-1.2,0.8-2C88.6,123.2,88.7,122,88.7,120.6z"/>
		<path class="st4" d="M110.3,123.2v4.1c0,0.6-0.1,1.1-0.4,1.4c-0.3,0.3-0.7,0.5-1.2,0.5c-0.5,0-0.8-0.2-1.1-0.5
			c-0.3-0.3-0.4-0.8-0.4-1.4v-4.9c0-0.8,0-1.4-0.1-1.8c-0.1-0.4-0.2-0.8-0.4-1c-0.2-0.3-0.6-0.4-1.1-0.4c-1,0-1.7,0.3-2,1
			s-0.5,1.7-0.5,3v4.1c0,0.6-0.1,1.1-0.4,1.4c-0.3,0.3-0.7,0.5-1.1,0.5c-0.5,0-0.8-0.2-1.1-0.5c-0.3-0.3-0.4-0.8-0.4-1.4v-8.7
			c0-0.6,0.1-1,0.4-1.3c0.3-0.3,0.6-0.4,1-0.4c0.4,0,0.8,0.1,1,0.4c0.3,0.3,0.4,0.7,0.4,1.2v0.3c0.5-0.6,1.1-1.1,1.7-1.4
			c0.6-0.3,1.3-0.4,2-0.4c0.8,0,1.4,0.2,2,0.5c0.6,0.3,1,0.8,1.4,1.4c0.5-0.6,1.1-1.1,1.7-1.4c0.6-0.3,1.2-0.5,2-0.5
			c0.8,0,1.6,0.2,2.2,0.5c0.6,0.3,1.1,0.8,1.4,1.4c0.3,0.6,0.4,1.4,0.4,2.6v6c0,0.6-0.1,1.1-0.4,1.4c-0.3,0.3-0.7,0.5-1.2,0.5
			c-0.5,0-0.8-0.2-1.1-0.5c-0.3-0.3-0.4-0.8-0.4-1.4v-5.1c0-0.7,0-1.2-0.1-1.6c-0.1-0.4-0.2-0.7-0.5-1c-0.2-0.3-0.6-0.4-1.1-0.4
			c-0.4,0-0.8,0.1-1.1,0.4s-0.6,0.6-0.8,1C110.4,120.9,110.3,121.8,110.3,123.2z"/>
		<path class="st4" d="M122,115.3c-0.4,0-0.8-0.1-1.1-0.4c-0.3-0.3-0.5-0.6-0.5-1.1c0-0.4,0.2-0.8,0.5-1.1s0.7-0.4,1.1-0.4
			c0.4,0,0.7,0.1,1.1,0.4s0.5,0.6,0.5,1.1c0,0.5-0.1,0.8-0.4,1.1C122.7,115.2,122.4,115.3,122,115.3z M123.5,118.5v8.8
			c0,0.6-0.1,1.1-0.4,1.4s-0.7,0.5-1.1,0.5c-0.4,0-0.8-0.2-1.1-0.5c-0.3-0.3-0.4-0.8-0.4-1.4v-8.7c0-0.6,0.1-1.1,0.4-1.4
			c0.3-0.3,0.6-0.5,1.1-0.5c0.4,0,0.8,0.2,1.1,0.5C123.3,117.5,123.5,117.9,123.5,118.5z"/>
		<path class="st4" d="M129.4,118.4v0.4c0.5-0.7,1.1-1.2,1.8-1.6s1.4-0.5,2.2-0.5c0.8,0,1.5,0.2,2.2,0.5c0.6,0.4,1.1,0.8,1.4,1.5
			c0.2,0.4,0.3,0.8,0.4,1.2s0.1,1,0.1,1.7v5.7c0,0.6-0.1,1.1-0.4,1.4s-0.6,0.5-1.1,0.5c-0.5,0-0.8-0.2-1.1-0.5
			c-0.3-0.3-0.4-0.8-0.4-1.4v-5.1c0-1-0.1-1.8-0.4-2.3c-0.3-0.5-0.8-0.8-1.7-0.8c-0.5,0-1,0.2-1.5,0.5c-0.4,0.3-0.8,0.8-1,1.3
			c-0.1,0.5-0.2,1.3-0.2,2.6v3.8c0,0.6-0.1,1.1-0.4,1.4s-0.7,0.5-1.1,0.5c-0.4,0-0.8-0.2-1.1-0.5c-0.3-0.3-0.4-0.8-0.4-1.4v-8.8
			c0-0.6,0.1-1,0.4-1.3c0.3-0.3,0.6-0.4,1-0.4c0.3,0,0.5,0.1,0.7,0.2c0.2,0.1,0.4,0.3,0.5,0.6S129.4,118,129.4,118.4z"/>
		<path class="st4" d="M62,143c-0.3,0.4-0.7,0.7-1.2,0.9c-0.4,0.2-0.9,0.3-1.4,0.3c-0.5,0-1-0.1-1.4-0.3c-0.4-0.2-0.8-0.5-1.1-0.8
			c-0.3-0.3-0.6-0.7-0.7-1.2c-0.2-0.5-0.3-0.9-0.3-1.4c0-0.5,0.1-1,0.3-1.5c0.2-0.5,0.5-0.9,0.8-1.3c0.4-0.4,0.8-0.6,1.3-0.8
			s1-0.3,1.6-0.3c0.7,0,1.3,0.1,1.8,0.4c0.5,0.2,1,0.6,1.3,1.1c0.4,0.5,0.6,1.1,0.8,1.8s0.3,1.5,0.3,2.4c0,1-0.1,1.9-0.3,2.7
			c-0.2,0.8-0.5,1.4-0.9,1.9c-0.4,0.5-0.9,0.9-1.4,1.2c-0.5,0.3-1.2,0.4-1.9,0.4c-0.7,0-1.3-0.1-1.8-0.4c-0.5-0.3-0.9-0.6-1.1-1
			c-0.3-0.4-0.4-0.8-0.4-1.1c0-0.2,0.1-0.4,0.2-0.6c0.2-0.2,0.4-0.3,0.6-0.3c0.2,0,0.4,0.1,0.6,0.2c0.2,0.1,0.3,0.3,0.4,0.6
			c0.1,0.3,0.3,0.6,0.6,0.8c0.3,0.2,0.6,0.3,0.9,0.3c0.3,0,0.6-0.1,0.8-0.2c0.3-0.2,0.5-0.4,0.7-0.6C61.7,145.4,61.9,144.4,62,143z
			 M61.8,140.6c0-0.4,0-0.7-0.1-1s-0.2-0.6-0.4-0.8c-0.2-0.2-0.4-0.4-0.6-0.5c-0.2-0.1-0.5-0.2-0.8-0.2c-0.5,0-0.9,0.2-1.3,0.6
			c-0.3,0.4-0.5,1-0.5,1.7c0,0.7,0.2,1.2,0.5,1.7c0.3,0.4,0.8,0.6,1.3,0.6c0.3,0,0.6-0.1,0.9-0.3c0.3-0.2,0.5-0.4,0.7-0.7
			S61.8,141,61.8,140.6z"/>
		<path class="st4" d="M77.6,146.8l-0.5-1.4h-4.7l-0.5,1.5c-0.2,0.6-0.4,1-0.5,1.2c-0.2,0.2-0.4,0.3-0.7,0.3c-0.3,0-0.6-0.1-0.8-0.3
			c-0.2-0.2-0.3-0.5-0.3-0.7c0-0.2,0-0.3,0.1-0.5s0.1-0.4,0.3-0.7l2.9-7.5c0.1-0.2,0.2-0.5,0.3-0.8c0.1-0.3,0.2-0.6,0.4-0.7
			s0.3-0.4,0.5-0.5c0.2-0.1,0.5-0.2,0.8-0.2c0.3,0,0.6,0.1,0.8,0.2c0.2,0.1,0.4,0.3,0.5,0.5s0.2,0.4,0.3,0.6
			c0.1,0.2,0.2,0.5,0.3,0.9l3,7.4c0.2,0.6,0.4,1,0.4,1.2c0,0.3-0.1,0.5-0.3,0.7c-0.2,0.2-0.5,0.3-0.8,0.3c-0.2,0-0.3,0-0.5-0.1
			s-0.2-0.2-0.3-0.3c-0.1-0.1-0.2-0.3-0.3-0.5C77.8,147.2,77.7,147,77.6,146.8z M73,143.6h3.4l-1.7-4.7L73,143.6z"/>
		<path class="st4" d="M85.7,146.4l-1.8-7.3v7.9c0,0.4-0.1,0.8-0.3,1c-0.2,0.2-0.5,0.3-0.8,0.3c-0.3,0-0.6-0.1-0.8-0.3
			c-0.2-0.2-0.3-0.5-0.3-1v-9.1c0-0.5,0.1-0.8,0.4-1s0.6-0.3,1.1-0.3h0.7c0.4,0,0.7,0,0.9,0.1c0.2,0.1,0.3,0.2,0.4,0.4
			c0.1,0.2,0.2,0.5,0.3,1l1.7,6.3l1.7-6.3c0.1-0.5,0.2-0.8,0.3-1c0.1-0.2,0.2-0.3,0.4-0.4c0.2-0.1,0.5-0.1,0.9-0.1h0.7
			c0.4,0,0.8,0.1,1.1,0.3s0.4,0.5,0.4,1v9.1c0,0.4-0.1,0.8-0.3,1c-0.2,0.2-0.5,0.3-0.8,0.3c-0.3,0-0.6-0.1-0.8-0.3
			c-0.2-0.2-0.3-0.5-0.3-1v-7.9l-1.8,7.3c-0.1,0.5-0.2,0.8-0.3,1c-0.1,0.2-0.2,0.4-0.4,0.6c-0.2,0.2-0.5,0.3-0.8,0.3
			c-0.3,0-0.5-0.1-0.7-0.2c-0.2-0.1-0.3-0.3-0.4-0.5c-0.1-0.2-0.2-0.4-0.2-0.6C85.8,146.9,85.8,146.6,85.7,146.4z"/>
		<path class="st4" d="M105.9,144.9h-2.5c-0.4,0-0.7-0.1-0.9-0.3c-0.2-0.2-0.3-0.4-0.3-0.7c0-0.3,0.1-0.5,0.3-0.7
			c0.2-0.2,0.5-0.3,0.9-0.3h2.5c0.4,0,0.7,0.1,0.9,0.3c0.2,0.2,0.3,0.4,0.3,0.7c0,0.3-0.1,0.5-0.3,0.7
			C106.6,144.8,106.3,144.9,105.9,144.9z"/>
		<path class="st4" d="M114.3,141.9c0.4-0.4,0.7-0.7,1.2-0.9s0.9-0.3,1.4-0.3c0.5,0,1,0.1,1.4,0.3s0.8,0.4,1.1,0.8
			c0.3,0.3,0.6,0.7,0.7,1.2c0.2,0.5,0.3,1,0.3,1.5c0,0.7-0.2,1.4-0.5,2c-0.3,0.6-0.8,1.1-1.4,1.4c-0.6,0.3-1.3,0.5-2.1,0.5
			c-0.9,0-1.6-0.2-2.3-0.6c-0.6-0.4-1.1-1.1-1.5-1.9c-0.3-0.8-0.5-1.9-0.5-3.1c0-1,0.1-1.9,0.3-2.6c0.2-0.8,0.5-1.4,0.9-1.9
			c0.4-0.5,0.8-0.9,1.4-1.2c0.5-0.3,1.2-0.4,1.9-0.4c0.7,0,1.3,0.1,1.8,0.4c0.5,0.3,0.9,0.6,1.2,1c0.3,0.4,0.4,0.8,0.4,1.1
			c0,0.2-0.1,0.4-0.2,0.6s-0.4,0.3-0.6,0.3c-0.2,0-0.4-0.1-0.6-0.2c-0.2-0.1-0.3-0.3-0.4-0.6c-0.1-0.3-0.3-0.6-0.6-0.8
			c-0.3-0.2-0.6-0.3-0.9-0.3c-0.3,0-0.6,0.1-0.8,0.2c-0.3,0.2-0.5,0.4-0.7,0.6C114.5,139.5,114.3,140.5,114.3,141.9z M116.4,146.8
			c0.5,0,1-0.2,1.3-0.6c0.3-0.4,0.5-1,0.5-1.7c0-0.5-0.1-0.9-0.2-1.2c-0.2-0.3-0.4-0.6-0.7-0.8c-0.3-0.2-0.6-0.3-0.9-0.3
			c-0.3,0-0.6,0.1-0.9,0.3c-0.3,0.2-0.5,0.4-0.7,0.7c-0.2,0.3-0.3,0.7-0.3,1.1c0,0.7,0.2,1.3,0.5,1.8
			C115.4,146.6,115.8,146.8,116.4,146.8z"/>
		<path class="st4" d="M130.6,143.7h-2.1v3.3c0,0.5-0.1,0.8-0.3,1.1c-0.2,0.2-0.5,0.4-0.8,0.4c-0.4,0-0.6-0.1-0.8-0.4
			c-0.2-0.2-0.3-0.6-0.3-1v-8.9c0-0.5,0.1-0.9,0.4-1.1c0.2-0.2,0.6-0.3,1.1-0.3h3c0.9,0,1.6,0.1,2,0.2c0.5,0.1,0.9,0.3,1.2,0.7
			c0.3,0.3,0.6,0.7,0.8,1.1c0.2,0.4,0.3,0.9,0.3,1.5c0,1.2-0.4,2.1-1.1,2.7C133.1,143.4,132,143.7,130.6,143.7z M130.1,138.4h-1.6
			v3.5h1.6c0.5,0,1-0.1,1.4-0.2c0.4-0.1,0.6-0.3,0.8-0.6c0.2-0.3,0.3-0.6,0.3-1c0-0.5-0.1-0.9-0.4-1.2
			C131.8,138.6,131.1,138.4,130.1,138.4z"/>
		<path class="st4" d="M140.7,146.4l-1.8-7.3v7.9c0,0.4-0.1,0.8-0.3,1c-0.2,0.2-0.5,0.3-0.8,0.3c-0.3,0-0.6-0.1-0.8-0.3
			c-0.2-0.2-0.3-0.5-0.3-1v-9.1c0-0.5,0.1-0.8,0.4-1c0.3-0.2,0.6-0.3,1.1-0.3h0.7c0.4,0,0.7,0,0.9,0.1c0.2,0.1,0.3,0.2,0.4,0.4
			s0.2,0.5,0.3,1l1.7,6.3l1.7-6.3c0.1-0.5,0.2-0.8,0.3-1c0.1-0.2,0.2-0.3,0.4-0.4c0.2-0.1,0.5-0.1,0.9-0.1h0.7
			c0.4,0,0.8,0.1,1.1,0.3s0.4,0.5,0.4,1v9.1c0,0.4-0.1,0.8-0.3,1c-0.2,0.2-0.5,0.3-0.8,0.3c-0.3,0-0.6-0.1-0.8-0.3
			c-0.2-0.2-0.3-0.5-0.3-1v-7.9l-1.8,7.3c-0.1,0.5-0.2,0.8-0.3,1c-0.1,0.2-0.2,0.4-0.4,0.6c-0.2,0.2-0.5,0.3-0.8,0.3
			c-0.3,0-0.5-0.1-0.7-0.2s-0.3-0.3-0.4-0.5c-0.1-0.2-0.2-0.4-0.2-0.6C140.9,146.9,140.8,146.6,140.7,146.4z"/>
	</g>
	<g>
		<polygon points="142.4,175.8 142.6,181.4 156.8,172.4 142.5,162.8 142.5,168.6 142.5,168.7 137.8,168.7 137.8,175.8 		"/>
	</g>
	<g>
		<polygon points="54.8,168.4 54.6,162.8 40.5,171.9 54.8,181.4 54.8,175.6 54.8,175.5 59.4,175.5 59.4,168.4 		"/>
	</g>
	<g>
		<rect x="45.1" y="164.9" class="st3" width="108.6" height="21.4"/>
		<path class="st4" d="M71.2,174.9l-1.8-7.3v7.9c0,0.4-0.1,0.8-0.3,1c-0.2,0.2-0.5,0.3-0.8,0.3c-0.3,0-0.6-0.1-0.8-0.3
			c-0.2-0.2-0.3-0.5-0.3-1v-9.1c0-0.5,0.1-0.8,0.4-1s0.6-0.3,1.1-0.3h0.7c0.4,0,0.7,0,0.9,0.1c0.2,0.1,0.3,0.2,0.4,0.4
			c0.1,0.2,0.2,0.5,0.3,1l1.7,6.3l1.7-6.3c0.1-0.5,0.2-0.8,0.3-1c0.1-0.2,0.2-0.3,0.4-0.4c0.2-0.1,0.5-0.1,0.9-0.1h0.7
			c0.4,0,0.8,0.1,1.1,0.3s0.4,0.5,0.4,1v9.1c0,0.4-0.1,0.8-0.3,1c-0.2,0.2-0.5,0.3-0.8,0.3c-0.3,0-0.6-0.1-0.8-0.3
			c-0.2-0.2-0.3-0.5-0.3-1v-7.9l-1.8,7.3c-0.1,0.5-0.2,0.8-0.3,1c-0.1,0.2-0.2,0.4-0.4,0.6c-0.2,0.2-0.5,0.3-0.8,0.3
			c-0.3,0-0.5-0.1-0.7-0.2c-0.2-0.1-0.3-0.3-0.4-0.5c-0.1-0.2-0.2-0.4-0.2-0.6C71.3,175.4,71.3,175.1,71.2,174.9z"/>
		<path class="st4" d="M88.6,172.5c0,0.6-0.1,1.2-0.3,1.8c-0.2,0.5-0.5,1-0.9,1.4c-0.4,0.4-0.8,0.7-1.3,0.9
			c-0.5,0.2-1.1,0.3-1.8,0.3c-0.6,0-1.2-0.1-1.7-0.3c-0.5-0.2-1-0.5-1.3-0.9c-0.4-0.4-0.7-0.8-0.9-1.4c-0.2-0.5-0.3-1.1-0.3-1.8
			c0-0.6,0.1-1.2,0.3-1.8c0.2-0.5,0.5-1,0.9-1.4c0.4-0.4,0.8-0.7,1.3-0.9c0.5-0.2,1.1-0.3,1.7-0.3c0.6,0,1.2,0.1,1.8,0.3
			s1,0.5,1.4,0.9c0.4,0.4,0.7,0.8,0.9,1.4C88.5,171.2,88.6,171.8,88.6,172.5z M86.4,172.5c0-0.9-0.2-1.6-0.6-2
			c-0.4-0.5-0.9-0.7-1.5-0.7c-0.4,0-0.8,0.1-1.1,0.3s-0.6,0.5-0.7,1c-0.2,0.4-0.3,0.9-0.3,1.5c0,0.6,0.1,1,0.3,1.5s0.4,0.7,0.7,1
			c0.3,0.2,0.7,0.3,1.1,0.3c0.6,0,1.2-0.2,1.5-0.7C86.2,174,86.4,173.3,86.4,172.5z"/>
		<path class="st4" d="M92.2,169.3v0.3c0.4-0.5,0.8-0.9,1.2-1.1c0.4-0.2,1-0.3,1.5-0.3c0.6,0,1.1,0.1,1.5,0.4c0.4,0.2,0.8,0.6,1,1
			c0.1,0.3,0.2,0.5,0.3,0.8c0,0.3,0.1,0.7,0.1,1.2v4c0,0.4-0.1,0.8-0.3,1c-0.2,0.2-0.5,0.3-0.8,0.3c-0.3,0-0.6-0.1-0.8-0.3
			c-0.2-0.2-0.3-0.5-0.3-1v-3.6c0-0.7-0.1-1.2-0.3-1.6c-0.2-0.4-0.6-0.6-1.2-0.6c-0.4,0-0.7,0.1-1,0.3c-0.3,0.2-0.5,0.5-0.7,0.9
			c-0.1,0.3-0.2,0.9-0.2,1.8v2.7c0,0.4-0.1,0.8-0.3,1c-0.2,0.2-0.5,0.3-0.8,0.3c-0.3,0-0.6-0.1-0.8-0.3c-0.2-0.2-0.3-0.5-0.3-1v-6.2
			c0-0.4,0.1-0.7,0.3-0.9c0.2-0.2,0.4-0.3,0.7-0.3c0.2,0,0.4,0,0.5,0.1c0.2,0.1,0.3,0.2,0.4,0.4S92.2,169,92.2,169.3z"/>
		<path class="st4" d="M106.8,173.4h-2.5c-0.4,0-0.7-0.1-0.9-0.3c-0.2-0.2-0.3-0.4-0.3-0.7c0-0.3,0.1-0.5,0.3-0.7
			c0.2-0.2,0.5-0.3,0.9-0.3h2.5c0.4,0,0.7,0.1,0.9,0.3c0.2,0.2,0.3,0.4,0.3,0.7c0,0.3-0.1,0.5-0.3,0.7
			C107.5,173.3,107.2,173.4,106.8,173.4z"/>
		<path class="st4" d="M120.3,166.9h-4.6v2.9h3.8c0.4,0,0.6,0.1,0.8,0.2c0.2,0.2,0.3,0.4,0.3,0.6s-0.1,0.5-0.3,0.6
			c-0.2,0.2-0.4,0.2-0.8,0.2h-3.8v3.8c0,0.5-0.1,0.8-0.3,1.1c-0.2,0.2-0.5,0.3-0.8,0.3c-0.3,0-0.6-0.1-0.8-0.4
			c-0.2-0.2-0.3-0.6-0.3-1.1v-8.8c0-0.3,0-0.6,0.1-0.8c0.1-0.2,0.3-0.4,0.5-0.5c0.2-0.1,0.5-0.1,0.8-0.1h5.5c0.4,0,0.6,0.1,0.8,0.2
			c0.2,0.2,0.3,0.4,0.3,0.6c0,0.3-0.1,0.5-0.3,0.7C121,166.8,120.7,166.9,120.3,166.9z"/>
		<path class="st4" d="M124.5,173.7v1.8c0,0.4-0.1,0.8-0.3,1c-0.2,0.2-0.5,0.3-0.8,0.3c-0.3,0-0.6-0.1-0.8-0.3
			c-0.2-0.2-0.3-0.5-0.3-1v-6c0-1,0.3-1.4,1-1.4c0.4,0,0.6,0.1,0.8,0.3c0.2,0.2,0.2,0.6,0.3,1c0.3-0.4,0.5-0.8,0.8-1
			c0.3-0.2,0.6-0.3,1.1-0.3c0.5,0,0.9,0.1,1.3,0.3c0.4,0.2,0.6,0.5,0.6,0.9c0,0.3-0.1,0.5-0.3,0.6c-0.2,0.2-0.4,0.3-0.6,0.3
			c-0.1,0-0.3,0-0.6-0.1s-0.6-0.1-0.8-0.1c-0.3,0-0.6,0.1-0.8,0.2c-0.2,0.2-0.4,0.4-0.5,0.7c-0.1,0.3-0.2,0.7-0.2,1.2
			C124.6,172.5,124.5,173.1,124.5,173.7z"/>
		<path class="st4" d="M130.5,167.1c-0.3,0-0.6-0.1-0.8-0.3c-0.2-0.2-0.3-0.4-0.3-0.8c0-0.3,0.1-0.6,0.3-0.7s0.5-0.3,0.8-0.3
			c0.3,0,0.5,0.1,0.7,0.3c0.2,0.2,0.3,0.4,0.3,0.8c0,0.3-0.1,0.6-0.3,0.8S130.8,167.1,130.5,167.1z M131.6,169.3v6.2
			c0,0.4-0.1,0.8-0.3,1c-0.2,0.2-0.5,0.3-0.8,0.3s-0.6-0.1-0.8-0.3c-0.2-0.2-0.3-0.5-0.3-1v-6.1c0-0.4,0.1-0.7,0.3-1
			c0.2-0.2,0.5-0.3,0.8-0.3s0.6,0.1,0.8,0.3C131.5,168.6,131.6,168.9,131.6,169.3z"/>
	</g>
</g>
</svg>
