<?xml version="1.0" encoding="utf-8"?>
<!-- Generator: Adobe Illustrator 21.1.0, SVG Export Plug-In . SVG Version: 6.00 Build 0)  -->
<svg version="1.1" id="Layer_1" xmlns="http://www.w3.org/2000/svg" xmlns:xlink="http://www.w3.org/1999/xlink" x="0px" y="0px"
	 viewBox="0 0 203 202" style="enable-background:new 0 0 203 202;" xml:space="preserve">
<style type="text/css">
	.st0{fill:#FFFFFF;stroke:#000000;stroke-width:0.2994;}
	.st1{fill:#FFFFFF;}
</style>
<g>
	<g>
		<path class="st0" d="M199.4,184.7c0,7.9-6.4,14.4-14.4,14.4H20.2c-7.9,0-14.4-6.4-14.4-14.4V19.9c0-7.9,6.4-14.4,14.4-14.4H185
			c7.9,0,14.4,6.4,14.4,14.4V184.7z"/>
		<path d="M191.1,183.6c0,4-3.2,7.3-7.3,7.3H20.9c-4,0-7.3-3.3-7.3-7.3V20.8c0-4,3.3-7.3,7.3-7.3h162.9c4,0,7.3,3.3,7.3,7.3V183.6z"
			/>
	</g>
	<g>
		<polygon class="st1" points="118.5,158.1 118.8,182.1 40.6,182.1 40.6,22.4 164,22.4 164,126.6 		"/>
		<path d="M99.2,57.3L78.9,27.7L58.6,57.2c0,0-1.1,2.1,0.4,3.6c1.5,1.5,3.5,1,3.5,1l7.6-1.8l0,112.6h17.4l0.1-112.5l7.7,1.8
			c0,0,2,0.5,3.5-1C100.3,59.3,99.2,57.3,99.2,57.3z"/>
		<path d="M140.5,84.6l-20.3-29.5L100,84.5c0,0-1.1,2.1,0.4,3.6c1.5,1.5,3.5,1,3.5,1l7.6-1.8l0,25.7l-36,26.9l5.4,18l48.1-35.3
			l0-35.2l7.7,1.8c0,0,2,0.5,3.5-1C141.6,86.7,140.5,84.6,140.5,84.6z"/>
	</g>
</g>
</svg>
