<?xml version="1.0" encoding="utf-8"?>
<!-- Generator: Adobe Illustrator 21.1.0, SVG Export Plug-In . SVG Version: 6.00 Build 0)  -->
<svg version="1.1" id="Layer_1" xmlns="http://www.w3.org/2000/svg" xmlns:xlink="http://www.w3.org/1999/xlink" x="0px" y="0px"
	 viewBox="0 0 203 202" style="enable-background:new 0 0 203 202;" xml:space="preserve">
<style type="text/css">
	.st0{fill:#FEE503;stroke:#000000;stroke-width:0.25;}
	.st1{fill:#231F20;}
	.st2{fill:#FFFFFF;}
	.st3{fill:none;stroke:#231F20;stroke-miterlimit:10;}
</style>
<g>
	<g>
		<g>
			<path class="st0" d="M95.8,196.8c3,3,7.8,3,10.7,0l89.3-89.3c3-3,3-7.8,0-10.7L106.5,7.4c-3-3-7.8-3-10.7,0L6.5,96.7
				c-3,3-3,7.8,0,10.7L95.8,196.8z"/>
			<path d="M10,105.5l87.8,87.8c1.9,1.9,4.9,1.9,6.8,0l87.8-87.8c1.9-1.9,1.9-4.9,0-6.8l-87.8-87.8c-1.9-1.9-4.9-1.9-6.8,0L10,98.7
				C8.1,100.6,8.1,103.6,10,105.5z M13.4,100.4l85.9-86.1c1-1,2.6-1,3.6,0l86.1,85.9c1,1,1,2.6,0,3.6l-86,86c-1,1-2.6,1-3.6,0
				l-86-85.8C12.4,103,12.4,101.4,13.4,100.4z"/>
		</g>
		<g>
			<rect x="84.9" y="97.9" class="st1" width="31.6" height="71.9"/>
			<rect x="98.2" y="123.5" class="st2" width="4.9" height="17.7"/>
			<rect x="98.2" y="149" class="st2" width="4.9" height="17.7"/>
			<rect x="98.2" y="98" class="st2" width="4.9" height="17.7"/>
		</g>
	</g>
	<g>
		<path class="st1" d="M115.6,32.8v69.9H86V32.8H115.6 M116.6,31.8H85v71.9h31.6V31.8L116.6,31.8z"/>
	</g>
	<g>
		<g>
			<g>
				<path class="st1" d="M106.5,53.1c0.5,0,0.5-0.8,0-0.8S106,53.1,106.5,53.1L106.5,53.1z"/>
			</g>
		</g>
		<g>
			<g>
				<path class="st1" d="M109.4,56.1c0.5,0,0.5-0.8,0-0.8C109,55.3,109,56.1,109.4,56.1L109.4,56.1z"/>
			</g>
		</g>
		<g>
			<g>
				<path class="st1" d="M109.4,64.5c0.5,0,0.5-0.7,0-0.7C109,63.7,109,64.5,109.4,64.5L109.4,64.5z"/>
			</g>
		</g>
		<g>
			<g>
				<path class="st1" d="M100.5,63.6c0.5,0,0.5-0.8,0-0.8C100,62.9,100,63.6,100.5,63.6L100.5,63.6z"/>
			</g>
		</g>
		<g>
			<g>
				<path class="st1" d="M105,56.1c0.5,0,0.5-0.8,0-0.8S104.5,56.1,105,56.1L105,56.1z"/>
			</g>
		</g>
		<g>
			<g>
				<path class="st1" d="M106.6,62.3c0.5,0,0.5-0.8,0-0.8C106.2,61.6,106.2,62.3,106.6,62.3L106.6,62.3z"/>
			</g>
		</g>
		<g>
			<g>
				<path class="st1" d="M101.4,59.8c0.5,0,0.5-0.8,0-0.8S100.9,59.8,101.4,59.8L101.4,59.8z"/>
			</g>
		</g>
		<g>
			<g>
				<path class="st1" d="M109.4,60c0.5,0,0.5-0.8,0-0.8C109,59.2,109,60,109.4,60L109.4,60z"/>
			</g>
		</g>
		<g>
			<g>
				<path class="st1" d="M105,60.2c0.5,0,0.5-0.8,0-0.8S104.5,60.2,105,60.2L105,60.2z"/>
			</g>
		</g>
		<g>
			<g>
				<path class="st1" d="M100,53.7c0.5,0,0.5-0.8,0-0.8C99.5,53,99.5,53.7,100,53.7L100,53.7z"/>
			</g>
		</g>
		<g>
			<g>
				<path class="st1" d="M110.3,46c0.5,0,0.5-0.8,0-0.8C109.8,45.3,109.8,46,110.3,46L110.3,46z"/>
			</g>
		</g>
		<g>
			<g>
				<path class="st1" d="M104.2,47.1c0.5,0,0.5-0.8,0-0.8S103.7,47.1,104.2,47.1L104.2,47.1z"/>
			</g>
		</g>
		<g>
			<g>
				<path class="st1" d="M101,48.6c0.5,0,0.5-0.8,0-0.8S100.5,48.6,101,48.6L101,48.6z"/>
			</g>
		</g>
		<g>
			<g>
				<path class="st1" d="M104,52c0.5,0,0.5-0.8,0-0.8C103.5,51.3,103.5,52,104,52L104,52z"/>
			</g>
		</g>
		<g>
			<g>
				<path class="st1" d="M108.8,48.4c0.5,0,0.5-0.8,0-0.8C108.3,47.6,108.3,48.4,108.8,48.4L108.8,48.4z"/>
			</g>
		</g>
		<g>
			<g>
				<path class="st1" d="M111.3,52.4c0.5,0,0.5-0.8,0-0.8C110.8,51.7,110.8,52.4,111.3,52.4L111.3,52.4z"/>
			</g>
		</g>
		<g>
			<g>
				<path class="st1" d="M102.2,55.9c0.5,0,0.5-0.8,0-0.8C101.7,55.1,101.7,55.9,102.2,55.9L102.2,55.9z"/>
			</g>
		</g>
		<g>
			<g>
				<path class="st1" d="M102.5,63.8c0.5,0,0.5-0.8,0-0.8C102,63.1,102,63.8,102.5,63.8L102.5,63.8z"/>
			</g>
		</g>
		<g>
			<g>
				<path class="st1" d="M106.8,68.1c0.5,0,0.5-0.8,0-0.8C106.3,67.4,106.3,68.1,106.8,68.1L106.8,68.1z"/>
			</g>
		</g>
		<g>
			<g>
				<path class="st1" d="M103.5,71.4c0.5,0,0.5-0.8,0-0.8S103,71.4,103.5,71.4L103.5,71.4z"/>
			</g>
		</g>
		<g>
			<g>
				<path class="st1" d="M99.5,67.5c0.5,0,0.5-0.8,0-0.8C99.1,66.7,99.1,67.5,99.5,67.5L99.5,67.5z"/>
			</g>
		</g>
		<g>
			<g>
				<path class="st1" d="M105,66.4c0.5,0,0.5-0.8,0-0.8C104.5,65.7,104.5,66.4,105,66.4L105,66.4z"/>
			</g>
		</g>
		<g>
			<g>
				<path class="st1" d="M103.2,69.6c0.5,0,0.5-0.8,0-0.8C102.7,68.9,102.7,69.6,103.2,69.6L103.2,69.6z"/>
			</g>
		</g>
		<g>
			<g>
				<path class="st1" d="M103.3,60.4c0.5,0,0.5-0.8,0-0.8C102.9,59.6,102.9,60.4,103.3,60.4L103.3,60.4z"/>
			</g>
		</g>
		<g>
			<g>
				<path class="st1" d="M98.2,60.6c0.5,0,0.5-0.8,0-0.8C97.7,59.9,97.7,60.6,98.2,60.6L98.2,60.6z"/>
			</g>
		</g>
		<g>
			<g>
				<path class="st1" d="M101.7,67.5c0.5,0,0.5-0.8,0-0.8S101.2,67.5,101.7,67.5L101.7,67.5z"/>
			</g>
		</g>
		<g>
			<g>
				<path class="st1" d="M104,65.6c0.5,0,0.5-0.8,0-0.8C103.5,64.8,103.5,65.6,104,65.6L104,65.6z"/>
			</g>
		</g>
		<g>
			<g>
				<path class="st1" d="M108.3,66.4c0.5,0,0.5-0.8,0-0.8C107.8,65.7,107.8,66.4,108.3,66.4L108.3,66.4z"/>
			</g>
		</g>
		<g>
			<g>
				<path class="st1" d="M107.3,57.8c0.5,0,0.5-0.8,0-0.8C106.8,57.1,106.8,57.8,107.3,57.8L107.3,57.8z"/>
			</g>
		</g>
		<g>
			<g>
				<path class="st1" d="M109.3,50.9c0.5,0,0.5-0.8,0-0.8C108.8,50.2,108.8,50.9,109.3,50.9L109.3,50.9z"/>
			</g>
		</g>
		<g>
			<g>
				<path class="st1" d="M106.1,48.8c0.5,0,0.5-0.8,0-0.8C105.7,48,105.7,48.8,106.1,48.8L106.1,48.8z"/>
			</g>
		</g>
		<g>
			<g>
				<path class="st1" d="M107.1,41.5c0.5,0,0.5-0.8,0-0.8C106.7,40.7,106.7,41.5,107.1,41.5L107.1,41.5z"/>
			</g>
		</g>
		<g>
			<g>
				<path class="st1" d="M101.7,41.9c0.5,0,0.5-0.8,0-0.8C101.2,41.2,101.2,41.9,101.7,41.9L101.7,41.9z"/>
			</g>
		</g>
		<g>
			<g>
				<path class="st1" d="M97.8,48.6c0,0.2,0,0.4,0,0.6c0,0.5,0.8,0.5,0.8,0c0-0.2,0-0.4,0-0.6C98.6,48.2,97.8,48.2,97.8,48.6
					L97.8,48.6z"/>
			</g>
		</g>
		<g>
			<g>
				<path class="st1" d="M98.9,56.3c0.5,0,0.5-0.8,0-0.8C98.4,55.6,98.4,56.3,98.9,56.3L98.9,56.3z"/>
			</g>
		</g>
		<g>
			<g>
				<path class="st1" d="M97.9,54.6c0.5,0,0.5-0.8,0-0.8S97.4,54.6,97.9,54.6L97.9,54.6z"/>
			</g>
		</g>
		<g>
			<g>
				<path class="st1" d="M100,45.6c0.5,0,0.5-0.8,0-0.8S99.5,45.6,100,45.6L100,45.6z"/>
			</g>
		</g>
		<g>
			<g>
				<path class="st1" d="M97.9,44.1c0.5,0,0.5-0.8,0-0.8S97.4,44.1,97.9,44.1L97.9,44.1z"/>
			</g>
		</g>
		<g>
			<g>
				<path class="st1" d="M105.6,43.6c0.5,0,0.5-0.8,0-0.8C105.2,42.9,105.2,43.6,105.6,43.6L105.6,43.6z"/>
			</g>
		</g>
		<g>
			<g>
				<path class="st1" d="M107.8,73.1c0.5,0,0.5-0.8,0-0.8C107.3,72.3,107.3,73.1,107.8,73.1L107.8,73.1z"/>
			</g>
		</g>
		<g>
			<g>
				<path class="st1" d="M100.2,76.7c0.5,0,0.5-0.8,0-0.8C99.7,76,99.7,76.7,100.2,76.7L100.2,76.7z"/>
			</g>
		</g>
		<g>
			<g>
				<path class="st1" d="M98.9,72.2c0.5,0,0.5-0.8,0-0.8C98.4,71.5,98.4,72.2,98.9,72.2L98.9,72.2z"/>
			</g>
		</g>
		<g>
			<g>
				<path class="st1" d="M101.7,72.6c0.5,0,0.5-0.8,0-0.8C101.2,71.9,101.2,72.6,101.7,72.6L101.7,72.6z"/>
			</g>
		</g>
		<g>
			<g>
				<path class="st1" d="M103.2,77.6c0.5,0,0.5-0.8,0-0.8C102.7,76.8,102.7,77.6,103.2,77.6L103.2,77.6z"/>
			</g>
		</g>
		<g>
			<g>
				<path class="st1" d="M105.8,79.7c0.5,0,0.5-0.8,0-0.8C105.3,79,105.3,79.7,105.8,79.7L105.8,79.7z"/>
			</g>
		</g>
		<g>
			<g>
				<path class="st1" d="M105.6,74.4c0.5,0,0.5-0.8,0-0.8C105.2,73.6,105.2,74.4,105.6,74.4L105.6,74.4z"/>
			</g>
		</g>
		<path class="st3" d="M115.2,97.3"/>
		<path class="st3" d="M115.2,33.4"/>
		<g>
			<g>
				<path class="st1" d="M111.3,57.8c0.5,0,0.5-0.8,0-0.8C110.8,57.1,110.8,57.8,111.3,57.8L111.3,57.8z"/>
			</g>
		</g>
		<g>
			<g>
				<path class="st1" d="M112.4,61.5c0.5,0,0.5-0.8,0-0.8C112,60.7,112,61.5,112.4,61.5L112.4,61.5z"/>
			</g>
		</g>
		<g>
			<g>
				<path class="st1" d="M112,66c0.5,0,0.5-0.8,0-0.8S111.5,66,112,66L112,66z"/>
			</g>
		</g>
		<g>
			<g>
				<path class="st1" d="M109.8,68.8c0.5,0,0.5-0.8,0-0.8S109.3,68.8,109.8,68.8L109.8,68.8z"/>
			</g>
		</g>
		<g>
			<g>
				<path class="st1" d="M111.8,73.1c0.5,0,0.5-0.8,0-0.8C111.3,72.3,111.3,73.1,111.8,73.1L111.8,73.1z"/>
			</g>
		</g>
		<g>
			<g>
				<path class="st1" d="M109.5,79.7c0.5,0,0.5-0.8,0-0.8C109.1,79,109.1,79.7,109.5,79.7L109.5,79.7z"/>
			</g>
		</g>
		<g>
			<g>
				<path class="st1" d="M108.2,77.8c0.5,0,0.5-0.8,0-0.8S107.7,77.8,108.2,77.8L108.2,77.8z"/>
			</g>
		</g>
		<g>
			<g>
				<path class="st1" d="M110.7,76.5c0.5,0,0.5-0.8,0-0.8C110.2,75.8,110.2,76.5,110.7,76.5L110.7,76.5z"/>
			</g>
		</g>
		<g>
			<g>
				<path class="st1" d="M112.9,68.6c0.5,0,0.5-0.8,0-0.8C112.4,67.8,112.4,68.6,112.9,68.6L112.9,68.6z"/>
			</g>
		</g>
		<g>
			<g>
				<path class="st1" d="M112.9,64.5c0.5,0,0.5-0.7,0-0.7C112.4,63.7,112.4,64.5,112.9,64.5L112.9,64.5z"/>
			</g>
		</g>
		<g>
			<g>
				<path class="st1" d="M113.6,56.5c0.5,0,0.5-0.8,0-0.8C113.1,55.8,113.1,56.5,113.6,56.5L113.6,56.5z"/>
			</g>
		</g>
		<g>
			<g>
				<path class="st1" d="M114.4,48.8c0.5,0,0.5-0.8,0-0.8C114,48,114,48.8,114.4,48.8L114.4,48.8z"/>
			</g>
		</g>
		<g>
			<g>
				<path class="st1" d="M111.8,49c0.5,0,0.5-0.8,0-0.8C111.3,48.3,111.3,49,111.8,49L111.8,49z"/>
			</g>
		</g>
		<g>
			<g>
				<path class="st1" d="M113.8,43.6c0.5,0,0.5-0.8,0-0.8C113.3,42.9,113.3,43.6,113.8,43.6L113.8,43.6z"/>
			</g>
		</g>
		<g>
			<g>
				<path class="st1" d="M109.5,41.7c0.5,0,0.5-0.8,0-0.8C109.1,41,109.1,41.7,109.5,41.7L109.5,41.7z"/>
			</g>
		</g>
		<g>
			<g>
				<path class="st1" d="M112.1,39.4c0.1,0.3,0.3,0.6,0.4,0.9c0.2,0.4,0.9,0,0.6-0.4c-0.1-0.3-0.3-0.6-0.4-0.9
					C112.5,38.6,111.9,38.9,112.1,39.4L112.1,39.4z"/>
			</g>
		</g>
		<g>
			<g>
				<path class="st1" d="M109.3,44.7c0.5,0,0.5-0.8,0-0.8C108.8,44,108.8,44.7,109.3,44.7L109.3,44.7z"/>
			</g>
		</g>
		<g>
			<g>
				<path class="st1" d="M104.2,39.6c0.5,0,0.5-0.8,0-0.8S103.7,39.6,104.2,39.6L104.2,39.6z"/>
			</g>
		</g>
		<g>
			<g>
				<path class="st1" d="M97.3,37.4c0.5,0,0.5-0.8,0-0.8C96.8,36.7,96.8,37.4,97.3,37.4L97.3,37.4z"/>
			</g>
		</g>
		<g>
			<g>
				<path class="st1" d="M106.4,34c0.5,0,0.5-0.8,0-0.8S105.9,34,106.4,34L106.4,34z"/>
			</g>
		</g>
		<g>
			<g>
				<path class="st1" d="M99.5,41.1c0.5,0,0.5-0.8,0-0.8S99,41.1,99.5,41.1L99.5,41.1z"/>
			</g>
		</g>
		<g>
			<g>
				<path class="st1" d="M101.1,37.2c0.5,0,0.5-0.8,0-0.8S100.6,37.2,101.1,37.2L101.1,37.2z"/>
			</g>
		</g>
		<g>
			<g>
				<path class="st1" d="M107.3,37.4c0.5,0,0.5-0.8,0-0.8C106.8,36.7,106.8,37.4,107.3,37.4L107.3,37.4z"/>
			</g>
		</g>
		<g>
			<g>
				<path class="st1" d="M113.3,37.2c0.5,0,0.5-0.8,0-0.8S112.8,37.2,113.3,37.2L113.3,37.2z"/>
			</g>
		</g>
		<g>
			<g>
				<path class="st1" d="M110,37.4c0.5,0,0.5-0.8,0-0.8C109.5,36.7,109.5,37.4,110,37.4L110,37.4z"/>
			</g>
		</g>
		<g>
			<g>
				<path class="st1" d="M110.2,34.6c0.5,0,0.5-0.8,0-0.8C109.7,33.9,109.7,34.6,110.2,34.6L110.2,34.6z"/>
			</g>
		</g>
		<g>
			<g>
				<path class="st1" d="M103.5,35.3c0.5,0,0.5-0.8,0-0.8S103,35.3,103.5,35.3L103.5,35.3z"/>
			</g>
		</g>
		<g>
			<g>
				<path class="st1" d="M104.2,85.3c0.5,0,0.5-0.8,0-0.8C103.7,84.6,103.7,85.3,104.2,85.3L104.2,85.3z"/>
			</g>
		</g>
		<g>
			<g>
				<path class="st1" d="M104.6,92.4c0.5,0,0.5-0.8,0-0.8C104.1,91.7,104.1,92.4,104.6,92.4L104.6,92.4z"/>
			</g>
		</g>
		<g>
			<g>
				<path class="st1" d="M93.9,92.4c0.5,0,0.5-0.8,0-0.8C93.4,91.7,93.4,92.4,93.9,92.4L93.9,92.4z"/>
			</g>
		</g>
		<g>
			<g>
				<path class="st1" d="M88.8,87.7c0.5,0,0.5-0.8,0-0.8C88.3,86.9,88.3,87.7,88.8,87.7L88.8,87.7z"/>
			</g>
		</g>
		<g>
			<g>
				<path class="st1" d="M96.8,87.7c0.5,0,0.5-0.8,0-0.8C96.3,86.9,96.3,87.7,96.8,87.7L96.8,87.7z"/>
			</g>
		</g>
		<g>
			<g>
				<path class="st1" d="M100.2,91.1c0.5,0,0.5-0.8,0-0.8C99.7,90.4,99.7,91.1,100.2,91.1L100.2,91.1z"/>
			</g>
		</g>
		<g>
			<g>
				<path class="st1" d="M99.3,80.6c0.5,0,0.5-0.8,0-0.8C98.8,79.8,98.8,80.6,99.3,80.6L99.3,80.6z"/>
			</g>
		</g>
		<g>
			<g>
				<path class="st1" d="M92.1,84.9c0.5,0,0.5-0.8,0-0.8C91.7,84.1,91.7,84.9,92.1,84.9L92.1,84.9z"/>
			</g>
		</g>
		<g>
			<g>
				<path class="st1" d="M94.6,87.7c0.5,0,0.5-0.8,0-0.8C94.1,86.9,94.1,87.7,94.6,87.7L94.6,87.7z"/>
			</g>
		</g>
		<g>
			<g>
				<path class="st1" d="M95.5,81.5c0.5,0,0.5-0.8,0-0.8S95,81.5,95.5,81.5L95.5,81.5z"/>
			</g>
		</g>
		<g>
			<g>
				<path class="st1" d="M93.7,77.4c0.5,0,0.5-0.8,0-0.8S93.2,77.4,93.7,77.4L93.7,77.4z"/>
			</g>
		</g>
		<g>
			<g>
				<path class="st1" d="M89.9,77.4c0.5,0,0.5-0.8,0-0.8S89.4,77.4,89.9,77.4L89.9,77.4z"/>
			</g>
		</g>
		<g>
			<g>
				<path class="st1" d="M93.3,69.4c0.5,0,0.5-0.8,0-0.8C92.8,68.7,92.8,69.4,93.3,69.4L93.3,69.4z"/>
			</g>
		</g>
		<g>
			<g>
				<path class="st1" d="M94.8,65.1c0.5,0,0.5-0.8,0-0.8C94.3,64.4,94.3,65.1,94.8,65.1L94.8,65.1z"/>
			</g>
		</g>
		<g>
			<g>
				<path class="st1" d="M93.3,73.9c0.1,0,0.1,0,0.2,0c0.5,0,0.5-0.8,0-0.8c-0.1,0-0.1,0-0.2,0C92.8,73.2,92.8,73.9,93.3,73.9
					L93.3,73.9z"/>
			</g>
		</g>
		<g>
			<g>
				<path class="st1" d="M89.7,72.2c0.5,0,0.5-0.8,0-0.8C89.2,71.5,89.2,72.2,89.7,72.2L89.7,72.2z"/>
			</g>
		</g>
		<g>
			<g>
				<path class="st1" d="M97,69.6c0.5,0,0.5-0.8,0-0.8C96.6,68.9,96.6,69.6,97,69.6L97,69.6z"/>
			</g>
		</g>
		<g>
			<g>
				<path class="st1" d="M97.7,64.3c0.5,0,0.5-0.8,0-0.8C97.2,63.5,97.2,64.3,97.7,64.3L97.7,64.3z"/>
			</g>
		</g>
		<g>
			<g>
				<path class="st1" d="M93,63.2c0.5,0,0.5-0.8,0-0.8C92.6,62.4,92.6,63.2,93,63.2L93,63.2z"/>
			</g>
		</g>
		<g>
			<g>
				<path class="st1" d="M91,58c0.5,0,0.5-0.8,0-0.8C90.5,57.3,90.5,58,91,58L91,58z"/>
			</g>
		</g>
		<g>
			<g>
				<path class="st1" d="M90.1,50.5c0.5,0,0.5-0.8,0-0.8C89.7,49.8,89.7,50.5,90.1,50.5L90.1,50.5z"/>
			</g>
		</g>
		<g>
			<g>
				<path class="st1" d="M90.1,45.6c0.5,0,0.5-0.8,0-0.8C89.7,44.8,89.7,45.6,90.1,45.6L90.1,45.6z"/>
			</g>
		</g>
		<g>
			<g>
				<path class="st1" d="M90.1,40.2c0.5,0,0.5-0.8,0-0.8C89.7,39.5,89.7,40.2,90.1,40.2L90.1,40.2z"/>
			</g>
		</g>
		<g>
			<g>
				<path class="st1" d="M95.7,42.3c0.5,0,0.5-0.8,0-0.8C95.2,41.6,95.2,42.3,95.7,42.3L95.7,42.3z"/>
			</g>
		</g>
		<g>
			<g>
				<path class="st1" d="M95.3,48.2c0.5,0,0.5-0.8,0-0.8S94.8,48.2,95.3,48.2L95.3,48.2z"/>
			</g>
		</g>
		<g>
			<g>
				<path class="st1" d="M93.5,53.1c0.5,0,0.5-0.8,0-0.8S93,53.1,93.5,53.1L93.5,53.1z"/>
			</g>
		</g>
		<g>
			<g>
				<path class="st1" d="M88.8,53.7c0.5,0,0.5-0.8,0-0.8C88.3,53,88.3,53.7,88.8,53.7L88.8,53.7z"/>
			</g>
		</g>
		<g>
			<g>
				<path class="st1" d="M93.7,48.2c0.5,0,0.5-0.8,0-0.8S93.2,48.2,93.7,48.2L93.7,48.2z"/>
			</g>
		</g>
		<g>
			<g>
				<path class="st1" d="M93.9,44.5c0.5,0,0.5-0.8,0-0.8S93.4,44.5,93.9,44.5L93.9,44.5z"/>
			</g>
		</g>
		<g>
			<g>
				<path class="st1" d="M89.2,49.4c0.5,0,0.5-0.8,0-0.8C88.8,48.7,88.8,49.4,89.2,49.4L89.2,49.4z"/>
			</g>
		</g>
		<g>
			<g>
				<path class="st1" d="M93.5,40.6c0.5,0,0.5-0.8,0-0.8C93,39.9,93,40.6,93.5,40.6L93.5,40.6z"/>
			</g>
		</g>
		<g>
			<g>
				<path class="st1" d="M92.4,37.6c0.5,0,0.5-0.8,0-0.8C91.9,36.9,91.9,37.6,92.4,37.6L92.4,37.6z"/>
			</g>
		</g>
		<g>
			<g>
				<path class="st1" d="M87.4,42.3c0.2,0.1,0.4,0.1,0.7,0.2c0.5,0.2,0.7-0.6,0.2-0.7c-0.2-0.1-0.4-0.1-0.7-0.2
					C87.1,41.4,86.9,42.2,87.4,42.3L87.4,42.3z"/>
			</g>
		</g>
		<g>
			<g>
				<path class="st1" d="M96.2,56.5c0.5,0,0.5-0.8,0-0.8C95.7,55.8,95.7,56.5,96.2,56.5L96.2,56.5z"/>
			</g>
		</g>
		<g>
			<g>
				<path class="st1" d="M94.8,62.1c0.5,0,0.5-0.8,0-0.8C94.3,61.4,94.3,62.1,94.8,62.1L94.8,62.1z"/>
			</g>
		</g>
		<g>
			<g>
				<path class="st1" d="M94.7,59.8c0-0.1,0-0.1,0-0.2c0-0.5-0.8-0.5-0.8,0c0,0.1,0,0.1,0,0.2C94,60.3,94.7,60.3,94.7,59.8
					L94.7,59.8z"/>
			</g>
		</g>
		<g>
			<g>
				<path class="st1" d="M92.6,55.7c0.5,0,0.5-0.8,0-0.8S92.1,55.7,92.6,55.7L92.6,55.7z"/>
			</g>
		</g>
		<g>
			<g>
				<path class="st1" d="M95.9,52.2c0.5,0,0.5-0.8,0-0.8C95.5,51.5,95.4,52.2,95.9,52.2L95.9,52.2z"/>
			</g>
		</g>
		<g>
			<g>
				<path class="st1" d="M101.3,50.3c0.1,0,0.1,0,0.2,0c0.5,0,0.5-0.8,0-0.8c-0.1,0-0.1,0-0.2,0C100.8,49.5,100.8,50.3,101.3,50.3
					L101.3,50.3z"/>
			</g>
		</g>
		<g>
			<g>
				<path class="st1" d="M90.4,64.9c0.5,0,0.5-0.8,0-0.8C89.9,64.2,89.9,64.9,90.4,64.9L90.4,64.9z"/>
			</g>
		</g>
		<g>
			<g>
				<path class="st1" d="M89,69c0.5,0,0.5-0.8,0-0.8S88.5,69,89,69L89,69z"/>
			</g>
		</g>
		<g>
			<g>
				<path class="st1" d="M87.9,59.1c0.1,0,0.1,0,0.2,0c0.5,0,0.5-0.8,0-0.8c-0.1,0-0.1,0-0.2,0C87.4,58.4,87.4,59.1,87.9,59.1
					L87.9,59.1z"/>
			</g>
		</g>
		<g>
			<g>
				<path class="st1" d="M89.9,63c0.5,0,0.5-0.8,0-0.8S89.4,63,89.9,63L89.9,63z"/>
			</g>
		</g>
		<g>
			<g>
				<path class="st1" d="M99.3,85.3c0.5,0,0.5-0.8,0-0.8C98.8,84.6,98.8,85.3,99.3,85.3L99.3,85.3z"/>
			</g>
		</g>
		<g>
			<g>
				<path class="st1" d="M90.4,81c0.5,0,0.5-0.8,0-0.8C89.9,80.3,89.9,81,90.4,81L90.4,81z"/>
			</g>
		</g>
		<g>
			<g>
				<path class="st1" d="M87.7,85.1c0.5,0,0.5-0.8,0-0.8C87.2,84.4,87.2,85.1,87.7,85.1L87.7,85.1z"/>
			</g>
		</g>
		<g>
			<g>
				<path class="st1" d="M87.9,93c0.1,0.1,0.3,0.1,0.4,0.2c0.4,0.2,0.8-0.4,0.4-0.6c-0.1-0.1-0.3-0.1-0.4-0.2
					C87.9,92.2,87.5,92.8,87.9,93L87.9,93z"/>
			</g>
		</g>
		<g>
			<g>
				<path class="st1" d="M91.7,90c0.5,0,0.5-0.8,0-0.8C91.2,89.3,91.2,90,91.7,90L91.7,90z"/>
			</g>
		</g>
		<g>
			<g>
				<path class="st1" d="M97.5,94.8c0.5,0,0.5-0.8,0-0.8S97,94.8,97.5,94.8L97.5,94.8z"/>
			</g>
		</g>
		<g>
			<g>
				<path class="st1" d="M97.5,90.7c0.5,0,0.5-0.8,0-0.8C97,89.9,97,90.7,97.5,90.7L97.5,90.7z"/>
			</g>
		</g>
		<g>
			<g>
				<path class="st1" d="M102,86.8c0.1,0.1,0.3,0.1,0.4,0.2c0.4,0.2,0.8-0.4,0.4-0.6c-0.1-0.1-0.3-0.1-0.4-0.2
					C101.9,85.9,101.6,86.6,102,86.8L102,86.8z"/>
			</g>
		</g>
		<g>
			<g>
				<path class="st1" d="M104.2,90.3c0.5,0,0.5-0.8,0-0.8S103.7,90.3,104.2,90.3L104.2,90.3z"/>
			</g>
		</g>
		<g>
			<g>
				<path class="st1" d="M106.2,85.1c0.5,0,0.5-0.8,0-0.8C105.7,84.4,105.7,85.1,106.2,85.1L106.2,85.1z"/>
			</g>
		</g>
		<g>
			<g>
				<path class="st1" d="M109.9,82.4c0.1,0.1,0.1,0.1,0.2,0.2c0.3,0.3,0.9-0.2,0.5-0.5c-0.1-0.1-0.1-0.1-0.2-0.2
					C110.1,81.6,109.6,82.1,109.9,82.4L109.9,82.4z"/>
			</g>
		</g>
		<g>
			<g>
				<path class="st1" d="M109.6,88c0,0.1,0,0.1,0,0.2c0,0.5,0.8,0.5,0.8,0c0-0.1,0-0.1,0-0.2C110.4,87.5,109.6,87.5,109.6,88
					L109.6,88z"/>
			</g>
		</g>
		<g>
			<g>
				<path class="st1" d="M110,90.7c0.5,0,0.5-0.8,0-0.8C109.5,89.9,109.5,90.7,110,90.7L110,90.7z"/>
			</g>
		</g>
		<g>
			<g>
				<path class="st1" d="M107.5,87.3c0.5,0,0.5-0.8,0-0.8S107,87.3,107.5,87.3L107.5,87.3z"/>
			</g>
		</g>
		<g>
			<g>
				<path class="st1" d="M110.2,85.3c0.5,0,0.5-0.8,0-0.8C109.7,84.6,109.7,85.3,110.2,85.3L110.2,85.3z"/>
			</g>
		</g>
		<g>
			<g>
				<path class="st1" d="M105.3,81.9c0.5,0,0.5-0.8,0-0.8S104.8,81.9,105.3,81.9L105.3,81.9z"/>
			</g>
		</g>
		<g>
			<g>
				<path class="st1" d="M101.5,82.1c0.5,0,0.5-0.8,0-0.8C101,81.3,101,82.1,101.5,82.1L101.5,82.1z"/>
			</g>
		</g>
		<g>
			<g>
				<path class="st1" d="M88.1,73.7c0.5,0,0.5-0.8,0-0.8C87.6,73,87.6,73.7,88.1,73.7L88.1,73.7z"/>
			</g>
		</g>
		<g>
			<g>
				<path class="st1" d="M87.9,79.7c0.5,0,0.5-0.8,0-0.8C87.4,79,87.4,79.7,87.9,79.7L87.9,79.7z"/>
			</g>
		</g>
		<g>
			<g>
				<path class="st1" d="M93.9,81c0.5,0,0.5-0.8,0-0.8C93.4,80.3,93.4,81,93.9,81L93.9,81z"/>
			</g>
		</g>
		<g>
			<g>
				<path class="st1" d="M90.8,86c0.5,0,0.5-0.8,0-0.8S90.3,86,90.8,86L90.8,86z"/>
			</g>
		</g>
		<g>
			<g>
				<path class="st1" d="M95,86c0.5,0,0.5-0.8,0-0.8C94.6,85.2,94.6,86,95,86L95,86z"/>
			</g>
		</g>
		<g>
			<g>
				<path class="st1" d="M98.2,78.4c0.5,0,0.5-0.8,0-0.8C97.7,77.7,97.7,78.4,98.2,78.4L98.2,78.4z"/>
			</g>
		</g>
		<g>
			<g>
				<path class="st1" d="M97.3,73.5c0.5,0,0.5-0.8,0-0.8C96.8,72.8,96.8,73.5,97.3,73.5L97.3,73.5z"/>
			</g>
		</g>
		<g>
			<g>
				<path class="st1" d="M86.8,57c0.5,0,0.5-0.8,0-0.8S86.3,57,86.8,57L86.8,57z"/>
			</g>
		</g>
		<g>
			<g>
				<path class="st1" d="M87.2,46.4c0.5,0,0.5-0.8,0-0.8C86.8,45.7,86.8,46.4,87.2,46.4L87.2,46.4z"/>
			</g>
		</g>
		<g>
			<g>
				<path class="st1" d="M94.8,71.8c0.5,0,0.5-0.8,0-0.8S94.3,71.8,94.8,71.8L94.8,71.8z"/>
			</g>
		</g>
		<g>
			<g>
				<path class="st1" d="M95.5,67.1c0.5,0,0.5-0.8,0-0.8C95,66.3,95,67.1,95.5,67.1L95.5,67.1z"/>
			</g>
		</g>
		<g>
			<g>
				<path class="st1" d="M92.1,97.2c0.3,0.3,0.6,0.6,0.9,0.9s0.9-0.2,0.5-0.5c-0.3-0.3-0.6-0.6-0.9-0.9
					C92.3,96.4,91.8,96.9,92.1,97.2L92.1,97.2z"/>
			</g>
		</g>
		<g>
			<g>
				<path class="st1" d="M103.3,96.9c0.5,0,0.5-0.8,0-0.8C102.8,96.2,102.8,96.9,103.3,96.9L103.3,96.9z"/>
			</g>
		</g>
		<g>
			<g>
				<path class="st1" d="M100.6,95.6c0.2,0,0.4,0,0.7,0c0.5,0,0.5-0.8,0-0.8c-0.2,0-0.4,0-0.7,0C100.1,94.9,100.1,95.6,100.6,95.6
					L100.6,95.6z"/>
			</g>
		</g>
		<g>
			<g>
				<path class="st1" d="M108.6,95.2c0.1,0,0.3,0,0.4,0c0.5,0,0.5-0.8,0-0.8c-0.1,0-0.3,0-0.4,0C108.2,94.5,108.2,95.2,108.6,95.2
					L108.6,95.2z"/>
			</g>
		</g>
		<g>
			<g>
				<path class="st1" d="M112.7,83.2c0.1,0,0.1,0,0.2,0c0.5,0,0.5-0.8,0-0.8c-0.1,0-0.1,0-0.2,0C112.2,82.4,112.2,83.2,112.7,83.2
					L112.7,83.2z"/>
			</g>
		</g>
		<g>
			<g>
				<path class="st1" d="M114.2,76.5c0.1,0,0.1,0,0.2,0c0.5,0,0.5-0.8,0-0.8c-0.1,0-0.1,0-0.2,0C113.7,75.8,113.7,76.5,114.2,76.5
					L114.2,76.5z"/>
			</g>
		</g>
	</g>
	<g>
		<g>
			<path class="st1" d="M95.2,34.4c0.5,0,0.5-0.8,0-0.8C94.8,33.6,94.8,34.4,95.2,34.4L95.2,34.4z"/>
		</g>
	</g>
	<g>
		<g>
			<path class="st1" d="M88.1,35.4c0.5,0,0.5-0.8,0-0.8C87.7,34.6,87.7,35.4,88.1,35.4L88.1,35.4z"/>
		</g>
	</g>
	<g>
		<g>
			<path class="st1" d="M87.1,50.6c0.5,0,0.5-0.8,0-0.8C86.7,49.8,86.7,50.6,87.1,50.6L87.1,50.6z"/>
		</g>
	</g>
	<g>
		<g>
			<path class="st1" d="M87.1,64.8c0.5,0,0.5-0.8,0-0.8C86.7,64,86.7,64.8,87.1,64.8L87.1,64.8z"/>
		</g>
	</g>
	<g>
		<g>
			<path class="st1" d="M87.1,39.4c0.5,0,0.5-0.8,0-0.8C86.7,38.7,86.7,39.4,87.1,39.4L87.1,39.4z"/>
		</g>
	</g>
	<g>
		<g>
			<path class="st1" d="M91.2,35.4c0.5,0,0.5-0.8,0-0.8C90.7,34.6,90.7,35.4,91.2,35.4L91.2,35.4z"/>
		</g>
	</g>
	<g>
		<g>
			<path class="st1" d="M99.3,34.4c0.5,0,0.5-0.8,0-0.8C98.8,33.6,98.8,34.4,99.3,34.4L99.3,34.4z"/>
		</g>
	</g>
	<g>
		<g>
			<path class="st1" d="M113.5,88.1c0.5,0,0.5-0.8,0-0.8C113,87.3,113,88.1,113.5,88.1L113.5,88.1z"/>
		</g>
	</g>
	<g>
		<g>
			<path class="st1" d="M113.5,95.2c0.5,0,0.5-0.8,0-0.8C113,94.4,113,95.2,113.5,95.2L113.5,95.2z"/>
		</g>
	</g>
	<g>
		<g>
			<path class="st1" d="M113.5,92.2c0.5,0,0.5-0.8,0-0.8C113,91.4,113,92.2,113.5,92.2L113.5,92.2z"/>
		</g>
	</g>
</g>
</svg>
