<?xml version="1.0" encoding="utf-8"?>
<!-- Generator: Adobe Illustrator 21.1.0, SVG Export Plug-In . SVG Version: 6.00 Build 0)  -->
<svg version="1.1" id="Layer_1" xmlns="http://www.w3.org/2000/svg" xmlns:xlink="http://www.w3.org/1999/xlink" x="0px" y="0px"
	 viewBox="0 0 203 202" style="enable-background:new 0 0 203 202;" xml:space="preserve">
<style type="text/css">
	.st0{fill:#FFFFFF;stroke:#000000;stroke-width:0.2994;}
	.st1{fill-rule:evenodd;clip-rule:evenodd;}
	.st2{fill:#CC1612;}
</style>
<g id="_x3C_NO_PEDESTRIANS_Sign_x3E_">
	<path class="st0" d="M199.3,185.1c0,8-6.5,14.5-14.5,14.5H18c-8,0-14.5-6.5-14.5-14.5V18.3c0-8,6.5-14.5,14.5-14.5h166.8
		c8,0,14.5,6.5,14.5,14.5V185.1z"/>
	<path d="M183.3,8.6H18.9C12.8,8.6,8,13.5,8,19.5v164.4c0,6,4.9,10.9,10.9,10.9h164.4c6,0,10.9-4.9,10.9-10.9V19.5
		C194.2,13.5,189.3,8.6,183.3,8.6z M189.8,183.2c0,4-3.3,7.3-7.3,7.3H19.6c-4,0-7.3-3.3-7.3-7.3V20.3c0-4,3.3-7.3,7.3-7.3h162.9
		c4,0,7.3,3.3,7.3,7.3V183.2z"/>
	<g>
		<path class="st1" d="M93,43.9c4.6,0,8.3,3.7,8.3,8.3c0,4.6-3.7,8.3-8.3,8.3c-4.6,0-8.3-3.7-8.3-8.3C84.7,47.6,88.4,43.9,93,43.9z"
			/>
		<path class="st1" d="M67.9,96.3l17.4-11.6c0.8-3.4,4-19.4,11.1-22c4.3-1.6,10.9,1.5,16.8,4.8c7.4,4.2,14.2,8.9,14.3,8.9l-0.2,25.4
			l-5.2,0.1l-2-21.1c-2-0.4-4.4-1.8-6.4-2.2c4.4,11.3,6.4,23.2,3.9,30.3l10.6,43.4l-7.9,2.9l-14.7-37.9l-7.2,7.6l-9.7,29.7l-9.7-2.9
			l8.5-31.8l9.9-17.8l-3.9-13.8l-3.9,4.3l-18.9,7.9L67.9,96.3z"/>
	</g>
	<path class="st2" d="M101.1,16.1c-47.3,0-85.6,38.3-85.6,85.6c0,47.3,38.3,85.6,85.6,85.6c47.3,0,85.6-38.3,85.6-85.6
		C186.6,54.5,148.3,16.1,101.1,16.1z M172.2,101.7c0,16.9-5.9,32.3-15.8,44.5L56.5,46.3c12.2-9.8,27.7-15.8,44.5-15.8
		C140.3,30.6,172.2,62.5,172.2,101.7z M29.9,101.7c0-17,6-32.6,16-44.9l100,100c-12.3,10-27.9,16-44.9,16
		C61.9,172.8,29.9,140.9,29.9,101.7z"/>
</g>
</svg>
