<?xml version="1.0" encoding="utf-8"?>
<!-- Generator: Adobe Illustrator 21.1.0, SVG Export Plug-In . SVG Version: 6.00 Build 0)  -->
<svg version="1.1" id="Layer_1" xmlns="http://www.w3.org/2000/svg" xmlns:xlink="http://www.w3.org/1999/xlink" x="0px" y="0px"
	 viewBox="0 0 203 202" style="enable-background:new 0 0 203 202;" xml:space="preserve">
<style type="text/css">
	.st0{fill:#FFFFFF;stroke:#000000;stroke-width:0.25;}
	.st1{fill:#FFFFFF;stroke:#000000;}
	.st2{fill:#231F20;stroke:#231F20;stroke-width:3;}
	.st3{fill:none;}
	.st4{fill:#231F20;}
	.st5{fill:#CA2027;}
	.st6{fill:#FFFFFF;}
</style>
<g>
	<g>
		<path class="st0" d="M100,144.3c0,1.8-1.5,3.3-3.3,3.3H4.6c-1.8,0-3.3-1.5-3.3-3.3v-99c0-1.8,1.5-3.3,3.3-3.3h92.1
			c1.8,0,3.3,1.5,3.3,3.3V144.3z"/>
		<path class="st1" d="M97.3,141.6c0,1.8-1.5,3.3-3.3,3.3H7.3c-1.8,0-3.3-1.5-3.3-3.3V47.7c0-1.8,1.5-3.3,3.3-3.3H94
			c1.8,0,3.3,1.5,3.3,3.3V141.6z"/>
	</g>
	<g>
		<polygon class="st2" points="87.4,138.6 72.3,138.5 12.6,78 27.2,78.1 		"/>
		<polygon class="st2" points="76.4,78.1 91,78 31.3,138.5 15.7,138.6 		"/>
	</g>
	<g>
		<rect x="11.6" y="54.5" class="st3" width="84.5" height="24.3"/>
		<path class="st4" d="M12.5,63.1V50.7h2.9c1.1,0,1.8,0.1,2.2,0.2c0.5,0.2,0.9,0.6,1.3,1.2s0.5,1.4,0.5,2.4c0,0.8-0.1,1.4-0.3,1.9
			c-0.2,0.5-0.5,0.9-0.8,1.2c-0.3,0.3-0.6,0.5-0.9,0.6c-0.4,0.1-1.1,0.2-1.9,0.2h-1.2v4.7H12.5z M14.4,52.8v3.5h1
			c0.7,0,1.2-0.1,1.4-0.2c0.2-0.1,0.4-0.3,0.6-0.6c0.1-0.3,0.2-0.6,0.2-1c0-0.5-0.1-0.8-0.3-1.1c-0.2-0.3-0.4-0.5-0.7-0.6
			c-0.2-0.1-0.7-0.1-1.3-0.1H14.4z"/>
		<path class="st4" d="M20.9,63.1V50.7h6.7v2.1h-4.9v2.8h4.5v2.1h-4.5V61h5v2.1H20.9z"/>
		<path class="st4" d="M29.3,50.7h3.3c0.8,0,1.3,0.1,1.7,0.2c0.5,0.2,1,0.6,1.4,1.1c0.4,0.5,0.7,1.2,0.9,2s0.3,1.8,0.3,2.9
			c0,1-0.1,1.9-0.3,2.7c-0.2,0.9-0.5,1.6-1,2.2c-0.3,0.4-0.7,0.8-1.3,1c-0.4,0.2-0.9,0.3-1.6,0.3h-3.4V50.7z M31.2,52.8V61h1.4
			c0.5,0,0.9,0,1.1-0.1c0.3-0.1,0.5-0.3,0.7-0.5c0.2-0.2,0.4-0.6,0.5-1.2s0.2-1.3,0.2-2.3s-0.1-1.7-0.2-2.2s-0.3-0.9-0.5-1.2
			s-0.5-0.5-0.8-0.6c-0.3-0.1-0.8-0.1-1.5-0.1H31.2z"/>
		<path class="st4" d="M38.4,63.1V50.7h6.7v2.1h-4.9v2.8h4.5v2.1h-4.5V61h5v2.1H38.4z"/>
		<path class="st4" d="M46.4,59.1l1.8-0.2c0.1,0.8,0.3,1.4,0.6,1.8c0.3,0.4,0.8,0.6,1.3,0.6c0.6,0,1-0.2,1.3-0.5
			c0.3-0.3,0.4-0.7,0.4-1.2c0-0.3-0.1-0.5-0.2-0.8c-0.1-0.2-0.3-0.4-0.7-0.5c-0.2-0.1-0.7-0.3-1.5-0.5c-1-0.3-1.7-0.7-2.1-1.2
			c-0.6-0.7-0.8-1.5-0.8-2.5c0-0.6,0.1-1.2,0.4-1.8c0.3-0.6,0.6-1,1.1-1.3s1.1-0.4,1.8-0.4c1.1,0,2,0.3,2.6,1s0.9,1.6,0.9,2.7
			l-1.8,0.1c-0.1-0.6-0.2-1.1-0.5-1.4c-0.3-0.3-0.6-0.4-1.2-0.4c-0.5,0-0.9,0.2-1.2,0.5c-0.2,0.2-0.3,0.5-0.3,0.8
			c0,0.3,0.1,0.5,0.3,0.8c0.2,0.3,0.8,0.5,1.7,0.8s1.5,0.6,2,0.9c0.4,0.3,0.8,0.7,1,1.3c0.2,0.5,0.4,1.2,0.4,2c0,0.7-0.1,1.4-0.4,2
			s-0.7,1.1-1.2,1.4c-0.5,0.3-1.2,0.5-2,0.5c-1.1,0-2-0.4-2.6-1.1C46.9,61.5,46.5,60.5,46.4,59.1z"/>
		<path class="st4" d="M57.3,63.1V52.8h-2.7v-2.1h7.2v2.1h-2.7v10.3H57.3z"/>
		<path class="st4" d="M63,63.1V50.7h3.8c1,0,1.7,0.1,2.1,0.3c0.4,0.2,0.8,0.6,1,1.2c0.3,0.6,0.4,1.2,0.4,2c0,0.9-0.2,1.7-0.6,2.3
			c-0.4,0.6-1,1-1.8,1.2c0.4,0.3,0.7,0.7,1,1c0.3,0.4,0.6,1.1,1,2l1.1,2.4h-2.2l-1.3-2.7c-0.5-1-0.8-1.6-1-1.8s-0.4-0.4-0.5-0.5
			c-0.2-0.1-0.5-0.1-0.9-0.1h-0.4v5.2H63z M64.8,55.9h1.3c0.9,0,1.4-0.1,1.6-0.2c0.2-0.1,0.4-0.3,0.5-0.5c0.1-0.3,0.2-0.6,0.2-0.9
			c0-0.4-0.1-0.8-0.2-1c-0.2-0.3-0.4-0.4-0.7-0.5c-0.1,0-0.6,0-1.3,0h-1.4V55.9z"/>
		<path class="st4" d="M72,63.1V50.7h1.8v12.5H72z"/>
		<path class="st4" d="M83.7,63.1h-2l-0.8-2.8h-3.6l-0.7,2.8h-1.9l3.5-12.5h1.9L83.7,63.1z M80.3,58.2l-1.2-4.6l-1.2,4.6H80.3z"/>
		<path class="st4" d="M84.7,63.1V50.7h1.8l3.7,8.3v-8.3h1.7v12.5H90L86.4,55v8.1H84.7z"/>
	</g>
</g>
<g>
	<g>
		<path class="st0" d="M201.7,144.3c0,1.8-1.5,3.3-3.3,3.3h-92.1c-1.8,0-3.3-1.5-3.3-3.3v-99c0-1.8,1.5-3.3,3.3-3.3h92.1
			c1.8,0,3.3,1.5,3.3,3.3V144.3z"/>
		<path class="st1" d="M199,141.6c0,1.8-1.5,3.3-3.3,3.3H109c-1.8,0-3.3-1.5-3.3-3.3V47.7c0-1.8,1.5-3.3,3.3-3.3h86.7
			c1.8,0,3.3,1.5,3.3,3.3V141.6z"/>
		<g>
			<path class="st5" d="M199.1,47.8c0-1.8-1.4-3.3-3.1-3.3h-87c-1.7,0-3.1,1.5-3.1,3.3v49.8h93.3V47.8z"/>
		</g>
	</g>
	<g>
		<rect x="110.1" y="107.6" class="st3" width="84.5" height="49.4"/>
		<path class="st4" d="M125.4,116.2v-12.5h1.8v4.9h3.6v-4.9h1.8v12.5h-1.8v-5.4h-3.6v5.4H125.4z"/>
		<path class="st4" d="M134.5,116.2v-12.5h6.7v2.1h-4.9v2.8h4.5v2.1h-4.5v3.4h5v2.1H134.5z"/>
		<path class="st4" d="M142.9,116.2v-12.5h3.8c1,0,1.7,0.1,2.1,0.3c0.4,0.2,0.8,0.6,1,1.2c0.3,0.6,0.4,1.2,0.4,2
			c0,0.9-0.2,1.7-0.6,2.3c-0.4,0.6-1,1-1.8,1.2c0.4,0.3,0.7,0.7,1,1c0.3,0.4,0.6,1.1,1,2l1.1,2.4h-2.2l-1.3-2.7
			c-0.5-1-0.8-1.6-1-1.8s-0.4-0.4-0.5-0.5c-0.2-0.1-0.5-0.1-0.9-0.1h-0.4v5.2H142.9z M144.7,109h1.3c0.9,0,1.4-0.1,1.6-0.2
			c0.2-0.1,0.4-0.3,0.5-0.5c0.1-0.3,0.2-0.6,0.2-0.9c0-0.4-0.1-0.8-0.2-1c-0.2-0.3-0.4-0.4-0.7-0.5c-0.1,0-0.6,0-1.3,0h-1.4V109z"/>
		<path class="st4" d="M152,116.2v-12.5h6.7v2.1h-4.9v2.8h4.5v2.1h-4.5v3.4h5v2.1H152z"/>
		<path class="st4" d="M165.9,116.2v-10.3h-2.7v-2.1h7.2v2.1h-2.7v10.3H165.9z"/>
		<path class="st4" d="M171,110.1c0-1.3,0.1-2.3,0.4-3.2c0.2-0.6,0.5-1.2,0.8-1.7c0.4-0.5,0.7-0.9,1.2-1.1c0.6-0.3,1.2-0.5,1.9-0.5
			c1.3,0,2.4,0.6,3.2,1.7c0.8,1.1,1.2,2.7,1.2,4.8c0,2-0.4,3.6-1.2,4.7s-1.9,1.7-3.2,1.7c-1.3,0-2.4-0.6-3.2-1.7
			C171.4,113.6,171,112,171,110.1z M172.9,110c0,1.4,0.2,2.5,0.7,3.2c0.5,0.7,1.1,1.1,1.8,1.1c0.7,0,1.3-0.4,1.8-1.1
			c0.5-0.7,0.7-1.8,0.7-3.3c0-1.4-0.2-2.5-0.7-3.2c-0.5-0.7-1.1-1.1-1.8-1.1c-0.8,0-1.4,0.4-1.8,1.1
			C173.1,107.5,172.9,108.5,172.9,110z"/>
		<path class="st4" d="M125.4,132.7l1.8,0.8c-0.3,1.4-0.7,2.4-1.4,3s-1.4,1-2.4,1c-1.2,0-2.2-0.6-3-1.7c-0.8-1.1-1.2-2.7-1.2-4.6
			c0-2.1,0.4-3.7,1.2-4.8c0.8-1.1,1.8-1.7,3.1-1.7c1.1,0,2,0.5,2.7,1.4c0.4,0.5,0.7,1.3,0.9,2.3l-1.8,0.6c-0.1-0.6-0.3-1.2-0.7-1.5
			s-0.8-0.6-1.2-0.6c-0.7,0-1.2,0.3-1.6,1s-0.6,1.7-0.6,3.2c0,1.6,0.2,2.7,0.6,3.4c0.4,0.7,0.9,1,1.6,1c0.5,0,0.9-0.2,1.2-0.6
			C125,134.3,125.3,133.6,125.4,132.7z"/>
		<path class="st4" d="M128.8,137.3v-12.5h3.8c1,0,1.7,0.1,2.1,0.3c0.4,0.2,0.8,0.6,1,1.2c0.3,0.6,0.4,1.2,0.4,2
			c0,0.9-0.2,1.7-0.6,2.3c-0.4,0.6-1,1-1.8,1.2c0.4,0.3,0.7,0.7,1,1c0.3,0.4,0.6,1.1,1,2l1.1,2.4h-2.2l-1.3-2.7
			c-0.5-1-0.8-1.6-1-1.8c-0.2-0.3-0.4-0.4-0.5-0.5c-0.2-0.1-0.5-0.1-0.9-0.1h-0.4v5.2H128.8z M130.6,130.1h1.3
			c0.9,0,1.4-0.1,1.6-0.2c0.2-0.1,0.4-0.3,0.5-0.5c0.1-0.3,0.2-0.6,0.2-0.9c0-0.4-0.1-0.8-0.2-1c-0.2-0.3-0.4-0.4-0.7-0.5
			c-0.1,0-0.6,0-1.3,0h-1.4V130.1z"/>
		<path class="st4" d="M137.5,131.1c0-1.3,0.1-2.3,0.4-3.2c0.2-0.6,0.5-1.2,0.8-1.7c0.4-0.5,0.7-0.9,1.2-1.1
			c0.6-0.3,1.2-0.5,1.9-0.5c1.3,0,2.4,0.6,3.2,1.7c0.8,1.1,1.2,2.7,1.2,4.8c0,2-0.4,3.6-1.2,4.7s-1.9,1.7-3.2,1.7
			c-1.3,0-2.4-0.6-3.2-1.7C137.9,134.7,137.5,133.1,137.5,131.1z M139.4,131.1c0,1.4,0.2,2.5,0.7,3.2c0.5,0.7,1.1,1.1,1.8,1.1
			c0.7,0,1.3-0.4,1.8-1.1c0.5-0.7,0.7-1.8,0.7-3.3c0-1.4-0.2-2.5-0.7-3.2c-0.5-0.7-1.1-1.1-1.8-1.1c-0.8,0-1.4,0.4-1.8,1.1
			C139.6,128.6,139.4,129.6,139.4,131.1z"/>
		<path class="st4" d="M147.2,133.2l1.8-0.2c0.1,0.8,0.3,1.4,0.6,1.8c0.3,0.4,0.8,0.6,1.3,0.6c0.6,0,1-0.2,1.3-0.5
			c0.3-0.3,0.4-0.7,0.4-1.2c0-0.3-0.1-0.5-0.2-0.8s-0.3-0.4-0.7-0.5c-0.2-0.1-0.7-0.3-1.5-0.5c-1-0.3-1.7-0.7-2.1-1.2
			c-0.6-0.7-0.8-1.5-0.8-2.5c0-0.6,0.1-1.2,0.4-1.8c0.3-0.6,0.6-1,1.1-1.3s1.1-0.4,1.8-0.4c1.1,0,2,0.3,2.6,1s0.9,1.6,0.9,2.7
			l-1.8,0.1c-0.1-0.6-0.2-1.1-0.5-1.4c-0.3-0.3-0.6-0.4-1.2-0.4c-0.5,0-0.9,0.2-1.2,0.5c-0.2,0.2-0.3,0.5-0.3,0.8
			c0,0.3,0.1,0.5,0.3,0.8c0.2,0.3,0.8,0.5,1.7,0.8c0.9,0.3,1.5,0.6,2,0.9c0.4,0.3,0.8,0.7,1,1.3s0.4,1.2,0.4,2c0,0.7-0.1,1.4-0.4,2
			s-0.7,1.1-1.2,1.4c-0.5,0.3-1.2,0.5-2,0.5c-1.1,0-2-0.4-2.6-1.1C147.7,135.7,147.3,134.6,147.2,133.2z"/>
		<path class="st4" d="M155.6,133.2l1.8-0.2c0.1,0.8,0.3,1.4,0.6,1.8c0.3,0.4,0.8,0.6,1.3,0.6c0.6,0,1-0.2,1.3-0.5
			c0.3-0.3,0.4-0.7,0.4-1.2c0-0.3-0.1-0.5-0.2-0.8c-0.1-0.2-0.3-0.4-0.7-0.5c-0.2-0.1-0.7-0.3-1.5-0.5c-1-0.3-1.7-0.7-2.1-1.2
			c-0.6-0.7-0.8-1.5-0.8-2.5c0-0.6,0.1-1.2,0.4-1.8c0.3-0.6,0.6-1,1.1-1.3s1.1-0.4,1.8-0.4c1.1,0,2,0.3,2.6,1s0.9,1.6,0.9,2.7
			l-1.8,0.1c-0.1-0.6-0.2-1.1-0.5-1.4c-0.3-0.3-0.6-0.4-1.2-0.4c-0.5,0-0.9,0.2-1.2,0.5c-0.2,0.2-0.3,0.5-0.3,0.8
			c0,0.3,0.1,0.5,0.3,0.8c0.2,0.3,0.8,0.5,1.7,0.8c0.9,0.3,1.5,0.6,2,0.9c0.4,0.3,0.8,0.7,1,1.3c0.2,0.5,0.4,1.2,0.4,2
			c0,0.7-0.1,1.4-0.4,2s-0.7,1.1-1.2,1.4c-0.5,0.3-1.2,0.5-2,0.5c-1.1,0-2-0.4-2.6-1.1C156.1,135.7,155.7,134.6,155.6,133.2z"/>
		<path class="st4" d="M164.4,137.3v-12.5h1.8v12.5H164.4z"/>
		<path class="st4" d="M168,137.3v-12.5h1.8l3.7,8.3v-8.3h1.7v12.5h-1.8l-3.6-8.1v8.1H168z"/>
		<path class="st4" d="M181.3,132.7v-2.1h3.9v5c-0.4,0.5-0.9,1-1.7,1.3c-0.7,0.4-1.5,0.6-2.2,0.6c-0.9,0-1.8-0.3-2.5-0.8
			c-0.7-0.5-1.2-1.3-1.6-2.3c-0.4-1-0.5-2.1-0.5-3.3c0-1.3,0.2-2.4,0.6-3.5c0.4-1,1-1.8,1.7-2.3c0.6-0.4,1.3-0.6,2.2-0.6
			c1.1,0,2,0.3,2.6,1c0.6,0.6,1,1.5,1.2,2.7l-1.8,0.5c-0.1-0.6-0.4-1.1-0.7-1.4c-0.4-0.4-0.8-0.5-1.3-0.5c-0.8,0-1.4,0.3-1.9,1
			c-0.5,0.7-0.7,1.7-0.7,3.1c0,1.5,0.2,2.6,0.7,3.3c0.5,0.7,1.1,1.1,1.9,1.1c0.4,0,0.8-0.1,1.1-0.3c0.4-0.2,0.7-0.5,1-0.8v-1.6
			H181.3z"/>
	</g>
	<g>
		<rect x="110.1" y="55.9" class="st3" width="84.5" height="49.4"/>
		<path class="st6" d="M140.3,68.1V50.4h2.5l5.2,11.8V50.4h2.4v17.6h-2.6l-5.1-11.5v11.5H140.3z"/>
		<path class="st6" d="M152.6,59.4c0-1.8,0.2-3.3,0.6-4.5c0.3-0.9,0.7-1.7,1.2-2.4c0.5-0.7,1.1-1.2,1.6-1.6c0.8-0.5,1.7-0.7,2.8-0.7
			c1.9,0,3.4,0.8,4.5,2.4c1.1,1.6,1.7,3.9,1.7,6.7c0,2.8-0.6,5.1-1.7,6.7s-2.6,2.4-4.5,2.4c-1.9,0-3.4-0.8-4.5-2.4
			C153.2,64.4,152.6,62.2,152.6,59.4z M155.3,59.2c0,2,0.3,3.5,1,4.5c0.7,1,1.5,1.5,2.5,1.5s1.9-0.5,2.5-1.5s1-2.6,1-4.6
			c0-2-0.3-3.5-1-4.5c-0.6-1-1.5-1.5-2.6-1.5c-1.1,0-1.9,0.5-2.6,1.5S155.3,57.2,155.3,59.2z"/>
		<path class="st6" d="M114.2,89.1V71.5h4.1c1.6,0,2.6,0.1,3.1,0.3c0.7,0.3,1.3,0.8,1.8,1.7c0.5,0.9,0.7,2,0.7,3.4
			c0,1.1-0.1,2-0.4,2.7c-0.3,0.7-0.6,1.3-1.1,1.7c-0.4,0.4-0.9,0.7-1.3,0.8c-0.6,0.2-1.5,0.3-2.7,0.3h-1.7v6.6H114.2z M116.8,74.5v5
			h1.4c1,0,1.7-0.1,2-0.3c0.3-0.2,0.6-0.5,0.8-0.9c0.2-0.4,0.3-0.8,0.3-1.4c0-0.6-0.1-1.2-0.4-1.6c-0.3-0.4-0.6-0.7-1-0.8
			c-0.3-0.1-0.9-0.1-1.9-0.1H116.8z"/>
		<path class="st6" d="M136.3,89.1h-2.8l-1.1-4h-5.1l-1.1,4h-2.7l5-17.6h2.7L136.3,89.1z M131.5,82.2l-1.8-6.5l-1.7,6.5H131.5z"/>
		<path class="st6" d="M137,83.4l2.5-0.3c0.2,1.2,0.5,2,0.9,2.6s1.1,0.8,1.9,0.8c0.8,0,1.5-0.2,1.9-0.7c0.4-0.5,0.6-1.1,0.6-1.7
			c0-0.4-0.1-0.8-0.3-1.1c-0.2-0.3-0.5-0.5-0.9-0.8c-0.3-0.1-1-0.4-2.1-0.8c-1.4-0.5-2.4-1.1-2.9-1.7c-0.8-1-1.2-2.2-1.2-3.5
			c0-0.9,0.2-1.7,0.6-2.5s0.9-1.4,1.6-1.8c0.7-0.4,1.5-0.6,2.5-0.6c1.6,0,2.8,0.5,3.6,1.5c0.8,1,1.2,2.3,1.3,3.9l-2.6,0.2
			c-0.1-0.9-0.3-1.6-0.7-2c-0.4-0.4-0.9-0.6-1.6-0.6c-0.7,0-1.3,0.2-1.8,0.6c-0.3,0.3-0.4,0.6-0.4,1.1c0,0.4,0.1,0.8,0.4,1.1
			c0.3,0.4,1.1,0.8,2.4,1.2c1.3,0.4,2.2,0.8,2.8,1.3s1.1,1,1.4,1.8c0.3,0.8,0.5,1.7,0.5,2.8c0,1-0.2,2-0.6,2.8s-1,1.5-1.7,2
			c-0.7,0.4-1.7,0.6-2.8,0.6c-1.6,0-2.9-0.5-3.7-1.5C137.7,86.9,137.2,85.4,137,83.4z"/>
		<path class="st6" d="M148.9,83.4l2.5-0.3c0.2,1.2,0.5,2,0.9,2.6s1.1,0.8,1.9,0.8c0.8,0,1.5-0.2,1.9-0.7c0.4-0.5,0.6-1.1,0.6-1.7
			c0-0.4-0.1-0.8-0.3-1.1c-0.2-0.3-0.5-0.5-0.9-0.8c-0.3-0.1-1-0.4-2.1-0.8c-1.4-0.5-2.4-1.1-2.9-1.7c-0.8-1-1.2-2.2-1.2-3.5
			c0-0.9,0.2-1.7,0.6-2.5s0.9-1.4,1.6-1.8c0.7-0.4,1.5-0.6,2.5-0.6c1.6,0,2.8,0.5,3.6,1.5c0.8,1,1.2,2.3,1.3,3.9l-2.6,0.2
			c-0.1-0.9-0.3-1.6-0.7-2c-0.4-0.4-0.9-0.6-1.6-0.6c-0.7,0-1.3,0.2-1.8,0.6c-0.3,0.3-0.4,0.6-0.4,1.1c0,0.4,0.1,0.8,0.4,1.1
			c0.3,0.4,1.1,0.8,2.4,1.2c1.3,0.4,2.2,0.8,2.8,1.3s1.1,1,1.4,1.8c0.3,0.8,0.5,1.7,0.5,2.8c0,1-0.2,2-0.6,2.8s-1,1.5-1.7,2
			c-0.7,0.4-1.7,0.6-2.8,0.6c-1.6,0-2.9-0.5-3.7-1.5C149.6,86.9,149.1,85.4,148.9,83.4z"/>
		<path class="st6" d="M161.4,89.1V71.5h2.6v17.6H161.4z"/>
		<path class="st6" d="M166.4,89.1V71.5h2.5l5.2,11.8V71.5h2.4v17.6h-2.6l-5.1-11.5v11.5H166.4z"/>
		<path class="st6" d="M185.2,82.7v-3h5.6v7c-0.5,0.7-1.3,1.4-2.3,1.9c-1,0.5-2.1,0.8-3.1,0.8c-1.3,0-2.5-0.4-3.5-1.2
			c-1-0.8-1.7-1.9-2.2-3.3s-0.7-3-0.7-4.7c0-1.8,0.3-3.5,0.8-4.9c0.6-1.4,1.4-2.5,2.4-3.3c0.8-0.6,1.8-0.9,3.1-0.9
			c1.6,0,2.8,0.5,3.7,1.4c0.9,0.9,1.5,2.2,1.7,3.8l-2.6,0.7c-0.2-0.9-0.5-1.5-1-2c-0.5-0.5-1.1-0.8-1.9-0.8c-1.1,0-2,0.5-2.7,1.5
			c-0.7,1-1,2.4-1,4.4c0,2.1,0.3,3.7,1,4.7s1.6,1.6,2.6,1.6c0.5,0,1.1-0.1,1.6-0.4c0.5-0.3,1-0.6,1.4-1.1v-2.2H185.2z"/>
	</g>
</g>
</svg>
