<?xml version="1.0" encoding="utf-8"?>
<!-- Generator: Adobe Illustrator 21.1.0, SVG Export Plug-In . SVG Version: 6.00 Build 0)  -->
<svg version="1.1" id="Layer_1" xmlns="http://www.w3.org/2000/svg" xmlns:xlink="http://www.w3.org/1999/xlink" x="0px" y="0px"
	 viewBox="0 0 203 202" style="enable-background:new 0 0 203 202;" xml:space="preserve">
<style type="text/css">
	.st0{fill:#FEE503;stroke:#000000;stroke-width:0.25;}
	.st1{fill:none;stroke:#000000;stroke-width:2;}
</style>
<g>
	<g id="_x3C_PEDESTRIAN_CROSSING_Sign_x3E__2_">
		<path class="st0" d="M96.8,197.7c3,3,7.9,3,10.9,0l91.1-91.1c3-3,3-7.9,0-10.9l-91.1-91c-3-3-7.9-3-10.9,0L5.7,95.8
			c-3,3-3,7.9,0,10.9L96.8,197.7z"/>
		<path d="M9.3,104.7l89.5,89.5c1.9,1.9,5,1.9,6.9,0l89.5-89.5c1.9-1.9,1.9-5,0-6.9L105.7,8.3c-1.9-1.9-5-1.9-6.9,0L9.3,97.8
			C7.3,99.7,7.3,102.8,9.3,104.7z M12.7,99.5l87.6-87.8c1-1,2.6-1,3.6,0l87.8,87.6c1,1,1,2.6,0,3.6L104,190.6c-1,1-2.6,1-3.6,0
			l-87.7-87.5C11.7,102.2,11.7,100.5,12.7,99.5z"/>
		<g>
			<path d="M92.9,42.5c4.6,0,8.4,3.8,8.4,8.4s-3.8,8.4-8.4,8.4s-8.4-3.8-8.4-8.4C84.6,46.3,88.3,42.5,92.9,42.5z"/>
			<path d="M67.6,95.4l17.6-11.7c0.8-3.4,4-19.5,11.2-22.2c4.4-1.6,11,1.5,16.9,4.9c7.5,4.2,14.3,8.9,14.4,9l-0.1,25.6l-5.3,0.1
				l-2-21.3c-2-0.4-4.5-1.8-6.5-2.2c4.4,11.4,6.5,23.4,3.9,30.6l10.7,43.8l-8,2.9l-14.8-38.3l-7.2,7.7l-9.8,29.9l-9.8-2.9l8.6-32.1
				l10-17.9l-4-14l-3.9,4.3l-19.1,8L67.6,95.4z"/>
		</g>
	</g>
	<line class="st1" x1="76.8" y1="161.1" x2="130.9" y2="161.1"/>
</g>
</svg>
