<?xml version="1.0" encoding="utf-8"?>
<!-- Generator: Adobe Illustrator 21.1.0, SVG Export Plug-In . SVG Version: 6.00 Build 0)  -->
<svg version="1.1" id="Layer_1" xmlns="http://www.w3.org/2000/svg" xmlns:xlink="http://www.w3.org/1999/xlink" x="0px" y="0px"
	 viewBox="0 0 203 202" style="enable-background:new 0 0 203 202;" xml:space="preserve">
<style type="text/css">
	.st0{fill:#FEE503;stroke:#000000;stroke-width:0.25;}
	.st1{fill:#231F20;}
</style>
<path class="st0" d="M96.2,197.2c3,3,7.9,3,10.9,0l90.5-90.5c3-3,3-7.9,0-10.9L107.1,5.3c-3-3-7.9-3-10.9,0L5.7,95.9
	c-3,3-3,7.9,0,10.9L96.2,197.2z"/>
<path d="M9.2,104.7l89,89c1.9,1.9,5,1.9,6.9,0l89-89c1.9-1.9,1.9-5,0-6.9l-89-89c-1.9-1.9-5-1.9-6.9,0l-89,89
	C7.3,99.8,7.3,102.8,9.2,104.7z M12.7,99.6l87.1-87.3c1-1,2.6-1,3.6,0l87.3,87.1c1,1,1,2.6,0,3.6l-87.2,87.2c-1,1-2.6,1-3.6,0
	l-87.2-86.9C11.7,102.2,11.7,100.6,12.7,99.6z"/>
<g>
	<g>
		<rect x="71.6" y="55.6" class="st1" width="12.2" height="93.2"/>
		<polygon class="st1" points="139.7,148.7 127.7,148.7 127.7,110.7 102.4,85.1 102.4,55.6 114.4,55.6 114.4,80.9 139.7,107.8 		"/>
	</g>
	<rect x="103.3" y="93.2" class="st1" width="4.6" height="14.4"/>
	<rect x="103.3" y="114" class="st1" width="4.6" height="14.4"/>
	<rect x="103.3" y="134.8" class="st1" width="4.6" height="14.4"/>
</g>
</svg>
