<?xml version="1.0" encoding="utf-8"?>
<!-- Generator: Adobe Illustrator 21.1.0, SVG Export Plug-In . SVG Version: 6.00 Build 0)  -->
<svg version="1.1" id="Layer_1" xmlns="http://www.w3.org/2000/svg" xmlns:xlink="http://www.w3.org/1999/xlink" x="0px" y="0px"
	 viewBox="0 0 203 202" style="enable-background:new 0 0 203 202;" xml:space="preserve">
<style type="text/css">
	.st0{fill:#FEE503;stroke:#000000;stroke-width:0.25;}
</style>
<g>
	<path class="st0" d="M96.1,197.4c2.9,2.9,7.7,2.9,10.7,0l89-89c2.9-2.9,2.9-7.7,0-10.7l-89-89c-2.9-3-7.7-3-10.7,0l-89,89
		c-2.9,2.9-2.9,7.7,0,10.7L96.1,197.4z"/>
	<path d="M10.6,106.4l87.5,87.5c1.9,1.9,4.9,1.9,6.7,0l87.5-87.5c1.9-1.9,1.9-4.9,0-6.8l-87.5-87.5c-1.9-1.9-4.9-1.9-6.8,0
		L10.6,99.7C8.7,101.5,8.7,104.5,10.6,106.4z M14,101.4l85.6-85.8c1-1,2.6-1,3.6,0l85.8,85.6c1,1,1,2.6,0,3.6l-85.7,85.7
		c-1,1-2.6,1-3.6,0L14,104.9C13,103.9,13,102.3,14,101.4z"/>
</g>
<path d="M74.8,99.7C80.7,89.5,87.7,83,103.5,76l-0.2-0.7l-3.6-6c0,0-1-1.5-0.1-3.3c0.9-1.7,2.9-1.4,2.9-1.4l30.7,9.2l-19.5,25.3
	c0,0-1.4,1.5-3.2,0.6c-1.7-0.9-1.8-2.7-1.8-2.7l-0.6-7l-0.2-0.6C95.3,94.3,91,99.8,87,106.7c-3.6,6.3-3.5,14.4-3.3,24.6
	c0,1.9,0.1,10.2,0.1,12.2H69.7c0-1.9-0.1-10.1-0.1-11.9C69.4,120.2,69.2,109.4,74.8,99.7z"/>
</svg>
