<?xml version="1.0" encoding="utf-8"?>
<!-- Generator: Adobe Illustrator 21.1.0, SVG Export Plug-In . SVG Version: 6.00 Build 0)  -->
<svg version="1.1" id="Layer_1" xmlns="http://www.w3.org/2000/svg" xmlns:xlink="http://www.w3.org/1999/xlink" x="0px" y="0px"
	 viewBox="0 0 203 202" style="enable-background:new 0 0 203 202;" xml:space="preserve">
<style type="text/css">
	.st0{fill:#FEE503;stroke:#000000;stroke-width:0.25;}
</style>
<g id="_x3C_DIVIDED_HIGHWAY_Sign_x3E__1_">
	<path class="st0" d="M96.1,196.1c3,3,7.8,3,10.7,0l89.6-89.6c3-3,3-7.8,0-10.8L106.8,6.2c-3-3-7.8-3-10.7,0L6.5,95.8
		c-3,3-3,7.8,0,10.8L96.1,196.1z"/>
	<path d="M10,104.6l88,88c1.9,1.9,4.9,1.9,6.8,0l88.1-88.1c1.9-1.9,1.9-4.9,0-6.8l-88-88c-1.9-1.9-4.9-1.9-6.8,0L10,97.8
		C8.1,99.7,8.1,102.7,10,104.6z M13.4,99.5l86.1-86.3c1-1,2.6-1,3.6,0l86.3,86.1c1,1,1,2.6,0,3.6l-86.2,86.2c-1,1-2.6,1-3.6,0
		l-86.2-86C12.4,102.1,12.4,100.5,13.4,99.5z"/>
	<path d="M151.5,89.1l-19-27.6l-19,27.5c0,0-1,1.9,0.4,3.4c1.4,1.4,3.3,1,3.3,1l7.4-1.9h0.5l0.1,2.2c0,9.1-0.5,18.4-6.1,25.6
		c-5.7,7.3-8.8,14.9-8.8,24.1v10.5h14.8v-6.4c0-9.1,3.2-16.8,8.8-24c5.5-7.2,6-16.6,6.1-25.6v-6.2h0.4l7.5,1.9c0,0,1.8,0.5,3.3-0.9
		C152.6,91.1,151.5,89.1,151.5,89.1z"/>
	<path d="M97.6,126.2l-18.9,27.6l-19-27.5c0,0-1-1.9,0.4-3.4c1.4-1.4,3.3-1,3.3-1l7.4,1.9h0.5l0.1-2.2c0-9.1-0.5-18.4-6.1-25.6
		c-5.7-7.3-8.8-14.9-8.8-24V61.5h14.8v6.4c0,9.2,3.2,16.8,8.8,24.1c5.5,7.2,6,16.6,6.1,25.6v6.2h0.4l7.5-1.9c0,0,1.8-0.5,3.3,0.9
		C98.7,124.3,97.6,126.2,97.6,126.2z"/>
	<path d="M115.8,43.3c0,1.2,0,6.4-0.7,13.1c-0.6,5.6-2.1,12.2-3.6,18.3c-1.3,5.2-3.4,11.2-3.8,12.2c-0.8,1.9-3,5.4-7.3,5.3h-0.3
		c-4.3,0-6.5-3.4-7.3-5.3c-0.4-1-2.6-7-3.8-12.2c-1.5-6-3-12.7-3.6-18.3c-0.7-6.6-0.7-11.9-0.7-13.1L115.8,43.3z"/>
</g>
</svg>
