<?xml version="1.0" encoding="utf-8"?>
<!-- Generator: Adobe Illustrator 21.1.0, SVG Export Plug-In . SVG Version: 6.00 Build 0)  -->
<svg version="1.1" id="Layer_1" xmlns="http://www.w3.org/2000/svg" xmlns:xlink="http://www.w3.org/1999/xlink" x="0px" y="0px"
	 viewBox="0 0 203 202" style="enable-background:new 0 0 203 202;" xml:space="preserve">
<style type="text/css">
	.st0{fill:#F58532;}
</style>
<g>
	<g>
		<path d="M3.5,184.5c0,8,6.5,14.5,14.5,14.5h37.6L3.5,146.9V184.5z"/>
		<path d="M184.8,199c8,0,14.5-6.5,14.5-14.5v-37.6L147.2,199H184.8z"/>
		<path d="M18.1,3.3c-8,0-14.5,6.5-14.5,14.5v37.6L55.6,3.3H18.1z"/>
		<path d="M199.3,17.8c0-8-6.5-14.5-14.5-14.5h-37.6l52.1,52.1V17.8z"/>
		<polygon class="st0" points="147.2,3.3 55.6,3.3 3.5,55.4 3.5,146.9 55.6,199 147.2,199 199.3,146.9 199.3,55.4 		"/>
	</g>
	<g>
		<path d="M149.5,126.1c0,0-9.8-3.8-15,3.7c-4.2,6.1,3.4,24,3.4,24l-35.1-30.1L95,48.7c0,0-5.5,1.1-10.6-0.8
			c-5.2-1.9-7.6-4.3-7.6-4.3L42.8,78l13.8,13.4l-2.7,6.7l-2.4,77.6H63l5.5-53.1l9.1,16.3l2.1,36.7l11.2,0.1l-0.7-42.2l-6.8-19.3
			l38,32.5L105,176.2l44-0.2l34.9-38.9L149.5,126.1z M60,82l-4.7-4.1l11.1-10.4L60,82z M82.8,106.2l5.9-22.5l5.4,32.6L82.8,106.2z"
			/>
		<path d="M106.7,29.1c0,8.9-7.2,16-16,16c-8.9,0-16-7.2-16-16c0-8.9,7.2-16,16-16C99.5,13,106.7,20.2,106.7,29.1z"/>
	</g>
</g>
</svg>
