<?xml version="1.0" encoding="utf-8"?>
<!-- Generator: Adobe Illustrator 21.1.0, SVG Export Plug-In . SVG Version: 6.00 Build 0)  -->
<svg version="1.1" id="Layer_1" xmlns="http://www.w3.org/2000/svg" xmlns:xlink="http://www.w3.org/1999/xlink" x="0px" y="0px"
	 viewBox="0 0 203 202" style="enable-background:new 0 0 203 202;" xml:space="preserve">
<style type="text/css">
	.st0{fill:#FFF100;stroke:#000000;stroke-width:0.25;}
	.st1{fill:#FCED1E;stroke:#231F20;stroke-width:2;}
	.st2{fill:#58595B;stroke:#000000;stroke-width:3;}
</style>
<polygon class="st0" points="101.7,1 23.3,81.8 23.3,200.7 176.9,200.7 176.9,78.7 "/>
<polygon class="st1" points="102.1,7.7 28.4,83.8 28.4,195.7 172.7,195.7 172.7,80.8 "/>
<g>
	<polygon points="136.8,183.5 144.2,179.6 131.8,152.9 132.9,129.8 146.4,125.5 142.3,111.7 139,112.8 140.3,105.4 129.4,83.5 
		123,80.7 122.3,79.1 115.1,81.2 115.1,82.3 110.2,86.6 104.9,106.2 95.4,111.1 90.6,99.6 83.3,94.9 77.2,95.9 72.2,101.2 
		66.6,118.3 57,128.4 59.4,131.5 70.7,123.3 73.3,118.2 74.6,122.8 66.8,145.7 69.6,147.1 61.8,178 65.9,179.6 76.7,149.2 
		82.2,149.4 94.5,179.4 98.7,177.6 89.6,148.2 94.5,146.1 89.5,132.5 100.5,129.7 98.4,118.7 95.8,119.3 96.5,116.3 107.8,112.6 
		110,108.9 113.8,124.3 106.5,147.5 104.5,182.5 112.7,183.5 115.4,153.7 120.1,141.8 123.4,158 	"/>
	<ellipse cx="115.1" cy="69.6" rx="9" ry="9.5"/>
	<ellipse cx="78.6" cy="86" rx="8.3" ry="8.7"/>
</g>
<path class="st2" d="M17,181.5"/>
</svg>
