<?xml version="1.0" encoding="utf-8"?>
<!-- Generator: Adobe Illustrator 21.1.0, SVG Export Plug-In . SVG Version: 6.00 Build 0)  -->
<svg version="1.1" id="Layer_1" xmlns="http://www.w3.org/2000/svg" xmlns:xlink="http://www.w3.org/1999/xlink" x="0px" y="0px"
	 viewBox="0 0 203 202" style="enable-background:new 0 0 203 202;" xml:space="preserve">
<style type="text/css">
	.st0{fill:#FEE503;stroke:#000000;stroke-width:0.25;}
	.st1{fill:#231F20;}
</style>
<g>
	<g id="_x3C_TWO-WAY_Sign_x3E__1_">
		<path class="st0" d="M96.2,196.5c3,3,7.8,3,10.8,0l89.9-90c3-3,3-7.8,0-10.8L107,5.7c-3-3-7.8-3-10.8,0l-89.9,90
			c-3,3-3,7.8,0,10.8L96.2,196.5z"/>
		<path d="M9.7,104.5L98.1,193c1.9,1.9,4.9,1.9,6.8,0l88.4-88.4c1.9-1.9,1.9-4.9,0-6.8L105,9.3c-1.9-1.9-4.9-1.9-6.8,0L9.7,97.7
			C7.8,99.6,7.8,102.6,9.7,104.5z M13.2,99.4l86.5-86.7c1-1,2.6-1,3.6,0L190,99.2c1,1,1,2.6,0,3.6l-86.6,86.6c-1,1-2.6,1-3.6,0
			L13.2,103C12.2,102,12.2,100.4,13.2,99.4z"/>
		<path d="M137.5,148.8V90l9.8,3c0,0,2.2,0.6,4-1.2c1.8-1.8,0.5-4.1,0.5-4.1l-23.2-33.8l-23.2,33.7c0,0-1.3,2.4,0.5,4.1
			c1.8,1.8,4,1.2,4,1.2l9.8-3v58.9H137.5z"/>
		<path d="M65.3,56.3v58.8l-9.8-3c0,0-2.2-0.6-4,1.2c-1.8,1.8-0.5,4.1-0.5,4.1l23.2,33.9l23.2-33.7c0,0,1.3-2.4-0.5-4.1
			c-1.8-1.8-4-1.2-4-1.2l-9.8,3V56.4L65.3,56.3L65.3,56.3z"/>
	</g>
	<g>
		<rect x="98.3" y="52.6" class="st1" width="4.9" height="17.6"/>
		<rect x="98.3" y="93.7" class="st1" width="4.9" height="17.6"/>
		<rect x="98.3" y="134.8" class="st1" width="4.9" height="17.6"/>
	</g>
</g>
</svg>
