<?xml version="1.0" encoding="utf-8"?>
<!-- Generator: Adobe Illustrator 21.1.0, SVG Export Plug-In . SVG Version: 6.00 Build 0)  -->
<svg version="1.1" id="Layer_1" xmlns="http://www.w3.org/2000/svg" xmlns:xlink="http://www.w3.org/1999/xlink" x="0px" y="0px"
	 viewBox="0 0 203 202" style="enable-background:new 0 0 203 202;" xml:space="preserve">
<style type="text/css">
	.st0{fill:#FEE503;stroke:#000000;stroke-width:0.25;}
</style>
<g>
	<g>
		<path class="st0" d="M95.8,197.1c3,3,7.8,3,10.7,0l89.3-89.3c3-3,3-7.8,0-10.7L106.5,7.7c-3-3-7.8-3-10.7,0L6.5,97
			c-3,3-3,7.8,0,10.7L95.8,197.1z"/>
		<path d="M10,105.8l87.8,87.8c1.9,1.9,4.9,1.9,6.8,0l87.8-87.8c1.9-1.9,1.9-4.9,0-6.8l-87.8-87.8c-1.9-1.9-4.9-1.9-6.8,0L10,99
			C8.1,100.9,8.1,103.9,10,105.8z M13.4,100.7l85.9-86.1c1-1,2.6-1,3.6,0l86.1,85.9c1,1,1,2.6,0,3.6l-86,86c-1,1-2.6,1-3.6,0
			l-86-85.8C12.4,103.3,12.4,101.7,13.4,100.7z"/>
	</g>
	<g>
		<polygon points="123.4,91.5 124,104.7 157.5,83.2 123.5,60.6 123.5,74.2 123.5,74.5 78.7,74.5 78.7,91.5 		"/>
	</g>
	<rect x="78.6" y="74.8" width="19.3" height="78.6"/>
</g>
</svg>
