<?xml version="1.0" encoding="utf-8"?>
<!-- Generator: Adobe Illustrator 21.1.0, SVG Export Plug-In . SVG Version: 6.00 Build 0)  -->
<svg version="1.1" id="Layer_1" xmlns="http://www.w3.org/2000/svg" xmlns:xlink="http://www.w3.org/1999/xlink" x="0px" y="0px"
	 viewBox="0 0 608 613.3" style="enable-background:new 0 0 608 613.3;" xml:space="preserve">
<style type="text/css">
	.st0{fill:none;}
	.st1{fill:#E52025;}
	.st2{fill:#F9A41C;}
	.st3{fill:#0F0F0F;}
	.st4{fill:#EE4036;}
</style>
<g>
	<polygon class="st0" points="488.6,415.4 488.8,415.4 286.8,65.6 286.6,65.6 	"/>
	<polygon class="st1" points="488.8,415.4 488.6,415.4 488.6,415.4 84.5,415.4 138.1,483.2 435.2,483.2 488.8,415.4 	"/>
	<polygon class="st2" points="286.4,65.6 84.5,415.3 84.5,415.4 488.6,415.4 286.6,65.6 	"/>
	<polygon class="st3" points="84.5,415.4 488.6,415.4 488.6,415.4 84.5,415.4 	"/>
	<polygon class="st1" points="286,65.6 208.2,65.6 39.2,358.1 84.2,415.1 	"/>
	<polygon class="st4" points="84.5,415.3 286.4,65.6 286,65.6 84.2,415.1 	"/>
	<polygon class="st1" points="488.8,415.4 534,358.2 365,65.6 286.8,65.6 488.8,415.4 	"/>
	<polygon class="st4" points="488.8,415.4 488.8,415.4 488.8,415.4 	"/>
	<polygon points="286.8,65.6 286.6,65.3 286.5,65.4 286.6,65.6 	"/>
	<polygon points="286.6,65.6 286.5,65.4 286.4,65.6 	"/>
	<polygon points="286.5,65.4 286.3,65 286,65.6 286.4,65.6 	"/>
	<polygon points="84.5,415.4 84.5,415.3 84.4,415.4 	"/>
	<polygon points="84.4,415.4 84.4,415.4 84.5,415.4 84.5,415.4 	"/>
	<polygon points="84.5,415.3 84.2,415.1 84,415.4 84.4,415.4 	"/>
	<polygon points="84,415.4 84,415.4 84.4,415.4 84.4,415.4 	"/>
</g>
</svg>
