<?xml version="1.0" encoding="utf-8"?>
<!-- Generator: Adobe Illustrator 21.1.0, SVG Export Plug-In . SVG Version: 6.00 Build 0)  -->
<svg version="1.1" id="Layer_1" xmlns="http://www.w3.org/2000/svg" xmlns:xlink="http://www.w3.org/1999/xlink" x="0px" y="0px"
	 viewBox="0 0 203 202" style="enable-background:new 0 0 203 202;" xml:space="preserve">
<style type="text/css">
	.st0{fill:#FEE503;stroke:#000000;stroke-width:0.25;}
	.st1{fill:#231F20;}
</style>
<g>
	<g>
		<path class="st0" d="M96.9,197.7c3,3,7.9,3,10.9,0l90.5-90.5c3-3,3-7.9,0-10.9L107.7,5.8c-3-3-7.9-3-10.9,0L6.4,96.3
			c-3,3-3,7.9,0,10.9L96.9,197.7z"/>
		<path d="M9.9,105.2l89,89c1.9,1.9,5,1.9,6.9,0l89-89c1.9-1.9,1.9-5,0-6.9l-89-89c-1.9-1.9-5-1.9-6.9,0l-89,89
			C8,100.2,8,103.3,9.9,105.2z M13.4,100l87-87.3c1-1,2.6-1,3.6,0l87.2,87c1,1,1,2.6,0,3.6l-87.1,87.1c-1,1-2.6,1-3.6,0l-87.1-86.9
			C12.4,102.7,12.4,101,13.4,100z"/>
	</g>
	<path class="st1" d="M149.4,89.2c-0.8,0.8-5.4,12.6-5.4,12.6H96V88l12.3-20c0.5-3.5-3.4-2.3-3.4-2.3L83,86.3l-5.3,0.3
		c-16.3,3.5-18,7.2-19.8,12.7c-1.4,4.3,4.5,9.7,4.5,9.7c5.8,3.9,10.6,2.9,10.6,2.9l0.1,5.1c0,0-8,0.1-17.7,0.1s-10.6-10.4-10.6-10.4
		h-2c-1.2,11.4,15,15.4,15,15.4h35.4c1.3-0.8,0-2.8,0-2.8l-15.1-2.5v-2.5h30.6v2.8L97.8,117c0,0-3.3,2.4,0,5.1h48.6
		c0,0,4.2-2.5,0-5.1h-6.7v-2.6h11.8l0.1-2.5l2.8-20.3C154.3,86.5,150.2,88.4,149.4,89.2z M137.3,117h-26.5v-2.6h26.5V117z"/>
</g>
</svg>
