<?xml version="1.0" encoding="utf-8"?>
<!-- Generator: Adobe Illustrator 21.1.0, SVG Export Plug-In . SVG Version: 6.00 Build 0)  -->
<svg version="1.1" id="Layer_1" xmlns="http://www.w3.org/2000/svg" xmlns:xlink="http://www.w3.org/1999/xlink" x="0px" y="0px"
	 viewBox="0 0 203 202" style="enable-background:new 0 0 203 202;" xml:space="preserve">
<style type="text/css">
	.st0{fill:#FEE503;stroke:#000000;stroke-width:0.25;}
	.st1{fill:none;}
	.st2{enable-background:new    ;}
	.st3{fill:#231F20;}
</style>
<g>
	<g id="_x3C_HILL_Sign_x3E__2_">
		<path class="st0" d="M95.7,197.7c3,3,7.9,3,10.9,0l90.9-90.9c3-3,3-7.9,0-10.9l-90.9-91c-3-3-7.9-3-10.9,0l-91,91
			c-3,3-3,7.9,0,10.9L95.7,197.7z"/>
		<path d="M8.3,104.8l89.4,89.4c1.9,1.9,5,1.9,6.9,0l89.4-89.4c1.9-1.9,1.9-5,0-6.9L104.6,8.5c-1.9-1.9-5-1.9-6.9,0L8.3,97.9
			C6.4,99.8,6.4,102.9,8.3,104.8z M11.8,99.6L99.2,12c1-1,2.6-1,3.6,0l87.7,87.4c1,1,1,2.6,0,3.6L103,190.6c-1,1-2.6,1-3.6,0
			l-87.5-87.3C10.8,102.2,10.8,100.6,11.8,99.6z"/>
		<path d="M134.2,87.9c0.6-0.9,0.9-1.9,0.9-3.1c0-2.7-2-5-4.5-5.4l7.4-3.7l-13.7-27.2L67.7,77l12.5,24.7l-2.2,1.1l-7.5-14.9L58.4,94
			l-1,11.5l-10.6,5.4v2.4l4.8,9.6l6.4-3.2c0.4,2.4,2.4,4.3,4.9,4.5l-15.1,7.7h101.3V80.3L134.2,87.9z M124.7,82.3
			c-0.4,0.7-0.6,1.6-0.6,2.4c0,3,2.4,5.4,5.3,5.5l-31.4,16c0.5-0.8,0.8-1.7,0.8-2.8c0-3-2.3-5.4-5.3-5.5L124.7,82.3z M67.4,114.9
			l13.3-6.7l-1.6-3.2l2.2-1.1l0.1,0.3l7.2-3.6c-0.6,0.9-0.9,1.9-0.9,3c0,2.9,2.2,5.2,5,5.5l-24.4,12.4c0.5-0.8,0.8-1.7,0.8-2.7
			C69,117.3,68.4,115.9,67.4,114.9z"/>
	</g>
	<rect x="67.7" y="146.2" class="st1" width="66.9" height="29.4"/>
	<g class="st2">
		<path class="st3" d="M89.6,159.8H87V149c-1,1-2.1,1.7-3.4,2.2v-2.6c0.7-0.2,1.4-0.7,2.2-1.4s1.3-1.5,1.6-2.4h2.1v15H89.6z"/>
		<path class="st3" d="M102.3,157.1v2.7h-9.1c0.1-1,0.4-2,0.9-2.9s1.5-2.1,2.9-3.6c1.2-1.2,1.9-2,2.2-2.4c0.4-0.6,0.5-1.2,0.5-1.8
			s-0.2-1.1-0.5-1.5c-0.3-0.3-0.7-0.5-1.3-0.5c-0.5,0-1,0.2-1.3,0.5c-0.3,0.4-0.5,1-0.6,1.8l-2.6-0.3c0.2-1.6,0.6-2.7,1.5-3.4
			c0.8-0.7,1.8-1,3.1-1c1.3,0,2.4,0.4,3.2,1.2c0.8,0.8,1.1,1.8,1.1,3c0,0.7-0.1,1.3-0.3,1.9c-0.2,0.6-0.6,1.2-1,1.9
			c-0.3,0.4-0.9,1.1-1.7,1.9c-0.8,0.8-1.3,1.4-1.6,1.7c-0.2,0.3-0.4,0.5-0.5,0.8L102.3,157.1L102.3,157.1z"/>
		<path class="st3" d="M104.1,148.5c0-1.3,0.3-2.3,0.8-3s1.3-1,2.2-1c0.9,0,1.7,0.3,2.2,1c0.5,0.6,0.8,1.6,0.8,3
			c0,1.3-0.3,2.3-0.8,3c-0.5,0.6-1.3,1-2.2,1c-0.9,0-1.7-0.3-2.2-1S104.1,149.9,104.1,148.5z M106.1,148.5c0,1,0.1,1.6,0.3,2
			c0.2,0.2,0.4,0.4,0.6,0.4c0.3,0,0.5-0.1,0.6-0.4c0.2-0.3,0.3-1,0.3-2s-0.1-1.6-0.3-1.9c-0.2-0.3-0.4-0.4-0.6-0.4
			c-0.3,0-0.5,0.1-0.6,0.4C106.2,146.9,106.1,147.6,106.1,148.5z M109,160.4h-1.9l7.2-15.8h1.9L109,160.4z M113.3,156.5
			c0-1.3,0.3-2.3,0.8-3c0.5-0.6,1.3-1,2.2-1c0.9,0,1.7,0.3,2.2,1c0.5,0.6,0.8,1.6,0.8,3c0,1.3-0.3,2.3-0.8,3c-0.5,0.6-1.3,1-2.2,1
			c-0.9,0-1.7-0.3-2.2-1S113.3,157.8,113.3,156.5z M115.3,156.4c0,1,0.1,1.6,0.3,1.9c0.2,0.3,0.4,0.4,0.6,0.4c0.3,0,0.5-0.1,0.6-0.4
			c0.2-0.3,0.3-1,0.3-2s-0.1-1.6-0.3-2c-0.2-0.2-0.4-0.4-0.6-0.4c-0.3,0-0.5,0.1-0.6,0.4C115.4,154.8,115.3,155.5,115.3,156.4z"/>
	</g>
</g>
</svg>
