<?xml version="1.0" encoding="utf-8"?>
<!-- Generator: Adobe Illustrator 21.1.0, SVG Export Plug-In . SVG Version: 6.00 Build 0)  -->
<svg version="1.1" id="Layer_1" xmlns="http://www.w3.org/2000/svg" xmlns:xlink="http://www.w3.org/1999/xlink" x="0px" y="0px"
	 viewBox="0 0 203 202" style="enable-background:new 0 0 203 202;" xml:space="preserve">
<style type="text/css">
	.st0{fill:#FEE503;stroke:#000000;stroke-width:0.25;}
	.st1{fill:#CE2527;}
</style>
<g id="_x3C_STOP_AHEAD_Sign_x3E__1_">
	<path class="st0" d="M96.4,196.4c2.9,2.9,7.7,2.9,10.7,0l89-89c2.9-2.9,2.9-7.7,0-10.7l-89-89c-2.9-3-7.7-3-10.7,0l-89,89
		c-2.9,2.9-2.9,7.7,0,10.7L96.4,196.4z"/>
	<path d="M10.9,105.4l87.5,87.5c1.9,1.9,4.9,1.9,6.7,0l87.5-87.5c1.9-1.9,1.9-4.9,0-6.8l-87.5-87.5c-1.9-1.9-4.9-1.9-6.8,0
		L10.9,98.7C9.1,100.5,9.1,103.6,10.9,105.4z M14.4,100.4l85.5-85.8c1-1,2.6-1,3.6,0l85.8,85.5c1,1,1,2.6,0,3.6l-85.7,85.6
		c-1,1-2.6,1-3.6,0l-85.6-85.4C13.4,103,13.4,101.4,14.4,100.4z"/>
	<polygon class="st1" points="88.2,163.2 69.2,144.2 69.2,117.3 88.2,98.3 115.1,98.3 134.1,117.3 134.1,144.2 115.1,163.2 	"/>
	<path d="M110.6,87.5V63.8l9.6,2.9c0,0,2.2,0.6,3.9-1.1c1.7-1.7,0.5-4,0.5-4l-22.7-33L79.3,61.4c0,0-1.3,2.3,0.5,4
		c1.7,1.7,3.9,1.1,3.9,1.1l9.5-2.9v23.9H110.6z"/>
</g>
</svg>
