<?xml version="1.0" encoding="utf-8"?>
<!-- Generator: Adobe Illustrator 21.1.0, SVG Export Plug-In . SVG Version: 6.00 Build 0)  -->
<svg version="1.1" id="Layer_1" xmlns="http://www.w3.org/2000/svg" xmlns:xlink="http://www.w3.org/1999/xlink" x="0px" y="0px"
	 viewBox="0 0 203 202" style="enable-background:new 0 0 203 202;" xml:space="preserve">
<style type="text/css">
	.st0{fill:#FFFFFF;stroke:#000000;stroke-width:0.25;}
	.st1{fill:#231F20;}
</style>
<g>
	<path class="st0" d="M199.3,133H3V23.1c0-2.5,2.2-4.5,4.9-4.5h186.4c2.7,0,4.9,2,4.9,4.5V133z"/>
	<path d="M196.4,130.3v-106c0-1.6-1.5-3-3.3-3H9.3c-1.8,0-3.3,1.3-3.3,3v106H196.4z M193.6,127.8H8.8V24.3c0-0.2,0.2-0.4,0.5-0.4
		h183.8c0.3,0,0.5,0.2,0.5,0.4V127.8z"/>
	<path class="st0" d="M3,133.1h196.3v28.8c0,2.5-2.2,4.5-4.9,4.5H8c-2.7,0-4.9-2-4.9-4.5V133.1z"/>
	<path d="M6,135.7v25c0,1.6,1.5,3,3.3,3h183.8c1.8,0,3.3-1.3,3.3-3v-25H6z M8.8,138.3h184.8v22.5c0,0.2-0.2,0.4-0.5,0.4H9.3
		c-0.3,0-0.5-0.2-0.5-0.4V138.3z"/>
	<g>
		<g>
			<path class="st1" d="M23.7,155.1v-10.9h4.5c0.9,0,1.7,0.1,2.2,0.3c0.6,0.2,1,0.6,1.3,1s0.5,0.9,0.5,1.4c0,0.5-0.1,0.9-0.4,1.3
				c-0.3,0.4-0.7,0.7-1.3,1c0.7,0.2,1.3,0.5,1.7,1s0.6,1,0.6,1.7c0,0.5-0.1,1-0.4,1.4s-0.5,0.8-0.9,1c-0.4,0.2-0.8,0.4-1.3,0.5
				c-0.5,0.1-1.2,0.2-1.9,0.2H23.7z M25.3,148.8h2.6c0.7,0,1.2,0,1.5-0.1c0.4-0.1,0.7-0.3,0.9-0.5c0.2-0.3,0.3-0.6,0.3-1
				c0-0.4-0.1-0.7-0.3-1c-0.2-0.3-0.5-0.5-0.8-0.6c-0.4-0.1-1-0.2-1.8-0.2h-2.4V148.8z M25.3,153.8h3c0.5,0,0.9,0,1.1-0.1
				c0.4-0.1,0.7-0.2,0.9-0.3c0.2-0.1,0.4-0.3,0.6-0.6c0.2-0.3,0.2-0.6,0.2-0.9c0-0.4-0.1-0.8-0.3-1.1s-0.5-0.5-1-0.6
				c-0.4-0.1-1-0.2-1.8-0.2h-2.8V153.8z"/>
			<path class="st1" d="M34.6,149.8c0-1.8,0.5-3.2,1.6-4.3s2.5-1.5,4.2-1.5c1.1,0,2.1,0.2,3,0.7s1.6,1.2,2,2s0.7,1.8,0.7,2.9
				c0,1.1-0.2,2.1-0.7,3s-1.2,1.5-2.1,2c-0.9,0.5-1.9,0.7-2.9,0.7c-1.1,0-2.1-0.2-3-0.7s-1.6-1.2-2-2S34.6,150.8,34.6,149.8z
				 M36.2,149.8c0,1.3,0.4,2.4,1.2,3.1c0.8,0.8,1.8,1.1,2.9,1.1c1.2,0,2.2-0.4,3-1.1s1.2-1.8,1.2-3.3c0-0.9-0.2-1.7-0.5-2.3
				c-0.3-0.7-0.8-1.2-1.5-1.5c-0.6-0.4-1.4-0.5-2.1-0.5c-1.1,0-2.1,0.4-2.9,1.1C36.6,147,36.2,148.2,36.2,149.8z"/>
			<path class="st1" d="M51.2,155.1v-9.6h-4v-1.3h9.5v1.3h-4v9.6H51.2z"/>
			<path class="st1" d="M58.4,155.1v-10.9H60v4.5h6.3v-4.5h1.6v10.9h-1.6V150H60v5.1H58.4z"/>
			<path class="st1" d="M75.2,155.1v-10.9h4.1c0.9,0,1.7,0.1,2.1,0.2c0.7,0.1,1.3,0.4,1.8,0.8c0.6,0.5,1.1,1.1,1.4,1.9
				s0.5,1.6,0.5,2.6c0,0.8-0.1,1.6-0.3,2.2s-0.5,1.2-0.8,1.6c-0.3,0.4-0.7,0.8-1.1,1c-0.4,0.2-0.9,0.4-1.4,0.5
				c-0.6,0.1-1.2,0.2-1.9,0.2H75.2z M76.8,153.8h2.6c0.8,0,1.4-0.1,1.9-0.2c0.5-0.1,0.8-0.3,1.1-0.6c0.4-0.3,0.7-0.8,0.9-1.4
				c0.2-0.6,0.3-1.3,0.3-2.1c0-1.1-0.2-2-0.6-2.6s-0.9-1-1.5-1.2c-0.4-0.1-1.1-0.2-2.1-0.2h-2.5V153.8z"/>
			<path class="st1" d="M87.6,155.1v-10.9h1.6v10.9H87.6z"/>
			<path class="st1" d="M92.1,155.1v-10.9h5.3c1.1,0,1.9,0.1,2.4,0.3s1,0.5,1.3,1c0.3,0.5,0.5,1,0.5,1.6c0,0.8-0.3,1.4-0.8,2
				c-0.6,0.5-1.4,0.9-2.6,1c0.4,0.2,0.7,0.4,1,0.5c0.5,0.4,0.9,0.9,1.3,1.5l2.1,3h-2l-1.6-2.3c-0.5-0.7-0.8-1.2-1.1-1.5
				c-0.3-0.3-0.6-0.6-0.8-0.7c-0.2-0.1-0.5-0.2-0.7-0.3c-0.2,0-0.5-0.1-0.9-0.1h-1.8v4.8H92.1z M93.7,149h3.4c0.7,0,1.3-0.1,1.7-0.2
				s0.7-0.4,0.9-0.7c0.2-0.3,0.3-0.6,0.3-1c0-0.5-0.2-0.9-0.6-1.3c-0.4-0.3-1.1-0.5-2-0.5h-3.8V149z"/>
			<path class="st1" d="M104.2,155.1v-10.9h8.7v1.3h-7.1v3.3h6.7v1.3h-6.7v3.7h7.4v1.3H104.2z"/>
			<path class="st1" d="M124,151.3l1.6,0.4c-0.3,1.2-0.9,2.1-1.8,2.7s-1.9,0.9-3.2,0.9c-1.3,0-2.4-0.2-3.2-0.7
				c-0.8-0.5-1.4-1.2-1.9-2.1c-0.4-0.9-0.6-1.9-0.6-2.9c0-1.1,0.2-2.1,0.7-3s1.2-1.5,2-1.9c0.9-0.4,1.9-0.7,2.9-0.7
				c1.2,0,2.2,0.3,3,0.8c0.8,0.6,1.4,1.3,1.7,2.3l-1.6,0.3c-0.3-0.8-0.7-1.4-1.2-1.7s-1.2-0.5-2-0.5c-0.9,0-1.7,0.2-2.3,0.6
				c-0.6,0.4-1.1,0.9-1.3,1.6s-0.4,1.4-0.4,2.1c0,0.9,0.1,1.7,0.4,2.4c0.3,0.7,0.8,1.2,1.4,1.6c0.6,0.3,1.3,0.5,2,0.5
				c0.9,0,1.6-0.2,2.3-0.7C123.4,152.9,123.8,152.2,124,151.3z"/>
			<path class="st1" d="M130.6,155.1v-9.6h-4v-1.3h9.5v1.3h-4v9.6H130.6z"/>
			<path class="st1" d="M138.1,155.1v-10.9h1.6v10.9H138.1z"/>
			<path class="st1" d="M142,149.8c0-1.8,0.5-3.2,1.6-4.3c1.1-1,2.5-1.5,4.2-1.5c1.1,0,2.1,0.2,3,0.7s1.6,1.2,2,2
				c0.5,0.9,0.7,1.8,0.7,2.9c0,1.1-0.2,2.1-0.7,3s-1.2,1.5-2.1,2c-0.9,0.5-1.9,0.7-2.9,0.7c-1.1,0-2.1-0.2-3-0.7s-1.6-1.2-2-2
				S142,150.8,142,149.8z M143.7,149.8c0,1.3,0.4,2.4,1.2,3.1c0.8,0.8,1.8,1.1,2.9,1.1c1.2,0,2.2-0.4,3-1.1c0.8-0.8,1.2-1.8,1.2-3.3
				c0-0.9-0.2-1.7-0.5-2.3c-0.3-0.7-0.8-1.2-1.5-1.5c-0.6-0.4-1.4-0.5-2.1-0.5c-1.1,0-2.1,0.4-2.9,1.1
				C144.1,147,143.7,148.2,143.7,149.8z"/>
			<path class="st1" d="M155.6,155.1v-10.9h1.6l6.3,8.6v-8.6h1.5v10.9h-1.6l-6.3-8.6v8.6H155.6z"/>
			<path class="st1" d="M167.2,151.6l1.5-0.1c0.1,0.5,0.2,1,0.5,1.3c0.3,0.3,0.7,0.6,1.2,0.8s1.2,0.3,1.8,0.3c0.6,0,1.1-0.1,1.6-0.2
				c0.5-0.2,0.8-0.4,1-0.7c0.2-0.3,0.3-0.6,0.3-0.9c0-0.3-0.1-0.6-0.3-0.9s-0.6-0.5-1.1-0.6c-0.3-0.1-1-0.3-2.1-0.5
				c-1.1-0.2-1.9-0.5-2.3-0.7c-0.6-0.3-1-0.6-1.3-1s-0.4-0.9-0.4-1.4c0-0.6,0.2-1.1,0.5-1.5c0.3-0.5,0.8-0.8,1.5-1.1
				c0.7-0.2,1.4-0.4,2.2-0.4c0.9,0,1.7,0.1,2.4,0.4s1.2,0.6,1.6,1.2c0.4,0.5,0.6,1.1,0.6,1.7l-1.5,0.1c-0.1-0.7-0.4-1.2-0.8-1.6
				s-1.2-0.5-2.1-0.5c-1,0-1.7,0.2-2.1,0.5s-0.7,0.7-0.7,1.2c0,0.4,0.2,0.7,0.5,1c0.3,0.3,1.1,0.5,2.4,0.8s2.2,0.5,2.7,0.7
				c0.7,0.3,1.2,0.7,1.6,1.1c0.3,0.4,0.5,1,0.5,1.6c0,0.6-0.2,1.1-0.5,1.6c-0.4,0.5-0.9,0.9-1.6,1.2c-0.7,0.3-1.5,0.4-2.3,0.4
				c-1.1,0-2-0.1-2.7-0.4c-0.7-0.3-1.3-0.7-1.7-1.3C167.5,153,167.2,152.4,167.2,151.6z"/>
		</g>
	</g>
	<g>
		<g>
			<path class="st1" d="M35.8,104.6l-3.2-10.9h1.6l1.8,7.2c0.2,0.8,0.4,1.5,0.5,2.2c0.3-1.2,0.5-1.8,0.5-2l2.3-7.4h1.9l1.7,5.5
				c0.4,1.4,0.7,2.7,0.9,3.9c0.2-0.7,0.4-1.5,0.6-2.4l1.9-7h1.6l-3.3,10.9h-1.5l-2.5-8.3c-0.2-0.7-0.3-1.1-0.4-1.3
				c-0.1,0.5-0.2,0.9-0.4,1.3l-2.6,8.3H35.8z"/>
			<path class="st1" d="M49.7,104.6V93.7h1.6v4.5h6.3v-4.5h1.6v10.9h-1.6v-5.1h-6.3v5.1H49.7z"/>
			<path class="st1" d="M61.8,104.6V93.7h8.7V95h-7.1v3.3h6.7v1.3h-6.7v3.7h7.4v1.3H61.8z"/>
			<path class="st1" d="M73,104.6V93.7h1.6l6.3,8.6v-8.6h1.5v10.9h-1.6L74.5,96v8.6H73z"/>
			<path class="st1" d="M89.3,101.1l1.5-0.1c0.1,0.5,0.2,1,0.5,1.3c0.3,0.4,0.7,0.6,1.2,0.8c0.5,0.2,1.2,0.3,1.8,0.3
				c0.6,0,1.1-0.1,1.6-0.2c0.5-0.2,0.8-0.4,1-0.7c0.2-0.3,0.3-0.6,0.3-0.9c0-0.3-0.1-0.6-0.3-0.9c-0.2-0.3-0.6-0.5-1.1-0.6
				c-0.3-0.1-1-0.3-2.1-0.5c-1.1-0.2-1.9-0.5-2.3-0.7c-0.6-0.3-1-0.6-1.3-1c-0.3-0.4-0.4-0.9-0.4-1.4c0-0.6,0.2-1.1,0.5-1.5
				c0.3-0.5,0.8-0.8,1.5-1.1c0.7-0.2,1.4-0.4,2.2-0.4c0.9,0,1.7,0.1,2.4,0.4c0.7,0.3,1.2,0.6,1.6,1.2c0.4,0.5,0.6,1.1,0.6,1.7
				L97,96.9c-0.1-0.7-0.4-1.2-0.8-1.6S95,94.8,94,94.8c-1,0-1.7,0.2-2.1,0.5s-0.7,0.7-0.7,1.2c0,0.4,0.2,0.7,0.5,1
				c0.3,0.3,1.1,0.5,2.4,0.8c1.3,0.3,2.2,0.5,2.7,0.7c0.7,0.3,1.2,0.7,1.6,1.1c0.3,0.4,0.5,1,0.5,1.6c0,0.6-0.2,1.1-0.6,1.6
				c-0.4,0.5-0.9,0.9-1.6,1.2c-0.7,0.3-1.5,0.4-2.3,0.4c-1.1,0-2-0.1-2.7-0.4c-0.7-0.3-1.3-0.7-1.7-1.3S89.3,101.8,89.3,101.1z"/>
			<path class="st1" d="M101.3,104.6V93.7h1.6v10.9H101.3z"/>
			<path class="st1" d="M111.3,100.3V99l5.1,0v4.1c-0.8,0.6-1.6,1-2.4,1.3c-0.8,0.3-1.7,0.4-2.6,0.4c-1.2,0-2.3-0.2-3.2-0.7
				c-1-0.5-1.7-1.1-2.2-2c-0.5-0.9-0.7-1.8-0.7-2.9c0-1.1,0.2-2.1,0.7-3s1.2-1.6,2.1-2.1s2-0.7,3.2-0.7c0.9,0,1.7,0.1,2.4,0.4
				c0.7,0.3,1.3,0.6,1.7,1.1c0.4,0.5,0.7,1.1,0.9,1.8l-1.4,0.4c-0.2-0.6-0.4-1-0.7-1.3s-0.7-0.6-1.1-0.8c-0.5-0.2-1.1-0.3-1.7-0.3
				c-0.7,0-1.4,0.1-1.9,0.3s-1,0.5-1.3,0.8c-0.3,0.3-0.6,0.7-0.8,1.1c-0.3,0.7-0.5,1.4-0.5,2.2c0,1,0.2,1.8,0.6,2.4s0.9,1.1,1.6,1.5
				s1.5,0.5,2.3,0.5c0.7,0,1.4-0.1,2-0.4c0.7-0.2,1.2-0.5,1.5-0.8v-2H111.3z"/>
			<path class="st1" d="M118.8,104.6V93.7h1.6l6.3,8.6v-8.6h1.5v10.9h-1.6l-6.3-8.6v8.6H118.8z"/>
			<path class="st1" d="M129.6,104.6l4.6-10.9h1.7l4.9,10.9h-1.8l-1.4-3.3h-5l-1.3,3.3H129.6z M133.1,100.1h4.1l-1.3-3
				c-0.4-0.9-0.7-1.7-0.9-2.3c-0.2,0.7-0.4,1.4-0.6,2.1L133.1,100.1z"/>
			<path class="st1" d="M142.1,104.6V93.7h1.6v9.6h5.9v1.3H142.1z"/>
			<path class="st1" d="M151,101.1l1.5-0.1c0.1,0.5,0.2,1,0.5,1.3c0.3,0.4,0.7,0.6,1.2,0.8s1.2,0.3,1.8,0.3c0.6,0,1.1-0.1,1.6-0.2
				c0.5-0.2,0.8-0.4,1-0.7c0.2-0.3,0.3-0.6,0.3-0.9c0-0.3-0.1-0.6-0.3-0.9c-0.2-0.3-0.6-0.5-1.1-0.6c-0.3-0.1-1-0.3-2.1-0.5
				c-1.1-0.2-1.9-0.5-2.3-0.7c-0.6-0.3-1-0.6-1.3-1s-0.4-0.9-0.4-1.4c0-0.6,0.2-1.1,0.5-1.5c0.3-0.5,0.8-0.8,1.5-1.1
				c0.7-0.2,1.4-0.4,2.2-0.4c0.9,0,1.7,0.1,2.4,0.4s1.2,0.6,1.6,1.2c0.4,0.5,0.6,1.1,0.6,1.7l-1.5,0.1c-0.1-0.7-0.4-1.2-0.8-1.6
				s-1.2-0.5-2.1-0.5c-1,0-1.7,0.2-2.1,0.5S153,96,153,96.4c0,0.4,0.2,0.7,0.5,1c0.3,0.3,1.1,0.5,2.4,0.8s2.2,0.5,2.7,0.7
				c0.7,0.3,1.2,0.7,1.6,1.1c0.3,0.4,0.5,1,0.5,1.6c0,0.6-0.2,1.1-0.5,1.6c-0.4,0.5-0.9,0.9-1.6,1.2c-0.7,0.3-1.5,0.4-2.3,0.4
				c-1.1,0-2-0.1-2.7-0.4c-0.7-0.3-1.3-0.7-1.7-1.3S151,101.8,151,101.1z"/>
			<path class="st1" d="M56.3,122.9V112h8.1v1.3h-6.5v3.4h5.7v1.3h-5.7v5H56.3z"/>
			<path class="st1" d="M66.4,122.9V112H68v9.6h5.9v1.3H66.4z"/>
			<path class="st1" d="M74.5,122.9l4.6-10.9h1.7l4.9,10.9h-1.8l-1.4-3.3h-5l-1.3,3.3H74.5z M78,118.4H82l-1.3-3
				c-0.4-0.9-0.7-1.7-0.9-2.3c-0.2,0.7-0.4,1.4-0.6,2.1L78,118.4z"/>
			<path class="st1" d="M86.5,119.4l1.5-0.1c0.1,0.5,0.2,1,0.5,1.3c0.3,0.3,0.7,0.6,1.2,0.8c0.5,0.2,1.2,0.3,1.8,0.3
				c0.6,0,1.1-0.1,1.6-0.2c0.5-0.2,0.8-0.4,1-0.7c0.2-0.3,0.3-0.6,0.3-0.9c0-0.3-0.1-0.6-0.3-0.9c-0.2-0.3-0.6-0.5-1.1-0.6
				c-0.3-0.1-1-0.3-2.1-0.5c-1.1-0.2-1.9-0.5-2.3-0.7c-0.6-0.3-1-0.6-1.3-1c-0.3-0.4-0.4-0.9-0.4-1.4c0-0.6,0.2-1.1,0.5-1.5
				c0.3-0.5,0.8-0.8,1.5-1.1c0.7-0.2,1.4-0.4,2.2-0.4c0.9,0,1.7,0.1,2.4,0.4c0.7,0.3,1.2,0.6,1.6,1.2c0.4,0.5,0.6,1.1,0.6,1.7
				l-1.5,0.1c-0.1-0.7-0.4-1.2-0.8-1.6s-1.2-0.5-2.1-0.5c-1,0-1.7,0.2-2.1,0.5s-0.7,0.7-0.7,1.2c0,0.4,0.2,0.7,0.5,1
				c0.3,0.3,1.1,0.5,2.4,0.8c1.3,0.3,2.2,0.5,2.7,0.7c0.7,0.3,1.2,0.7,1.6,1.1c0.3,0.4,0.5,1,0.5,1.6c0,0.6-0.2,1.1-0.6,1.6
				c-0.4,0.5-0.9,0.9-1.6,1.2c-0.7,0.3-1.5,0.4-2.3,0.4c-1.1,0-2-0.1-2.7-0.4c-0.7-0.3-1.3-0.7-1.7-1.3
				C86.7,120.8,86.5,120.1,86.5,119.4z"/>
			<path class="st1" d="M98.3,122.9V112h1.6v4.5h6.3V112h1.6v10.9h-1.6v-5.1h-6.3v5.1H98.3z"/>
			<path class="st1" d="M110.7,122.9V112h1.6v10.9H110.7z"/>
			<path class="st1" d="M115.1,122.9V112h1.6l6.3,8.6V112h1.5v10.9h-1.6l-6.3-8.6v8.6H115.1z"/>
			<path class="st1" d="M132.9,118.6v-1.3l5.1,0v4.1c-0.8,0.6-1.6,1-2.4,1.3c-0.8,0.3-1.7,0.4-2.6,0.4c-1.2,0-2.3-0.2-3.2-0.7
				c-1-0.5-1.7-1.1-2.2-2s-0.7-1.8-0.7-2.9c0-1.1,0.2-2.1,0.7-3c0.5-0.9,1.2-1.6,2.1-2.1c0.9-0.4,2-0.7,3.2-0.7
				c0.9,0,1.7,0.1,2.4,0.4c0.7,0.3,1.3,0.6,1.7,1.1c0.4,0.5,0.7,1.1,0.9,1.8l-1.4,0.4c-0.2-0.6-0.4-1-0.7-1.3
				c-0.3-0.3-0.7-0.6-1.1-0.8c-0.5-0.2-1.1-0.3-1.7-0.3c-0.7,0-1.4,0.1-1.9,0.3s-1,0.5-1.3,0.8c-0.3,0.3-0.6,0.7-0.8,1.1
				c-0.3,0.7-0.5,1.4-0.5,2.2c0,1,0.2,1.8,0.6,2.4s0.9,1.1,1.6,1.5s1.5,0.5,2.3,0.5c0.7,0,1.4-0.1,2-0.4c0.7-0.2,1.2-0.5,1.5-0.8v-2
				H132.9z"/>
		</g>
	</g>
	<g>
		<g>
			<path class="st1" d="M36.1,47.2l3.3-0.3c0.2,1,0.6,1.8,1.2,2.2s1.4,0.7,2.5,0.7c1.1,0,1.9-0.2,2.5-0.6c0.6-0.4,0.8-0.9,0.8-1.5
				c0-0.4-0.1-0.7-0.4-0.9c-0.2-0.3-0.6-0.5-1.2-0.7c-0.4-0.1-1.3-0.3-2.7-0.7c-1.8-0.4-3.1-0.9-3.9-1.5c-1-0.8-1.6-1.9-1.6-3.1
				c0-0.8,0.2-1.5,0.7-2.2c0.5-0.7,1.2-1.2,2.1-1.6s2-0.5,3.3-0.5c2.1,0,3.7,0.4,4.8,1.3c1.1,0.8,1.6,2,1.7,3.4l-3.4,0.1
				c-0.1-0.8-0.5-1.4-0.9-1.7c-0.5-0.3-1.2-0.5-2.2-0.5c-1,0-1.8,0.2-2.3,0.6c-0.4,0.2-0.5,0.6-0.5,1c0,0.4,0.2,0.7,0.5,0.9
				c0.4,0.3,1.5,0.7,3.1,1c1.7,0.4,2.9,0.7,3.7,1.1c0.8,0.4,1.4,0.9,1.9,1.6c0.5,0.7,0.7,1.5,0.7,2.4c0,0.9-0.3,1.7-0.8,2.5
				s-1.3,1.3-2.3,1.7c-1,0.4-2.2,0.6-3.7,0.6c-2.1,0-3.8-0.4-4.9-1.3C37,50.2,36.3,48.9,36.1,47.2z"/>
			<path class="st1" d="M56.5,52.2V39.4h-5v-2.6h13.5v2.6h-5v12.8H56.5z"/>
			<path class="st1" d="M66,44.6c0-1.6,0.3-2.9,0.8-3.9c0.4-0.8,0.9-1.5,1.6-2.1c0.7-0.6,1.4-1.1,2.2-1.4c1.1-0.4,2.3-0.6,3.7-0.6
				c2.5,0,4.5,0.7,6,2.1c1.5,1.4,2.2,3.4,2.2,5.9c0,2.5-0.7,4.4-2.2,5.8s-3.5,2.1-6,2.1c-2.5,0-4.5-0.7-6-2.1C66.8,49,66,47,66,44.6
				z M69.6,44.5c0,1.7,0.4,3.1,1.3,4c0.9,0.9,2,1.3,3.4,1.3s2.5-0.4,3.4-1.3c0.9-0.9,1.3-2.2,1.3-4c0-1.8-0.4-3.1-1.3-3.9
				c-0.9-0.9-2-1.3-3.4-1.3s-2.5,0.4-3.4,1.3C70,41.4,69.6,42.7,69.6,44.5z"/>
			<path class="st1" d="M85.1,52.2V36.8h5.5c2.1,0,3.4,0.1,4.1,0.2c1,0.2,1.8,0.7,2.4,1.5c0.7,0.8,1,1.8,1,3c0,0.9-0.2,1.7-0.6,2.4
				c-0.4,0.6-0.9,1.1-1.4,1.5c-0.6,0.4-1.2,0.6-1.8,0.7c-0.8,0.1-2,0.2-3.5,0.2h-2.2v5.8H85.1z M88.5,39.4v4.4h1.9
				c1.3,0,2.2-0.1,2.7-0.2c0.5-0.2,0.8-0.4,1.1-0.8c0.3-0.3,0.4-0.7,0.4-1.2c0-0.6-0.2-1-0.5-1.4c-0.4-0.4-0.8-0.6-1.4-0.7
				c-0.4-0.1-1.2-0.1-2.5-0.1H88.5z"/>
			<path class="st1" d="M107.1,52.2V36.8h11.6v2.6h-8.2v3.6h7.1v2.6h-7.1v6.5H107.1z"/>
			<path class="st1" d="M120.8,44.6c0-1.6,0.3-2.9,0.8-3.9c0.4-0.8,0.9-1.5,1.6-2.1c0.7-0.6,1.4-1.1,2.2-1.4
				c1.1-0.4,2.3-0.6,3.7-0.6c2.5,0,4.5,0.7,6,2.1c1.5,1.4,2.2,3.4,2.2,5.9c0,2.5-0.7,4.4-2.2,5.8c-1.5,1.4-3.5,2.1-6,2.1
				c-2.5,0-4.5-0.7-6-2.1S120.8,47,120.8,44.6z M124.3,44.5c0,1.7,0.4,3.1,1.3,4c0.9,0.9,2,1.3,3.4,1.3s2.5-0.4,3.4-1.3
				s1.3-2.2,1.3-4c0-1.8-0.4-3.1-1.3-3.9c-0.9-0.9-2-1.3-3.4-1.3s-2.5,0.4-3.4,1.3C124.8,41.4,124.3,42.7,124.3,44.5z"/>
			<path class="st1" d="M139.9,52.2V36.8h7.2c1.8,0,3.1,0.1,3.9,0.4c0.8,0.3,1.5,0.8,2,1.5c0.5,0.7,0.7,1.5,0.7,2.4
				c0,1.2-0.4,2.1-1.1,2.9s-1.9,1.2-3.3,1.4c0.7,0.4,1.3,0.8,1.8,1.3s1.1,1.3,1.9,2.5l2.1,3H151l-2.5-3.3c-0.9-1.2-1.5-1.9-1.8-2.3
				c-0.3-0.3-0.7-0.5-1-0.6s-0.9-0.2-1.7-0.2h-0.7v6.4H139.9z M143.3,43.3h2.5c1.6,0,2.7-0.1,3.1-0.2c0.4-0.1,0.7-0.3,1-0.6
				c0.2-0.3,0.3-0.7,0.3-1.2c0-0.5-0.2-0.9-0.5-1.3c-0.3-0.3-0.7-0.5-1.3-0.6c-0.3,0-1.1-0.1-2.5-0.1h-2.7V43.3z"/>
			<path class="st1" d="M20.7,72.9l3.3-0.3c0.2,1,0.6,1.8,1.2,2.2s1.4,0.7,2.5,0.7c1.1,0,1.9-0.2,2.5-0.6c0.6-0.4,0.8-0.9,0.8-1.5
				c0-0.4-0.1-0.7-0.4-0.9c-0.2-0.3-0.6-0.5-1.2-0.7c-0.4-0.1-1.3-0.3-2.7-0.7c-1.8-0.4-3.1-0.9-3.9-1.5c-1-0.8-1.6-1.9-1.6-3.1
				c0-0.8,0.2-1.5,0.7-2.2c0.5-0.7,1.2-1.2,2.1-1.6s2-0.5,3.3-0.5c2.1,0,3.7,0.4,4.8,1.3c1.1,0.8,1.6,2,1.7,3.4l-3.4,0.1
				c-0.1-0.8-0.5-1.4-0.9-1.7c-0.5-0.3-1.2-0.5-2.2-0.5c-1,0-1.8,0.2-2.3,0.6c-0.4,0.2-0.5,0.6-0.5,1c0,0.4,0.2,0.7,0.5,0.9
				c0.4,0.3,1.5,0.7,3.1,1c1.7,0.4,2.9,0.7,3.7,1.1c0.8,0.4,1.4,0.9,1.9,1.6c0.5,0.7,0.7,1.5,0.7,2.4c0,0.9-0.3,1.7-0.8,2.5
				s-1.3,1.3-2.3,1.7c-1,0.4-2.2,0.6-3.7,0.6c-2.1,0-3.8-0.4-4.9-1.3C21.6,75.9,20.9,74.6,20.7,72.9z"/>
			<path class="st1" d="M48.2,72.3l3.3,1C51,74.9,50.2,76.1,49,77c-1.2,0.8-2.7,1.2-4.5,1.2c-2.2,0-4.1-0.7-5.5-2.1
				c-1.4-1.4-2.2-3.3-2.2-5.7c0-2.6,0.7-4.5,2.2-6c1.5-1.4,3.4-2.1,5.7-2.1c2.1,0,3.8,0.6,5,1.7c0.8,0.7,1.3,1.6,1.7,2.8l-3.4,0.7
				c-0.2-0.8-0.6-1.4-1.3-1.9c-0.6-0.5-1.4-0.7-2.3-0.7c-1.3,0-2.3,0.4-3.1,1.2c-0.8,0.8-1.2,2.1-1.2,4c0,1.9,0.4,3.3,1.2,4.1
				c0.8,0.8,1.8,1.2,3,1.2c0.9,0,1.7-0.3,2.3-0.8C47.4,74.2,47.9,73.4,48.2,72.3z"/>
			<path class="st1" d="M54.5,77.9V62.6h3.4v6h6.7v-6H68v15.4h-3.4v-6.7h-6.7v6.7H54.5z"/>
			<path class="st1" d="M70.8,70.3c0-1.6,0.3-2.9,0.8-3.9c0.4-0.8,0.9-1.5,1.6-2.1c0.7-0.6,1.4-1.1,2.2-1.4c1.1-0.4,2.3-0.6,3.7-0.6
				c2.5,0,4.5,0.7,6,2.1c1.5,1.4,2.2,3.4,2.2,5.9c0,2.5-0.7,4.4-2.2,5.8s-3.5,2.1-6,2.1c-2.5,0-4.5-0.7-6-2.1
				C71.6,74.7,70.8,72.8,70.8,70.3z M74.4,70.2c0,1.7,0.4,3.1,1.3,4c0.9,0.9,2,1.3,3.4,1.3s2.5-0.4,3.4-1.3c0.9-0.9,1.3-2.2,1.3-4
				c0-1.8-0.4-3.1-1.3-3.9c-0.9-0.9-2-1.3-3.4-1.3s-2.5,0.4-3.4,1.3C74.8,67.1,74.4,68.5,74.4,70.2z"/>
			<path class="st1" d="M89.2,70.3c0-1.6,0.3-2.9,0.8-3.9c0.4-0.8,0.9-1.5,1.6-2.1c0.7-0.6,1.4-1.1,2.2-1.4c1.1-0.4,2.3-0.6,3.7-0.6
				c2.5,0,4.5,0.7,6,2.1c1.5,1.4,2.2,3.4,2.2,5.9c0,2.5-0.7,4.4-2.2,5.8c-1.5,1.4-3.5,2.1-6,2.1c-2.5,0-4.5-0.7-6-2.1
				C90,74.7,89.2,72.8,89.2,70.3z M92.8,70.2c0,1.7,0.4,3.1,1.3,4c0.9,0.9,2,1.3,3.4,1.3s2.5-0.4,3.4-1.3c0.9-0.9,1.3-2.2,1.3-4
				c0-1.8-0.4-3.1-1.3-3.9c-0.9-0.9-2-1.3-3.4-1.3s-2.5,0.4-3.4,1.3C93.2,67.1,92.8,68.5,92.8,70.2z"/>
			<path class="st1" d="M108.4,77.9V62.7h3.4v12.6h8.5v2.6H108.4z"/>
			<path class="st1" d="M129,62.6h6.8c1.3,0,2.3,0.1,3,0.2c0.7,0.1,1.2,0.3,1.8,0.6c0.5,0.3,1,0.7,1.3,1.3c0.3,0.5,0.5,1.1,0.5,1.8
				c0,0.7-0.2,1.4-0.6,2s-1,1.1-1.7,1.4c1,0.3,1.8,0.7,2.4,1.4c0.6,0.7,0.8,1.4,0.8,2.3c0,0.7-0.2,1.4-0.5,2
				c-0.4,0.7-0.8,1.2-1.5,1.6s-1.4,0.6-2.3,0.7c-0.6,0.1-1.9,0.1-4.1,0.1H129V62.6z M132.4,65.1v3.6h2.2c1.3,0,2.2,0,2.5-0.1
				c0.6-0.1,1-0.2,1.4-0.5s0.5-0.7,0.5-1.2c0-0.5-0.1-0.9-0.4-1.2c-0.3-0.3-0.7-0.5-1.3-0.5c-0.3,0-1.3-0.1-2.9-0.1H132.4z
				 M132.4,71.2v4.1h3.2c1.2,0,2,0,2.3-0.1c0.5-0.1,0.9-0.3,1.2-0.6c0.3-0.3,0.5-0.8,0.5-1.3c0-0.5-0.1-0.9-0.4-1.2
				c-0.2-0.3-0.6-0.6-1.1-0.7c-0.5-0.1-1.5-0.2-3-0.2H132.4z"/>
			<path class="st1" d="M146,62.6h3.4v8.3c0,1.3,0,2.2,0.1,2.6c0.1,0.6,0.5,1.1,1,1.5c0.6,0.4,1.3,0.6,2.3,0.6c1,0,1.7-0.2,2.2-0.5
				c0.5-0.4,0.8-0.8,0.9-1.3c0.1-0.5,0.2-1.4,0.2-2.6v-8.5h3.4v8.1c0,1.8-0.1,3.1-0.3,3.9s-0.5,1.4-1,1.9c-0.5,0.5-1.2,0.9-2,1.3
				c-0.8,0.3-1.9,0.5-3.3,0.5c-1.6,0-2.8-0.2-3.7-0.5c-0.8-0.3-1.5-0.8-2-1.3c-0.5-0.5-0.8-1.1-1-1.7c-0.2-0.9-0.3-2.2-0.3-3.9V62.6
				z"/>
			<path class="st1" d="M162.2,72.9l3.3-0.3c0.2,1,0.6,1.8,1.2,2.2s1.4,0.7,2.5,0.7c1.1,0,1.9-0.2,2.5-0.6c0.6-0.4,0.8-0.9,0.8-1.5
				c0-0.4-0.1-0.7-0.4-0.9c-0.2-0.3-0.6-0.5-1.2-0.7c-0.4-0.1-1.3-0.3-2.7-0.7c-1.8-0.4-3.1-0.9-3.9-1.5c-1-0.8-1.6-1.9-1.6-3.1
				c0-0.8,0.2-1.5,0.7-2.2c0.5-0.7,1.2-1.2,2.1-1.6s2-0.5,3.3-0.5c2.1,0,3.7,0.4,4.8,1.3c1.1,0.8,1.6,2,1.7,3.4l-3.4,0.1
				c-0.1-0.8-0.5-1.4-0.9-1.7s-1.2-0.5-2.2-0.5c-1,0-1.8,0.2-2.3,0.6c-0.4,0.2-0.5,0.6-0.5,1c0,0.4,0.2,0.7,0.5,0.9
				c0.4,0.3,1.5,0.7,3.1,1c1.7,0.4,2.9,0.7,3.7,1.1s1.4,0.9,1.9,1.6c0.5,0.7,0.7,1.5,0.7,2.4c0,0.9-0.3,1.7-0.8,2.5
				s-1.3,1.3-2.3,1.7c-1,0.4-2.2,0.6-3.7,0.6c-2.1,0-3.8-0.4-4.9-1.3C163.2,75.9,162.5,74.6,162.2,72.9z"/>
		</g>
	</g>
</g>
</svg>
