<?xml version="1.0" encoding="utf-8"?>
<!-- Generator: Adobe Illustrator 21.1.0, SVG Export Plug-In . SVG Version: 6.00 Build 0)  -->
<svg version="1.1" id="Layer_1" xmlns="http://www.w3.org/2000/svg" xmlns:xlink="http://www.w3.org/1999/xlink" x="0px" y="0px"
	 viewBox="0 0 203 202" style="enable-background:new 0 0 203 202;" xml:space="preserve">
<style type="text/css">
	.st0{fill:none;stroke:#000000;stroke-width:2;}
	.st1{fill:#FFFFFF;stroke:#231F20;stroke-width:0.3462;}
	.st2{fill:#CA2027;}
	.st3{fill:#FFFFFF;}
	.st4{fill:#F58532;stroke:#000000;stroke-width:0.25;}
	.st5{fill:none;}
</style>
<line class="st0" x1="160" y1="121.5" x2="160" y2="160.9"/>
<line class="st0" x1="156.2" y1="121.5" x2="156.2" y2="192.1"/>
<line class="st0" x1="48.5" y1="121.5" x2="48.5" y2="160.9"/>
<line class="st0" x1="44.7" y1="121.5" x2="44.7" y2="192.1"/>
<polygon class="st1" points="29.5,122.1 3.5,96.1 3.5,59.4 29.5,33.4 66.2,33.4 92.2,59.4 92.2,96.1 66.2,122.1 "/>
<polygon class="st2" points="30.3,120.1 5.5,95.3 5.5,60.2 30.3,35.4 65.4,35.4 90.2,60.2 90.2,95.3 65.4,120.1 "/>
<path class="st3" d="M14.5,85c0.1,3.2,1.6,5,4.1,5c2,0,3.8-2,3.8-4.2c0-0.7-0.2-1.7-0.5-2.5c-0.9-2.1-2.1-3.4-4.6-4.7
	c-4.2-2.2-4.7-2.6-5.6-4.7c-0.4-1-0.6-2-0.6-3.1c0-4.2,3.3-7.6,7.5-7.6c4,0,7.5,3.3,7.5,7.1v0.3h-4.2c-0.2-1.8-1.6-3.1-3.3-3.1
	c-1.8,0-3.3,1.4-3.3,3.2c0,1.6,0.9,2.5,3.7,4c3.8,2,5.4,3.6,6.8,6.4c0.7,1.5,1.1,3.1,1.1,4.7c0,4.7-3.7,8.4-8.2,8.4
	c-4.8,0-8.2-3.6-8.5-9.2H14.5z"/>
<path class="st3" d="M59,86.8c0.6-2.3,1-5.5,1-8.5c0-2.9-0.3-5.8-0.9-7.9c-0.3-1-0.8-1.9-1.4-2.5c-0.5-0.5-1.4-0.7-2.2-0.7
	c-1.6,0-2.8,1.1-3.3,3.2c-0.6,2.1-1,5.9-1,8.8c0,2,0.4,5.3,0.9,7.4c0.5,2.4,1.7,3.5,3.4,3.5C57.3,90.1,58.4,89,59,86.8z M55.5,94.4
	c-2.6,0-5.3-1.4-6.5-3.5c-0.7-1.4-1.3-3.1-1.6-5.1c-0.3-2.1-0.5-4.2-0.5-6.4c0-5.6,0.9-10.4,2.3-12.9c1.2-2.1,3.7-3.4,6.4-3.4
	c2.5,0,4.8,1.1,6,3c1.7,2.5,2.6,6.7,2.6,11.7c0,4.7-0.8,9.5-2,12.4c-1.1,2.4-3.7,4.2-6.5,4.3H55.5z"/>
<path class="st3" d="M73.3,76.3h4.3c2.5,0,3.6-1.3,3.6-4.2c0-2.7-1.1-4.2-3-4.2h-4.9V76.3z M69.1,63.7h9.6c3.9,0,6.7,3.5,6.7,8.2
	c0,3.8-1.7,7.1-4.2,8c-0.8,0.3-1.8,0.5-3.1,0.6c-0.2,0-4.9,0-4.9,0v13.1h-4.2V63.7z"/>
<polygon class="st3" points="33.7,67.3 28.4,67.3 28.4,63.6 43.4,63.5 43.4,67.3 37.9,67.3 37.9,93.7 33.7,93.7 "/>
<g>
	<g>
		<polygon points="142.3,35.9 114.8,63.3 114.8,94.6 142.3,122.1 173.5,122.1 201,94.6 201,63.3 173.5,35.9 		"/>
	</g>
</g>
<path class="st4" d="M155.5,121c1.3,1.3,3.4,1.3,4.8,0l39.7-39.7c1.3-1.3,1.3-3.4,0-4.8l-39.7-39.7c-1.3-1.3-3.4-1.3-4.8,0
	l-39.7,39.7c-1.3,1.3-1.3,3.4,0,4.8L155.5,121z"/>
<g>
	<g>
		<g>
			<rect x="119.4" y="72.8" class="st5" width="76.9" height="18.6"/>
			<path d="M126.2,82l3-0.3c0.2,1.2,0.6,2,1.1,2.5c0.6,0.5,1.3,0.8,2.3,0.8c1,0,1.8-0.2,2.3-0.7c0.5-0.5,0.8-1,0.8-1.7
				c0-0.4-0.1-0.8-0.3-1.1c-0.2-0.3-0.6-0.5-1.1-0.8c-0.4-0.1-1.2-0.4-2.5-0.8c-1.7-0.5-2.9-1-3.5-1.7c-1-1-1.4-2.1-1.4-3.5
				c0-0.9,0.2-1.7,0.7-2.5c0.4-0.8,1.1-1.4,1.9-1.8c0.8-0.4,1.9-0.6,3.1-0.6c1.9,0,3.4,0.5,4.4,1.4c1,1,1.5,2.2,1.5,3.8l-3.1,0.2
				c-0.1-0.9-0.4-1.5-0.9-1.9c-0.4-0.4-1.1-0.6-2-0.6c-0.9,0-1.6,0.2-2.1,0.6c-0.3,0.3-0.5,0.6-0.5,1.1c0,0.4,0.2,0.8,0.5,1.1
				c0.4,0.4,1.4,0.8,2.9,1.2s2.7,0.8,3.4,1.3c0.7,0.4,1.3,1,1.7,1.8c0.4,0.7,0.6,1.7,0.6,2.8c0,1-0.2,1.9-0.7,2.8
				c-0.5,0.9-1.2,1.5-2.1,1.9c-0.9,0.4-2,0.6-3.4,0.6c-2,0-3.5-0.5-4.5-1.5S126.4,84,126.2,82z"/>
			<path d="M141.5,87.7V70.4h3.1v14.4h7.8v2.9H141.5z"/>
			<path d="M154,79.1c0-1.8,0.2-3.3,0.7-4.5c0.4-0.9,0.8-1.7,1.4-2.4c0.6-0.7,1.3-1.2,2-1.6c1-0.5,2.1-0.7,3.3-0.7
				c2.3,0,4.1,0.8,5.5,2.4c1.4,1.6,2.1,3.8,2.1,6.7c0,2.8-0.7,5-2,6.6s-3.2,2.4-5.5,2.4c-2.3,0-4.1-0.8-5.5-2.4
				C154.7,84,154,81.9,154,79.1z M157.3,79c0,2,0.4,3.5,1.2,4.5c0.8,1,1.8,1.5,3.1,1.5c1.2,0,2.3-0.5,3.1-1.5c0.8-1,1.2-2.5,1.2-4.6
				c0-2-0.4-3.5-1.2-4.5s-1.8-1.5-3.1-1.5c-1.3,0-2.3,0.5-3.1,1.5C157.6,75.5,157.3,77,157.3,79z"/>
			<path d="M173.7,87.7L170,70.3h3.2l2.3,12l2.8-12h3.7l2.7,12.2l2.4-12.2h3.2l-3.8,17.4h-3.3l-3.1-13l-3.1,13H173.7z"/>
		</g>
	</g>
</g>
</svg>
