<?xml version="1.0" encoding="utf-8"?>
<!-- Generator: Adobe Illustrator 21.1.0, SVG Export Plug-In . SVG Version: 6.00 Build 0)  -->
<svg version="1.1" id="Layer_1" xmlns="http://www.w3.org/2000/svg" xmlns:xlink="http://www.w3.org/1999/xlink" x="0px" y="0px"
	 viewBox="0 0 203 202" style="enable-background:new 0 0 203 202;" xml:space="preserve">
<style type="text/css">
	.st0{fill:#F58532;stroke:#000000;stroke-width:0.25;}
</style>
<g>
	<g id="_x3C_BLANK_ORANGE_Sign_x3E__1_">
		<path class="st0" d="M96,196.7c3,3,7.8,3,10.8,0l90.2-90.2c3-3,3-7.8,0-10.8L106.9,5.4c-3-3-7.8-3-10.8,0L5.8,95.6
			c-3,3-3,7.8,0,10.8L96,196.7z"/>
		<path d="M9.3,104.5L98,193.2c1.9,1.9,5,1.9,6.8,0l88.7-88.7c1.9-1.9,1.9-5,0-6.8L104.9,8.9C103,7,99.9,7,98,8.9L9.3,97.6
			C7.4,99.5,7.4,102.6,9.3,104.5z M12.8,99.4l86.8-87c1-1,2.6-1,3.6,0l87,86.8c1,1,1,2.6,0,3.6l-86.9,86.9c-1,1-2.6,1-3.6,0
			L12.8,103C11.8,102,11.8,100.4,12.8,99.4z"/>
	</g>
	<path d="M129.6,101.7c-0.2-8.5-5.6-15.2-10.8-18.1c-2.9-1.6-5.4-2.3-7.4-2.8c-1.4-0.4-2.4-0.6-3.2-1.1c-0.4-0.3-0.9-1.1-1.1-1.6
		c0-2,0-4.1,0-5.6l1.1,0l9.2,2.3c0,0,2.2,0.6,4-1.2c1.8-1.8,0.5-4.1,0.5-4.1l-23.3-34L75.2,69.3c0,0-1.3,2.4,0.5,4.1
		c1.8,1.8,4,1.2,4,1.2l9.1-2.3l1,0c0,1.6,0,3.9,0,6.1c0,6.2,4.5,13.4,10.3,16.4c2.7,1.4,5,2,6.9,2.5c1.6,0.4,2.5,0.7,3.4,1.2
		c0.4,0.3,1.9,1.7,2,3.6c0.1,2-0.6,2.8-2,3.7c-2,1.3-7,3.1-9.7,4c-0.9,0.3-1.8,0.6-2.5,0.9c-13.2,4.8-14.8,15.2-14.8,19.5
		c-0.2,12,7.4,17.5,11.1,20.1l0.8,0.6c2.1,1.5,2.1,1.7,2,3.8l0,8.2h17.2l0-8c0-3.6,0.1-11-9-17.8l-1-0.7c-3.1-2.2-4-3.1-4-5.9
		c0-1,0-2.3,3.6-3.6c0.6-0.2,1.3-0.5,2.2-0.8c4.1-1.4,9.8-3.4,13.6-5.9C128.2,114.7,129.8,107.1,129.6,101.7z"/>
</g>
</svg>
