<?xml version="1.0" encoding="utf-8"?>
<!-- Generator: Adobe Illustrator 21.1.0, SVG Export Plug-In . SVG Version: 6.00 Build 0)  -->
<svg version="1.1" id="Layer_1" xmlns="http://www.w3.org/2000/svg" xmlns:xlink="http://www.w3.org/1999/xlink" x="0px" y="0px"
	 viewBox="0 0 203 202" style="enable-background:new 0 0 203 202;" xml:space="preserve">
<style type="text/css">
	.st0{fill:#F58532;}
	.st1{fill:#231F20;}
</style>
<g>
	<path d="M3.3,183.8c0,8,6.5,14.5,14.5,14.5h37.5L3.3,146.3V183.8z"/>
	<path d="M184.5,198.3c8,0,14.5-6.5,14.5-14.5v-37.6l-52.1,52.1H184.5z"/>
	<path d="M17.8,2.6c-8,0-14.5,6.5-14.5,14.5v37.6L55.4,2.6H17.8z"/>
	<path d="M199,17.2c0-8-6.5-14.5-14.5-14.5h-37.5L199,54.7V17.2z"/>
	<g>
		<polygon class="st0" points="146.9,2.6 55.4,2.6 3.3,54.7 3.3,146.3 55.4,198.3 146.9,198.3 199,146.3 199,54.7 		"/>
	</g>
	<g>
		<polygon class="st1" points="57.1,64.8 57.1,73.4 93.4,73.4 93.4,171.1 100.9,171.1 109.1,132.3 117.8,171.1 125.3,171.1 
			125.3,73.4 155.8,73.5 161.6,49.7 155.8,49.7 146.8,65.2 		"/>
		<circle class="st1" cx="111.2" cy="48.6" r="11.3"/>
		<polygon class="st1" points="48.3,59.7 40.2,51.5 40.2,40 48.3,31.8 59.9,31.8 68,40 68,51.5 59.9,59.7 		"/>
		<rect x="52" y="58.8" class="st1" width="5.2" height="116.1"/>
	</g>
</g>
</svg>
