<?xml version="1.0" encoding="utf-8"?>
<!-- Generator: Adobe Illustrator 21.1.0, SVG Export Plug-In . SVG Version: 6.00 Build 0)  -->
<svg version="1.1" id="Layer_1" xmlns="http://www.w3.org/2000/svg" xmlns:xlink="http://www.w3.org/1999/xlink" x="0px" y="0px"
	 viewBox="0 0 203 202" style="enable-background:new 0 0 203 202;" xml:space="preserve">
<style type="text/css">
	.st0{fill:#FFFFFF;}
	.st1{fill:#FFFFFF;stroke:#000000;stroke-width:0.25;}
	.st2{fill:#068041;}
	.st3{fill:#FFFFFF;stroke:#010101;stroke-width:0.25;}
	.st4{fill-rule:evenodd;clip-rule:evenodd;fill:#FFFFFF;}
</style>
<g>
	<path class="st0" d="M92.4,145.3h-1.2v-7.1c-0.3,0.3-0.7,0.5-1.1,0.8c-0.5,0.3-0.9,0.4-1.2,0.6v-1.1c0.7-0.3,1.2-0.6,1.7-1.1
		c0.5-0.4,0.8-0.8,1-1.2h0.8V145.3z"/>
	<path class="st0" d="M99.5,145.3v-9h1.2v5.2l2.8-2.7h1.5l-2.7,2.4l2.9,4.1h-1.5l-2.3-3.3l-0.8,0.8v2.6H99.5z"/>
	<path class="st0" d="M106.2,145.3v-6.6h1.1v0.9c0.2-0.3,0.5-0.6,0.9-0.8c0.4-0.2,0.8-0.3,1.2-0.3c0.5,0,0.9,0.1,1.3,0.3
		s0.6,0.5,0.7,0.8c0.5-0.8,1.3-1.1,2.1-1.1c0.7,0,1.2,0.2,1.6,0.5c0.4,0.4,0.6,0.9,0.6,1.7v4.5h-1.2v-4.1c0-0.4,0-0.8-0.1-1
		s-0.2-0.4-0.4-0.5c-0.2-0.1-0.4-0.2-0.7-0.2c-0.5,0-0.9,0.2-1.2,0.5c-0.3,0.3-0.5,0.8-0.5,1.5v3.8h-1.2V141c0-0.5-0.1-0.9-0.3-1.1
		c-0.2-0.2-0.5-0.4-0.9-0.4c-0.3,0-0.6,0.1-0.9,0.2c-0.3,0.2-0.5,0.4-0.6,0.7c-0.1,0.3-0.2,0.8-0.2,1.4v3.4H106.2z"/>
</g>
<g>
	<path class="st1" d="M193.9,168.6H8.1c-2.8,0-5.1-2.3-5.1-5.1V45.8c0-2.8,2.3-5.1,5.1-5.1h185.8c2.8,0,5.1,2.3,5.1,5.1v117.7
		C199,166.3,196.7,168.6,193.9,168.6z"/>
	<path class="st2" d="M193.7,42.7c2,0,3.6,1.6,3.6,3.6V163c0,2-1.6,3.6-3.6,3.6H8.2c-2,0-3.6-1.6-3.6-3.6V46.3c0-2,1.6-3.6,3.6-3.6
		H193.7z"/>
	<path class="st3" d="M195.9,38.2h-40.1c-1.7,0-3.1-1.4-3.1-3.1V22.8c0-1.7,1.4-3.1,3.1-3.1h40.1c1.7,0,3.1,1.4,3.1,3.1v12.3
		C199,36.8,197.6,38.2,195.9,38.2z"/>
	<path class="st2" d="M195.7,37.2h-39.4c-1.3,0-2.4-1.1-2.4-2.4V23.1c0-1.3,1.1-2.4,2.4-2.4h39.4c1.3,0,2.4,1.1,2.4,2.4v11.7
		C198.1,36.1,197,37.2,195.7,37.2z"/>
	<g>
		<path class="st0" d="M18,83.5V68.2H12v-2h14.6v2h-6.1v15.3H18z"/>
		<path class="st0" d="M30.1,83.5V70.9h2v1.9c0.5-0.9,1-1.5,1.4-1.8s0.9-0.4,1.4-0.4c0.8,0,1.5,0.2,2.3,0.7l-0.8,2
			c-0.6-0.3-1.1-0.5-1.7-0.5c-0.5,0-0.9,0.1-1.3,0.4c-0.4,0.3-0.7,0.7-0.8,1.2c-0.3,0.8-0.4,1.6-0.4,2.5v6.6H30.1z"/>
		<path class="st0" d="M49.7,81.9c-0.8,0.7-1.6,1.1-2.4,1.4c-0.8,0.3-1.6,0.4-2.5,0.4c-1.5,0-2.6-0.3-3.4-1
			c-0.8-0.7-1.2-1.5-1.2-2.6c0-0.6,0.1-1.2,0.4-1.7c0.3-0.5,0.7-0.9,1.2-1.2c0.5-0.3,1-0.5,1.6-0.7c0.4-0.1,1.1-0.2,2-0.3
			c1.8-0.2,3.2-0.4,4-0.7c0-0.3,0-0.5,0-0.6c0-0.9-0.2-1.5-0.6-1.8c-0.6-0.5-1.4-0.7-2.6-0.7c-1.1,0-1.8,0.2-2.3,0.5
			c-0.5,0.4-0.9,1-1.1,1.9l-2.2-0.3c0.2-0.9,0.5-1.6,1-2.2s1.1-1,2-1.3c0.9-0.3,1.9-0.4,3-0.4c1.1,0,2.1,0.1,2.8,0.4
			c0.7,0.3,1.2,0.6,1.6,1c0.3,0.4,0.6,0.9,0.7,1.4c0.1,0.4,0.1,1,0.1,2v2.8c0,2,0,3.2,0.1,3.8c0.1,0.5,0.3,1,0.6,1.5h-2.4
			C49.9,83,49.8,82.5,49.7,81.9z M49.5,77.2c-0.8,0.3-2,0.6-3.7,0.8c-0.9,0.1-1.6,0.3-2,0.4s-0.7,0.4-0.9,0.7
			c-0.2,0.3-0.3,0.6-0.3,1c0,0.6,0.2,1,0.7,1.4c0.5,0.4,1.1,0.6,2,0.6c0.9,0,1.6-0.2,2.3-0.5c0.7-0.4,1.2-0.8,1.5-1.5
			c0.2-0.5,0.4-1.2,0.4-2.1V77.2z"/>
		<path class="st0" d="M58.2,83.5V72.6h-2v-1.7h2v-1.3c0-0.8,0.1-1.5,0.2-1.9c0.2-0.6,0.6-1,1.1-1.3c0.5-0.3,1.3-0.5,2.3-0.5
			c0.6,0,1.3,0.1,2.1,0.2l-0.3,1.9c-0.5-0.1-0.9-0.1-1.3-0.1c-0.7,0-1.2,0.1-1.5,0.4c-0.3,0.3-0.4,0.8-0.4,1.5v1.2H63v1.7h-2.6v10.9
			H58.2z"/>
		<path class="st0" d="M75.8,81.9c-0.8,0.7-1.6,1.1-2.4,1.4c-0.8,0.3-1.6,0.4-2.5,0.4c-1.5,0-2.6-0.3-3.4-1
			c-0.8-0.7-1.2-1.5-1.2-2.6c0-0.6,0.1-1.2,0.4-1.7c0.3-0.5,0.7-0.9,1.2-1.2c0.5-0.3,1-0.5,1.6-0.7c0.4-0.1,1.1-0.2,2-0.3
			c1.8-0.2,3.2-0.4,4-0.7c0-0.3,0-0.5,0-0.6c0-0.9-0.2-1.5-0.6-1.8c-0.6-0.5-1.4-0.7-2.6-0.7c-1.1,0-1.8,0.2-2.3,0.5
			c-0.5,0.4-0.9,1-1.1,1.9l-2.2-0.3c0.2-0.9,0.5-1.6,1-2.2s1.1-1,2-1.3c0.9-0.3,1.9-0.4,3-0.4c1.1,0,2.1,0.1,2.8,0.4
			c0.7,0.3,1.2,0.6,1.6,1c0.3,0.4,0.6,0.9,0.7,1.4c0.1,0.4,0.1,1,0.1,2v2.8c0,2,0,3.2,0.1,3.8c0.1,0.5,0.3,1,0.6,1.5h-2.4
			C76,83,75.8,82.5,75.8,81.9z M75.6,77.2c-0.8,0.3-2,0.6-3.7,0.8c-0.9,0.1-1.6,0.3-2,0.4s-0.7,0.4-0.9,0.7c-0.2,0.3-0.3,0.6-0.3,1
			c0,0.6,0.2,1,0.7,1.4c0.5,0.4,1.1,0.6,2,0.6c0.9,0,1.6-0.2,2.3-0.5c0.7-0.4,1.2-0.8,1.5-1.5c0.2-0.5,0.4-1.2,0.4-2.1V77.2z"/>
		<path class="st0" d="M83.6,83.5V66.1h2.3v17.3H83.6z"/>
		<path class="st0" d="M91.3,84.5l2.2,0.3c0.1,0.6,0.3,1.1,0.8,1.4c0.6,0.4,1.3,0.6,2.3,0.6c1,0,1.9-0.2,2.4-0.6
			c0.6-0.4,1-0.9,1.2-1.7c0.1-0.4,0.2-1.3,0.2-2.7c-1,1.1-2.2,1.6-3.7,1.6c-1.8,0-3.2-0.6-4.2-1.9c-1-1.2-1.5-2.7-1.5-4.5
			c0-1.2,0.2-2.3,0.7-3.3c0.5-1,1.1-1.8,2-2.3s1.9-0.8,3.1-0.8c1.6,0,2.9,0.6,3.9,1.8v-1.5h2.1v10.9c0,2-0.2,3.3-0.6,4.2
			s-1.1,1.5-2,1.9c-0.9,0.5-2,0.7-3.4,0.7c-1.6,0-2.9-0.3-3.8-1C91.8,86.9,91.3,85.9,91.3,84.5z M93.2,77c0,1.6,0.3,2.8,1,3.6
			s1.6,1.1,2.6,1.1c1,0,1.9-0.4,2.6-1.1c0.7-0.8,1.1-1.9,1.1-3.5c0-1.5-0.4-2.7-1.1-3.5s-1.6-1.2-2.6-1.2c-1,0-1.9,0.4-2.6,1.2
			C93.5,74.3,93.2,75.5,93.2,77z"/>
		<path class="st0" d="M117,81.9c-0.8,0.7-1.6,1.1-2.4,1.4c-0.8,0.3-1.6,0.4-2.5,0.4c-1.5,0-2.6-0.3-3.4-1s-1.2-1.5-1.2-2.6
			c0-0.6,0.1-1.2,0.4-1.7s0.7-0.9,1.2-1.2c0.5-0.3,1-0.5,1.6-0.7c0.4-0.1,1.1-0.2,2-0.3c1.8-0.2,3.2-0.4,4-0.7c0-0.3,0-0.5,0-0.6
			c0-0.9-0.2-1.5-0.6-1.8c-0.6-0.5-1.4-0.7-2.6-0.7c-1.1,0-1.8,0.2-2.3,0.5c-0.5,0.4-0.9,1-1.1,1.9l-2.2-0.3c0.2-0.9,0.5-1.6,1-2.2
			c0.5-0.5,1.1-1,2-1.3c0.9-0.3,1.9-0.4,3-0.4c1.1,0,2.1,0.1,2.8,0.4s1.2,0.6,1.6,1s0.6,0.9,0.7,1.4c0.1,0.4,0.1,1,0.1,2v2.8
			c0,2,0,3.2,0.1,3.8c0.1,0.5,0.3,1,0.6,1.5h-2.4C117.2,83,117.1,82.5,117,81.9z M116.8,77.2c-0.8,0.3-2,0.6-3.7,0.8
			c-0.9,0.1-1.6,0.3-2,0.4c-0.4,0.2-0.7,0.4-0.9,0.7c-0.2,0.3-0.3,0.6-0.3,1c0,0.6,0.2,1,0.7,1.4c0.5,0.4,1.1,0.6,2,0.6
			c0.9,0,1.6-0.2,2.3-0.5c0.7-0.4,1.2-0.8,1.5-1.5c0.2-0.5,0.4-1.2,0.4-2.1V77.2z"/>
		<path class="st0" d="M124.9,83.5V70.9h2v1.9c0.5-0.9,1-1.5,1.4-1.8s0.9-0.4,1.4-0.4c0.8,0,1.5,0.2,2.3,0.7l-0.8,2
			c-0.6-0.3-1.1-0.5-1.7-0.5c-0.5,0-0.9,0.1-1.3,0.4s-0.7,0.7-0.8,1.2c-0.3,0.8-0.4,1.6-0.4,2.5v6.6H124.9z"/>
		<path class="st0" d="M145.6,83.5V66.1h8.1c1.6,0,2.9,0.2,3.7,0.5c0.9,0.3,1.5,0.9,2,1.6c0.5,0.8,0.8,1.7,0.8,2.6
			c0,1.2-0.4,2.3-1.3,3.1c-0.8,0.8-2.1,1.4-3.9,1.6c0.6,0.3,1.1,0.6,1.5,0.9c0.7,0.6,1.4,1.4,2,2.3l3.2,4.7h-3.1l-2.4-3.6
			c-0.7-1-1.3-1.8-1.8-2.4c-0.5-0.6-0.9-0.9-1.2-1.2c-0.4-0.2-0.7-0.4-1.1-0.5c-0.3-0.1-0.7-0.1-1.4-0.1h-2.8v7.7H145.6z
			 M148.1,73.8h5.2c1.1,0,2-0.1,2.6-0.3s1.1-0.6,1.4-1c0.3-0.5,0.5-1,0.5-1.6c0-0.8-0.3-1.5-0.9-2c-0.6-0.5-1.6-0.8-3-0.8h-5.8V73.8
			z"/>
		<path class="st0" d="M174.8,83.5v-1.6c-0.8,1.2-2.1,1.9-3.7,1.9c-1.1,0-2-0.3-2.9-0.8c-0.9-0.6-1.6-1.3-2.1-2.3s-0.7-2.1-0.7-3.4
			c0-1.3,0.2-2.4,0.7-3.4c0.4-1,1.1-1.8,2-2.3s1.9-0.8,3-0.8c0.8,0,1.5,0.2,2.1,0.5c0.6,0.3,1.1,0.7,1.5,1.2v-6.2h2.2v17.3H174.8z
			 M167.7,77.2c0,1.6,0.4,2.8,1.1,3.6c0.7,0.8,1.6,1.2,2.5,1.2c1,0,1.8-0.4,2.5-1.1c0.7-0.8,1-1.9,1-3.5c0-1.7-0.4-3-1.1-3.8
			c-0.7-0.8-1.6-1.2-2.6-1.2c-1,0-1.8,0.4-2.5,1.2C168,74.3,167.7,75.5,167.7,77.2z"/>
		<path class="st0" d="M183.4,83.5V81h2.6v2.4H183.4z"/>
	</g>
	<g>
		<path class="st0" d="M62.9,107.5c0-2.1,0.6-3.8,1.8-5c1.2-1.2,2.8-1.8,4.7-1.8c1.3,0,2.4,0.3,3.4,0.8s1.8,1.4,2.3,2.4
			s0.8,2.2,0.8,3.4c0,1.3-0.3,2.5-0.8,3.5s-1.3,1.8-2.4,2.3c-1,0.5-2.1,0.8-3.3,0.8c-1.3,0-2.4-0.3-3.4-0.9c-1-0.6-1.8-1.4-2.3-2.4
			C63.1,109.7,62.9,108.6,62.9,107.5z M64.7,107.5c0,1.5,0.4,2.8,1.3,3.6c0.9,0.9,2,1.3,3.3,1.3c1.4,0,2.5-0.4,3.3-1.3
			c0.9-0.9,1.3-2.2,1.3-3.8c0-1-0.2-2-0.6-2.7c-0.4-0.8-0.9-1.4-1.6-1.8c-0.7-0.4-1.5-0.6-2.4-0.6c-1.3,0-2.4,0.4-3.3,1.2
			S64.7,105.6,64.7,107.5z"/>
		<path class="st0" d="M84.4,112.6c-0.6,0.5-1.2,0.8-1.8,1c-0.6,0.2-1.2,0.3-1.8,0.3c-1.1,0-1.9-0.2-2.5-0.7s-0.9-1.1-0.9-1.9
			c0-0.5,0.1-0.9,0.3-1.2c0.2-0.4,0.5-0.7,0.9-0.9c0.4-0.2,0.8-0.4,1.2-0.5c0.3-0.1,0.8-0.2,1.5-0.2c1.3-0.2,2.3-0.3,3-0.5
			c0-0.2,0-0.4,0-0.4c0-0.6-0.2-1.1-0.5-1.4c-0.4-0.4-1.1-0.5-1.9-0.5c-0.8,0-1.4,0.1-1.7,0.4c-0.4,0.3-0.6,0.7-0.8,1.4l-1.6-0.2
			c0.1-0.7,0.4-1.2,0.7-1.6c0.3-0.4,0.8-0.7,1.5-0.9c0.6-0.2,1.4-0.3,2.2-0.3c0.8,0,1.5,0.1,2,0.3s0.9,0.4,1.2,0.7s0.4,0.6,0.5,1.1
			c0.1,0.3,0.1,0.8,0.1,1.5v2.1c0,1.5,0,2.4,0.1,2.8c0.1,0.4,0.2,0.8,0.4,1.1h-1.7C84.5,113.4,84.4,113,84.4,112.6z M84.2,109.1
			c-0.6,0.2-1.5,0.4-2.7,0.6c-0.7,0.1-1.2,0.2-1.5,0.3c-0.3,0.1-0.5,0.3-0.7,0.5c-0.2,0.2-0.2,0.5-0.2,0.7c0,0.4,0.2,0.8,0.5,1
			c0.3,0.3,0.8,0.4,1.5,0.4c0.6,0,1.2-0.1,1.7-0.4s0.9-0.6,1.1-1.1c0.2-0.4,0.3-0.9,0.3-1.6V109.1z"/>
		<path class="st0" d="M88.5,113.7v-12.8h1.7v7.3l3.9-3.8h2.2l-3.8,3.4l4.1,5.8h-2.1l-3.3-4.7l-1.2,1.1v3.7H88.5z"/>
		<path class="st0" d="M104.7,110.7l1.7,0.2c-0.3,0.9-0.8,1.7-1.5,2.2c-0.7,0.5-1.7,0.8-2.8,0.8c-1.4,0-2.6-0.4-3.4-1.3
			s-1.3-2-1.3-3.5c0-1.6,0.4-2.8,1.3-3.6c0.9-0.9,2-1.3,3.3-1.3c1.3,0,2.4,0.4,3.2,1.3c0.8,0.8,1.3,2,1.3,3.6c0,0.1,0,0.2,0,0.4
			h-7.3c0.1,1,0.4,1.8,0.9,2.3s1.2,0.8,2.1,0.8c0.6,0,1.1-0.2,1.6-0.5S104.5,111.4,104.7,110.7z M99.3,108.2h5.5
			c-0.1-0.8-0.3-1.4-0.6-1.8c-0.5-0.6-1.2-0.9-2.1-0.9c-0.8,0-1.4,0.2-1.9,0.7C99.6,106.7,99.3,107.4,99.3,108.2z"/>
		<path class="st0" d="M111.3,113.7l-3.7-9.3h1.8l2.1,5.6c0.2,0.6,0.4,1.2,0.6,1.9c0.1-0.5,0.4-1.1,0.6-1.8l2.2-5.7h1.7l-3.7,9.3
			H111.3z"/>
		<path class="st0" d="M118,102.7v-1.8h1.7v1.8H118z M118,113.7v-9.3h1.7v9.3H118z"/>
		<path class="st0" d="M122.2,113.7v-12.8h1.7v12.8H122.2z"/>
		<path class="st0" d="M126.4,113.7v-12.8h1.7v12.8H126.4z"/>
		<path class="st0" d="M137.4,110.7l1.7,0.2c-0.3,0.9-0.8,1.7-1.5,2.2c-0.7,0.5-1.7,0.8-2.8,0.8c-1.4,0-2.6-0.4-3.4-1.3
			s-1.3-2-1.3-3.5c0-1.6,0.4-2.8,1.3-3.6c0.9-0.9,2-1.3,3.3-1.3c1.3,0,2.4,0.4,3.2,1.3c0.8,0.8,1.3,2,1.3,3.6c0,0.1,0,0.2,0,0.4
			h-7.3c0.1,1,0.4,1.8,0.9,2.3c0.5,0.5,1.2,0.8,2.1,0.8c0.6,0,1.1-0.2,1.6-0.5C136.8,111.9,137.2,111.4,137.4,110.7z M131.9,108.2
			h5.5c-0.1-0.8-0.3-1.4-0.6-1.8c-0.5-0.6-1.2-0.9-2.1-0.9c-0.8,0-1.4,0.2-1.9,0.7C132.3,106.7,132,107.4,131.9,108.2z"/>
	</g>
	<g>
		<path class="st0" d="M91.4,144.3h-1.2v-7.1c-0.3,0.3-0.7,0.5-1.1,0.8c-0.5,0.3-0.9,0.4-1.2,0.6v-1.1c0.7-0.3,1.2-0.6,1.7-1.1
			c0.5-0.4,0.8-0.8,1-1.2h0.8V144.3z"/>
		<path class="st0" d="M98.5,144.3v-9h1.2v5.2l2.8-2.7h1.5l-2.7,2.4l2.9,4.1h-1.5l-2.3-3.3l-0.8,0.8v2.6H98.5z"/>
		<path class="st0" d="M105.2,144.3v-6.6h1.1v0.9c0.2-0.3,0.5-0.6,0.9-0.8c0.4-0.2,0.8-0.3,1.2-0.3c0.5,0,0.9,0.1,1.3,0.3
			s0.6,0.5,0.7,0.8c0.5-0.8,1.3-1.1,2.1-1.1c0.7,0,1.2,0.2,1.6,0.5c0.4,0.4,0.6,0.9,0.6,1.7v4.5h-1.2v-4.1c0-0.4,0-0.8-0.1-1
			s-0.2-0.4-0.4-0.5c-0.2-0.1-0.4-0.2-0.7-0.2c-0.5,0-0.9,0.2-1.2,0.5c-0.3,0.3-0.5,0.8-0.5,1.5v3.8h-1.2V140c0-0.5-0.1-0.9-0.3-1.1
			c-0.2-0.2-0.5-0.4-0.9-0.4c-0.3,0-0.6,0.1-0.9,0.2c-0.3,0.2-0.5,0.4-0.6,0.7c-0.1,0.3-0.2,0.8-0.2,1.4v3.4H105.2z"/>
	</g>
	<path id="_x3C_0_x3E__3_" class="st4" d="M175.5,23.1c1.7-0.1,3,0.6,3.8,1.6c0.8,0.9,1.3,2.4,1.3,4.1c0,3.3-1.3,6.1-4.5,6.2
		c-3.4,0.1-5-2.4-5.1-5.6c-0.1-1.7,0.4-3.3,1.1-4.3C172.8,23.9,173.8,23.2,175.5,23.1z M173.7,26.2c-1.1,1.6-0.9,4.8,0.3,6
		c0.8,0.8,2.3,0.8,3.1,0.2c1.6-1.2,1.8-5.3,0.2-6.7c-0.4-0.4-1.1-0.6-1.9-0.6C174.7,25.2,174.1,25.7,173.7,26.2z"/>
	<path id="_x3C_4_x3E__2_" class="st4" d="M191,23.3c0,2.4,0,4.8,0,7.3c0.6,0,1.1,0,1.7,0c0,0.6,0,1.3,0,1.9c-0.5,0-1.1,0-1.7,0
		c0,0.7,0,1.5,0,2.3c-0.7,0-1.4,0-2,0c0-0.8,0-1.5,0-2.3c-2.4,0-4.7,0-7.1,0c0-0.3,0-0.6,0-0.9c0-0.3-0.1-0.7,0-0.9
		c0-0.1,0.3-0.4,0.4-0.5c2.3-2.3,4.4-4.6,6.7-6.8C189.7,23.3,190.4,23.3,191,23.3z M184.7,30.4c0,0-0.1,0.1-0.1,0.1
		c1.5,0,2.9,0,4.4,0c0-1.5,0-3.1,0-4.5C187.6,27.5,186.1,28.9,184.7,30.4z"/>
	<path id="_x3C_2_x3E__1_" class="st4" d="M162.1,32.8c2.2,0,4.5,0,6.7,0c0,0.7,0,1.4,0,2.1c-3.1,0-6.2,0-9.3,0
		c0.1-2.4,0.9-3.8,2.2-5c0.6-0.6,1.4-1,2.2-1.4c0.8-0.3,2-0.5,2.5-1.1c0.2-0.2,0.4-0.8,0.2-1.2c-0.4-0.8-1.8-1-3-0.8
		c-1.2,0.1-2,0.6-2.7,1.2c-0.5-0.5-1-1-1.4-1.6c1.1-0.9,2.4-1.6,4.3-1.7c1.8-0.1,3.3,0.3,4.1,1.2c0.4,0.4,0.7,1,0.8,1.8
		c0.2,1.7-0.8,2.8-1.9,3.4c-0.6,0.3-1.3,0.4-2,0.7C163.5,30.7,162.7,31.6,162.1,32.8z"/>
</g>
</svg>
