<?xml version="1.0" encoding="utf-8"?>
<!-- Generator: Adobe Illustrator 21.1.0, SVG Export Plug-In . SVG Version: 6.00 Build 0)  -->
<svg version="1.1" id="Layer_1" xmlns="http://www.w3.org/2000/svg" xmlns:xlink="http://www.w3.org/1999/xlink" x="0px" y="0px"
	 viewBox="0 0 608 613.3" style="enable-background:new 0 0 608 613.3;" xml:space="preserve">
<style type="text/css">
	.st0{fill:#FFFFFF;stroke:#000000;stroke-width:0.5;}
	.st1{fill:#058040;}
	.st2{fill:#FFFFFF;}
	.st3{fill:none;}
</style>
<g>
	<g>
		<g>
			<path class="st0" d="M585.9,41.3c9,0,16.3,7.3,16.3,16.3v448.1c0,9-7.3,16.3-16.3,16.3H22c-9,0-16.3-7.3-16.3-16.3V57.6
				c0-9,7.3-16.3,16.3-16.3H585.9z"/>
			<path class="st1" d="M572.3,54.7c9,0,16.3,7.3,16.3,16.3v421.3c0,9-7.3,16.3-16.3,16.3H33.8c-9,0-16.3-7.3-16.3-16.3V71
				c0-9,7.3-16.3,16.3-16.3H572.3z"/>
		</g>
	</g>
	<g>
		<path class="st2" d="M299.7,135.5c-1.5,1-2.2,2.3-2.2,3.8c0,1.5,0.6,2.8,1.8,3.9c1.2,1.1,2.7,1.7,4.6,1.7c2.1,0,4-0.6,5.9-1.9
			c1.4-1,2.3-2.2,2.7-3.6c0.3-0.9,0.4-2.7,0.4-5.3v-2.2c-1.5,0.5-3.8,1-7,1.7C302.7,134.2,300.7,134.9,299.7,135.5z"/>
		<g>
			<rect x="336.9" y="101.9" class="st3" width="12" height="42.6"/>
			<path class="st3" d="M325,130.5l0.1-13.2c0-4.9-0.5-8.3-1.6-10.1c-1.1-1.8-2.9-3.3-5.5-4.5c-2.6-1.2-6.6-1.8-11.9-1.8
				c-5.9,0-10.3,1-13.3,3c-3,2-5.1,5-6.3,9.2l10.8,1.8c0.7-2,1.7-3.4,2.9-4.2c1.2-0.8,2.9-1.2,5-1.2c3.1,0,5.3,0.5,6.4,1.4
				c1.1,0.9,1.7,2.5,1.7,4.6v1.1c-2.2,0.9-6,1.8-11.6,2.8c-4.1,0.7-7.3,1.6-9.5,2.6c-2.2,1-3.9,2.4-5.1,4.3c-1.2,1.9-1.8,4-1.8,6.4
				c0,3.6,1.3,6.7,4,9c2.7,2.4,6.3,3.6,11,3.6c2.6,0,5.1-0.5,7.4-1.4c2.3-0.9,4.5-2.3,6.6-4.2c0.1,0.2,0.2,0.7,0.4,1.3
				c0.5,1.5,0.8,2.6,1.1,3.3h11.8c-1-2-1.8-3.9-2.1-5.7C325.2,137,325,134.3,325,130.5z"/>
			<path class="st3" d="M270.2,102.3c-1.5,0.9-3.2,2.8-5.1,5.7v-6.1H254v42.6h12v-13.2c0-7.3,0.3-12,1-14.3c0.7-2.3,1.6-3.8,2.7-4.7
				c1.2-0.9,2.6-1.3,4.3-1.3c1.7,0,3.6,0.6,5.6,1.8l3.7-9.8c-2.5-1.4-5.1-2.1-7.9-2.1C273.5,100.9,271.8,101.4,270.2,102.3z"/>
			<path class="st3" d="M399.2,105.7c-1.1-1.4-2.8-2.5-5-3.4c-2.2-0.9-4.6-1.3-7.2-1.3c-6,0-10.9,2.4-14.9,7.2v-6.3H361v42.6h12
				v-19.3c0-4.8,0.3-8,0.9-9.8c0.6-1.8,1.7-3.2,3.4-4.3c1.6-1.1,3.5-1.6,5.6-1.6c1.6,0,3,0.4,4.1,1.1c1.1,0.7,2,1.8,2.5,3.2
				c0.5,1.4,0.8,4.3,0.8,8.9v21.8h12V118c0-3.3-0.2-5.8-0.7-7.6C401.1,108.7,400.3,107.1,399.2,105.7z"/>
			<rect x="336.9" y="85.7" class="st3" width="12" height="10.4"/>
			<path class="st2" d="M563.1,63.7H41.5c-8.7,0-15.8,6.3-15.8,14.1v111.8h553.2V77.7C578.9,70,571.8,63.7,563.1,63.7z M253.4,104.7
				h-17.7v46.9h-12.1v-46.9h-17.8v-9.5h47.5V104.7z M280.5,121.2c-1.9-1.2-3.7-1.8-5.4-1.8c-1.6,0-3,0.4-4.1,1.3
				c-1.1,0.8-2,2.3-2.6,4.5c-0.6,2.2-1,6.8-1,13.7v12.6H256v-40.9h10.7v5.8c1.8-2.7,3.5-4.6,4.9-5.4c1.5-0.9,3.1-1.3,5-1.3
				c2.6,0,5.1,0.7,7.5,2L280.5,121.2z M315.3,151.6c-0.3-0.7-0.7-1.8-1.1-3.2c-0.2-0.6-0.3-1.1-0.4-1.3c-2,1.8-4.1,3.1-6.3,4
				c-2.2,0.9-4.6,1.3-7.1,1.3c-4.5,0-8-1.1-10.5-3.4c-2.6-2.3-3.9-5.2-3.9-8.7c0-2.3,0.6-4.4,1.8-6.2c1.2-1.8,2.8-3.2,4.9-4.2
				c2.1-1,5.1-1.8,9.1-2.5c5.4-0.9,9.1-1.8,11.1-2.7v-1.1c0-2.1-0.5-3.6-1.6-4.4c-1.1-0.9-3.1-1.3-6.2-1.3c-2,0-3.6,0.4-4.8,1.1
				c-1.1,0.8-2.1,2.1-2.8,4l-10.4-1.8c1.2-4,3.2-6.9,6-8.8c2.9-1.9,7.1-2.8,12.7-2.8c5.1,0,8.9,0.6,11.4,1.7
				c2.5,1.1,4.3,2.6,5.3,4.4c1,1.8,1.5,5,1.5,9.7l-0.1,12.6c0,3.6,0.2,6.2,0.6,7.9c0.4,1.7,1.1,3.5,2.1,5.5H315.3z M346.9,151.6
				h-11.5v-40.9h11.5V151.6z M346.9,105.1h-11.5v-10h11.5V105.1z M398.1,151.6h-11.5v-20.9c0-4.4-0.2-7.3-0.7-8.6
				c-0.5-1.3-1.3-2.3-2.4-3c-1.1-0.7-2.4-1.1-4-1.1c-2,0-3.8,0.5-5.3,1.5c-1.6,1-2.7,2.4-3.2,4.1c-0.6,1.7-0.9,4.8-0.9,9.4v18.5
				h-11.5v-40.9h10.7v6c3.8-4.6,8.5-6.9,14.3-6.9c2.5,0,4.8,0.4,6.9,1.3c2.1,0.9,3.7,2,4.8,3.3c1.1,1.3,1.8,2.8,2.2,4.5
				c0.4,1.7,0.6,4.1,0.6,7.3V151.6z"/>
		</g>
	</g>
	<g>
		<g>
			<ellipse class="st2" cx="300.4" cy="207" rx="14.9" ry="12.5"/>
			<g>
				<path class="st3" d="M350.6,233h-45.1v39.7h66v-18.8C371.5,242.4,362.1,233,350.6,233z"/>
				<path class="st3" d="M294.8,233h-45.1c-11.5,0-20.9,9.4-20.9,20.9v18.8h66V233z"/>
				<rect x="279" y="290.5" class="st3" width="41.2" height="22"/>
				<circle class="st3" cx="364.7" cy="385.8" r="12.5"/>
				<circle class="st3" cx="235.6" cy="385.8" r="12.5"/>
				<path class="st2" d="M299.1,397.4c-49.6-33.5-76.2-61.6-90.5-82.2v87.4l26.7,26.7H365l26.7-26.7V315
					C359.7,363.6,299.1,397.4,299.1,397.4z M235.6,398.3c-6.9,0-12.5-5.6-12.5-12.5c0-6.9,5.6-12.5,12.5-12.5s12.5,5.6,12.5,12.5
					C248.1,392.7,242.5,398.3,235.6,398.3z M377.3,385.8c0,6.9-5.6,12.5-12.5,12.5s-12.5-5.6-12.5-12.5c0-6.9,5.6-12.5,12.5-12.5
					S377.3,378.9,377.3,385.8z"/>
				<path class="st2" d="M356.8,205.8h-32.4h-4c0,0.4,0.1,0.9,0.1,1.3c0,10-9.1,18.1-20.3,18.1c-11.2,0-20.3-8.1-20.3-18.1
					c0-0.4,0-0.9,0.1-1.3h-4.7h-33.9c-15,9.3-26.6,23.4-32.7,40.2l0,33c0,0,0.5,39.7,90.7,100.7c0,0,78.4-43.6,92.4-100.6v-0.9
					v-27.5C386,231.8,373.4,215.8,356.8,205.8z M228.8,272.7v-18.8c0-11.5,9.4-20.9,20.9-20.9h45.1v39.7H228.8z M320.2,312.5H279
					v-22h41.2V312.5z M371.5,272.7h-66V233h45.1c11.5,0,20.9,9.4,20.9,20.9V272.7z"/>
			</g>
		</g>
		<g>
			<polygon class="st2" points="358.7,463.2 246.7,463.2 254.3,453.5 349.9,453.5 			"/>
			<polygon class="st2" points="188.9,497.7 211.9,497.5 257.9,439.5 243.7,439.5 			"/>
			<polygon class="st2" points="419,497.7 396,497.5 345.2,439.5 359.4,439.5 			"/>
			<polygon class="st2" points="378.4,487.8 229.9,487.8 237.5,478.1 370.5,478.1 			"/>
		</g>
	</g>
	<rect id="_x3C_Slice_x3E_" x="201.6" y="85.4" class="st3" width="201.1" height="60.7"/>
</g>
</svg>
