<?xml version="1.0" encoding="utf-8"?>
<!-- Generator: Adobe Illustrator 21.1.0, SVG Export Plug-In . SVG Version: 6.00 Build 0)  -->
<svg version="1.1" id="Layer_1" xmlns="http://www.w3.org/2000/svg" xmlns:xlink="http://www.w3.org/1999/xlink" x="0px" y="0px"
	 viewBox="0 0 203 202" style="enable-background:new 0 0 203 202;" xml:space="preserve">
<style type="text/css">
	.st0{fill:#FEE503;stroke:#000000;stroke-width:0.25;}
</style>
<g>
	<g>
		<path class="st0" d="M95.7,197.3c3,3,7.8,3,10.8,0l90.4-90.4c3-3,3-7.8,0-10.8L106.6,5.7c-3-3-7.9-3-10.8,0L5.4,96
			c-3,3-3,7.9,0,10.8L95.7,197.3z"/>
		<path d="M8.9,104.9l88.8,88.9c1.9,1.9,5,1.9,6.9,0l88.9-88.9c1.9-1.9,1.9-5,0-6.9L104.6,9.2c-1.9-1.9-5-1.9-6.9,0L8.9,98
			C7,99.9,7,103,8.9,104.9z M12.3,99.8l86.9-87.1c1-1,2.6-1,3.6,0L190,99.6c1,1,1,2.6,0,3.6l-87,87c-1,1-2.6,1-3.6,0l-87-86.8
			C11.3,102.4,11.3,100.8,12.3,99.8z"/>
	</g>
	<g>
		<path d="M112.8,56.6L97.6,34.5l-15.2,22c0,0-0.8,1.5,0.3,2.7c1.2,1.2,2.6,0.8,2.6,0.8l5.7-1.3v102.7h13V58.8l5.8,1.3
			c0,0,1.5,0.4,2.6-0.8C113.6,58.1,112.8,56.6,112.8,56.6z"/>
		<rect x="104" y="68.1" transform="matrix(0.9428 -0.3334 0.3334 0.9428 -29.1378 42.6689)" width="11.5" height="76.3"/>
	</g>
</g>
</svg>
