<?xml version="1.0" encoding="utf-8"?>
<!-- Generator: Adobe Illustrator 21.1.0, SVG Export Plug-In . SVG Version: 6.00 Build 0)  -->
<svg version="1.1" id="Layer_1" xmlns="http://www.w3.org/2000/svg" xmlns:xlink="http://www.w3.org/1999/xlink" x="0px" y="0px"
	 viewBox="0 0 203 202" style="enable-background:new 0 0 203 202;" xml:space="preserve">
<style type="text/css">
	.st0{fill:#FFFFFF;}
</style>
<g>
	<path d="M198.8,188c0,4.4-3.5,7.9-7.9,7.9H14.2c-4.3,0-7.9-3.5-7.9-7.9V11.4c0-4.4,3.5-7.9,7.9-7.9h176.7c4.4,0,7.9,3.5,7.9,7.9
		V188z"/>
	<path class="st0" d="M108.5,113.3C99.9,98.4,83.4,86,59.2,80.1l0.4-1.1l5.3-8.8c0,0,1.4-2.2,0.1-4.8c-1.3-2.5-4.3-2-4.3-2
		L15.7,76.9l28.5,37.1c0,0,2.1,2.2,4.7,0.9c2.5-1.3,2.7-3.9,2.7-3.9l0.8-10.2l0.3-0.9c19.4,4.4,32,13.8,37.9,23.9
		c5.3,9.2,5.1,21,4.8,36c-0.1,2.7-0.1,5.7-0.1,8.6l20.7,0c0-2.8,0.1-5.5,0.1-8.1C116.4,143.3,116.7,127.5,108.5,113.3z"/>
	<path class="st0" d="M93.5,78.7c8.6,14.9,25.1,27.3,49.3,33.2l-0.4,1.1l-5.3,8.8c0,0-1.4,2.2-0.1,4.8c1.3,2.5,4.3,2,4.3,2
		l44.9-13.4l-28.5-37.1c0,0-2.1-2.2-4.7-0.9c-2.5,1.3-2.7,3.9-2.7,3.9l-0.8,10.2l-0.3,0.9c-19.4-4.4-32-13.8-37.9-23.9
		c-5.3-9.2-5.1-21-4.8-36c0.1-2.7,0.1-5.7,0.1-8.6l-20.7,0c0,2.8-0.1,5.5-0.1,8.1C85.7,48.8,85.3,64.5,93.5,78.7z"/>
</g>
</svg>
