<?xml version="1.0" encoding="utf-8"?>
<!-- Generator: Adobe Illustrator 21.1.0, SVG Export Plug-In . SVG Version: 6.00 Build 0)  -->
<svg version="1.1" id="Layer_1" xmlns="http://www.w3.org/2000/svg" xmlns:xlink="http://www.w3.org/1999/xlink" x="0px" y="0px"
	 viewBox="0 0 203 202" style="enable-background:new 0 0 203 202;" xml:space="preserve">
<style type="text/css">
	.st0{fill:#FEE503;stroke:#000000;stroke-width:0.25;}
	.st1{fill:none;}
	.st2{enable-background:new    ;}
	.st3{fill:#231F20;}
</style>
<g>
	<g>
		<path class="st0" d="M95.8,195.3c2.9,2.9,7.7,2.9,10.6,0l88.4-88.4c2.9-2.9,2.9-7.7,0-10.6L106.4,7.8c-2.9-2.9-7.7-2.9-10.6,0
			L7.3,96.2c-2.9,2.9-2.9,7.7,0,10.6L95.8,195.3z"/>
		<path d="M10.7,104.9l87,87c1.9,1.9,4.9,1.9,6.7,0l87-87c1.9-1.9,1.9-4.9,0-6.7l-87-87c-1.9-1.9-4.9-1.9-6.7,0l-87,87
			C8.9,100,8.9,103,10.7,104.9z M14.1,99.9l85-85.3c1-1,2.6-1,3.5,0l85.3,85c1,1,1,2.6,0,3.5l-85.2,85.1c-1,1-2.6,1-3.5,0
			l-85.1-84.9C13.2,102.4,13.2,100.8,14.1,99.9z"/>
	</g>
	<g>
		<polygon points="91.6,139.4 77.4,139.9 100.4,175.9 124.7,139.5 110,139.5 109.8,139.5 109.8,127.7 91.6,127.7 		"/>
	</g>
	<g>
		<polygon points="110.6,60.8 124.7,60.2 101.7,24.3 77.4,60.7 92.1,60.7 92.3,60.7 92.3,72.5 110.6,72.5 		"/>
	</g>
	<rect x="60.2" y="85.3" class="st1" width="96.2" height="43.5"/>
	<g class="st2">
		<path class="st3" d="M68.1,107l3.8-0.5c0.4,2.3,1.2,4,2.2,5.1c1,1,2.3,1.5,3.8,1.5c1.8,0,3.3-0.7,4.5-2s1.8-3,1.8-5
			c0-1.9-0.6-3.5-1.7-4.7s-2.6-1.8-4.3-1.8c-0.7,0-1.6,0.2-2.6,0.5l0.4-3.6c0.3,0,0.5,0,0.6,0c1.6,0,3-0.5,4.3-1.4s1.9-2.3,1.9-4.2
			c0-1.5-0.5-2.8-1.4-3.8s-2.1-1.5-3.6-1.5s-2.7,0.5-3.6,1.5c-1,1-1.6,2.5-1.9,4.5l-3.8-0.7c0.5-2.8,1.5-4.9,3.1-6.4
			s3.6-2.3,6.1-2.3c1.7,0,3.2,0.4,4.6,1.2c1.4,0.8,2.5,1.9,3.2,3.2s1.1,2.8,1.1,4.3s-0.4,2.8-1.1,4s-1.8,2.1-3.1,2.8
			c1.8,0.5,3.2,1.4,4.2,2.9c1,1.4,1.5,3.3,1.5,5.4c0,2.9-1,5.4-2.9,7.5s-4.4,3.1-7.4,3.1c-2.7,0-4.9-0.9-6.7-2.6
			C69.4,112,68.3,109.8,68.1,107z"/>
	</g>
	<g class="st2">
		<path class="st3" d="M92.8,115.8v-3.4h3.1v3.4H92.8z"/>
		<path class="st3" d="M100.3,110.2l2.6-0.3c0.2,1.4,0.6,2.3,1.3,3s1.4,0.9,2.4,0.9c0.8,0,1.6-0.2,2.2-0.6s1.1-1,1.6-1.7
			s0.7-1.7,1-2.9c0.3-1.2,0.4-2.4,0.4-3.7c0-0.1,0-0.3,0-0.6c-0.5,1-1.3,1.7-2.2,2.3c-0.9,0.6-2,0.9-3.1,0.9c-1.8,0-3.4-0.7-4.7-2.2
			c-1.3-1.5-1.9-3.4-1.9-5.8c0-2.5,0.7-4.5,2-6s3-2.3,5-2.3c1.4,0,2.8,0.4,4,1.3s2.1,2.1,2.7,3.7s0.9,3.9,0.9,6.9
			c0,3.1-0.3,5.6-0.9,7.5s-1.5,3.3-2.8,4.2c-1.2,1-2.6,1.5-4.3,1.5c-1.7,0-3.2-0.5-4.3-1.6C101.2,113.6,100.5,112.1,100.3,110.2z
			 M111.5,99.4c0-1.7-0.4-3.1-1.3-4.1s-1.8-1.5-3-1.5s-2.3,0.5-3.2,1.6c-0.9,1.1-1.3,2.5-1.3,4.2c0,1.6,0.4,2.8,1.3,3.8
			s1.9,1.5,3.2,1.5c1.3,0,2.3-0.5,3.1-1.5C111.1,102.5,111.5,101.1,111.5,99.4z"/>
		<path class="st3" d="M126.6,115.8V98.1h2.4v2.5c0.5-0.9,1.2-1.6,2-2.1s1.8-0.8,2.9-0.8c1.2,0,2.2,0.3,2.9,0.8
			c0.8,0.5,1.3,1.3,1.6,2.3c1.3-2.1,2.9-3.1,5-3.1c1.6,0,2.8,0.5,3.7,1.5s1.3,2.5,1.3,4.5v12.2h-2.7v-11.2c0-1.2-0.1-2.1-0.3-2.6
			s-0.5-1-1-1.3s-1-0.5-1.6-0.5c-1.1,0-2.1,0.4-2.8,1.2s-1.1,2.2-1.1,4v10.3h-2.7v-11.5c0-1.3-0.2-2.3-0.7-3c-0.4-0.7-1.2-1-2.2-1
			c-0.8,0-1.5,0.2-2.1,0.7c-0.7,0.4-1.1,1.1-1.4,1.9c-0.3,0.9-0.4,2.1-0.4,3.7v9.2C129.4,115.8,126.6,115.8,126.6,115.8z"/>
	</g>
</g>
</svg>
