<?xml version="1.0" encoding="utf-8"?>
<!-- Generator: Adobe Illustrator 21.1.0, SVG Export Plug-In . SVG Version: 6.00 Build 0)  -->
<svg version="1.1" id="Layer_1" xmlns="http://www.w3.org/2000/svg" xmlns:xlink="http://www.w3.org/1999/xlink" x="0px" y="0px"
	 viewBox="0 0 203 202" style="enable-background:new 0 0 203 202;" xml:space="preserve">
<style type="text/css">
	.st0{fill:#FEE503;stroke:#000000;stroke-width:0.25;}
	.st1{fill:#231F20;}
</style>
<g>
	<g>
		<path class="st0" d="M96.6,197.7c3,3,7.9,3,10.9,0l91-91c3-3,3-7.9,0-10.9l-91-91c-3-3-7.9-3-10.9,0l-91,91c-3,3-3,7.9,0,10.9
			L96.6,197.7z"/>
		<path d="M9.1,104.7l89.5,89.5c1.9,1.9,5,1.9,6.9,0l89.5-89.5c1.9-1.9,1.9-5,0-6.9L105.5,8.3c-1.9-1.9-5-1.9-6.9,0L9.1,97.8
			C7.2,99.7,7.2,102.8,9.1,104.7z M12.6,99.5l87.5-87.7c1-1,2.6-1,3.6,0l87.7,87.5c1,1,1,2.6,0,3.6l-87.6,87.6c-1,1-2.6,1-3.6,0
			l-87.6-87.4C11.6,102.2,11.6,100.5,12.6,99.5z"/>
	</g>
	<path class="st1" d="M139.9,108.3c-14.1,3.2-23.3,10-27.5,17.3c-1.7,2.9-2.6,6.2-3,9.8v24.2H92.2V68.8l-7.6,1.8c0,0-1.9,0.5-3.4-1
		S80.8,66,80.8,66l20-29.1l20,29c0,0,1.1,2-0.4,3.6c-1.5,1.5-3.4,1-3.4,1l-7.5-1.8v37.8c6.5-5.5,15.2-9.8,25.9-12.4"/>
</g>
</svg>
