<?xml version="1.0" encoding="utf-8"?>
<!-- Generator: Adobe Illustrator 21.1.0, SVG Export Plug-In . SVG Version: 6.00 Build 0)  -->
<svg version="1.1" id="Layer_1" xmlns="http://www.w3.org/2000/svg" xmlns:xlink="http://www.w3.org/1999/xlink" x="0px" y="0px"
	 viewBox="0 0 203 202" style="enable-background:new 0 0 203 202;" xml:space="preserve">
<style type="text/css">
	.st0{fill:#FDE500;stroke:#000000;stroke-width:0.25;}
	.st1{fill:#231F20;}
	.st2{fill:#FFFFFF;}
	.st3{fill:none;stroke:#231F20;stroke-width:3;}
</style>
<path class="st0" d="M95.9,196.6c3,3,7.9,3,10.9,0l90.6-90.6c3-3,3-7.9,0-10.9L106.8,4.5c-3-3-7.9-3-10.9,0L5.3,95.1
	c-3,3-3,7.9,0,10.9L95.9,196.6z"/>
<path d="M8.8,104l89.1,89.1c1.9,1.9,5,1.9,6.9,0l89.1-89.1c1.9-1.9,1.9-5,0-6.9L104.8,8c-1.9-1.9-5-1.9-6.9,0L8.8,97.1
	C6.9,99,6.9,102.1,8.8,104z M12.2,98.8l87.2-87.4c1-1,2.6-1,3.6,0l87.4,87.2c1,1,1,2.6,0,3.6l-87.3,87.3c-1,1-2.6,1-3.6,0
	l-87.3-87.1C11.3,101.5,11.3,99.8,12.2,98.8z"/>
<rect x="92" y="39" class="st1" width="18.6" height="43.3"/>
<rect x="99.9" y="44.4" class="st2" width="2.9" height="14.5"/>
<rect x="99.9" y="65.3" class="st2" width="2.9" height="14.5"/>
<g>
	<path class="st3" d="M62.9,86.3c3.5,0,3.5,10,7,10c3.5,0,3.5-10,7-10c3.5,0,3.5,10,7,10c3.5,0,3.5-10,7-10c3.5,0,3.5,10,7,10
		c3.5,0,3.5-10,7-10c3.5,0,3.5,10,7,10c3.5,0,3.5-10,7-10c3.5,0,3.5,10,7,10c3.5,0,3.5-10,7-10c3.5,0,3.5,10,7,10"/>
</g>
<g>
	<path class="st3" d="M62.9,101.3c3.5,0,3.5,10,7,10c3.5,0,3.5-10,7-10c3.5,0,3.5,10,7,10c3.5,0,3.5-10,7-10c3.5,0,3.5,10,7,10
		c3.5,0,3.5-10,7-10c3.5,0,3.5,10,7,10c3.5,0,3.5-10,7-10c3.5,0,3.5,10,7,10c3.5,0,3.5-10,7-10c3.5,0,3.5,10,7,10"/>
</g>
<rect x="92" y="115.7" class="st1" width="18.6" height="43.3"/>
<rect x="99.9" y="121.1" class="st2" width="2.9" height="14.5"/>
<rect x="99.9" y="142" class="st2" width="2.9" height="14.5"/>
</svg>
