<?xml version="1.0" encoding="utf-8"?>
<!-- Generator: Adobe Illustrator 21.1.0, SVG Export Plug-In . SVG Version: 6.00 Build 0)  -->
<svg version="1.1" id="Layer_1" xmlns="http://www.w3.org/2000/svg" xmlns:xlink="http://www.w3.org/1999/xlink" x="0px" y="0px"
	 viewBox="0 0 203 202" style="enable-background:new 0 0 203 202;" xml:space="preserve">
<style type="text/css">
	.st0{fill:#FFFFFF;stroke:#000000;stroke-width:0.2581;}
	.st1{fill:#004FA2;}
	.st2{fill-rule:evenodd;clip-rule:evenodd;fill:#FFFFFF;}
</style>
<g id="_x3C_HANDICAPPED_Sign_x3E_">
	<path class="st0" d="M186.5,168.4c0,6.9-5.6,12.6-12.6,12.6H29.8c-6.9,0-12.6-5.6-12.6-12.6V24.2c0-6.9,5.6-12.6,12.6-12.6H174
		c6.9,0,12.6,5.6,12.6,12.6V168.4z"/>
	<path class="st1" d="M172.7,15.9H30.5c-5.2,0-9.4,4.2-9.4,9.4v142.1c0,5.2,4.2,9.4,9.4,9.4h142.1c5.2,0,9.4-4.2,9.4-9.4V25.3
		C182.1,20.1,177.9,15.9,172.7,15.9z"/>
	<g>
		<path class="st2" d="M124.4,120.8c-1.9,13.6-13.6,24.2-27.7,24.2c-15.4,0-28-12.6-28-28c0-10,5.2-18.7,13.1-23.7L81,80.8
			c-14,6.1-23.7,20-23.7,36.2c0,21.8,17.7,39.5,39.5,39.5c14.8,0,27.7-8.2,34.5-20.3L124.4,120.8z"/>
	</g>
	<path class="st2" d="M159.4,134.4l-3.1-8.5l-11.2,4.1l-12.7-34.6l-0.1,0v0H95.9l-0.4-5.8h27.3V79.3h-28l-1.4-21.5
		c5.2-0.8,9.3-5.3,9.3-10.8c0-6-4.9-10.9-10.9-10.9c-6,0-10.9,4.9-10.9,10.9c0,2.3,0.7,4.4,1.9,6.2l3.5,52.3h0v0.2h38.9l13.3,36.3
		l0.1,0l0,0L159.4,134.4z"/>
</g>
</svg>
