<?xml version="1.0" encoding="utf-8"?>
<!-- Generator: Adobe Illustrator 21.1.0, SVG Export Plug-In . SVG Version: 6.00 Build 0)  -->
<svg version="1.1" id="Layer_1" xmlns="http://www.w3.org/2000/svg" xmlns:xlink="http://www.w3.org/1999/xlink" x="0px" y="0px"
	 viewBox="0 0 203 202" style="enable-background:new 0 0 203 202;" xml:space="preserve">
<style type="text/css">
	.st0{fill:#FEE503;stroke:#000000;stroke-width:0.25;}
</style>
<g id="_x3C_CURVES_Sign_x3E__1_">
	<path class="st0" d="M95.8,196.3c3,3,7.8,3,10.8,0l89.7-89.7c3-3,3-7.8,0-10.8L106.5,6.1c-3-3-7.8-3-10.8,0L6,95.8
		c-3,3-3,7.8,0,10.8L95.8,196.3z"/>
	<path d="M9.5,104.6l88.2,88.2c1.9,1.9,4.9,1.9,6.8,0l88.2-88.2c1.9-1.9,1.9-4.9,0-6.8L104.5,9.5c-1.9-1.9-4.9-1.9-6.8,0L9.5,97.8
		C7.6,99.7,7.6,102.7,9.5,104.6z M12.9,99.5L99.2,13c1-1,2.6-1,3.6,0l86.5,86.3c1,1,1,2.6,0,3.6l-86.4,86.4c-1,1-2.6,1-3.6,0
		l-86.4-86.2C11.9,102.1,11.9,100.5,12.9,99.5z"/>
	<path d="M132,100.2c-0.3-9.2-6-16.5-11.7-19.7c-3.1-1.7-5.9-2.5-8.1-3.1c-1.5-0.4-2.6-0.7-3.5-1.2c-0.4-0.3-1-1.2-1.2-1.7
		c0-2.2,0-4.4,0-6.1h1.2l9.9,2.5c0,0,2.4,0.7,4.4-1.3c1.9-1.9,0.5-4.5,0.5-4.5L98.3,28.4L73,65.1c0,0-1.4,2.6,0.5,4.5
		s4.4,1.3,4.4,1.3l9.9-2.5h1.1c0,1.7,0,4.2,0,6.6c0,6.7,4.9,14.6,11.1,17.8c2.9,1.5,5.4,2.2,7.5,2.7c1.7,0.5,2.7,0.7,3.7,1.3
		c0.5,0.3,2.1,1.9,2.2,3.9c0.1,2.2-0.6,3-2.1,4c-2.1,1.4-7.6,3.3-10.5,4.3c-1,0.4-1.9,0.7-2.7,0.9c-14.3,5.2-16,16.5-16.1,21.1
		c-0.2,13,8.1,19,12.1,21.8l0.9,0.6c2.3,1.7,2.3,1.8,2.2,4.1v8.9h18.6v-8.7c0.1-3.9,0.1-12-9.7-19.3l-1.1-0.8
		c-3.3-2.4-4.4-3.3-4.3-6.4c0-1.1,0-2.5,3.9-3.9c0.7-0.2,1.5-0.5,2.4-0.8c4.5-1.6,10.6-3.7,14.7-6.4
		C130.5,114.3,132.2,106.1,132,100.2z"/>
</g>
</svg>
