<?xml version="1.0" encoding="utf-8"?>
<!-- Generator: Adobe Illustrator 21.1.0, SVG Export Plug-In . SVG Version: 6.00 Build 0)  -->
<svg version="1.1" id="Layer_1" xmlns="http://www.w3.org/2000/svg" xmlns:xlink="http://www.w3.org/1999/xlink" x="0px" y="0px"
	 viewBox="0 0 203 202" style="enable-background:new 0 0 203 202;" xml:space="preserve">
<style type="text/css">
	.st0{fill:#FFFFFF;stroke:#000000;stroke-width:0.2395;}
	.st1{fill:#CC1612;}
	.st2{fill:#FFFFFF;}
</style>
<g id="_x3C_YIELD_Sign_x3E_">
	<path class="st0" d="M111.5,182.3c-5.9,10.3-15.7,10.3-21.6,0L5,35.2c-5.9-10.3-1.1-18.7,10.8-18.7h169.8
		c11.9,0,16.7,8.4,10.8,18.7L111.5,182.3z"/>
	<path class="st1" d="M8.4,31.8C5,25.9,7.8,21.1,14.6,21.1h172.3c6.8,0,9.6,4.8,6.2,10.7L106.9,181c-3.4,5.9-9,5.9-12.3,0L8.4,31.8z
		"/>
	<path class="st2" d="M56.5,59.6c-3.4-5.9-0.6-10.7,6.2-10.7h76.1c6.8,0,9.6,4.8,6.2,10.7l-38.1,65.9c-3.4,5.9-9,5.9-12.3,0
		L56.5,59.6z"/>
</g>
</svg>
